<?xml version="1.0" encoding="utf-8"?>
<!-- Generator: Adobe Illustrator 19.1.0, SVG Export Plug-In . SVG Version: 6.00 Build 0)  -->
<svg version="1.1" id="Family" xmlns="http://www.w3.org/2000/svg" xmlns:xlink="http://www.w3.org/1999/xlink" x="0px" y="0px"
	 viewBox="-412 76 130 211.1" style="enable-background:new -412 76 130 211.1;" xml:space="preserve">
<image style="display:none;overflow:visible;enable-background:new    ;" xlink:href="13F403099542B6AA.jpeg"  transform="matrix(1 0 0 1 -530 -44)">
</image>
<g>
	<g>
		<path class="fill-color" d="M-364,210.4c-6.9,5.5-22.1,10.1-30,9.9c-1.8-0.1-3.1-0.4-4-0.9c-3.2,0.9-3.6-3.9-4.2-1.8
			c-2.2,8.7-3.3,14.5-1.7,13.4c5.4-3.8,27.2-0.7,35.7,3.1c1.3,0.6,2.7,0.8,4.2,0.9C-364,223.9-364,214.1-364,210.4z"/>
	</g>
	<circle class="fill-color" cx="-324" cy="96" r="20"/>
	<circle class="fill-color" cx="-373.4" cy="110.2" r="18"/>
	<circle class="fill-color" cx="-348.4" cy="184.4" r="10"/>
	<path class="fill-color" d="M-331.9,244.9c1.3-0.6,1.8-4.7,2.3-6.7c0.2-0.8,0.4-1.4,0.5-1.8c1.7-5.2,1.4-11.8,0.9-17.6
		c-0.2-2.3-0.3-4.5-0.4-6.4c-0.2-4.6-0.4-8.2-1.7-10.7c-1.5-2.8-6.1-4.3-8.1-4.3c-0.9,0-2.3,0.3-3.9,0.6c-2.1,0.4-4.4,0.9-6.7,0.9
		c-4.4,0.2-8.9-0.6-10.9-1c-0.3-0.1-0.6-0.1-0.7-0.1c-3.3-0.3-7,2.9-10.9,6.2c-2.3,2-4.7,4-7.1,5.4c-2.9,1.8-7.4,3-11.3,4
		c-3.5,0.9-8.3,2.2-8.6,3.4c0,0.1,0.1,0.4,0.4,0.7c0.2,0.2,0.9,0.7,3.4,0.8c8.3,0.2,25.2-5,31.1-10.6c0.2-0.2,0.4-0.3,0.7-0.3
		c0.1,0,0.3,0,0.4,0.1c0.4,0.2,0.6,0.5,0.6,0.9c0,0.7,0.3,70.3,0.3,73.5c0,3.1,0,3.8,1.9,4c0.6,0.1,7.6,0.1,8-0.3
		c0.6-0.6,0.7-2.6,0.7-4.1c0-5.4,1.2-37.3,1.2-38.6c0-0.5,1-0.5,1,0c0.1,1.5,1.5,36.2,1.5,38.6c0,2.2,0,3.6,0.5,4
		c0.5,0.4,2.3,0.4,5,0.4c2.9,0,4.3-0.3,4.8-1c0.6-0.8,0.6-2.4,0.6-5v-68.7c0-0.5,0.4-1,1-1c0,0,0,0,0,0c0.5,0,1,0.4,1,1
		c0,1.1,1.2,27.8,1.1,31.6C-333.6,244.7-333.2,245.5-331.9,244.9z"/>
	<path class="fill-color" d="M-317.7,133.9l-4.3,4.3c-1.2,1.2-3.2,1.2-4.3,0l-4.3-4.3c-1.2-1.2-1.2-3.2,0-4.3l4.3-4.3
		c1.2-1.2,3.2-1.2,4.3,0l4.3,4.3C-316.5,130.7-316.5,132.6-317.7,133.9z"/>
	<path class="fill-color" d="M-320.2,138.5l-1.2,1.2c-0.7,0.7-1.6,1-2.6,1s-1.9-0.4-2.6-1l-1.3-1.3l-5,4.9l8.8,35.2l8.7-35.2L-320.2,138.5z
		"/>
	<path class="fill-color" d="M-363.5,282.1c0-1.8-0.1-25.5-0.2-45.3c-1.7-0.1-3.3-0.3-4.8-0.9c-0.4-0.2-0.9-0.4-1.4-0.5v48.5
		c0,1.9,1.5,3.3,3.4,3.3h4.3C-363.1,286.4-363.5,284.9-363.5,282.1z"/>
	<path class="fill-color" d="M-392.1,231.3v52.4c0,1.9,1.5,3.3,3.4,3.3h8.8c1.8,0,3.3-1.6,3.4-3.3v-50.4
		C-381.7,232.1-387.3,231.4-392.1,231.3z"/>
	<path class="fill-color" d="M-346.7,196.1c-0.5,0.1-1,0.1-1.5,0.1c-3.8,0-7.1-1.8-9.3-4.5c0,0,0,0,0,0c-1.6-2-2.5-4.6-2.5-7.3
		c0-5.3,3.5-9.8,8.2-11.3c0-0.2-0.1-0.4-0.1-0.6c-1.2-5.4-2-9.1-1.8-9.8c1.1-2.7,2.3-4.3,3.2-5.2l0.1-18.6c-2.7-2-7.1-4.1-11.1-2.8
		c-6.1,2-15.2,1.6-23.7,0c-3.4-0.7-7.3,0.8-10,3.4c-15,14.3-15.9,39.3-13.6,58.1c1,8.3,6.2,16,7,17.5s1.5,1.7,1.6,1.3
		c0.4-1.4,2.3-2.4,5.1-3.2c-0.2-1.5-0.6-4.3-1-6.4c-0.2-1.1-0.7-3.2-1.1-5.3c-0.1-0.4-0.2-0.7-0.3-1.1c-2.1-6.5-4.4-13.2-2.7-18.7
		c2.6-8.7,4.8-15.8,5.7-18.5c0.2-0.8,0.7-0.8,1.1-0.1c1.1,1.8,2.9,5.4,2.2,9.8c-1,6.2-3,14.6-5.2,23c0.7,3,1.9,8.2,2.4,10.4
		c0.4,2.1,0.8,4.7,1,6.2c0.9-0.3,1.8-0.5,2.8-0.8c3.8-1,8.2-2.2,10.9-3.8c2.3-1.3,4.6-3.3,6.8-5.2c4.2-3.6,8.1-7,12.2-6.7
		c0.2,0,0.4,0.1,0.8,0.1c1.9,0.3,6.2,1.1,10.5,1c0.8,0,1.7-0.1,2.6-0.2C-346.6,196.6-346.7,196.3-346.7,196.1z"/>
	<path class="fill-color" d="M-282.8,160.8c-1.3-14.1-0.5-25.1-4.1-32c-3.1-6-13.3-9.1-17.6-9.1c-0.9,0-1.8,0-2.9,0l-13.4,70.1h-5.2
		l-14.7-70.8c-1.8-0.1-3-0.1-3.5-0.2c-2.2-0.4-6.4-0.4-11.6-0.1c-3.2,6.5-9.9,11.1-17.6,11.1c-5.1,0-9.7-2-13.2-5.2
		c-2.1,0.8-4.1,1.7-5.7,2.7c-13.2,7.8-24.5,26.1-17.6,30.9c0.6,0.4,1.1,0.7,1.6,0.8c2.3-8,6.1-15.3,12.2-21
		c2.8-2.6,6.9-4.1,10.4-3.4c8.8,1.6,18.2,2,24.5,0c6-2.3,10.9,1.6,12.8,3.4l0.1,34.5c6.5,0,11.8,5.4,11.8,11.9
		c0,5.6-3.9,10.3-9.1,11.6c0,0.2,0.1,0.4,0.1,0.5c0.9-0.2,1.8-0.3,2.7-0.5c1.7-0.3,3.2-0.6,4.3-0.6c2.5,0,8,1.8,9.9,5.4
		c1.4,2.9,1.6,6.7,1.9,11.5c0.1,2,0.2,4,0.4,6.3c0.6,6,0.9,12.9-0.9,18.4c-0.1,0.4-0.3,1-0.4,1.7c-0.6,2.4-1.4,5.7-2.6,7.4
		c-0.8,1.2-2,1.8-3.1,1.4c-0.5-0.2-0.9-0.4-1.2-0.9v33.5c0,3,0,4.9-1,6.2c-0.2,0.3-0.5,0.5-0.7,0.7c7.5,0.1,9.7,0.7,9.7-10
		c0-5.8,1.4-47.2,1.4-47.3l0-23.4c0-0.6,0.4-1,1-1c0.6,0,1,0.4,1,1c0,0,1.7,68.2,1.7,70.8c0,10,0,10,11.9,10
		c11.9,0,11.4-2.5,11.4-13.1c0-5.1,0-67.7,0-102.7l-1.1-23.3c0-0.6,0.4-1,1-1c0.6,0,1,0.4,1,1l0.8,18.2c0.6,10.1,1,23.9,0.2,39.8
		c-0.2,4.3,1.9,3.4,6.4,1c2.6-1.4,4.5-9.7,5.4-12.6C-281.4,184.7-281.7,172.6-282.8,160.8z"/>
</g>
</svg>
