<svg xmlns="http://www.w3.org/2000/svg" viewBox="0 0 960 300"><title>finding-work-frames-revised2</title><g class="desktopBackground"><path d="M0-28.42h960v360H0v-360z" fill="#11b6e2"/><path d="M703.2 246.6l3.5-39.2-9.1-5.3 18.5-40.4-25 16.6-8.1-8.8-31-38.1-8.4 19.3-5.4.9-22.9 48.9L359.8 33.7l-94.3 201.6-55.1-1.3-35.6 77h564l29-64z" fill="#1296cd"/><path d="M557.1 225.8s-35 .5-44.7-2.3-6.5-20.8-6.5-20.8h-34.3s4 18.3-6.5 20.8-44.7 2.3-44.7 2.3c-2 0-3.7 1-3.7 2.3v3.2c0 1.3 1.7 2.3 3.7 2.3H557c2 0 3.7-1 3.7-2.3v-3.2c.1-1.3-1.5-2.3-3.6-2.3z" fill="#808283"/><path d="M512.4 223.4c-9.7-2.8-6.5-20.8-6.5-20.8h-34.3s4 18.3-6.5 20.8h47.3z" fill="#6a6b6c"/><path d="M609.7 207.2H367.9a10 10 0 0 1-10-10V39.4a10 10 0 0 1 10-10h241.9a10 10 0 0 1 10 10v157.8a10.18 10.18 0 0 1-10.1 10z" fill="#1c1b1a"/><path d="M612.1 182.9H366.7a.27.27 0 0 1-.3-.3V42a.27.27 0 0 1 .3-.3h245.4a.27.27 0 0 1 .3.3v140.6a.27.27 0 0 1-.3.3z" fill="#e9e9e9"/><path d="M366.4 37.8h246v22.3h-246V37.8z" fill="#1296cd"/><path d="M378.1 82.2h127.8v7.7H378.1v-7.7zm135.2-1.3H601v62.5h-87.7V80.9zM366.4 166.8h82.2v16.4h-82.2v-16.4z" fill="#f59819"/><path d="M378.1 136.8h127.8v2.8H378.1v-2.8zm0-6h127.8v2.8H378.1v-2.8zm0-6h127.8v2.8H378.1v-2.8zm0-12h127.8v2.8H378.1v-2.8zm0-6h127.8v2.8H378.1v-2.8zm0-6h127.8v2.8H378.1v-2.8zm0-6h127.8v2.8H378.1v-2.8z" fill="#808283"/><path d="M448.2 166.8h82.2v16.4h-82.2v-16.4z" fill="#f1821a"/><path d="M530.2 166.8h82.2v16.4h-82.2v-16.4zM366.4 59.3h246V66h-246v-6.7z" fill="#dd5a18"/><path d="M366.4 37.8h246v145.4h-246V37.8z" fill="none" stroke="#393939" stroke-miterlimit="10"/><g><path d="M236.5 255.6H253v54.3h-16.5v-54.3z" fill="#6a6b6c"/><path d="M255.8 259.6h-22.1a4.91 4.91 0 0 1-4.9-4.9V252a4.91 4.91 0 0 1 4.9-4.9h22.1a4.91 4.91 0 0 1 4.9 4.9v2.7a4.78 4.78 0 0 1-4.9 4.9z" fill="#808283"/><path d="M723.5 255.6H740v54.3h-16.5v-54.3z" fill="#6a6b6c"/><path d="M742.8 259.6h-22.1a4.91 4.91 0 0 1-4.9-4.9V252a4.91 4.91 0 0 1 4.9-4.9h22.1a4.91 4.91 0 0 1 4.9 4.9v2.7a4.78 4.78 0 0 1-4.9 4.9z" fill="#808283"/><path d="M765.1 250H213.6a4.48 4.48 0 0 1-4.5-4.5v-9a4.48 4.48 0 0 1 4.5-4.5h551.5a4.48 4.48 0 0 1 4.5 4.5v9a4.48 4.48 0 0 1-4.5 4.5z" fill="#654123"/></g><g><path d="M706.4 232.2h-36.3l-3-38.6h42.4z" fill="#f1821a"/><path d="M688.1 212.9a4.23 4.23 0 0 1-4.2-4.2v-24.1a4.2 4.2 0 0 1 8.4 0v24.1a4.1 4.1 0 0 1-4.2 4.2z" fill="#654123"/><path d="M692.5 232.2h-22.4l-3-38.6h42.4z" fill="#dd5a18"/><path d="M702.7 171.3c4.4-12.3 8.8-24.7 13.2-37 1.2-3.3 2.3-7 .9-10.1a134.29 134.29 0 0 1-18.9 44 102 102 0 0 0-.7-16.6 104.29 104.29 0 0 1 7.4-15.9c-4.2 1-7.1 4.5-9 8.5a32.56 32.56 0 0 0-4.8-9.7c2.1 4 1.5 8.8 1.4 13.3 0 2 .1 4.1.3 6.1-1.1 4.3-2.2 8.6-5 12-1-12.1-1.8-25.2 4.6-35.6 1.6-2.6 3.6-5 5-7.8s2-6.2.6-8.9c-4.9 9-9.9 17.9-14.8 26.9-2.1 3.8-3.4 10.2-4.1 14.4-.4-1-.8-2.1-1.2-3.1a36 36 0 0 0-3.4-6.8 2.84 2.84 0 0 0-1.6-1.3c-.8-.1-1.4.8-1.6 1.7a9 9 0 0 0 .4 2.8c.2.7.4 1.4.7 2.2-1.9-2.7-3.9-5.4-5.3-7.3-3.8-5.1-8.9-9.4-15-11.3 1.4 3 2.7 6.1 4.1 9.1a29.27 29.27 0 0 0 3.6 6.5 41.87 41.87 0 0 0 6.1 5.8 57.26 57.26 0 0 1 14.9 20.8c-5.2-6.8-10.5-13.8-17.7-18.6s-16.5-7-24.4-3.7a52.27 52.27 0 0 0 25.8 14.9s10.1 5 14.6 7.7c4.9 3 6.1 15.2 8.3 14.8a2.36 2.36 0 0 0 .9-.6c1.3-1.1 3.7-2.3 6.6-5.1 8.4-8.1 21.6-22 28.8-29.1 5.8-5.7 11.5-11.5 15.6-18.5-12 11.7-24.1 23.6-36.3 35.5zM691 180c.2-1.3.4-2.6.5-3.6a86.79 86.79 0 0 1 2.1-12.4c.1 1.1.1 2.2.1 3.3.1 3.8-1.3 8.8-2.7 12.7z" fill="#038c3c"/><path d="M733.1 115a491.33 491.33 0 0 1-34.3 57.6c5-17.7 10-36.7 4.4-54.3-3 18.4-5.9 36.8-8.9 55.1-3.1-18.5 5.9-38.2-.5-55.8a41.14 41.14 0 0 0-8.3 16.4c-2.4 10.6.5 20.7 3.5 30.9a20.48 20.48 0 0 1 .5 6.4c-1.6-6.4-4.1-14.5-6-20.1a48.09 48.09 0 0 0 .9 22c.8 3 2 6 2.2 9.1v2.5a21.61 21.61 0 0 0-3.9-5.9c-5.9-6.8-7.2-14.4-12.8-20a8.72 8.72 0 0 0-3.8-2.5 4.59 4.59 0 0 0-4.4.6 2.29 2.29 0 0 0-.7 1 1.8 1.8 0 0 0 .3 1.2 110.86 110.86 0 0 0 12.1 21.5 15.61 15.61 0 0 0 3.2 3.6c2.5 1.9 10.6 5.7 10.9 5.4 2.8 0 5-3.3 6.5-5.7s2.4-5.2 4.3-7.2c2.1-2.2 5.1-3.2 7.6-4.9 4-2.8 6.3-7.2 8.6-11.5 5.2-9.8 10.3-19.6 15.5-29.4 2.7-5 5.4-10.8 3.1-16z" fill="#2dab3a"/></g><g><path d="M314.89 174.47l4 .52-3.76 28.75-4-.52z" fill="#f59819"/><path d="M319.4 170.9l-4-.5.4-2.9a1.17 1.17 0 0 1 1.1-.9l2 .3a1.17 1.17 0 0 1 .9 1.1l-.4 2.9z" fill="#e3077e"/><path d="M315.52 171.08l3.67.48-.43 3.27-3.67-.48z" fill="#959696"/><path d="M315 174.05l4 .52-.1.79-4-.52zM315.47 170.46l4 .52-.13 1-4-.52z" fill="#bec0bf"/><path d="M316.1 166.9l3.6.5a1.08 1.08 0 0 0-.8-.5c-.6-.1-1.5-.2-2-.3a1.2 1.2 0 0 0-.8.3z" fill="#ea689d"/><g><path d="M324.87 175.81l3.89.91-6.61 28.28-3.89-.91z" fill="#f59819"/><path d="M329.7 172.8l-3.9-.9.7-2.9a1 1 0 0 1 1.2-.7l2 .5a1 1 0 0 1 .7 1.2l-.7 2.8z" fill="#e3077e"/><path d="M326.8 168.4l3.5.9a.82.82 0 0 0-.7-.6 11.7 11.7 0 0 1-2-.5 1.09 1.09 0 0 0-.8.2z" fill="#ea689d"/><path d="M325.84 172.41l3.6.84-.75 3.21-3.6-.84z" fill="#959696"/><path d="M324.95 175.43l3.89.91-.18.78-3.89-.91zM325.78 171.83l3.89.91-.23 1-3.89-.91z" fill="#bec0bf"/></g><g><path d="M318.7 178.1l3.62.75-5.52 26.63-3.62-.75z" fill="#f4f4f4"/><path d="M321.7 185.9l-4.8-1 3.5-17.1a1 1 0 0 1 1.2-.8l2.8.6a1 1 0 0 1 .8 1.2z" fill="#1f6fb5"/><path d="M324.9 174.6l-2.4 11.5-2.5-.5 2.4-11.5a1.43 1.43 0 0 1 1.7-1.3 1.11 1.11 0 0 1 .8 1.8z" fill="#1296cd"/><path d="M324.3 173.2c1 .2.6 1.4.6 1.4l-2.8 13.6a.69.69 0 0 1-.8.5l-.8-.2a.69.69 0 0 1-.5-.8l2.8-13.6a1.17 1.17 0 0 1 1.5-.9z" fill="#1f6fb5"/></g><path d="M296.8 196.6h27.3v35.5h-27.3v-35.5z" fill="#038c3c"/><path d="M324.4 198h-27.9a.9.9 0 0 1-.9-.9v-2.8a.9.9 0 0 1 .9-.9h27.9a.9.9 0 0 1 .9.9v2.8a.9.9 0 0 1-.9.9z" fill="#2dab3a"/></g></g><g class="firstFrame"><path d="M471.5 68.3a76 76 0 0 0-134.08 21.64l-2.76 12.16a76 76 0 0 0 136.84 55.23v-89z" fill="#1296cd"/><path d="M356.13 59.06q-2.72 2.72-5.11 5.65v96.2q2.39 2.92 5.11 5.65a76 76 0 1 0 0-107.5z" fill="#1c1b1a"/><path d="M359.89 55.57v114.49A75.44 75.44 0 0 0 382 183.51h55.8a76 76 0 1 0-77.91-127.94z" fill="#fff"/><path d="M374.56 71v3.19h4v1.6h-4v4.38h-2V69.38h6.8V71h-4.79zM381.83 73.84a3.29 3.29 0 0 1 .85-1.08 1.81 1.81 0 0 1 1.16-.39 1.42 1.42 0 0 1 .85.23l-.12 1.4a.36.36 0 0 1-.11.19.3.3 0 0 1-.19.05h-.33a2.59 2.59 0 0 0-.43 0 1.54 1.54 0 0 0-.55.09 1.37 1.37 0 0 0-.43.26 1.75 1.75 0 0 0-.34.41 4 4 0 0 0-.27.55v4.71h-1.82v-7.74h1.08a.45.45 0 0 1 .55.46zM388.83 72.4a4.18 4.18 0 0 1 1.55.27 3.39 3.39 0 0 1 1.19.78 3.44 3.44 0 0 1 .76 1.24 5.12 5.12 0 0 1 0 3.29 3.51 3.51 0 0 1-.76 1.25 3.34 3.34 0 0 1-1.19.79 4.17 4.17 0 0 1-1.55.27 4.22 4.22 0 0 1-1.56-.27 3.33 3.33 0 0 1-1.2-.79 3.56 3.56 0 0 1-.77-1.25 5.06 5.06 0 0 1 0-3.29 3.48 3.48 0 0 1 .77-1.24 3.38 3.38 0 0 1 1.2-.78 4.23 4.23 0 0 1 1.56-.27zm0 6.46a1.62 1.62 0 0 0 1.4-.65 3.19 3.19 0 0 0 .46-1.88 3.23 3.23 0 0 0-.46-1.88 1.61 1.61 0 0 0-1.41-.65 1.64 1.64 0 0 0-1.43.65 3.22 3.22 0 0 0-.47 1.88 3.18 3.18 0 0 0 .47 1.88 1.64 1.64 0 0 0 1.44.65zM395.73 73.45a5 5 0 0 1 .49-.43 3.09 3.09 0 0 1 .55-.34 3 3 0 0 1 1.33-.3 2.74 2.74 0 0 1 1.11.21 2.19 2.19 0 0 1 .82.6 2.63 2.63 0 0 1 .49.92 3.9 3.9 0 0 1 .17 1.17v4.87h-1.84V75.3a1.64 1.64 0 0 0-.32-1.1 1.2 1.2 0 0 0-1-.38 1.92 1.92 0 0 0-.9.22 3.2 3.2 0 0 0-.79.59v5.53H394v-7.64h1.13a.45.45 0 0 1 .47.34zM404.86 80.29a2 2 0 0 1-1.53-.56 2.17 2.17 0 0 1-.53-1.56V73.9h-.8a.36.36 0 0 1-.25-.1.38.38 0 0 1-.1-.29v-.73l1.23-.2.39-2.09a.41.41 0 0 1 .14-.23.42.42 0 0 1 .27-.08h1v2.41h2v1.31h-2V78a.82.82 0 0 0 .18.55.61.61 0 0 0 .48.2.86.86 0 0 0 .27 0l.2-.08.15-.08a.26.26 0 0 1 .13 0 .21.21 0 0 1 .13 0 .63.63 0 0 1 .11.12l.55.9a2.79 2.79 0 0 1-.93.51 3.45 3.45 0 0 1-1.09.17zM407.8 74.89h3.86v1.54h-3.86v-1.54zM415.73 71v3h3.77v1.54h-3.77v3h4.79v1.6h-6.8V69.38h6.8V71h-4.79zM423.56 73.45A5 5 0 0 1 424 73a3.09 3.09 0 0 1 .55-.34 3 3 0 0 1 1.33-.3 2.74 2.74 0 0 1 1.11.21 2.19 2.19 0 0 1 .82.6 2.63 2.63 0 0 1 .49.92 3.9 3.9 0 0 1 .17 1.17v4.87h-1.84V75.3a1.64 1.64 0 0 0-.32-1.1 1.2 1.2 0 0 0-1-.38 1.92 1.92 0 0 0-.9.22 3.2 3.2 0 0 0-.79.59v5.53h-1.84v-7.64H423a.45.45 0 0 1 .47.34zM436.89 69.09v11.08h-1.13a.43.43 0 0 1-.46-.34l-.16-.74a3.86 3.86 0 0 1-1.06.86 2.87 2.87 0 0 1-1.4.33 2.49 2.49 0 0 1-2-1 3.62 3.62 0 0 1-.58-1.23 6.19 6.19 0 0 1-.21-1.67 5.22 5.22 0 0 1 .23-1.58 3.83 3.83 0 0 1 .66-1.27 3.09 3.09 0 0 1 1-.84 3 3 0 0 1 1.37-.3 2.7 2.7 0 0 1 1.1.2 2.81 2.81 0 0 1 .82.55v-4h1.82zM435 74.47a1.82 1.82 0 0 0-.68-.55 2 2 0 0 0-.79-.16 1.76 1.76 0 0 0-.75.16 1.52 1.52 0 0 0-.57.47 2.28 2.28 0 0 0-.36.8 4.62 4.62 0 0 0-.13 1.15 5.1 5.1 0 0 0 .11 1.14 2.24 2.24 0 0 0 .31.76 1.18 1.18 0 0 0 .49.42 1.57 1.57 0 0 0 .65.13 1.88 1.88 0 0 0 1-.24 2.9 2.9 0 0 0 .76-.68v-3.4zM444.64 71v3h3.77v1.54h-3.77v3h4.79v1.6h-6.8V69.38h6.8V71h-4.79zM452.46 73.45A5 5 0 0 1 453 73a3.09 3.09 0 0 1 .55-.34 3 3 0 0 1 1.33-.3 2.74 2.74 0 0 1 1.11.21 2.19 2.19 0 0 1 .82.6 2.63 2.63 0 0 1 .49.92 3.9 3.9 0 0 1 .17 1.17v4.87h-1.84V75.3a1.64 1.64 0 0 0-.32-1.1 1.2 1.2 0 0 0-1-.38 1.92 1.92 0 0 0-.9.22 3.2 3.2 0 0 0-.79.59v5.53h-1.86v-7.64h1.13a.45.45 0 0 1 .47.34zM465.86 72.78v.68a.4.4 0 0 1-.39.4l-.69.13a2.33 2.33 0 0 1 .16.87 2.24 2.24 0 0 1-.86 1.8 3 3 0 0 1-1 .5 3.86 3.86 0 0 1-1.18.18h-.43l-.41-.06a.6.6 0 0 0-.36.48.36.36 0 0 0 .21.34 1.74 1.74 0 0 0 .56.15 7.82 7.82 0 0 0 .8.05 8.81 8.81 0 0 1 .92 0 7.36 7.36 0 0 1 .92.13 2.69 2.69 0 0 1 .8.3 1.57 1.57 0 0 1 .56.55 1.68 1.68 0 0 1 .21.89 2.1 2.1 0 0 1-.25 1 2.65 2.65 0 0 1-.72.85 3.78 3.78 0 0 1-1.16.6 5 5 0 0 1-1.57.23 6 6 0 0 1-1.51-.17 3.59 3.59 0 0 1-1.07-.45 1.93 1.93 0 0 1-.63-.65 1.51 1.51 0 0 1-.21-.76 1.3 1.3 0 0 1 .32-.9 2.25 2.25 0 0 1 .89-.58 1.28 1.28 0 0 1-.48-.42 1.19 1.19 0 0 1-.18-.68 1.08 1.08 0 0 1 .06-.35 1.52 1.52 0 0 1 .19-.36 1.78 1.78 0 0 1 .31-.34 2.14 2.14 0 0 1 .44-.27 2.41 2.41 0 0 1-.91-.82 2.36 2.36 0 0 1 .53-3 2.89 2.89 0 0 1 1-.5 4.34 4.34 0 0 1 2.14-.07 3.16 3.16 0 0 1 .79.3h2.19zM464 80.51a.51.51 0 0 0-.13-.36.88.88 0 0 0-.36-.22 2.71 2.71 0 0 0-.55-.11l-.66-.05h-.71q-.37 0-.72-.06a1.72 1.72 0 0 0-.5.4.82.82 0 0 0-.19.55.74.74 0 0 0 .1.38.84.84 0 0 0 .32.3 1.92 1.92 0 0 0 .57.2 5.14 5.14 0 0 0 1.74 0 2.14 2.14 0 0 0 .62-.22.93.93 0 0 0 .35-.33.8.8 0 0 0 .12-.44zm-2-4.36a1.72 1.72 0 0 0 .6-.09 1.17 1.17 0 0 0 .4-.26 1.06 1.06 0 0 0 .25-.39 1.45 1.45 0 0 0 .08-.51 1.2 1.2 0 0 0-.33-.9 1.73 1.73 0 0 0-2 0 1.2 1.2 0 0 0-.34.9 1.42 1.42 0 0 0 .08.5 1.1 1.1 0 0 0 .25.4 1.14 1.14 0 0 0 .42.27 1.73 1.73 0 0 0 .59.08zM469.19 70.28a1.05 1.05 0 0 1-.1.45 1.22 1.22 0 0 1-.63.62 1.15 1.15 0 0 1-.46.09 1.1 1.1 0 0 1-.45-.09 1.19 1.19 0 0 1-.37-.25 1.2 1.2 0 0 1-.25-.36 1.1 1.1 0 0 1-.09-.45 1.15 1.15 0 0 1 .09-.46 1.18 1.18 0 0 1 .25-.37 1.2 1.2 0 0 1 .37-.25 1.11 1.11 0 0 1 .45-.09 1.16 1.16 0 0 1 .46.09 1.23 1.23 0 0 1 .38.25 1.21 1.21 0 0 1 .26.37 1.12 1.12 0 0 1 .09.45zm-.25 2.23v7.65h-1.85v-7.64h1.85z" fill="#f59819"/><path d="M374.49 92a.33.33 0 0 1-.09.1.19.19 0 0 1-.11 0 .29.29 0 0 1-.15-.05l-.2-.12-.27-.12a1.13 1.13 0 0 0-.36-.05 1.09 1.09 0 0 0-.33 0 .7.7 0 0 0-.24.13.51.51 0 0 0-.14.2.64.64 0 0 0 0 .25.43.43 0 0 0 .1.29.81.81 0 0 0 .26.2 2.4 2.4 0 0 0 .36.15l.42.14.42.17a1.44 1.44 0 0 1 .36.25 1.1 1.1 0 0 1 .26.36 1.25 1.25 0 0 1 .1.52 1.69 1.69 0 0 1-.11.62 1.44 1.44 0 0 1-.33.5 1.56 1.56 0 0 1-.53.33 2 2 0 0 1-.72.12 2.32 2.32 0 0 1-.46 0 2.43 2.43 0 0 1-.43-.13 2.35 2.35 0 0 1-.39-.2 1.88 1.88 0 0 1-.33-.27l.27-.44a.29.29 0 0 1 .09-.08.22.22 0 0 1 .12 0 .33.33 0 0 1 .18.07l.14.06a1.81 1.81 0 0 0 .33.15 1.22 1.22 0 0 0 .43.07.89.89 0 0 0 .6-.19.66.66 0 0 0 .21-.53.49.49 0 0 0-.1-.33.79.79 0 0 0-.26-.21 1.9 1.9 0 0 0-.36-.14l-.41-.13-.41-.16a1.33 1.33 0 0 1-.36-.25 1.12 1.12 0 0 1-.26-.38 1.45 1.45 0 0 1-.1-.56 1.36 1.36 0 0 1 .42-1 1.52 1.52 0 0 1 .5-.31 1.84 1.84 0 0 1 .68-.12 2.28 2.28 0 0 1 .8.14 1.8 1.8 0 0 1 .62.38zM376.26 90.92v2.88H376.55a.27.27 0 0 0 .1-.09l.86-1.07a.4.4 0 0 1 .12-.11.35.35 0 0 1 .17 0h.77l-1.08 1.28a.89.89 0 0 1-.25.23.66.66 0 0 1 .13.12l.11.15 1.16 1.69h-.76a.41.41 0 0 1-.17 0 .27.27 0 0 1-.12-.12l-.89-1.33a.25.25 0 0 0-.1-.1.37.37 0 0 0-.15 0h-.19v1.59h-.84v-5h.85zM380 91.47a.48.48 0 0 1 0 .2.55.55 0 0 1-.29.28.52.52 0 0 1-.21 0 .5.5 0 0 1-.21 0 .54.54 0 0 1-.17-.11.55.55 0 0 1-.11-.17.49.49 0 0 1 0-.2.52.52 0 0 1 0-.21.53.53 0 0 1 .28-.28.51.51 0 0 1 .21 0 .52.52 0 0 1 .21 0 .56.56 0 0 1 .17.11.55.55 0 0 1 .12.17.51.51 0 0 1 0 .21zm-.12 1V96h-.84v-3.52h.84zM381.6 90.92v5h-.84v-5h.84zM383.29 90.92v5h-.84v-5h.84zM386.24 93.16a.22.22 0 0 1-.07.08h-.1a.3.3 0 0 1-.13 0l-.16-.08-.21-.08a1 1 0 0 0-.28 0 .64.64 0 0 0-.39.11.33.33 0 0 0-.14.28.26.26 0 0 0 .07.19.66.66 0 0 0 .19.13l.27.1.31.1.31.12a1.09 1.09 0 0 1 .27.18.82.82 0 0 1 .19.26.81.81 0 0 1 .07.36 1.17 1.17 0 0 1-.09.46 1 1 0 0 1-.27.36 1.26 1.26 0 0 1-.43.24 2 2 0 0 1-.95.05l-.33-.09a1.85 1.85 0 0 1-.29-.14 1.43 1.43 0 0 1-.24-.17l.19-.33a.27.27 0 0 1 .09-.09.25.25 0 0 1 .13 0 .27.27 0 0 1 .15 0l.16.11.22.1a.94.94 0 0 0 .31 0 .81.81 0 0 0 .26 0 .54.54 0 0 0 .18-.09.35.35 0 0 0 .1-.13.4.4 0 0 0 0-.16.28.28 0 0 0-.07-.2.64.64 0 0 0-.19-.14l-.28-.1-.33-.1-.31-.13a1.07 1.07 0 0 1-.28-.19.84.84 0 0 1-.19-.28 1 1 0 0 1-.07-.39 1 1 0 0 1 .09-.41 1 1 0 0 1 .25-.33 1.24 1.24 0 0 1 .41-.23 1.7 1.7 0 0 1 .57-.09 1.74 1.74 0 0 1 .66.12 1.48 1.48 0 0 1 .49.31zM387 93.08a.52.52 0 0 1 0-.2.49.49 0 0 1 .11-.16.52.52 0 0 1 .36-.15.5.5 0 0 1 .2 0 .54.54 0 0 1 .16.11.51.51 0 0 1 .15.36.5.5 0 0 1 0 .2.5.5 0 0 1-.11.16.51.51 0 0 1-.16.11.52.52 0 0 1-.2 0 .53.53 0 0 1-.2 0 .49.49 0 0 1-.16-.11.49.49 0 0 1-.11-.16.52.52 0 0 1-.04-.16zm0 2.41a.52.52 0 0 1 0-.2.49.49 0 0 1 .11-.16.52.52 0 0 1 .36-.15.5.5 0 0 1 .2 0 .54.54 0 0 1 .16.11.51.51 0 0 1 .11.56.5.5 0 0 1-.11.16.52.52 0 0 1-.36.15.53.53 0 0 1-.2 0 .48.48 0 0 1-.27-.27.51.51 0 0 1 0-.2zM373.64 103.31a2.45 2.45 0 0 1-.1.73 1.47 1.47 0 0 1-.3.54 1.28 1.28 0 0 1-.48.33 1.69 1.69 0 0 1-.66.12 2.6 2.6 0 0 1-.68-.1.78.78 0 0 1 0-.2v-.19a.15.15 0 0 1 0-.09.15.15 0 0 1 .11 0h.16a1 1 0 0 0 .27 0 1.1 1.1 0 0 0 .4-.07.71.71 0 0 0 .3-.21 1 1 0 0 0 .18-.36 2 2 0 0 0 .06-.53v-3.19h.66v3.18zM374.45 102a2 2 0 0 1 .61-.41 1.9 1.9 0 0 1 .73-.14 1.3 1.3 0 0 1 .51.1 1 1 0 0 1 .37.27 1.12 1.12 0 0 1 .23.41 1.71 1.71 0 0 1 .08.53V105h-.27a.26.26 0 0 1-.14 0 .2.2 0 0 1-.07-.11l-.07-.33-.27.22a1.51 1.51 0 0 1-.27.16 1.49 1.49 0 0 1-.3.1 1.66 1.66 0 0 1-.36 0 1.24 1.24 0 0 1-.37-.06.87.87 0 0 1-.31-.17.79.79 0 0 1-.21-.28 1 1 0 0 1-.08-.4.76.76 0 0 1 .11-.39 1 1 0 0 1 .36-.33 2.39 2.39 0 0 1 .66-.24 5 5 0 0 1 1-.11v-.26a.92.92 0 0 0-.17-.6.62.62 0 0 0-.5-.21 1.08 1.08 0 0 0-.37.06 1.4 1.4 0 0 0-.26.13l-.19.13a.28.28 0 0 1-.16.06.17.17 0 0 1-.11 0l-.07-.08zm1.95 1.4a5 5 0 0 0-.71.07 2 2 0 0 0-.48.14.66.66 0 0 0-.27.2.43.43 0 0 0-.08.26.57.57 0 0 0 0 .23.43.43 0 0 0 .12.16.48.48 0 0 0 .18.09.81.81 0 0 0 .22 0 1.24 1.24 0 0 0 .29 0 1.09 1.09 0 0 0 .25-.09 1.38 1.38 0 0 0 .22-.15l.21-.19v-.71zM380.78 101.56l-1.4 3.43h-.54l-1.4-3.43h.49a.19.19 0 0 1 .12 0 .19.19 0 0 1 .06.09l.87 2.21.07.25.06.24.06-.24q0-.12.07-.25l.88-2.21a.2.2 0 0 1 .07-.09.18.18 0 0 1 .11 0h.47zM381.17 102a2 2 0 0 1 .61-.41 1.9 1.9 0 0 1 .73-.14 1.3 1.3 0 0 1 .51.1 1 1 0 0 1 .37.27 1.12 1.12 0 0 1 .23.41 1.71 1.71 0 0 1 .08.53V105h-.27a.26.26 0 0 1-.14 0 .2.2 0 0 1-.07-.11l-.07-.33-.27.22a1.51 1.51 0 0 1-.27.16 1.49 1.49 0 0 1-.3.1 1.66 1.66 0 0 1-.36 0 1.24 1.24 0 0 1-.37-.06.87.87 0 0 1-.31-.17.79.79 0 0 1-.21-.28 1 1 0 0 1-.08-.4.76.76 0 0 1 .11-.39 1 1 0 0 1 .36-.33 2.39 2.39 0 0 1 .66-.24 5 5 0 0 1 1-.11v-.26a.92.92 0 0 0-.17-.6.62.62 0 0 0-.5-.21 1.08 1.08 0 0 0-.37.06 1.4 1.4 0 0 0-.26.13l-.19.13a.28.28 0 0 1-.16.06.17.17 0 0 1-.11 0l-.07-.08zm1.95 1.4a5 5 0 0 0-.71.07 2 2 0 0 0-.48.14.66.66 0 0 0-.27.2.43.43 0 0 0-.08.26.57.57 0 0 0 0 .23.43.43 0 0 0 .12.16.48.48 0 0 0 .18.09.81.81 0 0 0 .22 0 1.24 1.24 0 0 0 .29 0 1.09 1.09 0 0 0 .25-.09 1.38 1.38 0 0 0 .22-.15l.21-.19v-.71zM386.62 102.12a.13.13 0 0 1-.13.07.24.24 0 0 1-.12 0l-.16-.08-.21-.11a1.06 1.06 0 0 0-.31 0 .9.9 0 0 0-.28 0 .66.66 0 0 0-.21.11.47.47 0 0 0-.13.16.42.42 0 0 0 0 .2.33.33 0 0 0 .08.22.66.66 0 0 0 .2.15l.29.11.33.11.33.12a1.17 1.17 0 0 1 .29.17.78.78 0 0 1 .2.25.77.77 0 0 1 .08.35 1.12 1.12 0 0 1-.09.44 1 1 0 0 1-.25.35 1.21 1.21 0 0 1-.41.23 1.66 1.66 0 0 1-.55.08 1.73 1.73 0 0 1-.66-.12 1.66 1.66 0 0 1-.49-.3l.14-.23.06-.07h.1a.23.23 0 0 1 .13 0l.17.11.24.11a1.07 1.07 0 0 0 .33 0 .94.94 0 0 0 .31 0 .66.66 0 0 0 .22-.12.49.49 0 0 0 .13-.18.56.56 0 0 0 .06-.22.36.36 0 0 0-.08-.24.66.66 0 0 0-.2-.16 1.66 1.66 0 0 0-.29-.12l-.33-.1-.41-.11a1.16 1.16 0 0 1-.29-.18.79.79 0 0 1-.2-.26.84.84 0 0 1-.08-.37.91.91 0 0 1 .08-.38.93.93 0 0 1 .24-.33 1.16 1.16 0 0 1 .38-.22 1.53 1.53 0 0 1 .52-.08 1.66 1.66 0 0 1 .61.11 1.45 1.45 0 0 1 .46.29zM389.94 102.16l-.05.06h-.07a.2.2 0 0 1-.11 0l-.15-.09-.22-.09a1.19 1.19 0 0 0-.77 0 .86.86 0 0 0-.33.26 1.17 1.17 0 0 0-.2.41 2 2 0 0 0-.07.54 2 2 0 0 0 .07.55 1.18 1.18 0 0 0 .2.41.87.87 0 0 0 .31.25 1 1 0 0 0 .41.09 1 1 0 0 0 .6-.17l.16-.12a.2.2 0 0 1 .12-.05.13.13 0 0 1 .12.06l.17.22a1.2 1.2 0 0 1-.26.24 1.57 1.57 0 0 1-.31.17 1.66 1.66 0 0 1-.33.1 2.17 2.17 0 0 1-.36 0 1.5 1.5 0 0 1-.6-.12 1.36 1.36 0 0 1-.48-.33 1.61 1.61 0 0 1-.33-.55 2.45 2.45 0 0 1 0-1.46 1.6 1.6 0 0 1 .31-.56 1.41 1.41 0 0 1 .5-.37 1.69 1.69 0 0 1 .69-.13 1.62 1.62 0 0 1 .64.12 1.53 1.53 0 0 1 .49.33zM391.36 102.24a1.55 1.55 0 0 1 .4-.55.87.87 0 0 1 .58-.2h.21a.56.56 0 0 1 .18.07v.46a.1.1 0 0 1-.1.09h-.35a.82.82 0 0 0-.29 0 .66.66 0 0 0-.23.14 1 1 0 0 0-.18.23 2 2 0 0 0-.14.31V105h-.61v-3.43h.33a.19.19 0 0 1 .14 0 .23.23 0 0 1 0 .13zM394 100.48a.38.38 0 0 1 0 .17.47.47 0 0 1-.1.14.44.44 0 0 1-.14.09.42.42 0 0 1-.17 0 .4.4 0 0 1-.17 0 .43.43 0 0 1-.13-.09.46.46 0 0 1-.09-.14.4.4 0 0 1 0-.17.42.42 0 0 1 0-.17.45.45 0 0 1 .09-.14.43.43 0 0 1 .13-.09.4.4 0 0 1 .17 0 .42.42 0 0 1 .17 0 .43.43 0 0 1 .14.09.46.46 0 0 1 .1.14.4.4 0 0 1 0 .17zm-.13 1.08V105h-.6v-3.43h.6zM395.45 102.09a1.78 1.78 0 0 1 .5-.43 1.29 1.29 0 0 1 .66-.16 1.25 1.25 0 0 1 .54.11 1.1 1.1 0 0 1 .41.33 1.61 1.61 0 0 1 .26.55 2.83 2.83 0 0 1 .09.76 2.37 2.37 0 0 1-.1.71 1.7 1.7 0 0 1-.29.57 1.35 1.35 0 0 1-1.1.52 1.25 1.25 0 0 1-.54-.11 1.27 1.27 0 0 1-.4-.3v1.52h-.62v-4.6h.36a.15.15 0 0 1 .16.13zm0 2.07a1 1 0 0 0 .36.33 1 1 0 0 0 .44.09.87.87 0 0 0 .74-.33 1.6 1.6 0 0 0 .26-1 2.43 2.43 0 0 0-.06-.58 1.12 1.12 0 0 0-.17-.39.66.66 0 0 0-.28-.23.91.91 0 0 0-.37-.07 1 1 0 0 0-.52.14 1.49 1.49 0 0 0-.41.38v1.63zM399.68 105a.83.83 0 0 1-.62-.23.91.91 0 0 1-.22-.66V102h-.41a.13.13 0 0 1-.09 0 .13.13 0 0 1 0-.1v-.23l.56-.07.14-1.06a.15.15 0 0 1 0-.08.13.13 0 0 1 .09 0h.31v1.18h1v.36h-1v2.06a.44.44 0 0 0 .11.33.37.37 0 0 0 .27.11h.17l.12-.06.09-.06h.06a.1.1 0 0 1 .08.06l.18.29a1.12 1.12 0 0 1-.37.23 1.27 1.27 0 0 1-.47.04zM401 105.8l.09-.1.11-.14a1.39 1.39 0 0 0 .1-.18.89.89 0 0 0 .07-.21.37.37 0 0 1-.29-.12.42.42 0 0 1-.11-.3.37.37 0 0 1 .11-.27.39.39 0 0 1 .29-.11.41.41 0 0 1 .18 0 .37.37 0 0 1 .13.1.47.47 0 0 1 .08.15.62.62 0 0 1 0 .19 1.27 1.27 0 0 1 0 .33 1.55 1.55 0 0 1-.13.33 2 2 0 0 1-.2.31 1.87 1.87 0 0 1-.27.28zM408.4 100.13V105h-.66v-2.21h-2.6V105h-.66v-4.85h.66v2.17h2.62v-2.17h.65zM412.92 100.68h-1.57V105h-.66v-4.31h-1.57v-.55h3.8v.55zM418.69 100.13V105h-.58v-3.9l-1.66 3a.25.25 0 0 1-.24.15h-.1a.25.25 0 0 1-.24-.15l-1.7-3a3 3 0 0 1 0 .33V105h-.58v-4.85h.62a.2.2 0 0 1 .09.1l1.68 3 .08.17.07.18.07-.18a1.65 1.65 0 0 1 .08-.17l1.66-3a.18.18 0 0 1 .09-.1h.62zM422.68 104.43v.57h-2.75v-4.85h.66v4.31h2.09zM424 102a3.33 3.33 0 0 1 .7-.08 1.86 1.86 0 0 1 .66.11 1.36 1.36 0 0 1 .49.31 1.29 1.29 0 0 1 .3.46 1.66 1.66 0 0 1 .1.58 1.75 1.75 0 0 1-.13.7 1.57 1.57 0 0 1-.37.53 1.62 1.62 0 0 1-.55.33 2 2 0 0 1-1.1.08 2.13 2.13 0 0 1-.68-.28 1.81 1.81 0 0 1-.26-.19l.19-.26a.19.19 0 0 1 .16-.09.3.3 0 0 1 .15.05l.21.12.29.12a1.29 1.29 0 0 0 .39.05 1.22 1.22 0 0 0 .46-.08 1 1 0 0 0 .35-.23 1 1 0 0 0 .22-.36 1.33 1.33 0 0 0 .08-.47 1.2 1.2 0 0 0-.07-.41.8.8 0 0 0-.2-.31.92.92 0 0 0-.33-.2 1.4 1.4 0 0 0-.47-.07 2.54 2.54 0 0 0-.79.13l-.38-.11.39-2.27h2.3v.27a.29.29 0 0 1-.08.21.37.37 0 0 1-.27.08h-1.53zM433.21 105h-.74a.39.39 0 0 1-.13-.1l-.49-.49a2.46 2.46 0 0 1-.73.49 2.25 2.25 0 0 1-.91.18 1.58 1.58 0 0 1-.53-.09 1.48 1.48 0 0 1-.46-.27 1.33 1.33 0 0 1-.33-.42 1.25 1.25 0 0 1-.13-.57 1.26 1.26 0 0 1 .08-.45 1.44 1.44 0 0 1 .22-.39 1.75 1.75 0 0 1 .33-.33 2.21 2.21 0 0 1 .42-.25 2.11 2.11 0 0 1-.31-.51 1.36 1.36 0 0 1-.1-.51 1.2 1.2 0 0 1 .09-.46 1.09 1.09 0 0 1 .26-.38 1.23 1.23 0 0 1 .41-.26 1.51 1.51 0 0 1 .54-.09 1.33 1.33 0 0 1 .49.09 1.25 1.25 0 0 1 .38.23 1.09 1.09 0 0 1 .25.33 1 1 0 0 1 .11.39l-.37.07a.14.14 0 0 1-.16-.1.82.82 0 0 0-.08-.18.7.7 0 0 0-.14-.17.65.65 0 0 0-.47-.18.83.83 0 0 0-.31.05.65.65 0 0 0-.38.37.77.77 0 0 0 0 .28.94.94 0 0 0 0 .23 1 1 0 0 0 .09.22 1.48 1.48 0 0 0 .15.23l.22.25 1.4 1.42a2.53 2.53 0 0 0 .21-.48 2.44 2.44 0 0 0 .1-.5.18.18 0 0 1 0-.1.12.12 0 0 1 .1 0h.37a2.59 2.59 0 0 1-.12.76 2.68 2.68 0 0 1-.33.7zm-3.13-2.39a1.44 1.44 0 0 0-.54.45 1 1 0 0 0-.18.59.86.86 0 0 0 .3.66.92.92 0 0 0 .3.18 1 1 0 0 0 .33.06 1.62 1.62 0 0 0 .68-.14 1.74 1.74 0 0 0 .53-.37zM439 104a.13.13 0 0 1 .1 0l.26.28a2.07 2.07 0 0 1-.72.54 2.47 2.47 0 0 1-1 .19 2.4 2.4 0 0 1-.95-.18 2.09 2.09 0 0 1-.73-.51 2.3 2.3 0 0 1-.47-.78 2.92 2.92 0 0 1-.17-1 2.83 2.83 0 0 1 .17-1 2.3 2.3 0 0 1 .49-.79 2.17 2.17 0 0 1 .75-.51 2.49 2.49 0 0 1 1-.18 2.35 2.35 0 0 1 .92.17 2.3 2.3 0 0 1 .7.45l-.22.3-.05.06h-.09a.27.27 0 0 1-.15-.07l-.23-.15a1.78 1.78 0 0 0-.35-.15 1.8 1.8 0 0 0-.52-.07 1.77 1.77 0 0 0-.69.13 1.51 1.51 0 0 0-.54.38 1.74 1.74 0 0 0-.35.6 2.4 2.4 0 0 0-.13.8 2.34 2.34 0 0 0 .13.81 1.78 1.78 0 0 0 .35.6 1.5 1.5 0 0 0 .53.37 1.69 1.69 0 0 0 .66.13h.39a1.6 1.6 0 0 0 .33-.08 1.36 1.36 0 0 0 .28-.14 2 2 0 0 0 .25-.2.18.18 0 0 1 .05 0zM442.63 100.89a.25.25 0 0 1-.07.08h-.09a.24.24 0 0 1-.14-.06l-.2-.13a1.6 1.6 0 0 0-.28-.13 1.21 1.21 0 0 0-.4-.06 1.17 1.17 0 0 0-.39.06.84.84 0 0 0-.28.16.66.66 0 0 0-.17.24.75.75 0 0 0-.06.3.55.55 0 0 0 .1.33.86.86 0 0 0 .27.23 2 2 0 0 0 .37.17l.43.14.43.17a1.5 1.5 0 0 1 .37.24 1.07 1.07 0 0 1 .27.35 1.16 1.16 0 0 1 .1.51 1.64 1.64 0 0 1-.11.6 1.38 1.38 0 0 1-.33.48 1.48 1.48 0 0 1-.51.33 1.88 1.88 0 0 1-.66.11 2.1 2.1 0 0 1-.86-.17 2 2 0 0 1-.66-.46l.19-.31.05-.07h.09a.19.19 0 0 1 .1 0l.13.09.16.12.21.12.27.09a1.45 1.45 0 0 0 .33 0 1.26 1.26 0 0 0 .42-.06.88.88 0 0 0 .31-.18.79.79 0 0 0 .2-.28.93.93 0 0 0 .07-.36.61.61 0 0 0-.1-.36.83.83 0 0 0-.26-.24 1.83 1.83 0 0 0-.37-.16l-.43-.14-.43-.16a1.37 1.37 0 0 1-.37-.24 1.08 1.08 0 0 1-.26-.36 1.4 1.4 0 0 1 0-1 1.27 1.27 0 0 1 .29-.43 1.43 1.43 0 0 1 .47-.3 1.72 1.72 0 0 1 .64-.11 2 2 0 0 1 .74.13 1.75 1.75 0 0 1 .59.37zM446.3 100.89a.25.25 0 0 1-.07.08h-.09a.24.24 0 0 1-.14-.06l-.2-.13a1.6 1.6 0 0 0-.28-.13 1.21 1.21 0 0 0-.4-.06 1.17 1.17 0 0 0-.39.06.84.84 0 0 0-.28.16.66.66 0 0 0-.17.24.75.75 0 0 0-.06.3.55.55 0 0 0 .1.33.86.86 0 0 0 .27.23 2 2 0 0 0 .37.17l.43.14.43.17a1.5 1.5 0 0 1 .37.24 1.07 1.07 0 0 1 .27.35 1.16 1.16 0 0 1 .1.51 1.64 1.64 0 0 1-.11.6 1.38 1.38 0 0 1-.33.48 1.48 1.48 0 0 1-.51.33 1.88 1.88 0 0 1-.69.11 2.1 2.1 0 0 1-.86-.17 2 2 0 0 1-.66-.46l.19-.31.07-.06h.09a.19.19 0 0 1 .1 0l.13.09.16.12.21.12.27.09a1.45 1.45 0 0 0 .33 0 1.26 1.26 0 0 0 .42-.06.88.88 0 0 0 .31-.18.79.79 0 0 0 .2-.28.93.93 0 0 0 .07-.36.61.61 0 0 0-.1-.36.83.83 0 0 0-.26-.24 1.83 1.83 0 0 0-.37-.16l-.43-.14-.43-.16a1.37 1.37 0 0 1-.37-.24 1.08 1.08 0 0 1-.26-.36 1.4 1.4 0 0 1 0-1 1.27 1.27 0 0 1 .29-.43 1.43 1.43 0 0 1 .47-.3 1.72 1.72 0 0 1 .64-.11 2 2 0 0 1 .74.13 1.75 1.75 0 0 1 .59.37zM447.32 101.45a1.79 1.79 0 0 1 .18-.59 1.41 1.41 0 0 1 .33-.43 1.47 1.47 0 0 1 .48-.26 1.82 1.82 0 0 1 .58-.09 1.76 1.76 0 0 1 .57.09 1.33 1.33 0 0 1 .45.25 1.13 1.13 0 0 1 .29.39 1.22 1.22 0 0 1 .11.51 1.33 1.33 0 0 1-.06.41 1 1 0 0 1-.17.33 1 1 0 0 1-.27.23 1.57 1.57 0 0 1-.35.16 1.3 1.3 0 0 1 .71.42 1.14 1.14 0 0 1 .24.74 1.39 1.39 0 0 1-.13.6 1.36 1.36 0 0 1-.33.45 1.56 1.56 0 0 1-.51.29 1.94 1.94 0 0 1-.63.1 2 2 0 0 1-.66-.1 1.36 1.36 0 0 1-.46-.27 1.41 1.41 0 0 1-.31-.4 3 3 0 0 1-.21-.5l.26-.11a.33.33 0 0 1 .2 0 .2.2 0 0 1 .14.11l.11.23a1.06 1.06 0 0 0 .18.26 1 1 0 0 0 .29.21 1 1 0 0 0 .45.09 1.11 1.11 0 0 0 .44-.08 1 1 0 0 0 .33-.22.9.9 0 0 0 .19-.3.87.87 0 0 0 .06-.33 1.2 1.2 0 0 0 0-.36.6.6 0 0 0-.19-.28 1 1 0 0 0-.38-.19 2.37 2.37 0 0 0-.64-.08v-.44a2 2 0 0 0 .53-.07 1 1 0 0 0 .35-.18.66.66 0 0 0 .2-.27.92.92 0 0 0 .06-.33.93.93 0 0 0-.07-.36.7.7 0 0 0-.18-.26.76.76 0 0 0-.27-.15 1.1 1.1 0 0 0-.33 0 1 1 0 0 0-.33.05.92.92 0 0 0-.28.15.89.89 0 0 0-.2.23.91.91 0 0 0-.12.29.29.29 0 0 1-.11.16.3.3 0 0 1-.19 0zM451.23 105.8l.09-.1.11-.14a1.39 1.39 0 0 0 .1-.18.89.89 0 0 0 .07-.21.37.37 0 0 1-.29-.12.42.42 0 0 1-.11-.3.37.37 0 0 1 .11-.27.39.39 0 0 1 .29-.11.41.41 0 0 1 .18 0 .37.37 0 0 1 .13.1.47.47 0 0 1 .08.15.62.62 0 0 1 0 .19 1.27 1.27 0 0 1 0 .33 1.55 1.55 0 0 1-.13.33 2 2 0 0 1-.2.31 1.87 1.87 0 0 1-.27.28zM458.28 105h-.58a.29.29 0 0 1-.27-.14l-1.26-1.73a.37.37 0 0 0-.17-.13.45.45 0 0 0-.21 0h-.5v2h-.66v-4.85H456a3 3 0 0 1 .8.09 1.52 1.52 0 0 1 .55.27 1.08 1.08 0 0 1 .33.42 1.42 1.42 0 0 1 .11.56 1.4 1.4 0 0 1-.08.48 1.27 1.27 0 0 1-.24.4 1.41 1.41 0 0 1-.37.3 1.87 1.87 0 0 1-.5.19.66.66 0 0 1 .22.21zm-2.24-2.5a1.66 1.66 0 0 0 .5-.07 1 1 0 0 0 .36-.2.82.82 0 0 0 .22-.3 1 1 0 0 0 .07-.39.78.78 0 0 0-.29-.66 1.38 1.38 0 0 0-.85-.22h-.72v1.83h.67zM461.36 104.5a1.15 1.15 0 0 1-.27.24 1.66 1.66 0 0 1-.33.17 2.1 2.1 0 0 1-.37.1 2.25 2.25 0 0 1-.37 0 1.74 1.74 0 0 1-.66-.12 1.44 1.44 0 0 1-.52-.35 1.62 1.62 0 0 1-.33-.57 2.32 2.32 0 0 1-.12-.79 2 2 0 0 1 .11-.66 1.58 1.58 0 0 1 .33-.54 1.46 1.46 0 0 1 .5-.36 1.66 1.66 0 0 1 .66-.13 1.54 1.54 0 0 1 .57.1 1.29 1.29 0 0 1 .45.3 1.37 1.37 0 0 1 .3.48 1.83 1.83 0 0 1 .11.66.39.39 0 0 1 0 .19.13.13 0 0 1-.12 0H459a2 2 0 0 0 .09.57 1.14 1.14 0 0 0 .22.4.9.9 0 0 0 .33.24 1.17 1.17 0 0 0 .44.08 1.29 1.29 0 0 0 .39-.05l.28-.11.2-.11a.26.26 0 0 1 .14-.05.13.13 0 0 1 .12.06zm-.49-1.61a1.19 1.19 0 0 0-.06-.38.86.86 0 0 0-.17-.3.77.77 0 0 0-.28-.2 1 1 0 0 0-1.05.18 1.18 1.18 0 0 0-.31.7h1.87zM464.16 102.12a.13.13 0 0 1-.13.07.24.24 0 0 1-.12 0l-.16-.08-.22-.09a1.06 1.06 0 0 0-.31 0 .9.9 0 0 0-.28 0 .66.66 0 0 0-.21.11.47.47 0 0 0-.13.16.42.42 0 0 0 0 .2.33.33 0 0 0 .08.22.66.66 0 0 0 .2.15l.29.11.33.11.33.12a1.17 1.17 0 0 1 .29.17.78.78 0 0 1 .2.25.77.77 0 0 1 .08.35 1.12 1.12 0 0 1-.09.44 1 1 0 0 1-.25.35 1.21 1.21 0 0 1-.41.23 1.66 1.66 0 0 1-.55.08 1.73 1.73 0 0 1-.66-.12 1.66 1.66 0 0 1-.49-.3l.14-.23.06-.07h.1a.23.23 0 0 1 .13 0l.17.11.24.11a1.07 1.07 0 0 0 .33 0 .94.94 0 0 0 .31 0 .66.66 0 0 0 .22-.12.49.49 0 0 0 .13-.18.56.56 0 0 0 0-.22.36.36 0 0 0-.08-.24.66.66 0 0 0-.2-.16 1.66 1.66 0 0 0-.29-.12l-.33-.1-.33-.12a1.16 1.16 0 0 1-.29-.18.79.79 0 0 1-.2-.26.84.84 0 0 1-.08-.37.91.91 0 0 1 .08-.38.93.93 0 0 1 .24-.33 1.16 1.16 0 0 1 .38-.22 1.53 1.53 0 0 1 .52-.08 1.66 1.66 0 0 1 .61.11 1.45 1.45 0 0 1 .46.29zM465.66 102.09a1.78 1.78 0 0 1 .5-.43 1.29 1.29 0 0 1 .66-.16 1.25 1.25 0 0 1 .54.11 1.1 1.1 0 0 1 .41.33 1.61 1.61 0 0 1 .26.55 2.83 2.83 0 0 1 .09.76 2.37 2.37 0 0 1-.1.71 1.7 1.7 0 0 1-.29.57 1.35 1.35 0 0 1-1.09.51 1.25 1.25 0 0 1-.54-.11 1.27 1.27 0 0 1-.4-.3v1.52h-.6v-4.59h.36a.15.15 0 0 1 .16.13zm0 2.07a1 1 0 0 0 .36.33 1 1 0 0 0 .44.09.87.87 0 0 0 .74-.33 1.6 1.6 0 0 0 .26-1 2.43 2.43 0 0 0-.06-.58 1.12 1.12 0 0 0-.17-.39.66.66 0 0 0-.28-.23.91.91 0 0 0-.37-.07 1 1 0 0 0-.52.14 1.49 1.49 0 0 0-.41.38v1.63zM470.32 101.5a1.75 1.75 0 0 1 .66.13 1.45 1.45 0 0 1 .51.35 1.56 1.56 0 0 1 .33.56 2.41 2.41 0 0 1 0 1.46 1.56 1.56 0 0 1-.33.55 1.44 1.44 0 0 1-.51.35 1.77 1.77 0 0 1-.66.12 1.8 1.8 0 0 1-.68-.12 1.43 1.43 0 0 1-.52-.35 1.56 1.56 0 0 1-.33-.55 2.41 2.41 0 0 1 0-1.46 1.56 1.56 0 0 1 .33-.56 1.45 1.45 0 0 1 .52-.35 1.77 1.77 0 0 1 .68-.13zm0 3.06a.88.88 0 0 0 .76-.33 1.94 1.94 0 0 0 0-1.91.88.88 0 0 0-.76-.33 1.06 1.06 0 0 0-.45.09.83.83 0 0 0-.33.26 1.13 1.13 0 0 0-.19.41 2.19 2.19 0 0 0-.06.55 1.57 1.57 0 0 0 .25 1 .89.89 0 0 0 .78.26zM473.29 102a2 2 0 0 1 .24-.23 1.57 1.57 0 0 1 .27-.18 1.38 1.38 0 0 1 .3-.11 1.42 1.42 0 0 1 .33 0 1.24 1.24 0 0 1 .5.09 1 1 0 0 1 .36.27 1.17 1.17 0 0 1 .22.41 1.79 1.79 0 0 1 .07.53V105H475v-2.2a.93.93 0 0 0-.18-.6.66.66 0 0 0-.54-.22 1 1 0 0 0-.5.13 1.64 1.64 0 0 0-.43.35V105h-.61v-3.42h.36a.15.15 0 0 1 .16.13zM478.49 102.12a.13.13 0 0 1-.13.07.24.24 0 0 1-.12 0l-.16-.08-.22-.09a1.06 1.06 0 0 0-.31 0 .9.9 0 0 0-.28 0 .66.66 0 0 0-.21.11.47.47 0 0 0-.13.16.42.42 0 0 0 0 .2.33.33 0 0 0 .08.22.66.66 0 0 0 .2.15l.29.11.3.03.33.12a1.17 1.17 0 0 1 .29.17.78.78 0 0 1 .2.25.77.77 0 0 1 .08.35 1.12 1.12 0 0 1-.09.44 1 1 0 0 1-.25.35 1.21 1.21 0 0 1-.41.23 1.66 1.66 0 0 1-.55.08 1.73 1.73 0 0 1-.66-.12 1.66 1.66 0 0 1-.49-.3l.14-.23.06-.07h.1a.23.23 0 0 1 .13 0l.17.11.24.11a1.07 1.07 0 0 0 .33 0 .94.94 0 0 0 .31 0 .66.66 0 0 0 .22-.12.49.49 0 0 0 .13-.18.56.56 0 0 0 0-.22.36.36 0 0 0-.08-.24.66.66 0 0 0-.2-.16 1.66 1.66 0 0 0-.29-.12l-.33-.1-.33-.12a1.16 1.16 0 0 1-.29-.18.79.79 0 0 1-.2-.26.84.84 0 0 1-.08-.37.91.91 0 0 1 .08-.38.93.93 0 0 1 .24-.33 1.16 1.16 0 0 1 .38-.22 1.53 1.53 0 0 1 .52-.08 1.66 1.66 0 0 1 .61.11 1.45 1.45 0 0 1 .46.29zM480.19 100.48a.38.38 0 0 1 0 .17.47.47 0 0 1-.1.14.44.44 0 0 1-.14.09.42.42 0 0 1-.17 0 .4.4 0 0 1-.17 0 .43.43 0 0 1-.13-.09.46.46 0 0 1-.09-.14.4.4 0 0 1 0-.17.42.42 0 0 1 0-.17.45.45 0 0 1 .09-.14.43.43 0 0 1 .13-.09.4.4 0 0 1 .17 0 .42.42 0 0 1 .17 0 .43.43 0 0 1 .14.09.46.46 0 0 1 .1.14.4.4 0 0 1 0 .17zm-.12 1.08V105h-.6v-3.43h.6zM484 101.56l-1.4 3.43h-.53l-1.4-3.43h.49a.19.19 0 0 1 .12 0 .19.19 0 0 1 .06.09l.87 2.21.07.25.06.24.06-.24q0-.12.07-.25l.88-2.21a.2.2 0 0 1 .07-.09.18.18 0 0 1 .11 0h.47zM376.16 111.59a2.73 2.73 0 0 1-.17 1 2.2 2.2 0 0 1-.49.77 2.17 2.17 0 0 1-.76.49 2.63 2.63 0 0 1-1 .18H372v-4.86h1.81a2.65 2.65 0 0 1 1 .18 2.16 2.16 0 0 1 .76.49 2.21 2.21 0 0 1 .49.77 2.73 2.73 0 0 1 .1.98zm-.66 0a2.44 2.44 0 0 0-.12-.8 1.68 1.68 0 0 0-.33-.6 1.47 1.47 0 0 0-.54-.37 1.88 1.88 0 0 0-.71-.13h-1.18v3.79h1.15a1.88 1.88 0 0 0 .71-.13 1.49 1.49 0 0 0 .52-.35 1.66 1.66 0 0 0 .33-.59 2.43 2.43 0 0 0 .14-.8zM379.7 113.53a1.15 1.15 0 0 1-.27.24 1.66 1.66 0 0 1-.33.17 2.1 2.1 0 0 1-.37.1 2.25 2.25 0 0 1-.37 0 1.74 1.74 0 0 1-.66-.12 1.44 1.44 0 0 1-.52-.35 1.62 1.62 0 0 1-.33-.57 2.32 2.32 0 0 1-.12-.79 2 2 0 0 1 .11-.66 1.58 1.58 0 0 1 .33-.54 1.46 1.46 0 0 1 .49-.36 1.66 1.66 0 0 1 .66-.13 1.54 1.54 0 0 1 .57.1 1.29 1.29 0 0 1 .45.3 1.37 1.37 0 0 1 .3.48 1.83 1.83 0 0 1 .11.66.39.39 0 0 1 0 .19.13.13 0 0 1-.12 0h-2.29a2 2 0 0 0 .09.57 1.14 1.14 0 0 0 .22.4.9.9 0 0 0 .33.24 1.17 1.17 0 0 0 .44.08 1.29 1.29 0 0 0 .39-.05l.28-.11.21-.12a.26.26 0 0 1 .14-.05.13.13 0 0 1 .12.06zm-.49-1.61a1.19 1.19 0 0 0-.06-.38.86.86 0 0 0-.17-.3.77.77 0 0 0-.28-.2 1 1 0 0 0-1.05.18 1.18 1.18 0 0 0-.31.7h1.87zM383.36 110.58L382 114h-.54l-1.4-3.43h.49a.19.19 0 0 1 .12 0 .19.19 0 0 1 .06.09l.87 2.21.07.25.06.24.06-.24q0-.12.07-.25l.88-2.21a.2.2 0 0 1 .07-.09.18.18 0 0 1 .11 0h.48zM386.61 113.53a1.15 1.15 0 0 1-.27.24 1.66 1.66 0 0 1-.33.17 2.1 2.1 0 0 1-.37.1 2.25 2.25 0 0 1-.37 0 1.74 1.74 0 0 1-.66-.12 1.44 1.44 0 0 1-.52-.35 1.62 1.62 0 0 1-.33-.57 2.32 2.32 0 0 1-.12-.79 2 2 0 0 1 .11-.66 1.58 1.58 0 0 1 .33-.54 1.46 1.46 0 0 1 .5-.36 1.66 1.66 0 0 1 .66-.13 1.54 1.54 0 0 1 .57.1 1.29 1.29 0 0 1 .45.3 1.37 1.37 0 0 1 .3.48 1.83 1.83 0 0 1 .11.66.39.39 0 0 1 0 .19.13.13 0 0 1-.12 0h-2.3a2 2 0 0 0 .09.57 1.14 1.14 0 0 0 .22.4.9.9 0 0 0 .33.24 1.17 1.17 0 0 0 .44.08 1.29 1.29 0 0 0 .39-.05l.28-.11.2-.11a.26.26 0 0 1 .14-.05.13.13 0 0 1 .12.06zm-.49-1.61a1.19 1.19 0 0 0-.06-.38.86.86 0 0 0-.17-.3.77.77 0 0 0-.28-.2 1 1 0 0 0-1.05.18 1.18 1.18 0 0 0-.31.7h1.87zM388 109v5h-.6v-5h.6zM390.44 110.53a1.75 1.75 0 0 1 .66.13 1.45 1.45 0 0 1 .51.35 1.56 1.56 0 0 1 .33.56 2.41 2.41 0 0 1 0 1.46 1.56 1.56 0 0 1-.33.55 1.44 1.44 0 0 1-.51.35 1.77 1.77 0 0 1-.66.12 1.8 1.8 0 0 1-.68-.12 1.43 1.43 0 0 1-.52-.35 1.56 1.56 0 0 1-.33-.55 2.41 2.41 0 0 1 0-1.46 1.56 1.56 0 0 1 .33-.56 1.45 1.45 0 0 1 .52-.34 1.77 1.77 0 0 1 .68-.14zm0 3.06a.88.88 0 0 0 .76-.33 1.94 1.94 0 0 0 0-1.91.88.88 0 0 0-.76-.33 1.06 1.06 0 0 0-.45.09.83.83 0 0 0-.33.26 1.13 1.13 0 0 0-.19.41 2.19 2.19 0 0 0-.06.55 1.57 1.57 0 0 0 .25 1 .89.89 0 0 0 .78.26zM393.41 111.11a1.78 1.78 0 0 1 .5-.43 1.29 1.29 0 0 1 .66-.16 1.25 1.25 0 0 1 .54.11 1.1 1.1 0 0 1 .41.33 1.61 1.61 0 0 1 .26.55 2.83 2.83 0 0 1 .09.76 2.37 2.37 0 0 1-.1.71 1.7 1.7 0 0 1-.29.57 1.35 1.35 0 0 1-1.09.51 1.25 1.25 0 0 1-.54-.11 1.27 1.27 0 0 1-.4-.3v1.52h-.61v-4.59h.36a.15.15 0 0 1 .16.13zm0 2.07a1 1 0 0 0 .36.33 1 1 0 0 0 .44.09.87.87 0 0 0 .74-.33 1.6 1.6 0 0 0 .26-1 2.43 2.43 0 0 0-.06-.58 1.12 1.12 0 0 0-.17-.39.66.66 0 0 0-.28-.23.91.91 0 0 0-.37-.07 1 1 0 0 0-.52.14 1.49 1.49 0 0 0-.41.38v1.63zM396.63 114v-3.43h.37a.15.15 0 0 1 .16.13v.35a1.75 1.75 0 0 1 .43-.38 1 1 0 0 1 .55-.15.81.81 0 0 1 .56.19 1.09 1.09 0 0 1 .31.52 1.13 1.13 0 0 1 .19-.33 1.09 1.09 0 0 1 .26-.22 1.11 1.11 0 0 1 .31-.13 1.38 1.38 0 0 1 .33 0 1.27 1.27 0 0 1 .48.09 1 1 0 0 1 .36.25 1.12 1.12 0 0 1 .23.41 1.81 1.81 0 0 1 .08.55V114h-.61v-2.17a.93.93 0 0 0-.18-.61.63.63 0 0 0-.46-.22.77.77 0 0 0-.28.05.68.68 0 0 0-.24.15.72.72 0 0 0-.16.26 1 1 0 0 0-.06.36V114h-.61v-2.18a1 1 0 0 0-.17-.62.59.59 0 0 0-.48-.2.76.76 0 0 0-.41.12 1.37 1.37 0 0 0-.35.33V114h-.6zM405 113.53a1.15 1.15 0 0 1-.27.24 1.66 1.66 0 0 1-.33.17 2.1 2.1 0 0 1-.37.1 2.25 2.25 0 0 1-.37 0 1.74 1.74 0 0 1-.66-.12 1.44 1.44 0 0 1-.52-.35 1.62 1.62 0 0 1-.33-.57 2.32 2.32 0 0 1-.12-.79 2 2 0 0 1 .11-.66 1.58 1.58 0 0 1 .33-.54 1.46 1.46 0 0 1 .5-.36 1.66 1.66 0 0 1 .66-.13 1.54 1.54 0 0 1 .57.1 1.29 1.29 0 0 1 .45.3 1.37 1.37 0 0 1 .3.48 1.83 1.83 0 0 1 .11.66.39.39 0 0 1 0 .19.13.13 0 0 1-.12 0h-2.29a2 2 0 0 0 .09.57 1.14 1.14 0 0 0 .22.4.9.9 0 0 0 .33.24 1.17 1.17 0 0 0 .44.08 1.29 1.29 0 0 0 .39-.05l.28-.11.2-.11a.26.26 0 0 1 .14-.05.13.13 0 0 1 .12.06zm-.49-1.61a1.19 1.19 0 0 0-.06-.38.86.86 0 0 0-.17-.3.77.77 0 0 0-.28-.24 1 1 0 0 0-1.05.18 1.18 1.18 0 0 0-.31.7h1.87zM406.35 111.08a2 2 0 0 1 .24-.23 1.57 1.57 0 0 1 .27-.18 1.38 1.38 0 0 1 .3-.11 1.42 1.42 0 0 1 .33 0 1.24 1.24 0 0 1 .5.09 1 1 0 0 1 .36.27 1.17 1.17 0 0 1 .22.41 1.79 1.79 0 0 1 .07.53V114H408v-2.18a.93.93 0 0 0-.18-.6.66.66 0 0 0-.54-.22 1 1 0 0 0-.5.13 1.64 1.64 0 0 0-.43.35V114h-.61v-3.43h.36a.15.15 0 0 1 .16.13zM410.56 114.07a.83.83 0 0 1-.62-.23.91.91 0 0 1-.22-.66v-2.1h-.42a.13.13 0 0 1-.09 0 .13.13 0 0 1 0-.1v-.24l.56-.07.14-1.06a.15.15 0 0 1 0-.08.13.13 0 0 1 .09 0h.31v1.18h1v.44h-1v2.06a.44.44 0 0 0 .11.33.37.37 0 0 0 .27.11h.17l.12-.06.09-.06h.06a.1.1 0 0 1 .08.06l.18.29a1.12 1.12 0 0 1-.37.23 1.27 1.27 0 0 1-.46-.04zM411.9 114.83l.09-.1.11-.14a1.39 1.39 0 0 0 .1-.18.89.89 0 0 0 .07-.21.37.37 0 0 1-.29-.12.42.42 0 0 1-.11-.3.37.37 0 0 1 .11-.27.39.39 0 0 1 .29-.11.41.41 0 0 1 .18 0 .37.37 0 0 1 .13.1.47.47 0 0 1 .08.15.62.62 0 0 1 0 .19 1.27 1.27 0 0 1 0 .33 1.55 1.55 0 0 1-.13.33 2 2 0 0 1-.2.31 1.87 1.87 0 0 1-.27.28zM418.93 114h-.58a.29.29 0 0 1-.27-.14l-1.26-1.73a.37.37 0 0 0-.12-.12.45.45 0 0 0-.21 0H416v2h-.66v-4.85h1.37a3 3 0 0 1 .8.09 1.52 1.52 0 0 1 .55.27 1.08 1.08 0 0 1 .33.42 1.42 1.42 0 0 1 .11.56 1.4 1.4 0 0 1-.09.5 1.27 1.27 0 0 1-.24.4 1.41 1.41 0 0 1-.37.3 1.87 1.87 0 0 1-.5.19.66.66 0 0 1 .22.21zm-2.24-2.5a1.66 1.66 0 0 0 .5-.07 1 1 0 0 0 .36-.2.82.82 0 0 0 .22-.3 1 1 0 0 0 .07-.39.78.78 0 0 0-.29-.66 1.38 1.38 0 0 0-.85-.22h-.7v1.83h.69zM422 113.53a1.15 1.15 0 0 1-.27.24 1.66 1.66 0 0 1-.33.17 2.1 2.1 0 0 1-.37.1 2.25 2.25 0 0 1-.37 0 1.74 1.74 0 0 1-.66-.12 1.44 1.44 0 0 1-.52-.35 1.62 1.62 0 0 1-.33-.57 2.32 2.32 0 0 1-.12-.79 2 2 0 0 1 .11-.66 1.58 1.58 0 0 1 .33-.54 1.46 1.46 0 0 1 .49-.36 1.66 1.66 0 0 1 .66-.13 1.54 1.54 0 0 1 .57.1 1.29 1.29 0 0 1 .45.3 1.37 1.37 0 0 1 .3.48 1.83 1.83 0 0 1 .11.66.39.39 0 0 1 0 .19.13.13 0 0 1-.12 0h-2.29a2 2 0 0 0 .09.57 1.14 1.14 0 0 0 .22.4.9.9 0 0 0 .33.24 1.17 1.17 0 0 0 .44.08 1.29 1.29 0 0 0 .39-.05l.28-.11.2-.11a.26.26 0 0 1 .14-.05.13.13 0 0 1 .12.06zm-.49-1.61a1.19 1.19 0 0 0-.06-.38.86.86 0 0 0-.17-.3.77.77 0 0 0-.28-.24 1 1 0 0 0-1.05.18 1.18 1.18 0 0 0-.31.7h1.87zM422.71 111.07a2 2 0 0 1 .61-.41 1.9 1.9 0 0 1 .73-.14 1.3 1.3 0 0 1 .51.1 1 1 0 0 1 .37.27 1.12 1.12 0 0 1 .23.41 1.71 1.71 0 0 1 .08.53V114H425a.26.26 0 0 1-.14 0 .2.2 0 0 1-.07-.11l-.07-.33-.27.22a1.51 1.51 0 0 1-.27.16 1.49 1.49 0 0 1-.3.1 1.66 1.66 0 0 1-.36 0 1.24 1.24 0 0 1-.37-.06.87.87 0 0 1-.31-.17.79.79 0 0 1-.21-.28 1 1 0 0 1-.08-.4.76.76 0 0 1 .11-.39 1 1 0 0 1 .36-.33 2.39 2.39 0 0 1 .66-.24 5 5 0 0 1 1-.11v-.27a.92.92 0 0 0-.17-.6.62.62 0 0 0-.51-.19 1.08 1.08 0 0 0-.37.06 1.4 1.4 0 0 0-.26.13l-.19.13a.28.28 0 0 1-.16.06.17.17 0 0 1-.11 0l-.07-.08zm1.95 1.4a5 5 0 0 0-.71.07 2 2 0 0 0-.48.14.66.66 0 0 0-.27.2.43.43 0 0 0-.08.26.57.57 0 0 0 0 .23.43.43 0 0 0 .12.16.48.48 0 0 0 .18.09.81.81 0 0 0 .22 0 1.24 1.24 0 0 0 .29 0 1.09 1.09 0 0 0 .25-.09 1.38 1.38 0 0 0 .22-.15l.21-.19v-.71zM428.56 111.19l-.05.06h-.07a.2.2 0 0 1-.11 0l-.15-.09-.22-.09a1.19 1.19 0 0 0-.77 0 .86.86 0 0 0-.33.26 1.17 1.17 0 0 0-.2.41 2 2 0 0 0-.07.54 2 2 0 0 0 .07.55 1.18 1.18 0 0 0 .2.41.87.87 0 0 0 .31.25 1 1 0 0 0 .41.09 1 1 0 0 0 .6-.17l.16-.12a.2.2 0 0 1 .12-.05.13.13 0 0 1 .12.06l.17.22a1.2 1.2 0 0 1-.26.24 1.57 1.57 0 0 1-.31.17 1.66 1.66 0 0 1-.33.1 2.17 2.17 0 0 1-.36 0 1.5 1.5 0 0 1-.6-.12 1.36 1.36 0 0 1-.48-.33 1.61 1.61 0 0 1-.33-.55 2.45 2.45 0 0 1 0-1.46 1.6 1.6 0 0 1 .31-.56 1.41 1.41 0 0 1 .5-.37 1.69 1.69 0 0 1 .69-.13 1.62 1.62 0 0 1 .64.12 1.53 1.53 0 0 1 .49.33zM430.46 114.07a.83.83 0 0 1-.62-.23.91.91 0 0 1-.22-.66v-2.1h-.42a.13.13 0 0 1-.09 0 .13.13 0 0 1 0-.1v-.24l.56-.07.14-1.06a.15.15 0 0 1 0-.08.13.13 0 0 1 .09 0h.31v1.18h1v.44h-1v2.06a.44.44 0 0 0 .11.33.37.37 0 0 0 .27.11h.17l.12-.06.09-.06h.06a.1.1 0 0 1 .08.06l.18.29a1.12 1.12 0 0 1-.37.23 1.27 1.27 0 0 1-.46-.04zM431.73 113.65a.43.43 0 0 1 .12-.3.42.42 0 0 1 .46-.09.43.43 0 0 1 .14.09.43.43 0 0 1 .09.14.41.41 0 0 1 0 .17.4.4 0 0 1 0 .17.43.43 0 0 1-.09.13.41.41 0 0 1-.14.09.44.44 0 0 1-.33 0 .39.39 0 0 1-.13-.09.42.42 0 0 1-.12-.31zM434.07 110.58v3.68a1.33 1.33 0 0 1-.05.38.79.79 0 0 1-.48.52 1.15 1.15 0 0 1-.44.08 1.05 1.05 0 0 1-.38-.07v-.33h.28a.49.49 0 0 0 .37-.12.58.58 0 0 0 .11-.4v-3.67h.6zm.13-1.08a.38.38 0 0 1 0 .17.47.47 0 0 1-.1.14.44.44 0 0 1-.14.09.41.41 0 0 1-.17 0 .4.4 0 0 1-.17 0 .43.43 0 0 1-.13-.09.46.46 0 0 1-.09-.14.4.4 0 0 1 0-.17.42.42 0 0 1 0-.17.45.45 0 0 1 .09-.14.43.43 0 0 1 .13-.09.4.4 0 0 1 .17 0 .41.41 0 0 1 .17 0 .44.44 0 0 1 .14.09.46.46 0 0 1 .1.14.4.4 0 0 1-.01.18zM437.05 111.15a.13.13 0 0 1-.13.07.24.24 0 0 1-.12 0l-.16-.08-.22-.09a1.06 1.06 0 0 0-.31 0 .9.9 0 0 0-.28 0 .66.66 0 0 0-.21.11.47.47 0 0 0-.13.16.42.42 0 0 0 0 .2.33.33 0 0 0 .08.22.66.66 0 0 0 .2.15l.23.11.33.11.33.12a1.17 1.17 0 0 1 .29.17.78.78 0 0 1 .2.25.77.77 0 0 1 .08.35 1.12 1.12 0 0 1-.09.44 1 1 0 0 1-.25.35 1.21 1.21 0 0 1-.41.23 1.66 1.66 0 0 1-.55.08 1.73 1.73 0 0 1-.66-.12 1.66 1.66 0 0 1-.49-.3l.14-.23.06-.07h.1a.23.23 0 0 1 .13 0l.17.11.24.11a1.07 1.07 0 0 0 .33 0 .94.94 0 0 0 .31 0 .66.66 0 0 0 .22-.12.49.49 0 0 0 .13-.18.56.56 0 0 0 0-.22.36.36 0 0 0-.08-.24.66.66 0 0 0-.2-.16 1.66 1.66 0 0 0-.29-.12l-.33-.1-.33-.12a1.16 1.16 0 0 1-.29-.18.79.79 0 0 1-.2-.26.84.84 0 0 1-.08-.37.91.91 0 0 1 .08-.38.93.93 0 0 1 .24-.33 1.16 1.16 0 0 1 .38-.22 1.53 1.53 0 0 1 .52-.08 1.66 1.66 0 0 1 .61.11 1.45 1.45 0 0 1 .46.29zM378.4 127.17l-1.52 4.9h-.82l-1.06-3.34a2.28 2.28 0 0 1-.08-.3V128.73l-1.08 3.35h-.81l-1.52-4.9h.76a.33.33 0 0 1 .2.06.27.27 0 0 1 .11.15l.83 2.93.05.24.05.27q0-.14.06-.27l.07-.24 1-2.93a.33.33 0 0 1 .11-.14.3.3 0 0 1 .2-.06h.27a.31.31 0 0 1 .19.06.35.35 0 0 1 .11.15l1 2.93a4.22 4.22 0 0 1 .13.48q0-.27.1-.48l.83-2.93a.26.26 0 0 1 .1-.15.33.33 0 0 1 .2-.06h.71zM379.66 129a1.81 1.81 0 0 1 .45-.31 1.3 1.3 0 0 1 .57-.12 1.24 1.24 0 0 1 .5.1 1 1 0 0 1 .37.27 1.19 1.19 0 0 1 .22.42 1.77 1.77 0 0 1 .08.53v2.21H381v-2.21a.75.75 0 0 0-.15-.49.55.55 0 0 0-.44-.18.87.87 0 0 0-.41.1 1.47 1.47 0 0 0-.36.27v2.51h-.84v-5h.84v1.9zM384.17 128.54a1.89 1.89 0 0 1 .7.13 1.54 1.54 0 0 1 .54.35 1.56 1.56 0 0 1 .33.56 2.32 2.32 0 0 1 0 1.49 1.59 1.59 0 0 1-.33.57 1.52 1.52 0 0 1-.54.36 1.89 1.89 0 0 1-.7.13 1.92 1.92 0 0 1-.71-.13 1.52 1.52 0 0 1-.54-.36 1.61 1.61 0 0 1-.35-.57 2.29 2.29 0 0 1 0-1.49 1.58 1.58 0 0 1 .35-.56 1.54 1.54 0 0 1 .54-.35 1.92 1.92 0 0 1 .71-.13zm0 2.93a.74.74 0 0 0 .64-.29 1.46 1.46 0 0 0 .21-.85 1.48 1.48 0 0 0-.21-.86.73.73 0 0 0-.64-.3.75.75 0 0 0-.66.3 1.46 1.46 0 0 0-.21.86 1.44 1.44 0 0 0 .21.85.75.75 0 0 0 .66.3zM390.14 130.17v1.9h-.91v-1.9l-1.78-3h.79a.29.29 0 0 1 .19.06.49.49 0 0 1 .12.15l.9 1.63q.08.15.14.28l.11.26a2.51 2.51 0 0 1 .1-.26l.13-.28.89-1.63a.45.45 0 0 1 .11-.14.28.28 0 0 1 .19-.06h.81zM393.06 128.54a1.89 1.89 0 0 1 .7.13 1.54 1.54 0 0 1 .54.35 1.56 1.56 0 0 1 .33.56 2.32 2.32 0 0 1 0 1.49 1.59 1.59 0 0 1-.33.57 1.52 1.52 0 0 1-.54.36 1.89 1.89 0 0 1-.7.13 1.92 1.92 0 0 1-.71-.13 1.52 1.52 0 0 1-.54-.36 1.61 1.61 0 0 1-.35-.57 2.29 2.29 0 0 1 0-1.49 1.58 1.58 0 0 1 .35-.56 1.54 1.54 0 0 1 .54-.35 1.92 1.92 0 0 1 .71-.13zm0 2.93a.74.74 0 0 0 .64-.29 1.46 1.46 0 0 0 .21-.85 1.48 1.48 0 0 0-.21-.86.73.73 0 0 0-.64-.3.75.75 0 0 0-.66.3 1.46 1.46 0 0 0-.21.86 1.44 1.44 0 0 0 .21.85.75.75 0 0 0 .66.3zM398.41 128.6v3.47h-.51a.2.2 0 0 1-.21-.15l-.06-.28a1.86 1.86 0 0 1-.47.35 1.3 1.3 0 0 1-.61.13 1.23 1.23 0 0 1-.5-.1 1 1 0 0 1-.37-.27 1.19 1.19 0 0 1-.23-.42 1.77 1.77 0 0 1-.08-.53v-2.2h.84v2.21a.74.74 0 0 0 .15.49.54.54 0 0 0 .44.18.88.88 0 0 0 .41-.1 1.43 1.43 0 0 0 .36-.27v-2.51h.84zM405 132.07h-.7a.3.3 0 0 1-.19-.06.37.37 0 0 1-.11-.15l-.36-1h-2l-.36 1a.33.33 0 0 1-.11.14.29.29 0 0 1-.19.06h-.78l1.93-4.9h.93zm-1.61-1.84l-.6-1.63-.09-.26q0-.15-.1-.33 0 .17-.09.33t-.09.26l-.57 1.62h1.55zM406.14 129.2a1.5 1.5 0 0 1 .38-.49.82.82 0 0 1 .53-.18.66.66 0 0 1 .38.11l-.05.63a.16.16 0 0 1 0 .09.14.14 0 0 1-.09 0h-.35a.7.7 0 0 0-.25 0 .62.62 0 0 0-.2.12.8.8 0 0 0-.15.19 1.81 1.81 0 0 0-.12.25v2.14h-.84v-3.46h.49a.2.2 0 0 1 .25.21zM408.42 130.44a1.66 1.66 0 0 0 .1.46.94.94 0 0 0 .2.33.77.77 0 0 0 .29.19 1.05 1.05 0 0 0 .37.06 1.15 1.15 0 0 0 .35 0l.26-.11.19-.11a.33.33 0 0 1 .16 0 .17.17 0 0 1 .16.08l.24.31a1.4 1.4 0 0 1-.31.27 1.76 1.76 0 0 1-.36.18 2 2 0 0 1-.38.09h-.38a1.86 1.86 0 0 1-.66-.12 1.51 1.51 0 0 1-.54-.35 1.66 1.66 0 0 1-.36-.58 2.25 2.25 0 0 1-.13-.81 1.92 1.92 0 0 1 .12-.66 1.6 1.6 0 0 1 .33-.54 1.56 1.56 0 0 1 .52-.37 1.73 1.73 0 0 1 .7-.14 1.7 1.7 0 0 1 .61.11 1.33 1.33 0 0 1 .48.31 1.42 1.42 0 0 1 .31.49 1.84 1.84 0 0 1 .11.66.54.54 0 0 1 0 .26.17.17 0 0 1-.16.07h-2.17zm1.59-.5a1 1 0 0 0 0-.31.73.73 0 0 0-.14-.25.64.64 0 0 0-.23-.17.8.8 0 0 0-.33-.06.78.78 0 0 0-.57.21 1 1 0 0 0-.27.59H410zM411.34 129.2a.52.52 0 0 1 0-.2.49.49 0 0 1 .11-.16.52.52 0 0 1 .36-.15.5.5 0 0 1 .2 0 .54.54 0 0 1 .16.11.51.51 0 0 1 .15.36.5.5 0 0 1 0 .2.5.5 0 0 1-.11.16.51.51 0 0 1-.16.11.52.52 0 0 1-.2 0 .53.53 0 0 1-.2 0 .49.49 0 0 1-.16-.11.49.49 0 0 1-.11-.16.52.52 0 0 1-.04-.16zm0 2.41a.52.52 0 0 1 0-.2.49.49 0 0 1 .11-.16.52.52 0 0 1 .36-.15.5.5 0 0 1 .2 0 .54.54 0 0 1 .16.11.51.51 0 0 1 .11.56.5.5 0 0 1-.11.16.52.52 0 0 1-.36.15.53.53 0 0 1-.2 0 .48.48 0 0 1-.27-.27.51.51 0 0 1 0-.2z" fill="#231f20"/><path d="M359.9 170.07a75.43 75.43 0 0 0 22.91 13.75H437a75.42 75.42 0 0 0 9-4.09v-13.07h-86v3.41z" fill="#f59819"/><path d="M482.09 136.46H372.28v2.94h108.79q.54-1.46 1.02-2.94zM479.75 142.71H372.28v2.94h106.15c.46-.97.9-1.95 1.32-2.94zM476.75 148.94H372.28v2.94h102.8c.58-.96 1.14-1.94 1.67-2.94z" fill="#bdbebe"/><path d="M360.56 55h98.64a76.11 76.11 0 0 0-98.64 0z" fill="#1296cd"/><path d="M472.66 74.62a3.2 3.2 0 0 1 .79-.59 1.92 1.92 0 0 1 .9-.22 1.2 1.2 0 0 1 1 .38 1.64 1.64 0 0 1 .32 1.1v4.87h1.85v-2.07c-1-1.91-2.06-3.79-3.21-5.63a3 3 0 0 0-.71.23 3.09 3.09 0 0 0-.6.31 5 5 0 0 0-.49.43l-.12-.6a.45.45 0 0 0-.47-.34h-1.13v7.64h1.84v-5.51z" fill="#f59819"/><path d="M463.53 166.66h-17.61v13.05a75.56 75.56 0 0 0 17.61-13.05z" fill="#f1821a"/><path d="M485.38 104.41a.89.89 0 0 1-.21-.15 1.14 1.14 0 0 1-.22-.4 2 2 0 0 1-.09-.57h.39v-.4h-.33a1.17 1.17 0 0 1 .25-.61c0-.19 0-.37-.08-.56a1.45 1.45 0 0 0-.35.27 1.59 1.59 0 0 0-.33.54 2 2 0 0 0-.11.66 2.32 2.32 0 0 0 .12.79 1.62 1.62 0 0 0 .33.57 1.43 1.43 0 0 0 .52.35l.22.06c-.06-.17-.09-.36-.11-.55z" fill="#1c1b1a"/><path d="M360 55.49l-.09.08v5.61h105.73c-.66-.71-1.32-1.42-2-2.12a74.936 74.936 0 0 0-5.4-4.89h-96.66c-.58.44-1.07.83-1.58 1.32z" fill="#dd5a18"/></g><g class="middleFrame"><path d="M356.13 59.06A76 76 0 0 0 382 183.51h55.8a76 76 0 1 0-81.67-124.45z" fill="#fff"/><path d="M333.93 114.27h118.66v-4.69H334c-.09 1.56-.1 3.12-.07 4.69zM334.29 105.15H469.5v-4.69H334.92c-.25 1.54-.47 3.12-.63 4.69z" fill="#bdbebe"/><path d="M341.54 79.56h119.33v-9.18H346.81a75.3 75.3 0 0 0-5.27 9.18z" fill="#f59819"/><path d="M336.47 132.41h26v-4.69h-27.1c.31 1.58.69 3.14 1.1 4.69z" fill="#bdbebe"/><path d="M360.56 55h98.64a76.11 76.11 0 0 0-98.64 0z" fill="#1296cd"/><path d="M356.13 59.06a57 57 0 0 0-2 2.12h111.51c-.66-.71-1.32-1.42-2-2.12a74.936 74.936 0 0 0-5.4-4.89h-96.71a75.16 75.16 0 0 0-5.4 4.89z" fill="#dd5a18"/><path d="M381.66 183.39v-16.73h-25.43a75.58 75.58 0 0 0 25.43 16.73z" fill="#f59819"/><path d="M381.24 183.23c.52.21 1 .39 1.56.59H437a75.54 75.54 0 0 0 26.58-17.16h-82.34v16.57z" fill="#f1821a"/><path d="M343.54 76.43h3.86v-1.54H344l-.46.83v.71z" fill="#f59819"/><path d="M344.68 151.89h130.4c.58-1 1.13-2 1.67-2.94H343c.54.99 1.1 1.97 1.68 2.94zM338.69 139.4h142.38q.54-1.46 1-2.94h-144.4q.48 1.48 1.02 2.94zM341.33 145.65h137.1c.47-1 .9-2 1.33-2.94H340c.43.99.87 1.97 1.33 2.94z" fill="#bdbebe"/></g><g class="lastFrame"><path d="M471.16 59.16a76 76 0 1 0 107.5 0 76.1 76.1 0 0 0-107.5 0z" fill="#1c1b1a"/><path d="M471.16 59.16a76 76 0 0 0 25.59 124.35h56.33a76 76 0 1 0-81.92-124.35z" fill="#fff"/><path d="M475.71 55h98.41a76.11 76.11 0 0 0-98.41 0z" fill="#1296cd"/><path d="M471.16 166.67a75.55 75.55 0 0 0 26.41 17.15h33.95v-17.16h-60.36z" fill="#f1821a"/><path d="M469.19 70.28a1.05 1.05 0 0 1-.1.45 1.22 1.22 0 0 1-.63.62 1.15 1.15 0 0 1-.46.09 1.1 1.1 0 0 1-.45-.09 1.19 1.19 0 0 1-.37-.25 1.2 1.2 0 0 1-.25-.36 1.1 1.1 0 0 1-.09-.45 1.15 1.15 0 0 1 .09-.46 1.18 1.18 0 0 1 .25-.37 1.2 1.2 0 0 1 .37-.25 1.11 1.11 0 0 1 .45-.09 1.16 1.16 0 0 1 .46.09 1.23 1.23 0 0 1 .38.25 1.21 1.21 0 0 1 .26.37 1.12 1.12 0 0 1 .09.45zm-.25 2.23v7.65h-1.85v-7.64h1.85zM472.54 73.45A5 5 0 0 1 473 73a3.09 3.09 0 0 1 .55-.34 3 3 0 0 1 1.33-.3 2.74 2.74 0 0 1 1.11.21 2.19 2.19 0 0 1 .82.6 2.62 2.62 0 0 1 .49.92 3.9 3.9 0 0 1 .17 1.17v4.87h-1.85V75.3a1.64 1.64 0 0 0-.32-1.1 1.2 1.2 0 0 0-1-.38 1.92 1.92 0 0 0-.9.22 3.2 3.2 0 0 0-.79.59v5.53h-1.84v-7.64h1.13a.45.45 0 0 1 .47.34zM480.64 76.57a3.61 3.61 0 0 0 .21 1 2.08 2.08 0 0 0 .43.71 1.69 1.69 0 0 0 .64.42 2.32 2.32 0 0 0 .82.14 2.52 2.52 0 0 0 .77-.1 3.62 3.62 0 0 0 .57-.23l.42-.23a.71.71 0 0 1 .35-.1.38.38 0 0 1 .34.17l.54.65a3.07 3.07 0 0 1-.69.6 3.83 3.83 0 0 1-.79.39 4.34 4.34 0 0 1-.84.21 6 6 0 0 1-.82.06 4.08 4.08 0 0 1-1.49-.26 3.31 3.31 0 0 1-1.19-.78 3.67 3.67 0 0 1-.81-1.29 5 5 0 0 1-.29-1.77 4.23 4.23 0 0 1 .25-1.47 3.54 3.54 0 0 1 .73-1.2 3.43 3.43 0 0 1 1.16-.82 3.81 3.81 0 0 1 1.54-.3 3.75 3.75 0 0 1 1.34.23 2.91 2.91 0 0 1 1.05.67 3.12 3.12 0 0 1 .69 1.1 4.05 4.05 0 0 1 .25 1.47 1.2 1.2 0 0 1-.09.56.37.37 0 0 1-.34.15h-4.74zm3.51-1.1a2.22 2.22 0 0 0-.1-.67 1.6 1.6 0 0 0-.3-.55 1.41 1.41 0 0 0-.51-.38 1.76 1.76 0 0 0-.72-.14 1.71 1.71 0 0 0-1.26.45 2.23 2.23 0 0 0-.59 1.29h3.48zM488.6 76.57a3.61 3.61 0 0 0 .21 1 2.08 2.08 0 0 0 .43.71 1.69 1.69 0 0 0 .64.42 2.32 2.32 0 0 0 .82.14 2.52 2.52 0 0 0 .77-.1 3.62 3.62 0 0 0 .57-.23l.42-.23a.71.71 0 0 1 .35-.1.38.38 0 0 1 .34.17l.54.65a3.07 3.07 0 0 1-.69.6 3.83 3.83 0 0 1-.79.39 4.34 4.34 0 0 1-.84.21 6 6 0 0 1-.82.06 4.08 4.08 0 0 1-1.48-.27 3.31 3.31 0 0 1-1.19-.78 3.67 3.67 0 0 1-.8-1.28 5 5 0 0 1-.29-1.77 4.23 4.23 0 0 1 .21-1.46 3.54 3.54 0 0 1 .73-1.2 3.43 3.43 0 0 1 1.16-.82 3.81 3.81 0 0 1 1.54-.3 3.75 3.75 0 0 1 1.34.23 2.91 2.91 0 0 1 1.05.67 3.12 3.12 0 0 1 .69 1.1 4.05 4.05 0 0 1 .25 1.47 1.2 1.2 0 0 1-.09.56.37.37 0 0 1-.34.15h-4.73zm3.51-1.1a2.22 2.22 0 0 0-.1-.67 1.6 1.6 0 0 0-.3-.55 1.41 1.41 0 0 0-.51-.38 1.76 1.76 0 0 0-.72-.14 1.71 1.71 0 0 0-1.26.45 2.23 2.23 0 0 0-.59 1.29h3.48zM496.89 73.84a3.29 3.29 0 0 1 .85-1.08 1.81 1.81 0 0 1 1.16-.39 1.42 1.42 0 0 1 .85.23l-.12 1.4a.36.36 0 0 1-.11.19.3.3 0 0 1-.19.05H499a2.59 2.59 0 0 0-.43 0 1.54 1.54 0 0 0-.55.09 1.37 1.37 0 0 0-.43.26 1.76 1.76 0 0 0-.32.44 4 4 0 0 0-.27.55v4.71h-1.84v-7.77h1.08a.45.45 0 0 1 .55.46z" fill="#f59819"/><path d="M451.23 105.8l.09-.1.11-.14a1.39 1.39 0 0 0 .1-.18.89.89 0 0 0 .07-.21.37.37 0 0 1-.29-.12.42.42 0 0 1-.11-.3.37.37 0 0 1 .11-.27.39.39 0 0 1 .29-.11.41.41 0 0 1 .18 0 .37.37 0 0 1 .13.1.47.47 0 0 1 .08.15.62.62 0 0 1 0 .19 1.27 1.27 0 0 1 0 .33 1.55 1.55 0 0 1-.13.33 2 2 0 0 1-.2.31 1.87 1.87 0 0 1-.27.28zM458.28 105h-.58a.29.29 0 0 1-.27-.14l-1.26-1.73a.37.37 0 0 0-.17-.13.45.45 0 0 0-.21 0h-.5v2h-.66v-4.85H456a3 3 0 0 1 .8.09 1.52 1.52 0 0 1 .55.27 1.08 1.08 0 0 1 .33.42 1.42 1.42 0 0 1 .11.56 1.4 1.4 0 0 1-.08.48 1.27 1.27 0 0 1-.24.4 1.41 1.41 0 0 1-.37.3 1.87 1.87 0 0 1-.5.19.66.66 0 0 1 .22.21zm-2.24-2.5a1.66 1.66 0 0 0 .5-.07 1 1 0 0 0 .36-.2.82.82 0 0 0 .22-.3 1 1 0 0 0 .07-.39.78.78 0 0 0-.29-.66 1.38 1.38 0 0 0-.85-.22h-.72v1.83h.67zM461.36 104.5a1.15 1.15 0 0 1-.27.24 1.66 1.66 0 0 1-.33.17 2.1 2.1 0 0 1-.37.1 2.25 2.25 0 0 1-.37 0 1.74 1.74 0 0 1-.66-.12 1.44 1.44 0 0 1-.52-.35 1.62 1.62 0 0 1-.33-.57 2.32 2.32 0 0 1-.12-.79 2 2 0 0 1 .11-.66 1.58 1.58 0 0 1 .33-.54 1.46 1.46 0 0 1 .5-.36 1.66 1.66 0 0 1 .66-.13 1.54 1.54 0 0 1 .57.1 1.29 1.29 0 0 1 .45.3 1.37 1.37 0 0 1 .3.48 1.83 1.83 0 0 1 .11.66.39.39 0 0 1 0 .19.13.13 0 0 1-.12 0H459a2 2 0 0 0 .09.57 1.14 1.14 0 0 0 .22.4.9.9 0 0 0 .33.24 1.17 1.17 0 0 0 .44.08 1.29 1.29 0 0 0 .39-.05l.28-.11.2-.11a.26.26 0 0 1 .14-.05.13.13 0 0 1 .12.06zm-.49-1.61a1.19 1.19 0 0 0-.06-.38.86.86 0 0 0-.17-.3.77.77 0 0 0-.28-.2 1 1 0 0 0-1.05.18 1.18 1.18 0 0 0-.31.7h1.87zM464.16 102.12a.13.13 0 0 1-.13.07.24.24 0 0 1-.12 0l-.16-.08-.22-.09a1.06 1.06 0 0 0-.31 0 .9.9 0 0 0-.28 0 .66.66 0 0 0-.21.11.47.47 0 0 0-.13.16.42.42 0 0 0 0 .2.33.33 0 0 0 .08.22.66.66 0 0 0 .2.15l.29.11.33.11.33.12a1.17 1.17 0 0 1 .29.17.78.78 0 0 1 .2.25.77.77 0 0 1 .08.35 1.12 1.12 0 0 1-.09.44 1 1 0 0 1-.25.35 1.21 1.21 0 0 1-.41.23 1.66 1.66 0 0 1-.55.08 1.73 1.73 0 0 1-.66-.12 1.66 1.66 0 0 1-.49-.3l.14-.23.06-.07h.1a.23.23 0 0 1 .13 0l.17.11.24.11a1.07 1.07 0 0 0 .33 0 .94.94 0 0 0 .31 0 .66.66 0 0 0 .22-.12.49.49 0 0 0 .13-.18.56.56 0 0 0 0-.22.36.36 0 0 0-.08-.24.66.66 0 0 0-.2-.16 1.66 1.66 0 0 0-.29-.12l-.33-.1-.33-.12a1.16 1.16 0 0 1-.29-.18.79.79 0 0 1-.2-.26.84.84 0 0 1-.08-.37.91.91 0 0 1 .08-.38.93.93 0 0 1 .24-.33 1.16 1.16 0 0 1 .38-.22 1.53 1.53 0 0 1 .52-.08 1.66 1.66 0 0 1 .61.11 1.45 1.45 0 0 1 .46.29zM465.66 102.09a1.78 1.78 0 0 1 .5-.43 1.29 1.29 0 0 1 .66-.16 1.25 1.25 0 0 1 .54.11 1.1 1.1 0 0 1 .41.33 1.61 1.61 0 0 1 .26.55 2.83 2.83 0 0 1 .09.76 2.37 2.37 0 0 1-.1.71 1.7 1.7 0 0 1-.29.57 1.35 1.35 0 0 1-1.09.51 1.25 1.25 0 0 1-.54-.11 1.27 1.27 0 0 1-.4-.3v1.52h-.6v-4.59h.36a.15.15 0 0 1 .16.13zm0 2.07a1 1 0 0 0 .36.33 1 1 0 0 0 .44.09.87.87 0 0 0 .74-.33 1.6 1.6 0 0 0 .26-1 2.43 2.43 0 0 0-.06-.58 1.12 1.12 0 0 0-.17-.39.66.66 0 0 0-.28-.23.91.91 0 0 0-.37-.07 1 1 0 0 0-.52.14 1.49 1.49 0 0 0-.41.38v1.63zM470.32 101.5a1.75 1.75 0 0 1 .66.13 1.45 1.45 0 0 1 .51.35 1.56 1.56 0 0 1 .33.56 2.41 2.41 0 0 1 0 1.46 1.56 1.56 0 0 1-.33.55 1.44 1.44 0 0 1-.51.35 1.77 1.77 0 0 1-.66.12 1.8 1.8 0 0 1-.68-.12 1.43 1.43 0 0 1-.52-.35 1.56 1.56 0 0 1-.33-.55 2.41 2.41 0 0 1 0-1.46 1.56 1.56 0 0 1 .33-.56 1.45 1.45 0 0 1 .52-.35 1.77 1.77 0 0 1 .68-.13zm0 3.06a.88.88 0 0 0 .76-.33 1.94 1.94 0 0 0 0-1.91.88.88 0 0 0-.76-.33 1.06 1.06 0 0 0-.45.09.83.83 0 0 0-.33.26 1.13 1.13 0 0 0-.19.41 2.19 2.19 0 0 0-.06.55 1.57 1.57 0 0 0 .25 1 .89.89 0 0 0 .78.26zM473.29 102a2 2 0 0 1 .24-.23 1.57 1.57 0 0 1 .27-.18 1.38 1.38 0 0 1 .3-.11 1.42 1.42 0 0 1 .33 0 1.24 1.24 0 0 1 .5.09 1 1 0 0 1 .36.27 1.17 1.17 0 0 1 .22.41 1.79 1.79 0 0 1 .07.53V105H475v-2.2a.93.93 0 0 0-.18-.6.66.66 0 0 0-.54-.22 1 1 0 0 0-.5.13 1.64 1.64 0 0 0-.43.35V105h-.61v-3.42h.36a.15.15 0 0 1 .16.13zM478.49 102.12a.13.13 0 0 1-.13.07.24.24 0 0 1-.12 0l-.16-.08-.22-.09a1.06 1.06 0 0 0-.31 0 .9.9 0 0 0-.28 0 .66.66 0 0 0-.21.11.47.47 0 0 0-.13.16.42.42 0 0 0 0 .2.33.33 0 0 0 .08.22.66.66 0 0 0 .2.15l.29.11.3.03.33.12a1.17 1.17 0 0 1 .29.17.78.78 0 0 1 .2.25.77.77 0 0 1 .08.35 1.12 1.12 0 0 1-.09.44 1 1 0 0 1-.25.35 1.21 1.21 0 0 1-.41.23 1.66 1.66 0 0 1-.55.08 1.73 1.73 0 0 1-.66-.12 1.66 1.66 0 0 1-.49-.3l.14-.23.06-.07h.1a.23.23 0 0 1 .13 0l.17.11.24.11a1.07 1.07 0 0 0 .33 0 .94.94 0 0 0 .31 0 .66.66 0 0 0 .22-.12.49.49 0 0 0 .13-.18.56.56 0 0 0 0-.22.36.36 0 0 0-.08-.24.66.66 0 0 0-.2-.16 1.66 1.66 0 0 0-.29-.12l-.33-.1-.33-.12a1.16 1.16 0 0 1-.29-.18.79.79 0 0 1-.2-.26.84.84 0 0 1-.08-.37.91.91 0 0 1 .08-.38.93.93 0 0 1 .24-.33 1.16 1.16 0 0 1 .38-.22 1.53 1.53 0 0 1 .52-.08 1.66 1.66 0 0 1 .61.11 1.45 1.45 0 0 1 .46.29zM480.19 100.48a.38.38 0 0 1 0 .17.47.47 0 0 1-.1.14.44.44 0 0 1-.14.09.42.42 0 0 1-.17 0 .4.4 0 0 1-.17 0 .43.43 0 0 1-.13-.09.46.46 0 0 1-.09-.14.4.4 0 0 1 0-.17.42.42 0 0 1 0-.17.45.45 0 0 1 .09-.14.43.43 0 0 1 .13-.09.4.4 0 0 1 .17 0 .42.42 0 0 1 .17 0 .43.43 0 0 1 .14.09.46.46 0 0 1 .1.14.4.4 0 0 1 0 .17zm-.12 1.08V105h-.6v-3.43h.6zM484 101.56l-1.4 3.43h-.53l-1.4-3.43h.49a.19.19 0 0 1 .12 0 .19.19 0 0 1 .06.09l.87 2.21.07.25.06.24.06-.24q0-.12.07-.25l.88-2.21a.2.2 0 0 1 .07-.09.18.18 0 0 1 .11 0h.47zM487.23 104.5a1.15 1.15 0 0 1-.27.24 1.66 1.66 0 0 1-.33.17 2.1 2.1 0 0 1-.37.1 2.25 2.25 0 0 1-.37 0 1.74 1.74 0 0 1-.66-.12 1.44 1.44 0 0 1-.52-.35 1.62 1.62 0 0 1-.33-.57 2.32 2.32 0 0 1-.12-.79 2 2 0 0 1 .11-.66 1.58 1.58 0 0 1 .33-.54 1.46 1.46 0 0 1 .5-.36 1.66 1.66 0 0 1 .66-.13 1.54 1.54 0 0 1 .57.1 1.29 1.29 0 0 1 .45.3 1.37 1.37 0 0 1 .3.48 1.83 1.83 0 0 1 .11.66.39.39 0 0 1 0 .19.13.13 0 0 1-.12 0h-2.29a2 2 0 0 0 .09.57 1.14 1.14 0 0 0 .22.4.9.9 0 0 0 .33.24 1.17 1.17 0 0 0 .44.08 1.29 1.29 0 0 0 .39-.05l.28-.11.2-.11a.26.26 0 0 1 .14-.05.13.13 0 0 1 .12.06zm-.49-1.61a1.19 1.19 0 0 0-.06-.38.86.86 0 0 0-.17-.3.77.77 0 0 0-.28-.2 1 1 0 0 0-1.05.18 1.18 1.18 0 0 0-.31.7h1.87zM496.1 100.13l-1.51 4.87H494l-1.23-3.7a.63.63 0 0 0 0-.12v-.13.25l-1.37 3.7h-.59l-1.52-4.85h.54a.24.24 0 0 1 .15 0 .2.2 0 0 1 .08.11l1 3.37a1 1 0 0 0 0 .2v.22a1 1 0 0 1 0-.23 2 2 0 0 1 .06-.2l1.14-3.37a.25.25 0 0 1 .08-.11.22.22 0 0 1 .14 0h.19a.22.22 0 0 1 .14 0 .27.27 0 0 1 .08.11l1.14 3.37c0 .06 0 .12.06.19v.21a1 1 0 0 1 0-.21v-.19l1-3.37a.21.21 0 0 1 .08-.11.22.22 0 0 1 .14 0h.54zM499.08 104.5a1.15 1.15 0 0 1-.27.24 1.66 1.66 0 0 1-.33.17 2.11 2.11 0 0 1-.37.1 2.25 2.25 0 0 1-.37 0 1.74 1.74 0 0 1-.66-.12 1.44 1.44 0 0 1-.52-.35 1.62 1.62 0 0 1-.33-.57 2.32 2.32 0 0 1-.12-.79 2 2 0 0 1 .11-.66 1.58 1.58 0 0 1 .33-.54 1.46 1.46 0 0 1 .5-.36 1.66 1.66 0 0 1 .66-.13 1.54 1.54 0 0 1 .57.1 1.29 1.29 0 0 1 .45.3 1.37 1.37 0 0 1 .3.48 1.83 1.83 0 0 1 .11.66.39.39 0 0 1 0 .19.13.13 0 0 1-.12 0h-2.29a2 2 0 0 0 .09.57 1.14 1.14 0 0 0 .22.4.9.9 0 0 0 .33.24 1.17 1.17 0 0 0 .44.08 1.29 1.29 0 0 0 .39-.05l.28-.11.2-.11a.27.27 0 0 1 .14-.05.13.13 0 0 1 .12.06zm-.49-1.61a1.19 1.19 0 0 0-.06-.38.86.86 0 0 0-.17-.3.77.77 0 0 0-.28-.2 1 1 0 0 0-1.05.18 1.18 1.18 0 0 0-.31.7h1.87z" fill="#231f20"/><path d="M513.63 142.17h81.43a76.36 76.36 0 0 0-3.28-65.4h-78.15v65.4z" fill="#f59819"/><path d="M500.48 102a1.77 1.77 0 0 1 .49-.4 1.29 1.29 0 0 1 .63-.15 1.25 1.25 0 0 1 .54.12 1.13 1.13 0 0 1 .41.33 1.56 1.56 0 0 1 .26.53 2.54 2.54 0 0 1 .09.7 2.65 2.65 0 0 1-.1.76 1.72 1.72 0 0 1-.29.58 1.33 1.33 0 0 1-.46.37 1.38 1.38 0 0 1-.62.13 1.17 1.17 0 0 1-.57-.13 1.24 1.24 0 0 1-.4-.36v.31a.15.15 0 0 1-.16.13h-.39v-5h.61v2zm0 2.11a1 1 0 0 0 .36.33 1 1 0 0 0 .43.09.87.87 0 0 0 .74-.33 1.68 1.68 0 0 0 .26-1 1.52 1.52 0 0 0-.23-.93.78.78 0 0 0-.66-.3 1 1 0 0 0-.51.14 1.51 1.51 0 0 0-.4.38v1.63z" fill="#231f20"/><path fill="#dd5a18" d="M539.15 82.97l-14.29 2.43-11.23 37.66v19.11h74.91l6.57-13.48V83.87h-55.99l.03-.9z"/><path d="M578.37 135.85s-9.4.13-12-.63-1.74-5.59-1.74-5.59h-9.22s1.1 4.93-1.74 5.59-12 .63-12 .63a.87.87 0 0 0-1 .62v.85a.87.87 0 0 0 1 .62h36.75a.87.87 0 0 0 1-.62v-.85a.88.88 0 0 0-1.05-.62z" fill="#6a6b6b"/><rect x="524.78" y="83.04" width="70.42" height="47.81" rx="2.72" ry="2.72" fill="#3f291b"/><rect x="527.07" y="86.35" width="66.17" height="37.98" rx=".08" ry=".08" fill="#f3f3f3"/><path fill="#097eb6" d="M527.07 85.27h66.17v7.52h-66.17z"/><path fill="#f49718" d="M530.22 96.57h34.38v1.52h-34.38zM566.57 96.87h23.59v16.82h-23.59zM527.07 120.03h66.17v4.41h-66.17z"/><path fill="#bdbebe" d="M530.22 111.92h34.38v.76h-34.38zM530.22 110.3h34.38v.76h-34.38zM530.22 108.69h34.38v.76h-34.38zM530.22 105.46h34.38v.76h-34.38zM530.22 103.85h34.38v.76h-34.38zM530.22 102.23h34.38v.76h-34.38zM530.22 100.62h34.38v.76h-34.38z"/><g fill="#dd5a18"><path d="M471.16 59.16c-.66.66-1.29 1.34-1.92 2h111.34c-.63-.68-1.26-1.36-1.92-2q-2.66-2.66-5.52-5h-96.46q-2.85 2.35-5.52 5zM531.31 166.66v17.16h20.94a75.55 75.55 0 0 0 26.41-17.15h-47.35z"/></g><path d="M453.69 139.4h51.55v-2.94h-52.57q.48 1.48 1.02 2.94zM456.32 145.65h48.92v-2.94H455c.42.99.85 1.97 1.32 2.94zM459.65 151.89h45.59v-2.94H458c.52.98 1.07 1.97 1.65 2.94z" fill="#bdbebe"/><path d="M457.42 80.16v-2.22c-.38.74-.74 1.48-1.1 2.22h1.1z" fill="#f59819"/><g fill="#231f20"><path d="M449.65 102.52c0 .15 0 .3-.05.45a.6.6 0 0 1 .19.28 1.2 1.2 0 0 1 0 .36.87.87 0 0 1-.06.33.9.9 0 0 1-.19.3 1 1 0 0 1-.15.1c0 .21-.05.42-.08.63h.08a1.55 1.55 0 0 0 .51-.29 1.36 1.36 0 0 0 .33-.45 1.39 1.39 0 0 0 .13-.6 1.14 1.14 0 0 0-.24-.74 1.28 1.28 0 0 0-.47-.37zM449.81 102.29a1 1 0 0 0 .27-.23 1 1 0 0 0 .17-.33 1.33 1.33 0 0 0 .06-.41 1.22 1.22 0 0 0-.11-.51 1.13 1.13 0 0 0-.23-.31c-.1.62-.21 1.24-.29 1.86z"/></g><path d="M459.25 76.1a2.41 2.41 0 0 0 .91.82 2.14 2.14 0 0 0-.44.27 1.78 1.78 0 0 0-.31.34 1.52 1.52 0 0 0-.19.36 1.08 1.08 0 0 0-.06.35 1.19 1.19 0 0 0 .18.68 1.28 1.28 0 0 0 .48.42 2.25 2.25 0 0 0-.89.58 1.3 1.3 0 0 0-.32.9 1.51 1.51 0 0 0 .21.76 1.93 1.93 0 0 0 .63.65 3.59 3.59 0 0 0 1.07.45 6 6 0 0 0 1.51.17 5 5 0 0 0 1.57-.23 3.78 3.78 0 0 0 1.16-.6 2.65 2.65 0 0 0 .72-.85 2.1 2.1 0 0 0 .25-1 1.68 1.68 0 0 0-.21-.89 1.57 1.57 0 0 0-.56-.55 2.69 2.69 0 0 0-.8-.3 7.35 7.35 0 0 0-.92-.13 8.8 8.8 0 0 0-.92 0 7.81 7.81 0 0 1-.8-.05 1.74 1.74 0 0 1-.56-.15.36.36 0 0 1-.21-.34.6.6 0 0 1 .36-.48l.41.06h.43a3.86 3.86 0 0 0 1.18-.18 3 3 0 0 0 1-.5 2.24 2.24 0 0 0 .86-1.8 2.33 2.33 0 0 0-.16-.87l.69-.13a.4.4 0 0 0 .39-.4v-.66h-2.19a3.16 3.16 0 0 0-.79-.3 4.34 4.34 0 0 0-2.14.07 2.87 2.87 0 0 0-.32.13c-.5.81-1 1.62-1.47 2.45a2.21 2.21 0 0 0 .25.95zm1.69-2.1a1.73 1.73 0 0 1 2 0 1.2 1.2 0 0 1 .34.9 1.45 1.45 0 0 1-.08.51 1.06 1.06 0 0 1-.25.39 1.17 1.17 0 0 1-.42.26 2.09 2.09 0 0 1-1.19 0 1.14 1.14 0 0 1-.42-.27 1.09 1.09 0 0 1-.25-.4 1.42 1.42 0 0 1-.08-.5 1.2 1.2 0 0 1 .35-.89zm-.55 6.06a1.72 1.72 0 0 1 .5-.4q.35 0 .72.06h.71l.68.09a2.71 2.71 0 0 1 .55.11.88.88 0 0 1 .36.22.51.51 0 0 1 .13.36.8.8 0 0 1-.12.44.93.93 0 0 1-.35.33 2.14 2.14 0 0 1-.62.22 5.14 5.14 0 0 1-1.74 0 1.92 1.92 0 0 1-.57-.2.84.84 0 0 1-.32-.3.74.74 0 0 1-.1-.38.82.82 0 0 1 .18-.55zM596.68 137.95h-83.05v4.23h81.43c.58-1.4 1.13-2.81 1.62-4.23z" fill="#f59819"/></g><g class="magnifyGlass"><rect x="486.37" y="146.67" width="22.43" height="104.67" rx="6.31" ry="6.31" transform="rotate(-45 497.58 199.005)" fill="#764c27"/><g fill="#654122"><path d="M524.75 210.3a39.69 39.69 0 0 1-14.32-9.76 23.49 23.49 0 0 1-5.36-9.92l-2.9-2.9a25.54 25.54 0 0 0 6.53 14.38c6.15 6.88 14.44 10.42 20 12.15z"/><path d="M538.17 232.25a7.3 7.3 0 0 0 1-2.15c-8.6-2.57-27.24-9.36-36.82-22.08-10.58-14.06-16.21-32.11-17.84-37.95l-1.65-1.65-1.14.27c.06.23 5.72 23.41 18.76 40.73 6.89 9.16 18.16 15.25 26.39 18.75a111.18 111.18 0 0 0 11.3 4.08z"/><path d="M502.66 198.46a40.61 40.61 0 0 1-4.57-14.82l-2.55-2.55a42.17 42.17 0 0 0 5.06 18.46c3.92 7.5 12 14 24.14 19.45a107.13 107.13 0 0 0 13.45 4.93 7.32 7.32 0 0 0-.86-1l-2.46-2.46c-9.67-3.31-26.12-10.35-32.21-22.01zM536.36 234.24c-6.75-2-14.27-4.32-17.48-5.93-3.74-1.87-11.1-5.83-16.75-8.9l5.78 5.78c3.85 2.07 7.59 4 9.93 5.22 3.18 1.59 10.14 3.81 16.64 5.72zM488.7 194.59c-5.25-14.71-15-27.72-15.14-27.85l-1.86 1.41c.1.13 9.67 12.87 14.8 27.22 1.84 5.16 3.17 9.31 4.13 12.54l3.4 3.4c-.94-3.5-2.57-8.99-5.33-16.72zM527.76 235.61c-3-.67-8.88-2.29-12.8-3.38l3.35 3.35c3.27.89 6.8 1.83 8.94 2.31 1 .23 2.53.66 4.25 1.18.13-.11.26-.22.38-.34l1.52-1.52c-2.27-.7-4.31-1.3-5.64-1.6z"/><path d="M475.08 182.65c5.13 5.46 8 14 9 18.23l-.37.1 3 3c.71-1.46-2.8-15.34-9.94-22.93z"/></g><rect x="459.3" y="157.4" width="24.76" height="31.41" rx="1.45" ry="1.45" transform="rotate(-45 471.682 173.103)" fill="#e8e8e8"/><rect x="459.11" y="159.13" width="24.76" height="27.56" rx=".23" ry=".23" transform="rotate(-45 471.48 172.906)" fill="#bdbebe"/><path d="M464.87 167.8a77.77 77.77 0 1 1 0-110 77.86 77.86 0 0 1 0 110zM364 66.91a64.92 64.92 0 1 0 91.81 0 65 65 0 0 0-91.81 0z" fill="#e8e8e8"/><path d="M463.63 166.57a76 76 0 1 1 0-107.5 76.1 76.1 0 0 1 0 107.5zM362.74 65.67a66.67 66.67 0 1 0 94.29 0 66.75 66.75 0 0 0-94.29 0z" fill="#bdbebe"/><path d="M469.81 101c-3.64 0-30.38-29.2-59.93-29.2-29.78 0-58.53 29.2-60.9 29.2s8.79-49.76 61-49.76S473.45 101 469.81 101z" fill="#fff" opacity=".55"/></g><g class="blurredMagnifyGlass"><rect x="486.37" y="146.67" width="22.43" height="104.67" rx="6.31" ry="6.31" transform="rotate(-45 497.58 199.005)" fill="#764c27"/><g fill="#654122"><path d="M524.75 210.3a39.69 39.69 0 0 1-14.32-9.76 23.49 23.49 0 0 1-5.36-9.92l-2.9-2.9a25.54 25.54 0 0 0 6.53 14.38c6.15 6.88 14.44 10.42 20 12.15z"/><path d="M538.17 232.25a7.3 7.3 0 0 0 1-2.15c-8.6-2.57-27.24-9.36-36.82-22.08-10.58-14.06-16.21-32.11-17.84-37.95l-1.65-1.65-1.14.27c.06.23 5.72 23.41 18.76 40.73 6.89 9.16 18.16 15.25 26.39 18.75a111.18 111.18 0 0 0 11.3 4.08z"/><path d="M502.66 198.46a40.61 40.61 0 0 1-4.57-14.82l-2.55-2.55a42.17 42.17 0 0 0 5.06 18.46c3.92 7.5 12 14 24.14 19.45a107.13 107.13 0 0 0 13.45 4.93 7.32 7.32 0 0 0-.86-1l-2.46-2.46c-9.67-3.31-26.12-10.35-32.21-22.01zM536.36 234.24c-6.75-2-14.27-4.32-17.48-5.93-3.74-1.87-11.1-5.83-16.75-8.9l5.78 5.78c3.85 2.07 7.59 4 9.93 5.22 3.18 1.59 10.14 3.81 16.64 5.72zM488.7 194.59c-5.25-14.71-15-27.72-15.14-27.85l-1.86 1.41c.1.13 9.67 12.87 14.8 27.22 1.84 5.16 3.17 9.31 4.13 12.54l3.4 3.4c-.94-3.5-2.57-8.99-5.33-16.72zM527.76 235.61c-3-.67-8.88-2.29-12.8-3.38l3.35 3.35c3.27.89 6.8 1.83 8.94 2.31 1 .23 2.53.66 4.25 1.18.13-.11.26-.22.38-.34l1.52-1.52c-2.27-.7-4.31-1.3-5.64-1.6z"/><path d="M475.08 182.65c5.13 5.46 8 14 9 18.23l-.37.1 3 3c.71-1.46-2.8-15.34-9.94-22.93z"/></g><rect x="459.3" y="157.4" width="24.76" height="31.41" rx="1.45" ry="1.45" transform="rotate(-45 471.682 173.103)" fill="#e8e8e8"/><rect x="459.11" y="159.13" width="24.76" height="27.56" rx=".23" ry=".23" transform="rotate(-45 471.48 172.906)" fill="#bdbebe"/><path d="M464.87 167.8a77.77 77.77 0 1 1 0-110 77.86 77.86 0 0 1 0 110zM364 66.91a64.92 64.92 0 1 0 91.81 0 65 65 0 0 0-91.81 0z" fill="#e8e8e8"/><path d="M463.63 166.57a76 76 0 1 1 0-107.5 76.1 76.1 0 0 1 0 107.5zM362.74 65.67a66.67 66.67 0 1 0 94.29 0 66.75 66.75 0 0 0-94.29 0z" fill="#bdbebe"/><path d="M469.81 101c-3.64 0-30.38-29.2-59.93-29.2-29.78 0-58.53 29.2-60.9 29.2s8.79-49.76 61-49.76S473.45 101 469.81 101z" fill="#fff" opacity=".2"/></g></svg>
