<svg class="svgImage" xmlns="http://www.w3.org/2000/svg" viewBox="0 0 960 360">
	<style>.findWork-st0{fill:#11b6e2}.findWork-st1{fill:#1296cd}.findWork-st2{fill:#808283}.findWork-st3{fill:#6a6b6c}.findWork-st4{fill:#1c1b1a}.findWork-st5{fill:#e9e9e9}.findWork-st6{fill:#f1d097}.findWork-st7{fill:#f59819}.findWork-st8{fill:#f1821a}.findWork-st9{fill:#dd5a18}.findWork-st10,.findWork-st11{fill:none;stroke:#393939;stroke-miterlimit:10}.findWork-st11{stroke:#764c28}.findWork-st12{display:none}.findWork-st13{fill:#654123}.findWork-st14{fill:#038c3c}.findWork-st15{fill:#2dab3a}.findWork-st16{fill:#e3077e}.findWork-st17{fill:#959696}.findWork-st18{fill:#bec0bf}.findWork-st19{fill:#ea689d}.findWork-st20{fill:#f4f4f4}.findWork-st21{fill:#1f6fb5}</style>
	<path class="findWork-st0" d="M0 0h960v360H0z"/>
	<path class="Shadows findWork-st1" d="M703.2 296.7l3.5-39.2-9.1-5.3 18.5-40.4-25 16.6-8.1-8.8-31-38.1-8.4 19.3-5.4.9-22.9 48.9L359.8 83.8l-94.3 201.6-55.1-1.3-35.6 77h564l29-64z"/>
	<g class="computer">
		<path class="findWork-st2" d="M557.1 275.9s-35 .5-44.7-2.3c-9.7-2.8-6.5-20.8-6.5-20.8h-34.3s4 18.3-6.5 20.8c-10.5 2.4-44.7 2.3-44.7 2.3-2 0-3.7 1-3.7 2.3v3.2c0 1.3 1.7 2.3 3.7 2.3H557c2 0 3.7-1 3.7-2.3v-3.2c.1-1.3-1.5-2.3-3.6-2.3z"/>
		<path class="findWork-st3" d="M512.4 273.5c-9.7-2.8-6.5-20.8-6.5-20.8h-34.3s4 18.3-6.5 20.8h47.3z"/>
		<path class="findWork-st4" d="M609.7 257.3H367.9c-5.5 0-10-4.5-10-10V89.5c0-5.5 4.5-10 10-10h241.9c5.5 0 10 4.5 10 10v157.8c-.1 5.5-4.6 10-10.1 10z"/>
		<path class="findWork-st5" d="M612.1 233H366.7c-.2 0-.3-.1-.3-.3V92.1c0-.2.1-.3.3-.3h245.4c.2 0 .3.1.3.3v140.6c0 .2-.1.3-.3.3z"/>
		<path class="findWork-st1" d="M366.4 87.9h246v22.3h-246z"/>
		<path class="findWork-st7" d="M378.1 132.3h127.8v7.7H378.1zM513.3 131H601v62.5h-87.7z"/>
		<path class="findWork-st2" d="M513.3 196.5H601v2.8h-87.7z"/>
		<path class="findWork-st7" d="M366.4 216.9h82.2v16.4h-82.2z"/>
		<path class="findWork-st2" d="M378.1 186.9h127.8v2.8H378.1zM378.1 180.9h127.8v2.8H378.1zM378.1 174.9h127.8v2.8H378.1zM378.1 168.9h127.8v2.8H378.1zM378.1 162.9h127.8v2.8H378.1zM378.1 156.9h127.8v2.8H378.1zM378.1 150.9h127.8v2.8H378.1zM378.1 144.9h127.8v2.8H378.1z"/>
		<path class="findWork-st8" d="M448.2 216.9h82.2v16.4h-82.2z"/>
		<path class="findWork-st9" d="M530.2 216.9h82.2v16.4h-82.2zM366.4 109.4h246v6.7h-246z"/>
		<path class="findWork-st10" d="M366.4 87.9h246v145.4h-246z"/>
	</g>
	<g class="desk">
		<g class="tableLegL">
			<path class="findWork-st3" d="M236.5 305.7H253V360h-16.5z"/>
			<path class="findWork-st2" d="M255.8 309.7h-22.1c-2.7 0-4.9-2.2-4.9-4.9v-2.7c0-2.7 2.2-4.9 4.9-4.9h22.1c2.7 0 4.9 2.2 4.9 4.9v2.7c.1 2.7-2.1 4.9-4.9 4.9z"/>
		</g>
		<g class="tableLegR">
			<path class="findWork-st3" d="M723.5 305.7H740V360h-16.5z"/>
			<path class="findWork-st2" d="M742.8 309.7h-22.1c-2.7 0-4.9-2.2-4.9-4.9v-2.7c0-2.7 2.2-4.9 4.9-4.9h22.1c2.7 0 4.9 2.2 4.9 4.9v2.7c.1 2.7-2.1 4.9-4.9 4.9z"/>
		</g>
		<path class="tableTop findWork-st13" d="M765.1 300.1H213.6c-2.5 0-4.5-2-4.5-4.5v-9c0-2.5 2-4.5 4.5-4.5h551.5c2.5 0 4.5 2 4.5 4.5v9c0 2.5-2 4.5-4.5 4.5z"/>
	</g>
	<g class="plant">
		<path class="pot findWork-st8" d="M706.4 282.3h-36.3l-3-38.6h42.4z"/>
		<path class="findWork-stem findWork-st13" d="M688.1 263c-2.3 0-4.2-1.9-4.2-4.2v-24.1c0-2.3 1.9-4.2 4.2-4.2 2.3 0 4.2 1.9 4.2 4.2v24.1c.1 2.3-1.8 4.2-4.2 4.2z"/>
		<path class="potShadow findWork-st9" d="M692.5 282.3h-22.4l-3-38.6h42.4z"/>
		<path class="backLeaves findWork-st14" d="M702.7 221.4c4.4-12.3 8.8-24.7 13.2-37 1.2-3.3 2.3-7 .9-10.1-3.6 15.6-10 30.6-18.9 44 .1-5.5.1-11.2-.7-16.6 2-5.5 4.5-10.8 7.4-15.9-4.2 1-7.1 4.5-9 8.5-1.1-3.5-2.6-6.7-4.8-9.7 2.1 4 1.5 8.8 1.4 13.3 0 2 .1 4.1.3 6.1-1.1 4.3-2.2 8.6-5 12-1-12.1-1.8-25.2 4.6-35.6 1.6-2.6 3.6-5 5-7.8s2-6.2.6-8.9c-4.9 9-9.9 17.9-14.8 26.9-2.1 3.8-3.4 10.2-4.1 14.4-.4-1-.8-2.1-1.2-3.1-1-2.4-2-4.8-3.4-6.8-.4-.6-1-1.2-1.6-1.3-.8-.1-1.4.8-1.6 1.7-.1.9.2 1.9.4 2.8.2.7.4 1.4.7 2.2-1.9-2.7-3.9-5.4-5.3-7.3-3.8-5.1-8.9-9.4-15-11.3 1.4 3 2.7 6.1 4.1 9.1 1 2.3 2.1 4.6 3.6 6.5 1.7 2.2 4 4 6.1 5.8 6.4 5.7 11.6 12.8 14.9 20.8-5.2-6.8-10.5-13.8-17.7-18.6-7.1-4.8-16.5-7-24.4-3.7 6.9 7.3 16 12.6 25.8 14.9 0 0 10.1 5 14.6 7.7 4.9 3 6.1 15.2 8.3 14.8.3-.1.6-.3.9-.6 1.3-1.1 3.7-2.3 6.6-5.1 8.4-8.1 21.6-22 28.8-29.1 5.8-5.7 11.5-11.5 15.6-18.5-12 11.7-24.1 23.6-36.3 35.5zm-11.7 8.7c.2-1.3.4-2.6.5-3.6.4-4.2 1.1-8.3 2.1-12.4.1 1.1.1 2.2.1 3.3.1 3.8-1.3 8.8-2.7 12.7z"/>
		<path class="topLeaves findWork-st15" d="M733.1 165.1c-10.1 20-21.6 39.2-34.3 57.6 5-17.7 10-36.7 4.4-54.3-3 18.4-5.9 36.8-8.9 55.1-3.1-18.5 5.9-38.2-.5-55.8-3.9 4.8-6.9 10.4-8.3 16.4-2.4 10.6.5 20.7 3.5 30.9.5 1.6.6 3.9.5 6.4-1.6-6.4-4.1-14.5-6-20.1-1.4 7.3-1.1 14.9.9 22 .8 3 2 6 2.2 9.1v2.5c-.6-1.5-1.8-3.5-3.9-5.9-5.9-6.8-7.2-14.4-12.8-20-1.1-1.1-2.3-2.1-3.8-2.5-1.5-.5-3.2-.4-4.4.6-.3.3-.6.6-.7 1-.1.4.1.8.3 1.2 3.2 7.6 7.3 14.8 12.1 21.5.9 1.3 1.9 2.6 3.2 3.6 2.5 1.9 10.6 5.7 10.9 5.4 2.8 0 5-3.3 6.5-5.7 1.4-2.4 2.4-5.2 4.3-7.2 2.1-2.2 5.1-3.2 7.6-4.9 4-2.8 6.3-7.2 8.6-11.5 5.2-9.8 10.3-19.6 15.5-29.4 2.7-5 5.4-10.8 3.1-16z"/>
	</g>
	<g class="pencilHolder">
		<g class="pencil1_1_">
			<path transform="rotate(7.458 314.964 239.164)" class="findWork-st7" d="M313 224.7h4v29h-4z"/>
			<path class="findWork-st16" d="M319.4 221l-4-.5.4-2.9c.1-.5.6-.9 1.1-.9l2 .3c.5.1.9.6.9 1.1l-.4 2.9z"/>
			<path transform="rotate(7.458 317.086 222.942)" class="findWork-st17" d="M315.3 221.4h3.7v3.3h-3.7z"/>
			<path transform="rotate(7.458 316.847 224.771)" class="findWork-st18" d="M314.9 224.4h4v.8h-4z"/>
			<path transform="rotate(7.458 317.31 221.236)" class="findWork-st18" d="M315.4 220.8h4v1h-4z"/>
			<path class="findWork-st19" d="M316.1 217l3.6.5s-.2-.4-.8-.5c-.6-.1-1.5-.2-2-.3-.5 0-.8.3-.8.3z"/>
		</g>
		<g class="pencil2">
			<path transform="rotate(13.195 323.576 240.536)" class="findWork-st7" d="M321.5 226h4v29h-4z"/>
			<path class="findWork-st16" d="M329.7 222.9l-3.9-.9.7-2.9c.1-.5.7-.9 1.2-.7l2 .5c.5.1.9.7.7 1.2l-.7 2.8z"/>
			<path class="findWork-st19" d="M326.8 218.5l3.5.9s-.1-.5-.7-.6c-.6-.1-1.5-.3-2-.5-.4-.1-.8.2-.8.2z"/>
			<path transform="rotate(13.195 327.31 224.602)" class="findWork-st17" d="M325.4 222.9h3.7v3.3h-3.7z"/>
			<path transform="rotate(13.195 326.889 226.4)" class="findWork-st18" d="M324.8 226h4v.8h-4z"/>
			<path transform="rotate(13.195 327.703 222.926)" class="findWork-st18" d="M325.6 222.4h4v1h-4z"/>
		</g>
		<g class="pen">
			<path transform="rotate(11.718 317.77 241.91)" class="findWork-st20" d="M315.9 228.3h3.7v27.2h-3.7z"/>
			<path class="findWork-st21" d="M321.7 236l-4.8-1 3.5-17.1c.1-.5.6-.9 1.2-.8l2.8.6c.5.1.9.6.8 1.2l-3.5 17.1z"/>
			<path class="findWork-st1" d="M324.9 224.7l-2.4 11.5-2.5-.5 2.4-11.5s.2-1.6 1.7-1.3c1.7.3.8 1.8.8 1.8z"/>
			<path class="findWork-st21" d="M324.3 223.3c1 .2.6 1.4.6 1.4l-2.8 13.6c-.1.3-.4.6-.8.5l-.8-.2c-.3-.1-.6-.4-.5-.8l2.8-13.6c.2-.6.6-1.1 1.5-.9z"/>
		</g>
		<path class="cup findWork-st14" d="M296.8 246.7h27.3v35.5h-27.3z"/>
		<path class="topCup findWork-st15" d="M324.4 248.1h-27.9c-.5 0-.9-.4-.9-.9v-2.8c0-.5.4-.9.9-.9h27.9c.5 0 .9.4.9.9v2.8c0 .5-.4.9-.9.9z"/>
	</g>
</svg>
