<svg class="Layer_1" xmlns="http://www.w3.org/2000/svg">
    <path class="svg-med-blue" d="M0 0h960v300H0V0z"/>
    <path class="svg-dark-blue" d="M321.1 148.2l46.1-11.9 11.9 46.1-46.1 11.9-11.9-46.1z"/>
    <path class="svg-med-dark-blue" d="M368.8 177l-36.6-8 10.1-46.4 46.4 10.1-8 37.1-11.9 7.2z"/>
    <path class="svg-light-orange" d="M320.7 148.1l45-15.5 15.5 45-45 15.5-15.5-45z"/>
    <path class="svg-med-orange" d="M378.5 169.9l-12.9-37.3-28.6 9.9-6 25.2 36.6 8.6 10.9-6.4z"/>
    <path class="svg-dark-med-brown" d="M331.7 170.1c6.1-.3 12.2 3.1 17.5-1.2 1.1-.9 1.9-2.5 3.1-3.2 2.2-1.4 4.7-1.4 7-1.5 3.1-.2 5-.4 7.7-2.1 1.4-.8.1-3-1.3-2.2-4.9 3-10.3-.5-14.7 3.5-3.7 3.4-5.5 5.8-11.1 4.9-2.8-.5-5.3-.8-8.2-.7-1.6.1-1.6 2.6 0 2.5zm5.7 9.6c.3-.7 4.6.4 5.6.1.7-.2 1.2-.8 1.8-1.2 1.3-1 2.5-1.7 4-2.3 2-.8 1.4-1.3 3.5.6.8.7 1.7.3 2.1-.6 1.1-2.9 1.7-4.2 4.8-3.4 1.7.4 2.7.5 4.4.1 3.2-.7 7.1-.5 9.4-3.1 1.1-1.2-.7-3-1.8-1.8-1 1.1-5.3 1.7-7.1 2-2.2.4-3.4.5-5.5 0-.7-.2-1.6-.6-2.3-.5-2.9.2-3.4 3.8-4.3 6.1l2.1-.6c-1.4-1.2-2.5-2.8-4.4-2.5-1 .1-3.6 1.4-4.4 2-.6.4-1.4 1.6-1.9 1.9-1.6.9-2.6.1-4.2.2-2.3.1-3.2.1-4.1 2.4-.7 1.4 1.7 2.1 2.3.6zm-7-18c2-1.4 3.8-3.6 6.2-2.4.8.4 1 1.4 2.1 1.7 2 .5 2-.7 3.1-1.9 2.3-2.4 6.4-1.5 9.4-3.2 2.3-1.3 3.9-3.3 6.6-3.6 1.8-.2 2.8.4 4.5 0 1.6-.4.9-2.8-.7-2.4-1.6.4-3.1-.9-4.8-.4-1.4.3-2.6 1.3-3.7 2.2-2.6 1.8-4.6 3.1-7.8 3.3-1.4.1-2.8-.1-4.1.7-.5.3-.9 1.4-1.4 1.5-1.5.5-2.1-1.1-3.5-1.3-2.6-.4-5.1 2.2-7.1 3.7-1.4.8-.1 3 1.2 2.1z"/>
    <path class="svg-yellow" d="M373.7 171.2l-37.3-4.6 5.8-47.2 47.2 5.8-4.6 37.7-11.1 8.3z"/>
    <path class="svg-dark-med-brown" d="M347.5 136.1c2.5.2 4-.7 5.2-2.8-.6.1-1.1.3-1.7.4 2.6 1.4 5.4 2.8 8.3 3.5 2.6.6 4.8-.2 7.2-.2 2.6 0 5 2.5 7.4 3.4 2.5.9 5.1 1.1 7.8.9 1.6-.1 1.6-2.6 0-2.5-2.9.2-5.7-.1-8.3-1.4-1.5-.7-3.4-2.9-5.1-3.1-1.8-.3-3.5.8-5.4.9-3.8.1-7.4-1.9-10.7-3.5-.6-.3-1.4-.2-1.7.4-1 .5-2 1.1-3.1 1.6-1.5-.3-1.5 2.2.1 2.4zm33.6 9.8c-.8-.8-1.7-1.6-2.5-2.4-.2-.7-.9-1-1.5-.9-2.9.6-5.8 1.1-8.8.8-2.6-.3-4.4-2.2-6.7-2.6-1.5-.2-2.4.4-3.8.9-3.8 1.1-7.3.9-11-.5-1.5-.6-2.2 1.9-.7 2.4 2.8 1.1 5.6 1.6 8.7 1.3 1.3-.1 2.4-.5 3.6-.8 2.5-.5 2.4-.4 4.8.5 4.9 1.9 9.4 1.4 14.5.4l-1.5-.9c.6 2.4 1.8 3.6 4.2 4.1 1.6.4 2.2-2 .7-2.3zm-35.9 6c2.6-.3 4.8-1.5 6.6.6.5.6.3 1.6.9 2.3 1.4 1.4 2 .5 3.4.2 3.7-.8 6.9 1.5 10.8 1.2 3.2-.2 5.1-1 8.3.5 1.6.7.7 1 2.5 1.5 1.6.4 2.2-2 .7-2.4-1.4-.3-2.2-1.8-3.5-2.4-1.5-.6-3-.3-4.6-.1-1.5.2-3.4.7-5 .5-1.8-.2-3.3-1.2-5-1.7-1.2-.4-1.8-.7-3.1-.7-1.2 0-1.3 1-2.4.5-1-.5-.5-1.4-1.3-2.1-2.2-2.1-5.5-.8-8.4-.4-1.4.2-1.4 2.7.1 2.5z"/>
    <path class="svg-golden-yellow" d="M374.9 161.6l9.9 1.3-11.1 8.3 1.2-9.6z"/>
    <circle class="svg-dark-blue" cx="374" cy="68.8" r="26.4"/>
    <path class="svg-med-gray" d="M384.8 87.5s-5 2.5-11.1 2.5-12-2.5-12-2.5l-14.4-34h52.8l-15.3 34z"/>
    <circle class="svg-med-gray" cx="373.7" cy="50.2" r="26.4"/>
    <path class="svg-med-orange" d="M383.9 84.6s-4.5 2.3-10.1 2.3-10.9-2.3-10.9-2.3-13.1-25.2-13.1-31.1 7.1-14.8 23.6-14.8c16.4 0 26.1 9.5 26.1 16.5l-15.6 29.4z"/>
    <path class="svg-light-orange" d="M364.9 57.6l-.5-4.9c-.2-2.6 1.7-4.9 4.2-5.1l8-.8c2.6-.2 4.9 1.7 5.1 4.2l.5 4.9c.2 2.6-1.7 4.9-4.2 5.1l-8 .8c-2.6.3-4.9-1.6-5.1-4.2zm13.2 26.3l-4.5-1.9c-2.4-1-3.5-3.8-2.5-6.1l3.2-7.4c1-2.4 3.8-3.5 6.1-2.5l4.5 1.9c2.4 1 3.5 3.8 2.5 6.1l-3.2 7.4c-1 2.4-3.7 3.5-6.1 2.5z"/>
    <path class="svg-light-orange" d="M371.4 72l-4.7 1.3c-2.5.7-5.1-.8-5.8-3.2l-2.2-7.8c-.7-2.5.8-5.1 3.2-5.8l4.7-1.3c2.5-.7 5.1.8 5.8 3.2l2.2 7.8c.7 2.5-.8 5.1-3.2 5.8z"/>
    <path class="svg-off-white" d="M371 84.8l-2.3.8c-.6.2-1.3-.1-1.5-.7l-4.2-12c-.2-.6.1-1.3.8-1.5l4.4 1.7 3.5 10.3c.2.6-.1 1.2-.7 1.4z"/>
    <path class="svg-light-gray" d="M392 31.3s.4.5 1.2 1.3c.4.4.9 1 1.4 1.7.2.3.5.7.8 1.1.3.4.5.9.8 1.3 1.1 1.9 2.2 4.4 2.9 7.4.7 3 .9 6.5.3 10.3s-2.2 7.8-4.8 11.4c-.3.5-.7.9-1.1 1.3s-.7.9-1.2 1.3c-.8.8-1.5 1.6-2.5 2.3-1.9 1.6-4 2.8-6.2 3.8-2.3 1-4.8 1.6-7.3 1.9-2.6.3-5.2.2-7.8-.3-2.6-.5-5.2-1.4-7.6-2.6-1.2-.7-2.4-1.3-3.4-2.2-.5-.4-1.1-.8-1.6-1.3l-.8-.7-.4-.3-.2-.2-.1-.1-.1-.1c-1.6-1.7-3.5-4.1-4.7-6.4-1.2-2.4-2.1-4.9-2.6-7.6-.4-2.6-.6-5.3-.3-7.8.4-2.6 1-5 2-7.3s2.2-4.4 3.8-6.2c.7-1 1.6-1.8 2.4-2.6l.3-.3.3-.3.6-.5c.4-.3.8-.7 1.3-1 3.7-2.7 7.6-4.2 11.4-4.8 3.8-.6 7.3-.4 10.3.3 3 .7 5.5 1.8 7.4 2.9.5.3.9.6 1.3.8.4.3.8.6 1.1.8.7.5 1.3.9 1.7 1.4 1 .8 1.4 1.3 1.4 1.3zm0 0s-.5-.4-1.3-1.2c-.4-.4-1-.8-1.7-1.3-.3-.2-.7-.5-1.1-.8-.4-.2-.9-.5-1.3-.8-1.9-1-4.4-2.2-7.4-2.7s-6.5-.7-10.1.2c-1.8.5-3.6 1-5.4 2-.4.2-.9.5-1.3.7-.4.3-.8.5-1.3.8-.9.5-1.6 1.2-2.4 1.8-.4.3-.8.7-1.2 1.1l-.6.6-.3.3-.2.3c-.7.8-1.4 1.6-2 2.5-1.3 1.8-2.2 3.8-2.9 5.9-.7 2.1-1.1 4.3-1.3 6.6-.1 2.3.1 4.6.5 6.8.5 2.2 1.4 4.4 2.4 6.4.6 1 1.2 2 1.9 2.9.6.9 1.6 1.8 2.4 2.7-.1-.1 0 0 0 0l.1.1.2.1.3.3.6.6c.4.4.9.7 1.3 1.1.9.7 1.9 1.3 2.9 1.9.5.3 1 .5 1.6.8.3.1.5.3.8.4l.8.3c1.1.5 2.2.7 3.3 1 2.2.5 4.5.7 6.8.5s4.5-.5 6.6-1.3 4.1-1.7 5.8-2.9c.9-.5 1.7-1.3 2.6-2 .4-.3.7-.7 1.1-1.1s.8-.7 1.1-1.1c2.7-3.2 4.5-6.9 5.3-10.5.9-3.6.7-7.1.2-10.1s-1.6-5.5-2.7-7.4c-.3-.5-.5-.9-.8-1.3-.3-.4-.5-.8-.8-1.1-.5-.7-.9-1.3-1.3-1.7-.7-1-1.2-1.4-1.2-1.4z"/>
    <path class="svg-off-white" d="M337.7 62.8c4.4-4.1 14.9-13.9 16.1-14.3 1.5-.6 7.6 13.9 8.5 16.6.3.8 1.4 3.8 2.4 6.5 0 0-5.8-2.6-7.6-5.1 0-.1 0-.1-.1-.2-1.5-5-4.4-9.6-4.4-9.6L340 68.3c.1-.1-3.5-4.4-2.3-5.5z"/>
    <ellipse transform="rotate(-23.484 338.886 65.5)" class="svg-med-gray" cx="338.9" cy="65.5" rx="1.8" ry="2.9"/>
    <path class="svg-med-blue" d="M360 68.9c1.1.1 2.1 0 3-.1.2 0 .5-.1.7-.1l-.5-1.6c-.1 0-.3.1-.4.1-1.3.2-3.3.1-5-.1-.2 0 1.8 1.7 2.2 1.8zm-15.7-8c-.3-1.6-.7-2.7-1-3.4-.4.4-.9.8-1.3 1.2.2.6.5 1.4.7 2.5.2 1.2.1 3 0 4.7l1.8-1.6c0-1.3 0-2.5-.2-3.4zm4.4-4.5c-.2-1.4-.6-2.4-.9-3.1-.4.4-.9.8-1.3 1.2.2.5.4 1.3.6 2.2.2 1.3.1 3.3-.1 5.1l1.8-1.6c.1-1.4.1-2.7-.1-3.8zm4.9-5.2c-.2-.9-.4-1.7-.6-2.3-.4.3-.8.7-1.4 1.1.1.4.2.9.3 1.5.3 1.5.1 4-.2 6l.9-.9s.3.4.7 1.2c.3-2 .6-4.8.3-6.6z"/>
    <path class="svg-med-blue" d="M358.7 56.4c-.5.2-1.2.4-2.1.5-1 .2-2.4.1-3.8 0 .2.3.5.9 1 1.7 1.1.1 2.2 0 3.1-.1 1-.2 1.9-.4 2.5-.6-.2-.5-.4-1-.7-1.5zm-2.5 7.5c1.7.2 3.5.3 4.8 0 .3 0 .6-.1.8-.2-.2-.5-.4-1-.6-1.6-.2 0-.3.1-.5.1-1.4.2-3.4.1-5.2-.2.3.7.5 1.3.7 1.9zm8.6 14.4c1.5.1 3.2.2 4.4 0 .3 0 .5-.1.7-.1l-.5-1.5c-.1 0-.3.1-.4.1-1.2.2-3.1.1-4.7-.1l.5 1.6zm1.5 4.4c1.6.2 3.3.2 4.6 0 .2 0 .3-.1.5-.1l-.5-1.6h-.2c-1.3.2-3.2.1-4.9-.1l.5 1.8z"/>
    <g>
        <path class="svg-black-brown" d="M740.9 261c-6.7-3.5-134.1-71.1-146.8-77.8s-7.5-9.6-4.5-15.2 44-66.7 44-66.7 4.1-8.7 12.1-4.5 125.8 66.7 134 71c8.2 4.4 3.7 10.9 3.7 10.9s-27 67.3-31.2 75.3c-4.1 8.1-4.1 10.8-11.3 7z"/>
        <path class="svg-med-gray" d="M779.9 167.9L644.5 96.2c-4-2.1-5.5-7.1-3.4-11l38.7-73.1c2.1-4 7.1-5.5 11-3.4l135.3 71.7c4 2.1 5.5 7.1 3.4 11l-38.7 73.1c-2 4-7 5.5-10.9 3.4z"/>
        <path class="svg-med-orange" d="M644.1 101.3l132.5 70.2-32.3 80.9-149-78.9 48.8-72.2z"/>
        <path class="svg-light-orange" d="M774.1 177.5l-29.8 74.9-148-78.4 177.8 3.5z"/>
        <path class="svg-med-dark-blue" d="M747.9 243.6l-3.6 8.8-149-78.9 5.3-8 147.3 78.1z"/>
        <path class="svg-light-gray" d="M774.8 157L655.7 94c-1.3-.7-1.8-2.3-1.1-3.5l24.8-46.9c.7-1.3 2.3-1.8 3.5-1.1l119 63.1c1.3.7 1.8 2.3 1.1 3.5L778.2 156c-.6 1.2-2.2 1.7-3.4 1z"/>
        <path class="svg-med-blue" d="M747.9 243.6l-3.6 8.8-149-78.9 22.7 1.3 129.9 68.8z"/>
        <path class="svg-black-brown" d="M662.2 94.8l-4.3-2.3c-.8-.4-1.1-1.4-.7-2.2l.8-1.5c.4-.8 1.4-1.1 2.2-.7l4.3 2.3c.8.4 1.1 1.4.7 2.2l-.8 1.5c-.4.8-1.4 1.2-2.2.7zm8.6 4.6l-4.3-2.3c-.8-.4-1.1-1.4-.7-2.2l.8-1.5c.4-.8 1.4-1.1 2.2-.7l4.3 2.3c.8.4 1.1 1.4.7 2.2l-.8 1.5c-.4.8-1.4 1.1-2.2.7zm8.7 4.6l-4.3-2.3c-.8-.4-1.1-1.4-.7-2.2l.8-1.5c.4-.8 1.4-1.1 2.2-.7l4.3 2.3c.8.4 1.1 1.4.7 2.2l-.8 1.5c-.5.8-1.5 1.1-2.2.7zm8.6 4.6l-4.3-2.3c-.8-.4-1.1-1.4-.7-2.2l.8-1.5c.4-.8 1.4-1.1 2.2-.7l4.3 2.3c.8.4 1.1 1.4.7 2.2l-.8 1.5c-.4.8-1.4 1.1-2.2.7zm8.6 4.5l-4.3-2.3c-.8-.4-1.1-1.4-.7-2.2l.8-1.5c.4-.8 1.4-1.1 2.2-.7l4.3 2.3c.8.4 1.1 1.4.7 2.2l-.8 1.5c-.4.9-1.4 1.2-2.2.7zm8.7 4.6l-4.3-2.3c-.8-.4-1.1-1.4-.7-2.2l.8-1.5c.4-.8 1.4-1.1 2.2-.7l4.3 2.3c.8.4 1.1 1.4.7 2.2l-.8 1.5c-.4.8-1.4 1.1-2.2.7zm8.6 4.6l-4.3-2.3c-.8-.4-1.1-1.4-.7-2.2l.8-1.5c.4-.8 1.4-1.1 2.2-.7l4.3 2.3c.8.4 1.1 1.4.7 2.2l-.8 1.5c-.4.8-1.4 1.1-2.2.7zm8.7 4.6l-4.3-2.3c-.8-.4-1.1-1.4-.7-2.2l.8-1.5c.4-.8 1.4-1.1 2.2-.7l4.3 2.3c.8.4 1.1 1.4.7 2.2l-.8 1.5c-.5.8-1.4 1.1-2.2.7zm8.6 4.6l-4.3-2.3c-.8-.4-1.1-1.4-.7-2.2l.8-1.5c.4-.8 1.4-1.1 2.2-.7l4.3 2.3c.8.4 1.1 1.4.7 2.2l-.8 1.5c-.4.8-1.4 1.1-2.2.7zm8.6 4.5l-4.3-2.3c-.8-.4-1.1-1.4-.7-2.2l.8-1.5c.4-.8 1.4-1.1 2.2-.7l4.3 2.3c.8.4 1.1 1.4.7 2.2l-.8 1.5c-.4.9-1.4 1.2-2.2.7zm8.7 4.6l-4.3-2.3c-.8-.4-1.1-1.4-.7-2.2l.8-1.5c.4-.8 1.4-1.1 2.2-.7l4.3 2.3c.8.4 1.1 1.4.7 2.2l-.8 1.5c-.4.8-1.4 1.1-2.2.7zm8.6 4.6l-4.3-2.3c-.8-.4-1.1-1.4-.7-2.2l.8-1.5c.4-.8 1.4-1.1 2.2-.7l4.3 2.3c.8.4 1.1 1.4.7 2.2l-.8 1.5c-.4.8-1.4 1.1-2.2.7zm8.7 4.6l-4.3-2.3c-.8-.4-1.1-1.4-.7-2.2l.8-1.5c.4-.8 1.4-1.1 2.2-.7l4.3 2.3c.8.4 1.1 1.4.7 2.2l-.8 1.5c-.4.8-1.4 1.1-2.2.7zm8.6 4.6l-4.3-2.3c-.8-.4-1.1-1.4-.7-2.2l.8-1.5c.4-.8 1.4-1.1 2.2-.7l4.3 2.3c.8.4 1.1 1.4.7 2.2l-.8 1.5c-.4.8-1.4 1.1-2.2.7zm-105-62.9l-8.6-4.6c-.8-.4-1.1-1.4-.7-2.2l2.3-4.4c.4-.8 1.4-1.1 2.2-.7l8.6 4.6c.8.4 1.1 1.4.7 2.2l-2.3 4.4c-.4.8-1.4 1.1-2.2.7zm8.3 4.4l-4-2.1c-.8-.4-1.1-1.4-.7-2.2l2.3-4.4c.4-.8 1.4-1.1 2.2-.7l4 2.1c.8.4 1.1 1.4.7 2.2l-2.3 4.4c-.4.8-1.4 1.1-2.2.7zm8.3 4.4l-4-2.1c-.8-.4-1.1-1.4-.7-2.2l2.3-4.4c.4-.8 1.4-1.1 2.2-.7l4 2.1c.8.4 1.1 1.4.7 2.2l-2.3 4.4c-.4.8-1.4 1.1-2.2.7zm8.4 4.4l-4-2.1c-.8-.4-1.1-1.4-.7-2.2l2.3-4.4c.4-.8 1.4-1.1 2.2-.7l4 2.1c.8.4 1.1 1.4.7 2.2l-2.3 4.4c-.5.8-1.5 1.1-2.2.7zm8.3 4.4l-4-2.1c-.8-.4-1.1-1.4-.7-2.2l2.3-4.4c.4-.8 1.4-1.1 2.2-.7l4 2.1c.8.4 1.1 1.4.7 2.2l-2.3 4.4c-.5.8-1.5 1.1-2.2.7zm8.3 4.4l-4-2.1c-.8-.4-1.1-1.4-.7-2.2l2.3-4.4c.4-.8 1.4-1.1 2.2-.7l4 2.1c.8.4 1.1 1.4.7 2.2l-2.3 4.4c-.5.8-1.4 1.1-2.2.7zm8.3 4.4l-4-2.1c-.8-.4-1.1-1.4-.7-2.2l2.3-4.4c.4-.8 1.4-1.1 2.2-.7l4 2.1c.8.4 1.1 1.4.7 2.2l-2.3 4.4c-.5.8-1.4 1.1-2.2.7zm8.3 4.4l-4-2.1c-.8-.4-1.1-1.4-.7-2.2l2.3-4.4c.4-.8 1.4-1.1 2.2-.7l4 2.1c.8.4 1.1 1.4.7 2.2l-2.3 4.4c-.5.8-1.4 1.1-2.2.7zm8.3 4.4l-4-2.1c-.8-.4-1.1-1.4-.7-2.2l2.3-4.4c.4-.8 1.4-1.1 2.2-.7l4 2.1c.8.4 1.1 1.4.7 2.2l-2.3 4.4c-.4.8-1.4 1.1-2.2.7zm8.3 4.4l-4-2.1c-.8-.4-1.1-1.4-.7-2.2l2.3-4.4c.4-.8 1.4-1.1 2.2-.7l4 2.1c.8.4 1.1 1.4.7 2.2l-2.3 4.4c-.4.8-1.4 1.1-2.2.7zm8.3 4.4l-4-2.1c-.8-.4-1.1-1.4-.7-2.2l2.3-4.4c.4-.8 1.4-1.1 2.2-.7l4 2.1c.8.4 1.1 1.4.7 2.2l-2.3 4.4c-.4.8-1.4 1.1-2.2.7zm8.3 4.4l-4-2.1c-.8-.4-1.1-1.4-.7-2.2l2.3-4.4c.4-.8 1.4-1.1 2.2-.7l4 2.1c.8.4 1.1 1.4.7 2.2l-2.3 4.4c-.4.8-1.4 1.1-2.2.7zm8.3 4.4l-4-2.1c-.8-.4-1.1-1.4-.7-2.2l2.3-4.4c.4-.8 1.4-1.1 2.2-.7l4 2.1c.8.4 1.1 1.4.7 2.2l-2.3 4.4c-.4.8-1.4 1.1-2.2.7zm8.3 4.4l-4-2.1c-.8-.4-1.1-1.4-.7-2.2l2.3-4.4c.4-.8 1.4-1.1 2.2-.7l4 2.1c.8.4 1.1 1.4.7 2.2l-2.3 4.4c-.4.8-1.4 1.1-2.2.7zm-4-13.3l8.6 4.6c.8.4 1.8.1 2.2-.7l2.3-4.4c.4-.8.1-1.8-.7-2.2l-8.6-4.6c-.8-.4-1.8-.1-2.2.7l-2.3 4.4c-.4.8-.1 1.8.7 2.2zm-8.4-4.4l4 2.1c.8.4 1.8.1 2.2-.7l2.3-4.4c.4-.8.1-1.8-.7-2.2l-4-2.1c-.8-.4-1.8-.1-2.2.7l-2.3 4.4c-.4.8-.1 1.7.7 2.2zm-8.3-4.4l4 2.1c.8.4 1.8.1 2.2-.7l2.3-4.4c.4-.8.1-1.8-.7-2.2l-4-2.1c-.8-.4-1.8-.1-2.2.7l-2.3 4.4c-.4.8-.1 1.7.7 2.2zm-8.3-4.4l4 2.1c.8.4 1.8.1 2.2-.7l2.3-4.4c.4-.8.1-1.8-.7-2.2l-4-2.1c-.8-.4-1.8-.1-2.2.7l-2.3 4.4c-.4.8-.1 1.7.7 2.2zm-8.3-4.4l4 2.1c.8.4 1.8.1 2.2-.7l2.3-4.4c.4-.8.1-1.8-.7-2.2l-4-2.1c-.8-.4-1.8-.1-2.2.7l-2.3 4.4c-.4.8-.1 1.7.7 2.2zm-8.3-4.4l4 2.1c.8.4 1.8.1 2.2-.7l2.3-4.4c.4-.8.1-1.8-.7-2.2l-4-2.1c-.8-.4-1.8-.1-2.2.7l-2.3 4.4c-.4.8-.1 1.7.7 2.2zm-8.3-4.4l4 2.1c.8.4 1.8.1 2.2-.7l2.3-4.4c.4-.8.1-1.8-.7-2.2l-4-2.1c-.8-.4-1.8-.1-2.2.7l-2.3 4.4c-.4.8-.1 1.7.7 2.2zm-8.3-4.4l4 2.1c.8.4 1.8.1 2.2-.7l2.3-4.4c.4-.8.1-1.8-.7-2.2l-4-2.1c-.8-.4-1.8-.1-2.2.7l-2.3 4.4c-.4.8-.1 1.7.7 2.2zm-8.3-4.4l4 2.1c.8.4 1.8.1 2.2-.7l2.3-4.4c.4-.8.1-1.8-.7-2.2l-4-2.1c-.8-.4-1.8-.1-2.2.7l-2.3 4.4c-.4.8-.1 1.7.7 2.2zm-8.3-4.4l4 2.1c.8.4 1.8.1 2.2-.7l2.3-4.4c.4-.8.1-1.8-.7-2.2l-4-2.1c-.8-.4-1.8-.1-2.2.7l-2.3 4.4c-.4.8-.1 1.7.7 2.2zm-8.3-4.4l4 2.1c.8.4 1.8.1 2.2-.7l2.3-4.4c.4-.8.1-1.8-.7-2.2l-4-2.1c-.8-.4-1.8-.1-2.2.7l-2.3 4.4c-.4.8-.1 1.7.7 2.2zm-8.3-4.4l4 2.1c.8.4 1.8.1 2.2-.7l2.3-4.4c.4-.8.1-1.8-.7-2.2l-4-2.1c-.8-.4-1.8-.1-2.2.7l-2.3 4.4c-.4.8-.1 1.7.7 2.2zm-8.3-4.4l4 2.1c.8.4 1.8.1 2.2-.7l2.3-4.4c.4-.8.1-1.8-.7-2.2l-4-2.1c-.8-.4-1.8-.1-2.2.7l-2.3 4.4c-.4.8-.1 1.7.7 2.2zm-8.3-4.4l4 2.1c.8.4 1.8.1 2.2-.7l2.3-4.4c.4-.8.1-1.8-.7-2.2l-4-2.1c-.8-.4-1.8-.1-2.2.7l-2.3 4.4c-.4.8-.1 1.7.7 2.2zm109.7 46.9l11.5 6.1c.8.4 1.8.1 2.2-.7l2.3-4.4c.4-.8.1-1.8-.7-2.2l-11.5-6.1c-.8-.4-1.8-.1-2.2.7l-2.3 4.4c-.4.8-.1 1.8.7 2.2zm-7.9-4.2l4 2.1c.8.4 1.8.1 2.2-.7l2.3-4.4c.4-.8.1-1.8-.7-2.2l-4-2.1c-.8-.4-1.8-.1-2.2.7l-2.3 4.4c-.4.8-.1 1.8.7 2.2zm-8.4-4.4l4 2.1c.8.4 1.8.1 2.2-.7l2.3-4.4c.4-.8.1-1.8-.7-2.2l-4-2.1c-.8-.4-1.8-.1-2.2.7l-2.3 4.4c-.3.8 0 1.8.7 2.2zm-8.3-4.4l4 2.1c.8.4 1.8.1 2.2-.7l2.3-4.4c.4-.8.1-1.8-.7-2.2l-4-2.1c-.8-.4-1.8-.1-2.2.7l-2.3 4.4c-.4.8 0 1.8.7 2.2zm-8.3-4.4l4 2.1c.8.4 1.8.1 2.2-.7l2.3-4.4c.4-.8.1-1.8-.7-2.2l-4-2.1c-.8-.4-1.8-.1-2.2.7l-2.3 4.4c-.4.8-.1 1.8.7 2.2zm-8.3-4.4l4 2.1c.8.4 1.8.1 2.2-.7l2.3-4.4c.4-.8.1-1.8-.7-2.2l-4-2.1c-.8-.4-1.8-.1-2.2.7l-2.3 4.4c-.4.8-.1 1.8.7 2.2zm-8.3-4.4l4 2.1c.8.4 1.8.1 2.2-.7l2.3-4.4c.4-.8.1-1.8-.7-2.2l-4-2.1c-.8-.4-1.8-.1-2.2.7l-2.3 4.4c-.4.8-.1 1.8.7 2.2zm-8.3-4.4l4 2.1c.8.4 1.8.1 2.2-.7l2.3-4.4c.4-.8.1-1.8-.7-2.2l-4-2.1c-.8-.4-1.8-.1-2.2.7l-2.3 4.4c-.4.8-.1 1.8.7 2.2zm-8.3-4.4l4 2.1c.8.4 1.8.1 2.2-.7l2.3-4.4c.4-.8.1-1.8-.7-2.2l-4-2.1c-.8-.4-1.8-.1-2.2.7l-2.3 4.4c-.4.8-.1 1.8.7 2.2zm-8.3-4.4l4 2.1c.8.4 1.8.1 2.2-.7l2.3-4.4c.4-.8.1-1.8-.7-2.2l-4-2.1c-.8-.4-1.8-.1-2.2.7l-2.3 4.4c-.4.8-.1 1.8.7 2.2zm-8.3-4.4l4 2.1c.8.4 1.8.1 2.2-.7l2.3-4.4c.4-.8.1-1.8-.7-2.2l-4-2.1c-.8-.4-1.8-.1-2.2.7l-2.3 4.4c-.4.8-.1 1.8.7 2.2zm-8.3-4.4l4 2.1c.8.4 1.8.1 2.2-.7l2.3-4.4c.4-.8.1-1.8-.7-2.2l-4-2.1c-.8-.4-1.8-.1-2.2.7l-2.3 4.4c-.4.8-.1 1.8.7 2.2zm-14.1-7.5l10.1 5.3c.8.4 1.8.1 2.2-.7l2.3-4.4c.4-.8.1-1.8-.7-2.2l-10-5.3c-.8-.4-1.8-.1-2.2.7l-2.3 4.4c-.5.8-.2 1.8.6 2.2zM777 114.9l14.4 7.6c.8.4 1.8.1 2.2-.7l2.3-4.4c.4-.8.1-1.8-.7-2.2l-14.4-7.6c-.8-.4-1.8-.1-2.2.7l-2.3 4.4c-.4.8-.1 1.8.7 2.2zm-8.3-4.4l4 2.1c.8.4 1.8.1 2.2-.7l2.3-4.4c.4-.8.1-1.8-.7-2.2l-4-2.1c-.8-.4-1.8-.1-2.2.7l-2.3 4.4c-.4.8-.1 1.8.7 2.2zm-8.3-4.4l4 2.1c.8.4 1.8.1 2.2-.7l2.3-4.4c.4-.8.1-1.8-.7-2.2l-4-2.1c-.8-.4-1.8-.1-2.2.7l-2.3 4.4c-.4.8-.1 1.8.7 2.2zm-8.3-4.4l4 2.1c.8.4 1.8.1 2.2-.7l2.3-4.4c.4-.8.1-1.8-.7-2.2l-4-2.1c-.8-.4-1.8-.1-2.2.7l-2.3 4.4c-.4.8-.1 1.8.7 2.2zm-8.3-4.4l4 2.1c.8.4 1.8.1 2.2-.7l2.3-4.4c.4-.8.1-1.8-.7-2.2l-4-2.1c-.8-.4-1.8-.1-2.2.7l-2.3 4.4c-.4.8-.1 1.8.7 2.2zm-8.4-4.4l4 2.1c.8.4 1.8.1 2.2-.7l2.3-4.4c.4-.8.1-1.8-.7-2.2l-4-2.1c-.8-.4-1.8-.1-2.2.7l-2.3 4.4c-.3.8 0 1.8.7 2.2zm-8.3-4.4l4 2.1c.8.4 1.8.1 2.2-.7l2.3-4.4c.4-.8.1-1.8-.7-2.2l-4-2.1c-.8-.4-1.8-.1-2.2.7l-2.3 4.4c-.4.8 0 1.8.7 2.2zm-8.3-4.4l4 2.1c.8.4 1.8.1 2.2-.7l2.3-4.4c.4-.8.1-1.8-.7-2.2l-4-2.1c-.8-.4-1.8-.1-2.2.7l-2.3 4.4c-.4.8-.1 1.8.7 2.2zm-8.3-4.4l4 2.1c.8.4 1.8.1 2.2-.7l2.3-4.4c.4-.8.1-1.8-.7-2.2l-4-2.1c-.8-.4-1.8-.1-2.2.7l-2.3 4.4c-.4.8-.1 1.8.7 2.2zm-8.3-4.4l4 2.1c.8.4 1.8.1 2.2-.7l2.3-4.4c.4-.8.1-1.8-.7-2.2l-4-2.1c-.8-.4-1.8-.1-2.2.7l-2.3 4.4c-.4.8-.1 1.8.7 2.2zm-8.3-4.4l4 2.1c.8.4 1.8.1 2.2-.7l2.3-4.4c.4-.8.1-1.8-.7-2.2l-4-2.1c-.8-.4-1.8-.1-2.2.7l-2.3 4.4c-.4.8-.1 1.8.7 2.2zm-18.8-10l14.4 7.6c.8.4 1.8.1 2.2-.7l2.3-4.4c.4-.8.1-1.8-.7-2.2l-14.4-7.6c-.8-.4-1.8-.1-2.2.7l-2.3 4.4c-.4.8-.1 1.8.7 2.2zm10.1-9.5l-4.3-2.3c-.8-.4-1.1-1.4-.7-2.2l.8-1.5c.4-.8 1.4-1.1 2.2-.7l4.3 2.3c.8.4 1.1 1.4.7 2.2l-.8 1.5c-.4.8-1.4 1.1-2.2.7zm17.3 9.1l-4.3-2.3c-.8-.4-1.1-1.4-.7-2.2l.8-1.5c.4-.8 1.4-1.1 2.2-.7l4.3 2.3c.8.4 1.1 1.4.7 2.2l-.8 1.5c-.4.8-1.4 1.1-2.2.7zm-10.3-1.7l-4-2.1c-.8-.4-1.1-1.4-.7-2.2l2.3-4.4c.4-.8 1.4-1.1 2.2-.7l4 2.1c.8.4 1.1 1.4.7 2.2l-2.3 4.4c-.5.8-1.5 1.1-2.2.7zm30.4 16.1L760.5 95c.8.4 1.8.1 2.2-.7l2.3-4.4c.4-.8.1-1.8-.7-2.2l-37.9-20.1c-.8-.4-1.8-.1-2.2.7l-2.3 4.4c-.4.8-.1 1.8.7 2.2zm-8.7-4.6l4 2.1c.8.4 1.8.1 2.2-.7l2.3-4.4c.4-.8.1-1.8-.7-2.2l-4-2.1c-.8-.4-1.8-.1-2.2.7l-2.3 4.4c-.4.8-.1 1.8.7 2.2zm-8.3-4.4l4 2.1c.8.4 1.8.1 2.2-.7l2.3-4.4c.4-.8.1-1.8-.7-2.2l-4-2.1c-.8-.4-1.8-.1-2.2.7l-2.3 4.4c-.4.8-.1 1.8.7 2.2zm86.3 45.7l4 2.1c.8.4 1.8.1 2.2-.7l2.3-4.4c.4-.8.1-1.8-.7-2.2l-4-2.1c-.8-.4-1.8-.1-2.2.7l-2.3 4.4c-.4.8-.1 1.8.7 2.2zm-8.3-4.4l4 2.1c.8.4 1.8.1 2.2-.7l2.3-4.4c.4-.8.1-1.8-.7-2.2l-4-2.1c-.8-.4-1.8-.1-2.2.7l-2.3 4.4c-.4.8-.1 1.8.7 2.2zm-8.3-4.4l4 2.1c.8.4 1.8.1 2.2-.7l2.3-4.4c.4-.8.1-1.8-.7-2.2l-4-2.1c-.8-.4-1.8-.1-2.2.7l-2.3 4.4c-.4.8-.1 1.8.7 2.2zm-10.5-5.5l6.5 3.4c.8.4 1.8.1 2.2-.7l2.3-4.4c.4-.8.1-1.8-.7-2.2l-6.5-3.4c-.8-.4-1.8-.1-2.2.7l-2.3 4.4c-.4.8-.1 1.7.7 2.2z"/>
        <path class="svg-med-dark-gray" d="M760.1 79.4l-30.5-16.2c-.7-.4-1-1.3-.6-2.1l10.3-19.4c.4-.7 1.3-1 2.1-.6l30.5 16.2c.7.4 1 1.3.6 2.1l-10.3 19.4c-.4.7-1.3 1-2.1.6z"/>
        <path class="svg-light-blue" d="M726.5 233.9l11.8 6.1c1.5.8 2.1 2.7 1.3 4.2l-.2.4c-.8 1.5-2.7 2.1-4.2 1.3l-11.8-6.1c-1.5-.8-2.1-2.7-1.3-4.2l.2-.4c.8-1.5 2.6-2.1 4.2-1.3zm-99.2-50l7 3.7c.6.3.8 1 .5 1.5l-.2.3c-.3.6-1 .8-1.5.5l-7-3.7c-.6-.3-.8-1-.5-1.5l.2-.3c.3-.6 1-.8 1.5-.5zm-11.9-6.1l9 4.7c.4.2.6.8.4 1.2l-.3.5c-.2.4-.8.6-1.2.4l-9-4.7c-.4-.2-.6-.8-.4-1.2l.3-.5c.2-.4.7-.6 1.2-.4zm-11.5-5.9l9 4.7c.4.2.6.8.4 1.2l-.3.5c-.2.4-.8.6-1.2.4l-9-4.7c-.4-.2-.6-.8-.4-1.2l.3-.5c.2-.5.7-.6 1.2-.4z"/>
        <ellipse transform="rotate(-59.743 694.258 171.995)" class="svg-med-blue" cx="694.3" cy="172" rx="33" ry="33"/>
        <path class="svg-med-dark-blue" d="M697.3 188.8l30-15.7c.4-11.7-5.5-23.3-16.4-29.6-.3-.2-.5-.3-.8-.4l-8.2 4.6-5.9 11-11.9 6.8 13.2 23.3z"/>
        <path class="svg-dark-gray" d="M706.2 147.3l3.5 2c.9.5 1.2 1.7.7 2.6-.5.9-1.7 1.2-2.6.7l-3.5-2c-.9-.5-1.2-1.7-.7-2.6.5-.9 1.7-1.2 2.6-.7z"/>
        <path class="svg-golden-yellow" d="M685 187.6c8.2 4.8 15.1 1.5 18.6-4.3 1.2-2 1.9-8.1.7-13.4-.6-2.4-.6-5.4.6-7.6 1.2-2.2.9-5.4-1.2-6.7-2.1-1.3-5.1 0-6.4 2.2s-3.9 3.6-6.3 4.3c-5.2 1.5-10.1 5.1-11.3 7.2-3.5 5.9-2.9 13.6 5.3 18.3z"/>
        <path class="svg-yellow" d="M700.2 158.9c0 .1-3.5 6.6-4.7 9.3l-.3.6c.5.1.9.3 1.2.5.2.2.5.4.7.6 2.1-4.1 5.9-8.7 6.1-9l.7.6c-.1.1-4.3 5.1-6.3 9.3.7 1.5 1.1 3.4 1 4.8 0 .9-.2 2.1-.9 2.5-.8.5-1.3.3-1.6.1-.8-.5-.9-2.1-.3-5.2.1-.7.4-1.4.7-2.2-.2-.4-.5-.6-.7-.8-.3-.2-.7-.3-1.2-.4-1.4 1.9-3.7 3.7-5.3 3.7-.7 0-1.3-.3-1.6-.9-.2-.4-.4-1.2.5-2.1 1.2-1 3.8-1.8 5.9-1.7.2-.3.4-.6.5-.9 1.2-2.7 4.7-9.3 4.7-9.3l.9.5zm-11.4 13.4c.1.1.3.1.5.1 1.1 0 2.9-1.3 4.2-2.8-1.7.1-3.7.6-4.6 1.4-.6.5-.4.8-.3.9 0 .2.1.3.2.4zm7.8 5.2c.1.1.3 0 .6-.2.2-.1.5-.7.5-1.8s-.2-2.5-.6-3.6c-.2.4-.3.9-.4 1.3-.7 3.7-.2 4.2-.1 4.3z"/>
        <path class="svg-dark-gray" d="M707.1 149.7c2.8 1.6 3.8 5.3 2.1 8.1l-1 1.7c-1.6 2.8-5.3 3.8-8.1 2.1-2.8-1.6-3.8-5.3-2.1-8.1l1-1.7c1.6-2.7 5.3-3.7 8.1-2.1z"/>
        <path class="svg-dark-gray" d="M700.8 156.8c.5.2 1.5.5 3.5 2s2.5 2.4 2.8 2.9c.3.4.4.7.2.9-.2.3-.7.4-1 .1-.3-.3-1.4-1.8-2.8-2.9-1.4-1-3.1-1.8-3.5-2s-.4-.7-.2-.9c.3-.3.5-.3 1-.1zm1.8-2.8c.5.2 1.5.5 3.5 2s2.5 2.4 2.8 2.9c.3.4.4.7.2.9-.2.3-.7.4-1 .1-.3-.3-1.4-1.8-2.8-2.9-1.4-1-3.1-1.8-3.5-2s-.4-.7-.2-.9c.2-.3.5-.3 1-.1zm1.6-2.9c.5.2 1.5.5 3.5 2s2.5 2.4 2.8 2.9c.3.4.4.7.2.9-.2.3-.7.4-1 .1-.3-.3-1.4-1.8-2.8-2.9-1.4-1-3.1-1.8-3.5-2s-.4-.7-.2-.9c.2-.3.4-.3 1-.1zm-6.2 2.4c.2.1.4.1.5.2.5.2.7.3.7.7s-.3.7-.7.6c-.2-.1-.6-.2-1.2-.3-.7-.1-.1-1.5.7-1.2zm1.9-2.9c.5.2.7.3.7.7s-.3.7-.7.6c-.1 0-.4-.1-.8-.2-.8-.2 0-1.5.8-1.1z"/>
        <path class="svg-yellow" d="M684.1 188.7s0 .6-.3 1.4c-.2.8-.7 1.8-1.2 2.8-.5.9-1.2 1.8-1.8 2.4-.6.6-1.1.9-1.1.9s0-.6.3-1.4c.2-.8.7-1.8 1.2-2.8.6-.9 1.2-1.8 1.8-2.4.6-.5 1.1-.9 1.1-.9zm-8.4-11.3s-.5.4-1.2.8-1.8.8-2.8 1.1c-1.1.3-2.1.4-3 .4-.8 0-1.4-.1-1.4-.1s.5-.4 1.2-.8 1.8-.8 2.8-1.1c1.1-.3 2.1-.4 3-.4.8-.1 1.4.1 1.4.1zm33.7-7.1s.5-.4 1.2-.8 1.8-.8 2.8-1.1c1.1-.3 2.1-.4 3-.4.8 0 1.4.1 1.4.1s-.5.4-1.2.8-1.8.8-2.8 1.1c-1.1.3-2.1.4-3 .4-.8 0-1.4-.1-1.4-.1zm-8.5 20.6s.4.5.8 1.2.8 1.8 1.1 2.8c.3 1.1.4 2.1.4 3 0 .8-.1 1.4-.1 1.4s-.4-.5-.8-1.2-.8-1.8-1.1-2.8c-.3-1.1-.4-2.1-.4-3 0-.8.1-1.4.1-1.4zm-11.2-33.4s-.4-.5-.8-1.2-.8-1.8-1.1-2.8c-.3-1.1-.4-2.1-.4-3 0-.8.1-1.4.1-1.4s.4.5.8 1.2.8 1.8 1.1 2.8c.3 1.1.4 2.1.4 3 0 .8-.1 1.4-.1 1.4zm17.8 23.3s.6 0 1.4.3c.8.2 1.8.7 2.8 1.2.9.5 1.8 1.2 2.4 1.8.6.6.9 1.1.9 1.1s-.6 0-1.4-.3c-.8-.2-1.8-.7-2.8-1.2-.9-.6-1.8-1.2-2.4-1.8-.5-.6-.9-1.1-.9-1.1zm-35.2-20.3s.6 0 1.4.3c.8.2 1.8.7 2.8 1.2.9.5 1.8 1.2 2.4 1.8.6.6.9 1.1.9 1.1s-.6 0-1.4-.3c-.8-.2-1.8-.7-2.8-1.2-.9-.6-1.8-1.2-2.4-1.8-.6-.6-.9-1.1-.9-1.1z"/>
        <path class="hand2 svg-dark-blue" d="M769.9-90.9c-11.6 10.1-23.7 84.5-23.7 84.5s-5.4 6.2-8 9.2-6.9 10.4-6.9 10.4-9.1 7-11.1 11.5-2.9 11.4-.4 12c2.5.7 4.1-5.6 5.1-7.7.8-1.7 6.2-5.6 8.4-7.1-3.9 7.4-7.7 17.1-8.4 19.1-1.2 3.5 1.1 15 1.1 15 1 1.3 2.5 2.1 4.1 1.1.6-.4 1.2-1.6 1.8-3 .8 3.5 2.3 7.9 2.8 9 .8 1.6 4.7 3.1 5.3-1.3s-.8-9.2-.8-9.2l1.2-9.9s3.1-3.6 4.4-4.9c2.6-2.5 4-5.4 4-3.8 0 3.2-.4 6.2-1 9.3s-1.5 15.2.2 17.2c.8.9 2.7 1.4 4.1.9 4.4-1.6 3-15.9 3.7-17 .5-.9 5.4-9.7 5.9-11.8.3-1.1 1.6-4.9 2.5-5s1.2 3.7 1.2 3.7 1.7 7.6 4.5 11.3c1.3 1.7 4.8 4.8 6.9 3.3 2.1-1.4 1.5-4.1.9-7.3-1.2-5.5-3.3-12.9-3.2-15.9.1-4.7-3.7-16.2-6.6-18.4-.8-3.1 10-31.3 21.2-61.9 10.7-30.6-7.6-43.5-19.2-33.3z"/>
        <g class="hand2">
            <path class="svg-dark-gray" d="M719.7 36.7c2.5.7 4.1-5.6 5.1-7.7.2-.4.6-.9 1.2-1.5l-5.8-3.1c0 .1-.1.1-.1.2-2.1 4.5-2.9 11.4-.4 12.1zm28.4 2.6c-.2 1.3-.4 2.7-.6 4-.6 3.1-1.5 15.2.2 17.2.8.9 2.7 1.4 4.1.9 4.4-1.6 3-15.9 3.7-17 .1-.1.3-.5.5-1l-7.9-4.1zm-3.5-1.5l.3-.3-15.3-8.1c-2.4 5.3-4.3 10.2-4.8 11.6-1.2 3.5 1.1 15 1.1 15 1 1.3 2.5 2.1 4.1 1.1.6-.4 1.2-1.6 1.8-3 .8 3.5 2.3 7.9 2.8 9 .8 1.6 4.7 3.1 5.3-1.3s-.8-9.2-.8-9.2l1.2-9.9c-.1 0 2.9-3.6 4.3-4.9z"/>
            <path class="svg-light-brown" d="M773.8-87.8c-11.6 10.1-23.7 84.5-23.7 84.5s-5.4 6.2-8 9.2-6.9 10.4-6.9 10.4-9.1 7-11.1 11.5-2.9 11.4-.4 12c2.5.7 4.1-5.6 5.1-7.7.8-1.7 6.2-5.6 8.4-7.1-3.9 7.4-7.7 17.1-8.4 19.1-1.2 3.5 1.1 15 1.1 15 1 1.3 2.5 2.1 4.1 1.1.6-.4 1.2-1.6 1.8-3 .8 3.5 2.3 7.9 2.8 9 .8 1.6 4.7 3.1 5.3-1.3.7-4.4-.8-9.2-.8-9.2l1.2-9.9s3.1-3.6 4.4-4.9c2.6-2.5 4-5.4 4-3.8 0 3.2-.4 6.2-1 9.3s-1.5 15.2.2 17.2c.8.9 2.7 1.4 4.1.9 4.4-1.6 3-15.9 3.7-17 .5-.9 5.4-9.7 5.9-11.8.3-1.1 1.6-4.9 2.5-5s1.2 3.7 1.2 3.7 1.7 7.6 4.5 11.3c1.3 1.7 4.8 4.8 6.9 3.3 2.1-1.4 1.5-4.1.9-7.3-1.2-5.5-3.3-12.9-3.2-15.9.1-4.7-3.7-16.2-6.6-18.4-.8-3.1 10-31.3 21.2-61.9 10.7-30.5-7.5-43.4-19.2-33.3z"/>
            <path class="svg-dark-pink" d="M751.2 57.2c.1-.8 4.9 0 5.1.5.2.5 1.2 6.7-2.7 7.2-4 .5-2.6-6.9-2.4-7.7zm24.5-15.5c0-.8 4.4-.9 4.4-.9s2.6 3.6 2.2 5.7c-.4 2.6-4.9 1.8-5.5.8-1-1.9-1.1-5.1-1.1-5.6zm-47 11.7s.3.6 1.3.7c1.1.1 2.9-.2 3 .4.1 1.1.4 5.2.4 5.2s-1.6 1.8-3.3.2c-1.8-1.8-1.4-6.5-1.4-6.5zm8.1 7.8s.4.5 1.3.5c1.1 0 2.9-.6 3 0 .2 1.1 1 5.1 1 5.1s-1.3 2-3.2.6-2.1-6.2-2.1-6.2zm-13.5-26.4c.8.4 2.1.8 2 1.2-.2.5-.7 1.9-1 2.8-.2.6-2 1.7-2.7 0-.5-1.2.2-3.1.7-4.2.2-.4.4-.2 1 .2z"/>
        </g>
    </g>
    <g>
        <path class="svg-dark-blue" d="M616.5 227.8l-3.7-3.2-1.1-.9-.1.2-2.9-2.5.1-.2-.5-.4-60.7-51.1-7.6-3.7-1.8-.9-.6.6 6.3 8.4 60.2 50.7.2.2.3.2.5.4.1-.2 2.9 2.5-.1.2 1.1.9 3.7 3.2c.3.3.9.2 1.2-.1l.4-.5 1.9-2.2.4-.5c.2-.3.1-.8-.2-1.1z"/>
        <path class="svg-med-orange" d="M608.5 218l-3.7 4.4-60.6-51.1 3.7-4.4 60.6 51.1z"/>
        <path class="svg-dark-orange" d="M607.4 219.4L606 221l-60.6-51.1 1.4-1.6 60.6 51.1z"/>
        <path class="svg-light-pink" d="M609.3 226.2l3.8-4.5 3.6 3c.4.4.5 1 .1 1.4l-2.5 2.9c-.4.4-1 .5-1.4.1l-3.6-2.9z"/>
        <path class="svg-dark-gray" d="M612.2 221.4l-3.5 4.1-3.7-3.1 3.5-4.1 3.7 3.1z"/>
        <path class="svg-light-gray" d="M609 218.4l-3.7 4.4-.9-.8 3.7-4.4.9.8zm4.1 3.4l-3.7 4.4-1.1-1 3.7-4.4 1.1 1z"/>
        <path class="svg-light-orange" d="M544.2 171.3l-6.4-8.4.7-.6 9.4 4.6-3.7 4.4z"/>
        <path class="svg-black-brown" d="M539 164.5l-1.2-1.6.7-.6 1.8.9-1.3 1.3z"/>
    </g>
    <g>
        <path class="svg-dark-blue" d="M321.1 148.2l46.1-11.9 11.9 46.1-46.1 11.9-11.9-46.1z"/>
        <path class="svg-med-dark-blue" d="M368.8 177l-36.6-8 10.1-46.4 46.4 10.1-8 37.1-11.9 7.2z"/>
        <path class="svg-light-orange" d="M320.7 148.1l45-15.5 15.5 45-45 15.5-15.5-45z"/>
        <path class="svg-med-orange" d="M378.5 169.9l-12.9-37.3-28.6 9.9-6 25.2 36.6 8.6 10.9-6.4z"/>
        <path class="svg-dark-med-brown" d="M334.3 170.1c5.6-.3 11.3 3 16.1-1.3 1-.9 1.7-2.2 2.7-3.1 4.5-3.9 3.3-1.3 6.3-1.5 2.9-.2 4.6-.4 7.1-2.1 1.3-.9.1-3.1-1.3-2.2-4.2 2.9-9-.3-12.9 3-2.7 2.2-3.7 5.2-7.7 5.9-1.5.2-4.6-.9-6.2-1.1-1.4-.2-2.7-.1-4.1 0-1.6 0-1.6 2.5 0 2.4zm-1.2-8.4c1-.7 2.2-2.2 3.3-2.5 1.2-.4 1.1-.3 2.3.4 1.6.9.9 1.3 3 1.4.4 0 .9-.2 1.1-.6 1.2-2 2.1-2.5 4.2-2.8 1.6-.3 2.9-.4 4.3-1.2 1.8-1 3.2-3 5.1-3.7 1.9-.8 3.7.3 5.5-.2 1.6-.4.9-2.8-.7-2.4-1.4.4-2.8-.8-4.4-.4-1.1.3-2.1 1.1-3 1.8-2.5 1.8-4.3 3.4-7.5 3.7-1.2.1-2.3-.1-3.4.5-.4.2-1.4 1.6-1.6 1.7-1.3.3-1.7-1.1-3-1.3-2.5-.5-4.7 2.3-6.6 3.7-1.1.7.2 2.9 1.4 1.9z"/>
        <path class="svg-yellow" d="M373.7 171.2l-37.3-4.6 5.8-47.2 47.2 5.8-4.6 37.7-11.1 8.3z"/>
        <path class="svg-dark-med-brown" d="M347.5 136.1c2.5.2 4-.7 5.2-2.8-.6.1-1.1.3-1.7.4 2.6 1.4 5.4 2.8 8.3 3.5 2.6.6 4.8-.2 7.2-.2 2.6 0 5 2.5 7.4 3.4 2.5.9 5.1 1.1 7.8.9 1.6-.1 1.6-2.6 0-2.5-2.9.2-5.7-.1-8.3-1.4-1.5-.7-3.4-2.9-5.1-3.1-1.8-.3-3.5.8-5.4.9-3.8.1-7.4-1.9-10.7-3.5-.6-.3-1.4-.2-1.7.4-1 .5-2 1.1-3.1 1.6-1.5-.3-1.5 2.2.1 2.4zm33.6 9.8c-.8-.8-1.7-1.6-2.5-2.4-.2-.7-.9-1-1.5-.9-2.9.6-5.8 1.1-8.8.8-2.6-.3-4.4-2.2-6.7-2.6-1.5-.2-2.4.4-3.8.9-3.8 1.1-7.3.9-11-.5-1.5-.6-2.2 1.9-.7 2.4 2.8 1.1 5.6 1.6 8.7 1.3 1.3-.1 2.4-.5 3.6-.8 2.5-.5 2.4-.4 4.8.5 4.9 1.9 9.4 1.4 14.5.4l-1.5-.9c.6 2.4 1.8 3.6 4.2 4.1 1.6.4 2.2-2 .7-2.3zm-35.9 6c2.6-.3 4.8-1.5 6.6.6.5.6.3 1.6.9 2.3 1.4 1.4 2 .5 3.4.2 3.7-.8 6.9 1.5 10.8 1.2 3.2-.2 5.1-1 8.3.5 1.6.7.7 1 2.5 1.5 1.6.4 2.2-2 .7-2.4-1.4-.3-2.2-1.8-3.5-2.4-1.5-.6-3-.3-4.6-.1-1.5.2-3.4.7-5 .5-1.8-.2-3.3-1.2-5-1.7-1.2-.4-1.8-.7-3.1-.7-1.2 0-1.3 1-2.4.5-1-.5-.5-1.4-1.3-2.1-2.2-2.1-5.5-.8-8.4-.4-1.4.2-1.4 2.7.1 2.5z"/>
    </g>
    <g>
        <path class="svg-med-dark-blue" d="M529 38.1l66.3 22.3-22.3 66.3-66.3-22.3L529 38.1z"/>
        <path class="svg-med-orange" d="M528.2 32.3l66.3 22.3-22.3 66.3-66.3-22.3 22.3-66.3z"/>
        <path class="svg-light-orange" d="M510 86.1l66.3 22.3-4.2 12.5-66.3-22.3 4.2-12.5z"/>
        <path class="svg-light-orange" d="M582.7 50.7l11.7 3.9-22.4 66.3-11.7-3.9 22.4-66.3z"/>
        <path class="svg-dark-gray" d="M615.7 68.8L613 65c-.1-.1-2.1-3-4.1-6.6-.6-1-2.1-3.8 3.7-13 2.3-3.7 6.1-8.6 9-10.3 2.8-1.7 5.1-.7 6.2 1 4.5 7.4-6.1 24-9.4 28.9l-2.7 3.8zm-.8-13.2c.3.5.6.9.8 1.4 3-5 5.4-10 6.3-13.4-3 3.7-6.8 9.7-7.1 12z"/>
        <ellipse class="svg-dark-blue" cx="587.6" cy="79.4" rx="38.5" ry="42.3"/>
        <path class="svg-dark-orange" d="M594.4 54.6l-29-9.7c-9.9 7.7-16.3 20.3-16.3 34.5 0 17.6 9.8 32.7 23.8 39.1l21.5-63.9z"/>
        <path class="svg-med-orange" d="M572.9 118.5l3.4-10.1-21.8-7.3c4.2 7.7 10.7 13.9 18.4 17.4z"/>
        <g>
            <path class="svg-dark-med-brown" d="M566.8 53c-.4-.1-.9-.2-1.4-.3.2.1.4.2.7.3.2.1.4 0 .7 0zm-2.7-.5h-.4.4zm-2.4 0h1.2c-.3-.1-.7-.1-1.2 0zm1.9.2c-.1-.1-.2-.2 0-.2h-.7c.3 0 .5.1.7.2zm0 0c.1.1.4.2.4.2-.1-.1-.2-.2-.4-.2zm-.7 1.6c-.2 0-.1-.4-.6-.3-.5.1-1 .1-1.5.2s-.9.2-1.4.2c-.4.1-1.2-.2-1.6-.1-.5.1-1.4.6-1.9.9-.5.3-.7.5 0 .3 2.2-.7 3.7-1 5.7-1.2 1.7-.2 3.4-.2 5.2 0 .5.1.9.3 1.4.5-.6-.2-1.1-.6-1.8-.7-.4-.2-1-.1-1.5-.1-.6.2-1.3.3-2 .3zm12.7 3.4l-.6-.3c-.3-.5-.7-.8-1.2-1.1-.2-.2-.5-.3-.7-.4-.3-.1-.5-.2-.8-.3l.3.4c.6.3.7.2.3-.2.9.9 1.9 1.6 2.9 2.4-.1-.1.1-.2-.2-.5zm.7 1c-.2-.1-.4-.3-.6-.4.2.1.4.2.6.4z"/>
            <path class="svg-dark-med-brown" d="M556.8 53.5c-3 .8-5.7 2.1-8.1 3.8-.1.2-.2.4-.4.5l-.6.3c-.3.3-.6.6-.9.8l-.3.3c-.1.2 0 .2.1.2.2-.1.3-.1.4-.2-.1 0-.3.1-.4.2-.2.1-.4.2-.6.4-.2.3-.5.6-.8.9.3-.4.5-.7.8-.9.2-.2.3-.4.5-.5 0-.1.1-.1.1-.2-.7.6-1.3 1.4-2 2.1-.1.2-.2.4-.3.5-.3.6-.7 1.2-1.1 1.5-.1.1-.2.3-.3.4l.1-.1c0 .1-.1.1-.1.1-.3.6-.8 1.2-1 1.9-.1.5-.2 1-.3 1.4 0 0-.2.3-.4.4.1.2 0 .5 0 .9.3-.3.5-.6.7-.9.4-.4 0-1.2.6-1.5-.6.4-.2 1.2-.6 1.5-.2.3-.4.6-.7.9-.2.7-.4 1.5-.8 2.2 0-.9.3-1.6.8-2.2.1-.3.1-.6 0-.9l.4-.4c.1-.5.2-1 .3-1.4-.6 1.3-1.1 2.7-1.5 4.1-1.2 4.7-.6 9.6 1.2 13.9 1.9 4.3 5.2 8.1 9.7 10.6 4.8 2.7 10.4 3.7 15.7 2.7 5.3-.9 9.9-3.9 13.2-7.9 1.6-2 3-4.3 4-6.7 1-2.5 1.7-5.1 2-7.9.2-2.2-.1-5.3-1.2-8.3-1-2.9-2.8-5.6-4.2-7.1-.3-.2-.5-.5-.7-.6-.2-.2-.5-.3-.7-.4-.4-.2-.8-.4-1-.4-.6-.1-.9 0-1.1.3-.4.5-.3 1.4-.2 1.5.2.8.5 1.5.8 2.2.2.3.3.7.5 1s.4.7.6 1c.8 1.4 1.8 3.3 2 6.2-.3-1.9.2-1.4.7.3.5 1.6.5 4.4-.3 6.2-1.2 2.5-2 5.4-3.7 8.1-1.6 2.7-4 5.4-6.9 6.6-.4.1-.7.3-1.1.5-.4.1-.8.3-1.1.4-.4.2-.8.3-1.2.4s-.8.3-1.3.3c-4.7.7-9.5 0-13.5-2.3s-7.4-6.2-8.6-11.1c-.7-2.6-1.2-4.9-1.1-7.3.2-1.7.8-3.4 1.4-4.7.4-1 .9-1.9 1.3-2.8.5-.8.9-1.7 1.4-2.4-.7.8-1 1.6-1.5 2.3-.4.8-.8 1.6-1.2 2.7-.3.7-.3.4-.3-.2 0-.3.1-.7.2-1 .1-.4.2-.7.3-.9.1-.2.3-.4.5-.6.2-.2.5-.4.6-.6.3-.4.5-.8.7-1.2s.5-.8.8-1.3c.2-.4.5-.1.6-.2.5-.5.8-1.1 1.1-1.6s.7-.9 1-1.1c.6-.4 1.2-.6 1.7-.9.3-.2.7-.4 1-.6.2-.1.4-.3.6-.5-.2 0-.4-.2-.5-.3.4-.1.9-.3 1.2-.4-.4.1-.9.3-1.2.4.1.1.3.3.5.3 1.5-1.1 3.5-2.1 5.5-2.6-1.2.2-2.3.5-3.6.6.5-.1.5.1 0 .3h-.5c.5-.3 1-.5 1.5-.7.5-.1 1-.3 1.6-.2 0 0 .4-.2.7-.3.4 0 .4.2.5.3.2-.1.5-.1.7-.2-1.1.1-2.7.1-2.7.1z"/>
            <path class="svg-dark-med-brown" d="M545.9 59.8l.4-.4c-.6.5-1.1 1.2-1.6 1.8.4-.2.8-.8 1.2-1.4z"/>
        </g>
        <path class="svg-med-gray" d="M628.5 36.1l-.7-.8c-2-2.3-5.5-2.6-7.8-.7l-10.8 9.1c-6.2-4.2-13.6-6.7-21.7-6.7-21.3 0-38.5 17.2-38.5 38.5s17.2 38.5 38.5 38.5S626 96.8 626 75.5c0-8.8-3-16.9-7.9-23.4l9.7-8.2c2.4-1.9 2.7-5.4.7-7.8z"/>
        <path class="svg-light-gray" d="M587.6 114.6c-21.5 0-39-17.5-39-39s17.5-39 39-39c7.8 0 15.2 2.3 21.6 6.6l10.5-8.9c2.6-2.2 6.4-1.8 8.5.7l.7.8c2.2 2.6 1.8 6.4-.7 8.5l-9.4 7.9c5.1 6.8 7.8 14.8 7.8 23.3 0 21.6-17.5 39.1-39 39.1zm0-77c-20.9 0-38 17-38 38 0 20.9 17 38 38 38s38-17 38-38c0-8.4-2.7-16.4-7.8-23.1l-.3-.4 10.1-8.5c2.1-1.8 2.4-5 .6-7.1l-.7-.8c-1.8-2.1-5-2.4-7.1-.6l-11.1 9.3-.3-.2c-6.4-4.3-13.8-6.6-21.4-6.6z"/>
        <circle class="svg-light-med-brown" cx="587.2" cy="75.2" r="31.3"/>
        <circle class="svg-med-brown" cx="596.3" cy="78.7" r="1.5"/>
        <circle class="svg-med-brown" cx="591.9" cy="56.1" r="1.9"/>
        <ellipse transform="rotate(-38.445 605.788 66.676)" class="svg-med-brown" cx="605.8" cy="66.7" rx="1.5" ry="1.5"/>
        <ellipse transform="rotate(-38.445 600.575 62.348)" class="svg-med-brown" cx="600.6" cy="62.4" rx="2.9" ry="2.9"/>
        <ellipse transform="rotate(-38.445 603.992 55.875)" class="svg-med-brown" cx="604" cy="55.9" rx="1.9" ry="1.9"/>
        <ellipse transform="rotate(-43.164 590.5 68.501)" class="svg-med-brown" cx="590.5" cy="68.5" rx="1.5" ry="1.5"/>
        <ellipse transform="rotate(-43.164 584.875 64.714)" class="svg-med-brown" cx="584.9" cy="64.7" rx="2.9" ry="2.9"/>
        <ellipse transform="rotate(-43.164 583.06 72.776)" class="svg-med-brown" cx="583.1" cy="72.8" rx="2.9" ry="2.9"/>
        <ellipse transform="rotate(-43.164 593.899 62.624)" class="svg-med-brown" cx="593.9" cy="62.6" rx="2.9" ry="2.9"/>
        <ellipse transform="rotate(-43.164 587.805 57.91)" class="svg-med-brown" cx="587.8" cy="57.9" rx="1.9" ry="1.9"/>
        <ellipse transform="rotate(-81.616 570.324 59.71)" class="svg-med-brown" cx="570.3" cy="59.7" rx="1.5" ry="1.5"/>
        <ellipse transform="rotate(-81.616 577.085 59.323)" class="svg-med-brown" cx="577.1" cy="59.3" rx="2.9" ry="2.9"/>
        <ellipse transform="rotate(-81.616 579.12 66.449)" class="svg-med-brown" cx="579.1" cy="66.4" rx="1.9" ry="1.9"/>
        <ellipse transform="rotate(-8.811 613.408 77.76)" class="svg-med-brown" cx="613.5" cy="77.8" rx="1.5" ry="1.5"/>
        <ellipse transform="rotate(-8.811 607.21 80.16)" class="svg-med-brown" cx="607.3" cy="80.2" rx="2.9" ry="2.9"/>
        <ellipse transform="rotate(-8.811 611.909 85.658)" class="svg-med-brown" cx="612" cy="85.7" rx="2.2" ry="2.2"/>
        <ellipse transform="rotate(-8.811 610.51 71.56)" class="svg-med-brown" cx="610.6" cy="71.6" rx="2.9" ry="2.9"/>
        <ellipse transform="rotate(-8.811 603.11 73.96)" class="svg-med-brown" cx="603.2" cy="74" rx="1.9" ry="1.9"/>
        <ellipse transform="rotate(-47.25 595.003 89.43)" class="svg-med-brown" cx="595" cy="89.4" rx="1.5" ry="1.5"/>
        <ellipse transform="rotate(-47.25 598.414 83.624)" class="svg-med-brown" cx="598.4" cy="83.6" rx="2.9" ry="2.9"/>
        <ellipse transform="rotate(-47.25 605.425 86.049)" class="svg-med-brown" cx="605.4" cy="86" rx="1.9" ry="1.9"/>
        <ellipse transform="rotate(-81.616 608.236 61.756)" class="svg-med-brown" cx="608.2" cy="61.7" rx="1.5" ry="1.5"/>
        <ellipse transform="rotate(-81.616 612.86 66.114)" class="svg-med-brown" cx="612.9" cy="66.1" rx="1.9" ry="1.9"/>
        <ellipse transform="rotate(-78.802 580.409 95.767)" class="svg-med-brown" cx="580.4" cy="95.8" rx="1.5" ry="1.5"/>
        <ellipse transform="rotate(-78.802 580.319 89.161)" class="svg-med-brown" cx="580.3" cy="89.2" rx="2.9" ry="2.9"/>
        <ellipse transform="rotate(-78.802 572.616 92.293)" class="svg-med-brown" cx="572.6" cy="92.3" rx="2.9" ry="2.9"/>
        <ellipse transform="rotate(-78.802 587.25 95.104)" class="svg-med-brown" cx="587.3" cy="95.1" rx="2.9" ry="2.9"/>
        <ellipse transform="rotate(-78.802 587.45 87.473)" class="svg-med-brown" cx="587.5" cy="87.5" rx="1.9" ry="1.9"/>
        <ellipse transform="rotate(-27.252 575.913 74.503)" class="svg-med-brown" cx="575.9" cy="74.5" rx="1.5" ry="1.5"/>
        <ellipse transform="rotate(-27.252 580.207 79.59)" class="svg-med-brown" cx="580.2" cy="79.6" rx="2.9" ry="2.9"/>
        <ellipse transform="rotate(-27.252 575.612 85.391)" class="svg-med-brown" cx="575.6" cy="85.4" rx="1.9" ry="1.9"/>
        <circle class="svg-med-brown" cx="602.1" cy="94.7" r="1.9"/>
        <ellipse transform="rotate(-43.164 608.172 92.527)" class="svg-med-brown" cx="608.2" cy="92.5" rx="1.9" ry="1.9"/>
        <circle class="svg-med-brown" cx="593.4" cy="94.5" r="1.5"/>
        <circle class="svg-med-brown" cx="594.9" cy="101" r="2.9"/>
        <circle class="svg-med-brown" cx="587.8" cy="102.2" r="1.9"/>
        <ellipse transform="rotate(-35.882 572.72 81.523)" class="svg-med-brown" cx="572.7" cy="81.5" rx="1.5" ry="1.5"/>
        <ellipse transform="rotate(-35.882 567.718 77.005)" class="svg-med-brown" cx="567.7" cy="77" rx="2.9" ry="2.9"/>
        <ellipse transform="rotate(-35.882 571.422 70.61)" class="svg-med-brown" cx="571.4" cy="70.6" rx="1.9" ry="1.9"/>
        <ellipse transform="rotate(-74.329 563.62 71.169)" class="svg-med-brown" cx="563.6" cy="71.2" rx="1.5" ry="1.5"/>
        <ellipse transform="rotate(-74.329 564.691 87.516)" class="svg-med-brown" cx="564.7" cy="87.5" rx="2.9" ry="2.9"/>
        <ellipse transform="rotate(-74.329 561.75 77.998)" class="svg-med-brown" cx="561.7" cy="78" rx="1.9" ry="1.9"/>
        <ellipse transform="rotate(-79.047 565.36 59.79)" class="svg-med-brown" cx="565.4" cy="59.8" rx="1.5" ry="1.5"/>
        <ellipse transform="rotate(-79.047 566.037 66.578)" class="svg-med-brown" cx="566" cy="66.6" rx="2.9" ry="2.9"/>
        <ellipse transform="rotate(-79.047 573.72 66.793)" class="svg-med-brown" cx="573.7" cy="66.8" rx="1.9" ry="1.9"/>
        <ellipse transform="matrix(1 -.00339 .00339 1 -.273 1.985)" class="svg-med-brown" cx="586" cy="81.5" rx="1.5" ry="1.5"/>
        <ellipse transform="rotate(-31.745 596.913 71.64)" class="svg-med-brown" cx="596.9" cy="71.6" rx="2.9" ry="2.9"/>
        <ellipse transform="rotate(-31.745 590.534 77.85)" class="svg-med-brown" cx="590.5" cy="77.8" rx="1.9" ry="1.9"/>
        <ellipse transform="rotate(-70.19 602.913 71.196)" class="svg-med-brown" cx="602.9" cy="71.2" rx="1.9" ry="1.9"/>
        <circle class="svg-med-brown" cx="596.3" cy="92.3" r="1.5"/>
        <ellipse transform="matrix(1 -.00338 .00338 1 -.316 1.945)" class="svg-med-brown" cx="575.2" cy="94.5" rx="1.5" ry="1.5"/>
        <ellipse transform="rotate(-31.745 587.225 52.339)" class="svg-med-brown" cx="587.2" cy="52.3" rx="1.9" ry="1.9"/>
        <ellipse transform="rotate(-21.188 579.14 53.022)" class="svg-med-brown" cx="579.1" cy="53" rx="1.9" ry="1.9"/>
        <ellipse transform="rotate(-64.355 574.017 54.416)" class="svg-med-brown" cx="574" cy="54.4" rx="1.5" ry="1.5"/>
    </g>
    <g>
        <circle class="svg-dark-blue" cx="230.2" cy="198.8" r="44.9"/>
        <circle class="svg-med-gray" cx="230.2" cy="194.7" r="44.9"/>
        <path class="svg-med-dark-gray" d="M230.2 149.8s1.1.1 3.2.2c.5 0 1.1 0 1.7.1.6.1 1.3.2 2.1.3.7.1 1.5.2 2.4.4.8.2 1.7.4 2.6.7 3.7 1 8.2 2.7 12.6 5.7 4.5 2.9 9.1 7.1 12.8 12.6s6.4 12.3 7.4 19.9c.2.9.1 1.9.2 2.9l.1 1.4v1.4c-.1 1.9-.1 3.9-.5 5.9-.5 4-1.7 7.9-3.3 11.8-.4.9-.9 1.9-1.3 2.8-.5.9-1.1 1.8-1.6 2.7l-.8 1.4c-.3.4-.6.9-.9 1.3-.6.8-1.2 1.7-1.9 2.6-2.8 3.3-6 6.2-9.6 8.7-3.7 2.4-7.7 4.3-11.9 5.6-4.3 1.3-8.7 1.9-13.1 2-4.4-.1-8.9-.7-13.1-2-4.2-1.4-8.3-3.2-11.9-5.6-3.6-2.5-6.9-5.4-9.6-8.7-.7-.8-1.3-1.7-1.9-2.6-.3-.4-.6-.9-.9-1.3l-.8-1.4c-.5-.9-1.1-1.8-1.6-2.7s-.9-1.9-1.3-2.8c-1.6-3.8-2.8-7.8-3.3-11.7-.4-2-.4-4-.5-5.9v-1.4l.1-1.4c.1-1 .1-1.9.2-2.9.9-7.6 3.7-14.4 7.4-19.9s8.3-9.6 12.8-12.6 8.9-4.6 12.6-5.7c.9-.2 1.8-.5 2.6-.7s1.6-.3 2.4-.4l2.1-.3c.6-.1 1.2-.1 1.7-.1 1.7-.2 2.8-.3 2.8-.3zm0 0s-1.1.1-3.2.2c-.5 0-1.1 0-1.7.1-.6.1-1.3.2-2.1.3-.7.1-1.5.2-2.4.4-.8.2-1.7.4-2.6.7-3.7 1.1-8.1 2.7-12.6 5.7s-9 7.1-12.7 12.6c-3.6 5.5-6.3 12.3-7.1 19.8-.1.9-.1 1.9-.2 2.8l-.1 1.4v1.4c.1 1.9.1 3.9.5 5.8.5 3.9 1.8 7.8 3.4 11.5.4.9.9 1.8 1.4 2.8.5.9 1.1 1.8 1.6 2.7l.8 1.3c.3.4.6.8.9 1.3.6.8 1.2 1.7 1.9 2.5 2.7 3.2 6 6 9.5 8.5 3.6 2.4 7.6 4.2 11.7 5.5 4.2 1.2 8.5 1.8 12.9 1.9 4.4-.1 8.7-.6 12.9-1.9 4.1-1.3 8.1-3.1 11.7-5.5 3.5-2.4 6.8-5.2 9.5-8.5.7-.8 1.3-1.7 1.9-2.5.3-.4.6-.8.9-1.3l.8-1.3c.5-.9 1.1-1.7 1.6-2.7.5-.9.9-1.9 1.4-2.8 1.6-3.8 2.9-7.6 3.4-11.5.4-1.9.4-3.9.5-5.8v-1.4l-.1-1.4c-.1-1 0-1.9-.2-2.8-.9-7.5-3.5-14.3-7.1-19.8s-8.2-9.7-12.7-12.6c-4.5-3-8.9-4.7-12.6-5.7-.9-.2-1.8-.5-2.6-.7s-1.6-.3-2.4-.4c-.7-.1-1.4-.2-2-.3s-1.2-.1-1.7-.1c-2-.1-3.1-.2-3.1-.2z"/>
        <path class="svg-dark-gray" d="M257.1 191.6l-.2-5.4v-16.5l3-.2c15.2-.9 16.2.2 17.2 1.3 4 4.5.2 7.8-1.6 9.4-2.8 2.5-12.7 8-13.8 8.7l-4.6 2.7zm6.4-15.6v4.4c2.8-1.7 5.7-3.5 7.2-4.6-2 0-4.6.1-7.2.2z"/>
        <ellipse transform="rotate(-45.001 228.815 192.498)" class="svg-med-dark-gray" cx="228.8" cy="192.5" rx="32" ry="32"/>
        <path class="svg-dark-gray" d="M251.4 169.9s.5.6 1.5 1.7c.2.3.5.6.8.9l.9 1.2c.3.4.7.9 1 1.4s.6 1.1 1 1.7c1.3 2.4 2.8 5.5 3.5 9.2.8 3.7 1 8.1.2 12.8-.9 4.7-2.9 9.5-6.2 13.9-.4.6-.9 1-1.3 1.6-.5.5-.9 1.1-1.4 1.6-1 .9-2 1.9-3.2 2.8-2.3 1.8-4.9 3.2-7.6 4.4-2.8 1.1-5.8 1.8-8.9 2.2-3.1.3-6.3.1-9.4-.4-3.1-.6-6.2-1.7-9-3.2l-2.1-1.2c-.7-.4-1.3-.9-2-1.4s-1.3-.9-1.9-1.5l-1.8-1.7c-2.1-2.2-4.2-4.9-5.7-7.7-1.5-2.9-2.6-5.9-3.2-9-.5-3.1-.7-6.3-.4-9.4.4-3.1 1-6.1 2.2-8.9 1.2-2.8 2.6-5.4 4.4-7.6.8-1.2 1.9-2.2 2.8-3.2.5-.6 1-.9 1.5-1.4.5-.4 1-.9 1.6-1.3 4.4-3.3 9.2-5.3 13.9-6.2 4.7-.8 9.1-.6 12.8.2 3.8.8 6.8 2.2 9.2 3.5.6.4 1.1.7 1.7 1 .5.3 1 .7 1.4 1l1.2.9c.4.3.6.6.9.8 1 .8 1.6 1.3 1.6 1.3zm0 0s-.6-.5-1.7-1.5c-.3-.2-.6-.5-.9-.8l-1.2-.9c-.4-.3-.9-.7-1.4-1s-1.1-.6-1.7-1c-2.4-1.3-5.5-2.7-9.2-3.4s-8.1-.9-12.7.1-9.3 3.1-13.4 6.5c-.5.4-1 .9-1.5 1.4s-1.1.9-1.5 1.4c-.9 1-1.9 2-2.6 3.2-1.7 2.2-2.9 4.8-4 7.5-1 2.7-1.6 5.6-1.8 8.5s0 5.9.6 8.9c.6 2.9 1.7 5.8 3.1 8.5 1.5 2.7 3.2 5 5.5 7.3 2.1 2 4.6 4 7.2 5.4 2.7 1.4 5.5 2.5 8.5 3.1 2.9.6 5.9.8 8.9.6 2.9-.3 5.8-.8 8.5-1.8s5.3-2.3 7.4-4c1.2-.7 2.2-1.7 3.2-2.6.5-.4.9-1 1.4-1.4.4-.5.9-1 1.3-1.5 3.4-4.1 5.5-8.9 6.5-13.4 1-4.6.8-9 .1-12.7-.7-3.8-2.1-6.8-3.4-9.2-.3-.6-.7-1.2-1-1.7s-.7-1-1-1.4l-.9-1.2c-.3-.4-.6-.6-.8-.9-1-1.4-1.5-2-1.5-2z"/>
        <ellipse class="svg-dark-gray" cx="230.2" cy="178.1" rx="32.5" ry="35.6"/>
        <path class="svg-med-gray" d="M274.8 168.1h-12c-.3 0-.6 0-.9.1-3.1-14.7-16.1-25.7-31.8-25.7-17.9 0-32.5 14.5-32.5 32.5 0 17.9 14.5 32.5 32.5 32.5 16.8 0 30.6-12.7 32.3-29h12.3c2.6 0 4.7-2.1 4.7-4.7v-.9c.1-2.7-2-4.8-4.6-4.8z"/>
        <path class="svg-light-gray" d="M274.8 168.1h-12.1l-.8.1c-.8-3.9-2.4-7.7-4.7-11.1-2.2-3.4-5.1-6.3-8.4-8.6-3.3-2.3-7-4-10.9-4.9s-7.9-1.1-11.9-.6c-3.9.5-7.8 1.8-11.3 3.8-3.5 1.9-6.6 4.5-9.1 7.6s-4.5 6.6-5.7 10.4c-1.2 3.8-1.8 7.8-1.5 11.8.2 4 1.2 7.9 2.8 11.5s3.9 6.9 6.8 9.7c2.8 2.8 6.2 5.1 9.9 6.6 3.7 1.6 7.6 2.4 11.6 2.5s8-.5 11.8-1.8 7.3-3.4 10.3-6c6.1-5.2 10.2-12.8 11-20.8v-.1h12.2c.6 0 1.2-.1 1.7-.3 1.1-.4 2-1.2 2.6-2.2.3-.5.5-1.1.5-1.7v-1.7c-.1-1.2-.6-2.3-1.5-3.1-1-.6-2.1-1.1-3.3-1.1zm0 0c1.2 0 2.3.5 3.2 1.2.9.8 1.4 1.9 1.5 3.1v1.8c-.1.6-.2 1.2-.5 1.7-.5 1-1.5 1.9-2.6 2.3-.6.2-1.1.3-1.7.3h-12.2l.1-.1c-.4 4-1.6 8-3.4 11.6s-4.4 6.9-7.4 9.6c-3 2.7-6.6 4.8-10.4 6.2-3.8 1.4-7.9 2.1-12 2s-8.2-.9-11.9-2.5c-3.8-1.6-7.2-3.9-10.2-6.8-2.9-2.9-5.3-6.3-7-10s-2.7-7.8-2.8-11.9c-.2-4.1.3-8.2 1.6-12.1 1.3-3.9 3.3-7.5 6-10.6 2.6-3.1 5.9-5.8 9.4-7.7 3.6-1.9 7.5-3.2 11.6-3.7 4-.5 8.2-.3 12.1.7 3.9 1 7.7 2.7 11 5.1 3.3 2.4 6.1 5.3 8.3 8.7 2.2 3.4 3.8 7.2 4.6 11.1l.8-.1h5.6l6.3.1z"/>
        <circle class="svg-dark-med-brown" cx="229.9" cy="174.6" r="26.4"/>
        <path class="svg-dark-med-brown" d="M229.9 148.2s.6 0 1.9.1c.6 0 1.3.1 2.2.2.4.1.9.1 1.4.2.5.1 1 .3 1.6.4 2.2.6 4.8 1.6 7.5 3.3s5.4 4.1 7.6 7.3c2.2 3.2 3.9 7.2 4.5 11.7.1.6.1 1.1.1 1.7 0 .6.1 1.1.1 1.7-.1 1.1 0 2.3-.2 3.5-.2 2.4-1 4.8-1.9 7.1-1 2.3-2.3 4.5-3.9 6.5s-3.6 3.7-5.8 5.3c-2.2 1.5-4.6 2.6-7.2 3.4-2.6.8-5.2 1.1-8 1.2-2.5-.1-5.3-.4-7.9-1.2-2.5-.8-5-2-7.2-3.4-2.2-1.5-4.1-3.3-5.8-5.3-1.6-2-2.9-4.2-3.9-6.5-1.9-4.6-2.5-9.5-1.9-14s2.3-8.5 4.5-11.8c2.3-3.2 5-5.6 7.6-7.3 2.7-1.7 5.3-2.7 7.5-3.3.5-.1 1.1-.3 1.6-.4.5-.1 1-.2 1.4-.2.9-.1 1.6-.2 2.2-.2 1.3.1 2 0 2 0zm0 0s-.6 0-1.9.1c-.6 0-1.3.1-2.2.3-.4.1-.9.1-1.4.2-.5.1-1 .3-1.6.4-2.2.6-4.8 1.6-7.4 3.4-2.6 1.8-5.3 4.2-7.3 7.5-2.1 3.2-3.6 7.3-4 11.6-.1.5-.1 1.1-.1 1.7 0 .5-.1 1.2 0 1.7.1 1.1.1 2.3.3 3.4.3 2.3 1.1 4.5 2 6.6 1 2.2 2.3 4.1 3.9 6 1.6 1.8 3.5 3.4 5.5 4.8 2.1 1.3 4.3 2.3 6.7 3.1 2.4.7 4.8 1 7.4 1.1 2.4-.1 5-.4 7.3-1.1 2.4-.8 4.6-1.8 6.7-3.1 2-1.4 3.9-3 5.5-4.8 1.5-1.9 2.9-3.8 3.9-6 1-2.1 1.7-4.4 2-6.6.2-1.1.3-2.3.3-3.4.1-.5 0-1.1 0-1.7 0-.6 0-1.1-.1-1.6-.4-4.4-1.9-8.4-4-11.6-2.1-3.3-4.8-5.7-7.3-7.5-2.6-1.8-5.2-2.8-7.4-3.4-.5-.1-1.1-.3-1.6-.4-.5-.1-1-.2-1.4-.2-.9-.1-1.6-.3-2.2-.3-1-.1-1.6-.2-1.6-.2zm8.7 82.9c-2.8-1.7-1.6-7.9 3-7.7s3.6 1 5.5 1.7 1.5 1.8.9 3c-1.8 3.5-6.6 4.7-9.4 3zm11.7-7.5c0 .7-.9 1.3-2.1 1.3-1.1 0-2.1-.6-2.1-1.3s.9-1.9 2.1-1.9c1.2-.1 2.1 1.2 2.1 1.9z"/>
        <path class="svg-light-brown" d="M243.8 224.7c-.2.3-1.7-.1-2.5.3s-1.1 1.1-1.4.9c-.4-.2.1-.8.6-1.2 1.1-.8 3.5-.3 3.3 0zm4.5-2.4c-.4 0-.5-.1-.5-.2.1-.1.3-.2.5-.2s.3.1.4.2c.2.2 0 .2-.4.2zm-20.5-65.6c-10 1.2-13.9 4.6-16.9 6.5-1.3 1-1.1-.5-1.1-.5 4-5.8 10.3-9.7 17.6-10.4 5.9-.5 11.5 1.2 16 4.4 1.2 1 .7 2-.6 1.2s-5-2.3-15-1.2z"/>
    </g>
    <g>
        <path class="shadow svg-dark-blue" d="M531.4 305.1s-11.7-51.5-19.1-65c-7.4-13.5-19.4-42.1-20-33.2s3.4 27.7 3.4 27.7 1.4 23.2 1.4 24.5c.1 1.5-.3 7.1-1.5 7.5-1.1.4-3-4.4-3-4.4s-5-9.4-10-13.2c-2.3-1.8-8.1-4.5-10.3-1.9s-.5 6 1.5 9.9c3.6 6.8 9 15.8 10 19.8 1.6 6.2 10.8 20 15.5 21.8 2.2 3.9-1.8 45-5.3 89.4s25.2 54.8 36.8 37.1c11.8-17.6.6-120 .6-120z"/>
        <path class="svg-dark-blue" d="M420 192.2s-9.4.8-13.2 1c-3.9.3-22.7 20.7-25.4 26.2-2.7 5.4-2 46.3-2 46.3l-9.1 56.3 39.8-1.5s-1.1-47.2-.2-51.3c4.3.6 15.3-14.7 15.3-14.7l-2.2-20.1.7-5.6-3.7-36.6z"/>
        <path class="svg-dark-med-brown" d="M416.6 189.7s-9.2 1.9-13 2.7c-3.8.7-19.9 23.4-21.9 29.1-2 5.7 3.8 46.1 3.8 46.1l-1.9 57 39.3-6.5s-7-46.7-6.6-50.9c4.4.1 13.4-16.5 13.4-16.5L425 231v-5.6l-8.4-35.7z"/>
        <path class="svg-dark-brown" d="M409 267.1s20.4-13.7 19.4-19.2l-7.8-40.2c-1.1-5.5-9.1-4.3-10.9-3.9-1.1 10-11.4 21.3-11.4 21.3l3.1 33.2c1.1 5.4 2.3 9.8 7.6 8.8z"/>
        <path class="svg-black-brown" d="M416.9 130.1h99.2c7.2 0 5.9 5 5.9 5l-4.9 134s1.2 4.3-4.2 4.3h-90.5c-5.5 0-5-5.4-5-5.4l-4.9-132.9c0 .1-.4-5 4.4-5z"/>
        <path class="screen" d="M508.1 257.3h-81.7l-5.1-118.2h91.9l-5.1 118.2z"/>
        <path class="svg-off-white" d="M467.3 270.6c-2.7 0-4.9-2.2-4.9-4.9s2.2-4.9 4.9-4.9 4.9 2.2 4.9 4.9-2.2 4.9-4.9 4.9zm0-9c-2.2 0-4.1 1.8-4.1 4.1 0 2.2 1.8 4.1 4.1 4.1 2.2 0 4.1-1.8 4.1-4.1-.1-2.2-1.9-4.1-4.1-4.1z"/>
        <path class="svg-dark-med-brown" d="M396.6 238.8c-13.7 18.5-2.7 27.2 6.4 27.9s13.7-6.5 15.5-25.3c1.7-18.7 7.6-37.9-1.3-39-9-1.1-6.9 17.9-20.6 36.4z"/>
        <path class="svg-light-brown" d="M415 216.1c2.5.5 5-1.2 5.5-3.7l.6-3.4c.5-2.5-1.2-5-3.7-5.5s-5 1.2-5.5 3.7l-.6 3.4c-.6 2.5 1.1 5 3.7 5.5z"/>
        <path class="svg-light-med-brown" d="M415 216.1c2.5.5 5-1.2 5.5-3.7l.4-2.1c.5-2.5-1.2-5-3.7-5.5s-5 1.2-5.5 3.7l-.4 2.1c-.6 2.5 1.1 5 3.7 5.5z"/>
        <path class="screen-highlight" d="M423.7 194.6l-2.4-55.5h91.9l-89.5 55.5z"/>
        <g class="graphic2">
            <circle class="svg-med-blue" cx="468" cy="200.9" r="34.9"/>
            <path class="svg-med-dark-blue" d="M433.4 205.5c2.5 19.1 20.1 32.5 39.2 30 5.1-.7 9.9-2.4 14.2-5.2l1.1-31.2-39.2-20-15.3 26.4z"/>
            <path class="svg-off-white" d="M490.3 187.3l-8.2-8.3h-33.5l-.1 50.9c12.8 8.6 29.8 7.8 41.7-2.1l.1-40.5z"/>
            <path class="svg-med-gray" d="M489.9 187.7h-8.5v-7.6l.7-1.2 8.2 8.1c0 .1-.4.7-.4.7z"/>
            <path class="svg-white" d="M490.2 187.1h-8.1V179l8.1 8.1z"/>
            <path class="svg-med-dark-gray" d="M475 226.2l.1-.4-1.4.1c.6.7 1.1 1.5 1.5 2.4.2.4.7.6 1.2.4.1 0 .1-.1.2-.1 1-1 1.2-2.2 2.7-2.5.5-.1 1.1.1 1.6.1.8.1.9 0 1.7-.2 1-.2 1.8.1 2.8-.3 1-.4.3-2-.7-1.6-.6.2-1.2-.1-1.8 0-.3 0-.6.2-.9.3-.6 0-1.3 0-1.9-.1-.7 0-1.3-.3-2 .1-1.2.6-1.5 1.9-2.4 2.8l1.3.3c-.5-1-1-1.9-1.7-2.8-.3-.4-1.1-.4-1.4.1-.3.4-.4.8-.4 1.3-.2 1 1.6 1.2 1.5.1zM452.4 199v-2.1h33.4v2.1h-33.4zM452.4 203.3v-2.1h33.4v2.1h-33.4zM452.4 207.6v-2.1h33.4v2.1h-33.4zM452.4 211.9v-2.1h33.4v2.1h-33.4zM452.4 218.5v-2.1h33.4v2.1h-33.4zM452.4 222.3v-2.1h33.4v2.1h-33.4zM452.5 194.7v-2.1h11.8v2.1h-11.8z"/>
        </g>
        <path class="screen-highlight" d="M485.6 155.6h-63.2l-.4-16.5h80.5l-16.9 16.5z"/>
        <path class="buttons svg-light-blue" d="M441.2 148.4h-13.4c-1.7 0-3.1-1.4-3.1-3.1v-.5c0-1.7 1.4-3.1 3.1-3.1h13.4c1.7 0 3.1 1.4 3.1 3.1v.5c0 1.7-1.4 3.1-3.1 3.1zm43.4-2.5h-10.3c-.5 0-.9-.4-.9-.9v-.6c0-.5.4-.9.9-.9h10.3c.5 0 .9.4.9.9v.6c-.1.6-.4.9-.9.9zm11.2.2h-8c-.6 0-1.1-.5-1.1-1.1v-.4c0-.6.5-1.1 1.1-1.1h8c.6 0 1.1.5 1.1 1.1v.4c0 .6-.5 1.1-1.1 1.1zm13.5-.2H499c-.5 0-.9-.4-.9-.9v-.6c0-.5.4-.9.9-.9h10.3c.5 0 .9.4.9.9v.6c0 .6-.4.9-.9.9z"/>
        <g class="graphic">
            <circle class="svg-med-blue" cx="468" cy="200.8" r="34.9"/>
            <path class="svg-med-dark-blue" d="M473.2 175.8l-14.8-3.4-8.9 5-16.1 28.5c.2 1.5.5 2.9.9 4.4 5.2 18.6 24.4 29.4 43 24.3 3.1-.9 6.1-2.2 8.7-3.8l9.1-16.2-21.9-38.8z"/>
            <path class="svg-light-orange" d="M473.2 175.8l-14.7-3.4-8.7 5-4.6 14.4 22 38.8 28-15.9-22-38.9zm-13.7 5.4c-.4 1.2-1.7 1.8-2.9 1.4-1.2-.4-1.8-1.7-1.4-2.9s1.7-1.8 2.9-1.4 1.8 1.7 1.4 2.9z"/>
            <path class="svg-dark-orange" d="M453 199.2c.1-8.3 6.9-15 15.1-14.9 8.3.1 15 6.9 14.9 15.1-.1 8.3-6.9 14.9-15.1 14.9-8.3 0-15-6.8-14.9-15.1z"/>
            <path class="svg-med-orange" d="M468.1 184c-8.5-.1-15.5 6.8-15.5 15.3-.1 8.5 6.8 15.5 15.3 15.5 8.5.1 15.5-6.8 15.5-15.3s-6.8-15.4-15.3-15.5zm12.8 15.5c-.1 7.1-5.9 12.8-13 12.8s-12.8-5.9-12.8-13c.1-7.1 5.9-12.8 13-12.8 7.1.1 12.8 5.9 12.8 13z"/>
            <path class="svg-orange-shadow" d="M472.2 211.6l3.2-5.5c.7-.8.3-3.2.3-3.2l-2.3-3.6 2.1-3.7-.6-1.5-7.9-5.4-1.7 3.3-4 .8-5.8 10.1c1.5 5.4 6.4 9.4 12.3 9.5 1.6-.1 3-.3 4.4-.8z"/>
            <path class="svg-white" d="M475.2 194.5l-4.7.7c-.2-.6-.4-1-.6-1.3s-.5-.5-.9-.7l-.1 3.7c2.6.7 4.3 1.5 5.1 2.3 1.1 1 1.7 2.4 1.7 3.9 0 .9-.2 1.8-.7 2.5s-1 1.4-1.6 1.9c-.7.5-1.3.9-2.1 1.1-.7.2-1.6.4-2.6.4v2.4h-1.8V209c-1.2-.1-2.3-.3-3-.6s-1.4-.7-2-1.2-1-1.1-1.3-1.7c-.3-.6-.5-1.3-.6-2.2l5.1-.5c.1.8.3 1.5.6 1.8.2.4.7.7 1.3 1l.1-4.5c-1.7-.5-2.9-.9-3.6-1.3-.7-.4-1.3-.9-1.8-1.7s-.8-1.7-.7-2.8c0-1.5.6-2.8 1.6-3.8 1.1-1 2.7-1.5 4.8-1.6v-1.3h1.8v1.3c1.9.1 3.4.6 4.3 1.4.8.8 1.4 1.9 1.7 3.2zm-8.2 1.9l.1-3.3c-.5.2-.9.4-1.1.6-.2.3-.3.6-.3.9 0 .4.1.7.3 1 .1.4.5.6 1 .8zm1.7 9.3c.7-.2 1.3-.4 1.6-.8.3-.4.5-.8.5-1.2s-.1-.8-.4-1.1-.8-.7-1.6-1l-.1 4.1z"/>
        </g>
        <g class="hand1">
            <path class="svg-dark-med-brown" d="M539.7 294.7s3.3-10.8 4.9-16c1.6-5.2 2.9-16.9 2.9-16.9s3.9-22 2.6-25.5c-1.3-3.5-6-6-9.5-2.9-.3.3-.6.8-.9 1.3-.3-1.7-.6-3.4-.9-4.9-.8-4.2-7.1-5.6-10.3-.6-.6.9-1.1 1.8-1.6 2.6-.1-.3-.1-.7-.2-1-.3-1.9-.7-1.7-1-2.5-1.2-3.2-9.5-5.3-11.7 1.6-.4 1.4-.7 2.9-.8 4.4 0 1.6-.4 2.7-.4 2.7s-1.1-1.1-1.7-3.7c-1-4.2-7.4-28.9-10.7-30.5-1.5-.7-5-.3-6.4 1.1-4.5 4.5 5.9 30.6 5.7 32.4-.2 1.3-1.3 15.1-.8 18.1.3 1.5.7 7-.3 7.6-1.1.6-3.6-3.9-3.6-3.9s-6.4-8.5-11.9-11.6c-2.6-1.4-8.7-3.3-10.5-.3s.4 6 3 9.6c4.6 6.2 11.3 14.3 12.9 18 2.5 5.9 13.6 18.2 18.5 19.3 2.8 3.5 5 44.7 8 89.2 3.1 44.5 33 50.4 42 31.3 9-19.3-17.3-118.9-17.3-118.9z"/>
            <path class="svg-light-brown" d="M497 212.3c-.6-.5-5.3-7.7-.6-10.4 3.7-2.2 6 4.3 6.9 7.5.2.8-5.7 3.5-6.3 2.9zm-14.4 40.4c.5.9-5 3.6-5 3.6s-5.2-3.1-5.9-5.9c-.9-3.4 5.1-5 6.4-4 2.3 1.6 4.2 5.7 4.5 6.3z"/>
            <path class="svg-light-med-brown" d="M482.7 252.8c.4.8-5.1 3.5-5.1 3.5s-4.9-2.4-5.3-4.9c-.7-3 5.2-4.8 6.4-4 2.2 1.4 3.7 4.8 4 5.4zm21-42.6c.2.9-6.1 2.6-6.7 2.2-.3-.3-2.1-3.3-2.3-5.8-.1-1.5.7-3.6 2.1-4.2s2.3-.4 3.3.2c.9.6 3.4 6.9 3.6 7.6z"/>
        </g>
    </g>
    <g class="iPad2">
        <path class="svg-med-dark-blue" d="M157.3 13s-22.2-5.1-25.4-7c1.9-2-5.1-47.7-5.1-47.7l-39.2 5.2s17.7 45.1 18.7 48c1 3 7.1 35.8 10.3 40.3 3.1 4.5 22.7 20.1 26.2 19.8s23-8.1 23-8.1L157.3 13zm162.8-54.2l-34.8 8.9s9.9 41.3 9.9 45.1c-3.9.3-10.7 15.9-10.7 15.9l4.2 12.6 1.6 5.8.3 4L301 82.4s8.1-2.4 11.4-3.4 16.1-22.6 17.4-27.9-7-41.1-7-41.1l-2.7-51.2z"/>
        <path class="svg-med-brown" d="M165.4 77.5s-8.8 3.6-12.3 3.3c-3.5-.3-20.1-19.1-22.4-24-2.3-4.9-2.7-38.4-3.1-41.5s-10.1-50.6-10.1-50.6l39.5 1.7s-1 46.2-3.2 47.9C156.8 16.8 171 26 171 26l-2.4 18.1.6 5-3.8 28.4z"/>
        <path class="svg-dark-med-brown" d="M150.8 15.6s19.6 10 19.2 14.8l-3.1 35.3c-.4 4.8-7.7 4.4-9.4 4.3-1.9-8.6-12.2-17.3-12.2-17.3l-.5-28.8c.5-4.9 1.1-8.7 6-8.3z"/>
        <path class="svg-med-brown" d="M305.9 79.5s8.4-1 11.9-1.4 19.6-19.5 21.8-24.5c2.2-5 0-41.7 0-41.7l6-51-35.8 2.9s2.8 42.4 2.2 46.1c-3.9-.4-13.2 13.9-13.2 13.9l2.8 18-.5 5.1 4.8 32.6z"/>
        <path class="svg-dark-med-brown" d="M318.4 10.6S299 21.4 299.6 26.4l4 36.7c.5 5 7.8 4.5 9.5 4.3 1.7-8.9 11.8-18.3 11.8-18.3l-.3-30c-.5-5-1.3-9-6.2-8.5z"/>
        <path class="black-brown" d="M301.4 114.9h-132c-5.4 0-9.8-4-9.8-9l8.1-79.6c1.7-9 10.8-7.5 10.8-7.5h114.2s8.5 0 9.4 9l9 78.1c0 5-4.4 9-9.7 9z"/>
        <path class="svg-med-dark-blue" d="M302.4 106.7H176.3l7.4-81.3h111.4l7.3 81.3z"/>
        <path class="svg-off-white" d="M172.3 67.3c-2.5 0-4.5-2-4.5-4.5s2-4.5 4.5-4.5 4.5 2 4.5 4.5c-.1 2.5-2.1 4.5-4.5 4.5zm0-8.1c-2 0-3.6 1.6-3.6 3.6s1.6 3.6 3.6 3.6 3.6-1.6 3.6-3.6-1.6-3.6-3.6-3.6z"/>
        <path class="svg-med-brown" d="M325 34.1c12.3-16.7 2.4-24.5-5.7-25.1-8.2-.6-12.4 5.9-13.9 22.8s-6.9 34.1 1.2 35.1 6.1-16.1 18.4-32.8z"/>
        <path class="svg-light-brown" d="M308.9 54.7l-.8-.1c-2.1-.4-4.1 1-4.5 3.1l-.7 3.8c-.4 2.1 1 4.1 3.1 4.5l.8.1c2.1.4 4.1-1 4.5-3.1l.7-3.8c.4-2.1-1-4.1-3.1-4.5z"/>
        <path class="svg-light-med-brown" d="M308.9 54.7l-.8-.1c-2.1-.4-4.1 1-4.5 3.1l-.5 2.7c-.4 2.1 1 4.1 3.1 4.5l.8.1c2.1.4 4.1-1 4.5-3.1l.5-2.7c.4-2.1-1-4.1-3.1-4.5z"/>
        <path class="svg-med-brown" d="M144.8 32.5c-15.3-14-7.1-23.6.8-25.8s13.3 3.4 18 19.7 13.3 32.2 5.5 34.7c-7.7 2.6-9.1-14.5-24.3-28.6z"/>
        <path class="svg-light-brown" d="M164.3 49.6l.7-.3c1.9-.8 4.1.2 4.9 2.1l1.4 3.5c.8 1.9-.2 4.1-2.1 4.9l-.7.3c-1.9.8-4.1-.2-4.9-2.1l-1.4-3.5c-.7-1.9.2-4.1 2.1-4.9z"/>
        <path class="svg-light-med-brown" d="M164.3 49.6l.7-.3c1.9-.8 4.1.2 4.9 2.1l1 2.4c.8 1.9-.2 4.1-2.1 4.9l-.7.3c-1.9.8-4.1-.2-4.9-2.1l-1-2.4c-.7-1.9.2-4.1 2.1-4.9z"/>
        <path class="svg-med-blue" d="M302.4 106.7H183.1L296.8 44l5.6 62.7z"/>
        <path class="svg-light-blue" d="M284.5 97.7h12.2c1.5 0 2.8 1.2 2.8 2.8v.6c0 1.5-1.2 2.8-2.8 2.8h-12.2c-1.5 0-2.8-1.2-2.8-2.8v-.6c0-1.5 1.2-2.8 2.8-2.8zm-60.1 2.2h9.1c.5 0 .9.4.9.9v.3c0 .5-.4.9-.9.9h-9.1c-.5 0-.9-.4-.9-.9v-.3c0-.5.4-.9.9-.9zm-10.1-.1h7.1c.6 0 1.1.5 1.1 1.1v.2c0 .6-.5 1.1-1.1 1.1h-7.1c-.6 0-1.1-.5-1.1-1.1v-.2c0-.7.5-1.1 1.1-1.1zm-12.2.1h9.1c.5 0 .9.4.9.9v.3c0 .5-.4.9-.9.9h-9.1c-.5 0-.9-.4-.9-.9v-.3c.1-.5.4-.9.9-.9zm-12.1 0h9.1c.5 0 .9.4.9.9v.3c0 .5-.4.9-.9.9H190c-.5 0-.9-.4-.9-.9v-.3c.1-.5.5-.9.9-.9z"/>
        <path class="svg-med-orange" d="M243.7 89.5h-6.9c-6.1 0-11-4.9-11-11v-8.3c0-6.1 4.9-11 11-11h6.9c6.1 0 11 4.9 11 11v8.3c0 6-4.9 11-11 11zm-6.9-23.7c-2.4 0-4.3 1.9-4.3 4.3v8.3c0 2.4 1.9 4.3 4.3 4.3h6.9c2.4 0 4.3-1.9 4.3-4.3v-8.3c0-2.4-1.9-4.3-4.3-4.3h-6.9z"/>
        <path class="svg-dark-orange" d="M224.1 40.1h31.8c3.5 0 6.3 2.8 6.3 6.3v19.1c0 3.5-2.8 6.3-6.3 6.3h-31.8c-3.5 0-6.3-2.8-6.3-6.3V46.4c0-3.5 2.8-6.3 6.3-6.3z"/>
        <ellipse class="svg-med-orange" cx="239.9" cy="55.5" rx="14.9" ry="11.1"/>
        <path class="svg-yellow" d="M229.8 56.6s1.4.3 2.3 0c.9-.3 1.6-1.3 1.6-1.3s1.1.4 2.3 0c1.1-.4 1.4-1.2 1.4-1.2l3.1-1 1.9 3.2-13.4 4.3-1-1.8 1.8-2.2z"/>
        <path class="svg-golden-yellow" d="M227.8 58.9l13.4-4.3.6.9-13.4 4.3-.6-.9z"/>
        <path class="svg-yellow" d="M247.3 57.4c2.9-.9 4.2-3.4 2.9-5.6-1.3-2.2-4.6-3.1-7.5-2.2-2.9.9-4.2 3.4-2.9 5.6 1.3 2.2 4.6 3.2 7.5 2.2zm-.1-5.3c.3-.3 1-.4 1.4-.2.5.3.5.7.2 1.1-.3.3-1 .4-1.4.2-.5-.2-.5-.7-.2-1.1z"/>
    </g>
</svg>
