<?xml version="1.0" encoding="utf-8"?>
<!-- Generator: Adobe Illustrator 19.2.1, SVG Export Plug-In . SVG Version: 6.00 Build 0)  -->
<svg version="1.1" xmlns="http://www.w3.org/2000/svg" xmlns:xlink="http://www.w3.org/1999/xlink" x="0px" y="0px"
	 viewBox="0 0 960 360" style="enable-background:new 0 0 960 360;" xml:space="preserve">
<style type="text/css">
	.gig-st0{fill:#623B19;}
	.gig-st1{fill:#FE6800;}
	.gig-st2{fill:#AA7D4B;}
	.gig-st3{fill:#BEAB84;}
	.gig-st4{fill:#F7981F;}
	.gig-st5{fill:#F7BD5E;}
	.gig-st6{fill:#A6A8AB;}
	.gig-st7{fill:#808184;}
	.gig-st8{fill:#0EB5E0;}
	.gig-st9{fill:#0E8BBD;}
	.gig-st10{fill:#56DE4E;}
	.gig-st11{fill:#068C45;}
	.gig-st12{fill:#E5BB8C;}
	.gig-st13{fill:#F1CF95;}
	.gig-st14{fill:#3F291B;}
	.gig-st15{fill:#FFF100;}
	.gig-st16{fill:#FFDA00;}
</style>
<g class="gig-stage">
	<path class="gig-st0" d="M213.3,0.2h516v337.9h-516L213.3,0.2L213.3,0.2z"/>
	<path class="gig-st1" d="M-44,0h273.6v360H-44V0z M698.2,0H1007v360H698.2V0z"/>
	<path class="gig-st0" d="M213.1,335h505v25h-505L213.1,335L213.1,335z"/>
	<path class="gig-st2" d="M698.2,297v-45.5H229.6V297h-9.3l-16.2,24.1V338h522v-16.9L708.5,297H698.2z"/>
	<ellipse class="gig-st3" cx="414.6" cy="292.8" rx="137.1" ry="25.2"/>
</g>
<g class="curtain_1_">
	<path class="gig-st0" d="M240,0l-4.4,273.7c0,6.6,5.4,12,12.1,12h9.1c1.3,0,2.6-0.2,3.8-0.6c10.9-1.7,10.1-6.3,17.5-8.7
		c6.3,0.3,9,6.1,12.2,11.2c1.4,3.5,4.3,6.3,8,7.3c0.3,0.1,0.6,0.2,0.9,0.2c0.3,0.1,0.6,0.1,1,0.1h0.1c0.4,0,0.8,0.1,1.2,0.1h3.5
		c6.6,0,12.1-5.4,12.1-12v-0.7c2.3-2.9,5-5.4,9.2-6.3c7.2-1.5,11.2,2,15.2,5.1c2,2.4,5,3.9,8.2,4.2h6c6.6,0,12.1-5.4,12.1-12v-1.2
		c2.1-1.8,4.5-3.3,7.4-4.5c5.7-2.2,9.4,0.5,12.6,4c1.3,5.2,6.1,9.1,11.7,9.1h6.3c4.7,0,8.8-2.7,10.8-6.6c3-0.8,6.7-1.3,11.6-1.1
		c3.8,0.1,6.1,1,7.5,2.2v3.1c0,3.8,1.8,7.1,4.5,9.3c1.2,1.6,3.4,2.7,7.6,2.7h9c6.6,0,12.1-5.4,12.1-12V274c2-1.7,4.3-3,7.5-3.4
		c2.7-0.3,4.6-0.1,6.2,0.4c1,5.7,5.9,10,11.9,10h17c6.6,0,12.1-5.4,12.1-12v-1.3c2.5-0.6,5.6-0.8,9.8-0.6c8.3,0.5,13.4,1.7,17.1,3
		c2.1,3.6,6,6,10.4,6h9c6.9,0,9-2.9,10.4-5.9c0.6-1,1.1-2.1,1.3-3.3c1.2-2.6,2.8-4.6,7.9-3.8c1.9,0.3,3.1,1,4,2v8.6
		c0,6.6,5.4,12,12.1,12h8.7c6.6,0,12.1-5.4,12.1-12v-1.9c2.3-1.6,6.1-2.7,12.7-2.7c10.5,0,14.1,1.8,16.3,3.7
		c0.2,0.2,0.5,0.4,0.7,0.6c2.6,2.4,4,4.6,16.6,2.7c6.6,0,12.1-5.4,12.1-12v-19.2L240,0z"/>
	<path class="gig-st1" d="M254.6,279.7c22.6,0.3,19.2-6.3,28.4-9.3c11.4,0.5,10.7,18.9,23.5,18.9c12.7,0,12.5-16.3,24.8-18.9
		s15.3,9.4,24.3,9.4s12.4-13,24.6-17.7s15.3,13.1,24.3,13.1s10.5-8.4,28.6-7.8s3,17.3,19.6,17.3s14.7-18.4,28.7-20s9.1,10.4,26,10.4
		s6.2-15.3,31-13.9c24.8,1.5,21,9.1,36.6,9.1s6.9-15,19.7-13c12.7,2-1.6,23.1,19.5,22.5c21.1-0.5,4.6-16.5,30.1-16.5
		s10.3,10.6,33.7,7c18.6-2.9,4.6-194-1.8-270.3H252.7C247.6,78.6,236.4,279.5,254.6,279.7L254.6,279.7z"/>
	<path class="gig-st4" d="M610.7,279.9h8.8c6.6,0,12-5.4,12-12v-268h-32.8v268C598.7,274.5,604.1,279.9,610.7,279.9z M565.9,270.4h9.2
		c6.6,0,12-5.4,12-12V-0.1h-33.2v258.5C553.9,265,559.3,270.4,565.9,270.4z M499.4,275.1h17.1c6.6,0,12-5.4,12-12V-0.1h-41.1v263.2
		C487.4,269.7,492.8,275.1,499.4,275.1L499.4,275.1z M252.6,279.7h9.2c6.6,0,12-5.4,12-12V-0.1h-33.2v267.8
		C240.6,274.3,246,279.7,252.6,279.7L252.6,279.7z M306.4,289.3h3.6c6.6,0,12-5.4,12-12V-0.1h-27.6v277.4
		C294.4,283.9,299.8,289.3,306.4,289.3L306.4,289.3z M355.5,279.7h5.3c6.6,0,12-5.4,12-12V-0.1h-29.3v267.8
		C343.5,274.3,348.9,279.7,355.5,279.7L355.5,279.7z M656.8-0.1v258.5c0,6.6,5.4,12,12,12h9.2c6.6,0,12-5.4,12-12V-0.1H656.8z
		 M404.4,275.1h6.4c6.6,0,12-5.4,12-12V-0.1h-30.4v263.2C392.4,269.7,397.8,275.1,404.4,275.1z M452.6,284.7h9.2c6.6,0,12-5.4,12-12
		V-0.1h-33.2v272.8C440.6,279.3,446,284.7,452.6,284.7L452.6,284.7z"/>
	<path class="gig-st4" d="M414.6,105.8c-73,0-132.6,73.9-136.8,167.1v0.3c1.3-1.1,2.9-2.1,5.2-2.9c11.4,0.5,10.7,18.9,23.5,18.9
		c12.7,0,12.5-16.3,24.8-18.9s15.3,9.4,24.3,9.4s12.4-13,24.6-17.7s15.3,13.1,24.3,13.1s10.5-8.4,28.6-7.8
		c18.1,0.7,3,17.3,19.6,17.3s14.7-18.4,28.7-20s9.1,10.4,26,10.4s6.2-15.3,31-13.9c5.3,0.3,9.2,0.9,12.4,1.6
		C542.9,174.5,484.9,105.8,414.6,105.8L414.6,105.8z"/>
	<path class="gig-st5" d="M516.5,275.1c6.6,0,12-5.4,12-12v-78.5c-10.7-20.7-24.8-38.4-41.1-51.7v130.2c0,6.6,5.4,12,12,12H516.5z
		 M440.7,109v163.7c0,6.6,5.4,12,12,12h9.2c6.6,0,12-5.4,12-12V123.2C463.4,116.7,452.3,111.9,440.7,109z M414.6,105.8
		c-7.5,0-14.9,0.8-22.2,2.3v155c0,6.6,5.4,12,12,12h6.4c6.6,0,12-5.4,12-12v-157C420.1,105.9,417.4,105.8,414.6,105.8L414.6,105.8z
		 M343.5,131.5v136.2c0,6.6,5.4,12,12,12h5.3c6.6,0,12-5.4,12-12V114.2C362.5,118.5,352.6,124.3,343.5,131.5z M294.4,198v79.3
		c0,6.6,5.4,12,12,12h3.6c6.6,0,12-5.4,12-12V152.4C311,165.5,301.6,180.9,294.4,198z"/>
</g>
<g class="props_1_">
	<path class="gig-st0" d="M548.9,295.7c-1.6-6.7,17.3-8.7,30.5-3.2c13.1,5.5,26.1,6.5,25.6,10s-27.8-0.4-27.8-0.4
		S550.5,302.4,548.9,295.7z M651.1,312.8c0,0-8.7,1.5-31.7,1.2s-31.7-2.1-31.7-2.1c-0.9,0-1.7-0.8-1.7-1.7l0.1-5.5
		c0-0.9,0.8-1.7,1.7-1.7l63.4,0.9c0.9,0,1.7,0.8,1.7,1.7l-0.1,5.5C652.8,312.1,652,312.8,651.1,312.8z"/>
	<path class="gig-st6" d="M651.1,309.8c0,0-8.7,1.5-31.7,1.2s-31.7-2.1-31.7-2.1c-0.9,0-1.7-0.8-1.7-1.7l0.1-5.5c0-0.9,0.8-1.7,1.7-1.7
		l63.4,0.9c0.9,0,1.7,0.8,1.7,1.7l-0.1,5.5C652.8,309.1,652.1,309.8,651.1,309.8z"/>
	<path class="gig-st7" d="M652.9,302.5c-0.1,4.9-66.9,4-66.8-0.9s15.1-8.7,33.5-8.4C638.1,293.4,653,297.6,652.9,302.5z"/>
	<path class="gig-st6" d="M619.7,299.5c-1.7,0-3-1.4-3-3.1l1.8-133c0-1.7,1.4-3,3.1-3c1.7,0,3,1.4,3,3.1l-1.8,133
		C622.8,298.1,621.4,299.5,619.7,299.5z"/>
	<path class="gig-st6" d="M633.7,174.4c-0.8,1.5-2.6,2.1-4.1,1.3L560.4,140c-1.5-0.8-2.1-2.6-1.3-4.1s2.6-2.1,4.1-1.3l69.2,35.7
		C633.9,171,634.5,172.9,633.7,174.4z"/>
	<path class="gig-st7" d="M569.2,149l-3.2,2.2c-3,2-7.1,1.2-9.2-1.8l-2.6-3.9c-2-3-1.2-7.1,1.8-9.2l3.2-2.2c3-2,7.1-1.2,9.2,1.8l2.6,3.9
		C573,142.8,572.2,147,569.2,149z"/>
	<path class="gig-st6" d="M549.9,126.2c1.7-1.3,4.2-0.9,5.4,0.8l19.6,26.7c1.3,1.7,0.9,4.2-0.8,5.4c-1.7,1.3-4.2,0.9-5.4-0.8L549,131.6
		C547.8,129.9,548.2,127.4,549.9,126.2z"/>
	<path class="gig-st7" d="M556.9,119.5c4,5.5,3.8,12.4-0.5,15.6s-11,1.2-15-4.2c-4-5.5-8-13-0.5-17.6S552.9,114.1,556.9,119.5z"/>
	<path class="gig-st6" d="M556.2,118.6l0.9,1.5c-6,3.6-9.2,6-14.9,11.3c0,0-1-0.9-1.4-1.4l-0.9-1.5c4.8-5.2,10.3-9.2,15-11.2
		C554.9,117.2,555.8,118.1,556.2,118.6L556.2,118.6z"/>
	<path class="gig-st8" d="M636.6,312.8v-34.1c0-5.5,9.6-5.6,19.1-5.6c9.6,0,19.1,0.1,19.1,5.6v34.1c0,5.5-9.6,8.3-19.1,8.3
		C646.2,321,636.6,318.3,636.6,312.8z"/>
	<ellipse class="gig-st9" cx="655.9" cy="277.4" rx="16.4" ry="3.5"/>
	<circle class="gig-st10" cx="656.8" cy="301.2" r="14.1"/>
	<path class="gig-st11" d="M658.4,299.2c0.4,0.1,0.7,0.2,1.1,0.3c0.4,0.1,0.7,0.3,1,0.4l0.9,0.6c0.3,0.2,0.5,0.5,0.8,0.7
		c0.2,0.3,0.4,0.6,0.5,1s0.2,0.8,0.2,1.3c0,0.7-0.1,1.4-0.4,2c-0.2,0.6-0.6,1.2-1.1,1.7s-1,0.9-1.7,1.2c-0.7,0.3-1.5,0.5-2.3,0.6
		l-0.1,1.4c0,0.2-0.1,0.4-0.3,0.6s-0.4,0.3-0.7,0.3H655l0.2-2.3c-0.9-0.1-1.7-0.4-2.5-0.8s-1.5-0.8-2-1.3l1.1-1.6
		c0.1-0.1,0.2-0.2,0.4-0.3c0.2-0.1,0.3-0.1,0.5-0.1s0.4,0,0.6,0.1l0.6,0.3c0.2,0.1,0.5,0.3,0.7,0.4c0.3,0.1,0.6,0.3,0.9,0.3l0.4-4.3
		c-0.5-0.2-1.1-0.3-1.6-0.5s-1-0.5-1.5-0.8c-0.4-0.3-0.8-0.8-1-1.3c-0.3-0.5-0.4-1.2-0.4-2c0-0.6,0.1-1.2,0.4-1.7
		c0.2-0.6,0.6-1.1,1.1-1.5c0.5-0.5,1-0.8,1.7-1.1c0.7-0.3,1.5-0.5,2.3-0.5l0.1-1.3c0-0.2,0.1-0.4,0.3-0.6s0.4-0.3,0.7-0.3h1.3
		l-0.2,2.2c0.8,0.2,1.5,0.4,2.1,0.7c0.6,0.3,1.1,0.7,1.5,1.1l-0.9,1.3c-0.1,0.2-0.3,0.3-0.4,0.4c-0.1,0.1-0.3,0.1-0.5,0.1
		c-0.1,0-0.2,0-0.4-0.1s-0.3-0.1-0.5-0.2s-0.4-0.2-0.6-0.2c-0.2-0.1-0.4-0.2-0.7-0.2L658.4,299.2L658.4,299.2z M656.7,295.1
		c-0.3,0.1-0.6,0.1-0.9,0.2c-0.2,0.1-0.4,0.2-0.6,0.4c-0.1,0.1-0.3,0.3-0.3,0.5c-0.1,0.2-0.1,0.4-0.1,0.6c0,0.4,0.1,0.8,0.4,1.1
		c0.3,0.3,0.7,0.5,1.1,0.7L656.7,295.1L656.7,295.1z M657.7,306.1c1.2-0.2,1.9-0.9,1.9-2c0-0.4-0.1-0.8-0.4-1
		c-0.3-0.3-0.6-0.5-1.1-0.6L657.7,306.1z M648.3,280.6c0,0-3.4-13.1-1.5-15.1s12.9-0.5,12.9-0.5s-1.5,15.6,0,15.8
		C651.8,281.1,648.3,280.6,648.3,280.6L648.3,280.6z"/>
</g>

<g class="performer_1_">

	<path class="cartoonShadow gig-st0" d="M432.1,296.1c-6-9-40.9-14.1-65.8-9.5c-27.3,5-47.3,1.6-47.3,12.2s57,12.2,57,12.2
		s10.1,2.2,21.7,1.1c6.4-0.6,3.4-4.3,9.4-6c0.9-0.3,2-0.5,3.1-0.7l24.9,1.4l11.8-0.6c0,0,6.3-1.5,6.5-4.9
		C453.4,299.7,443.2,297.7,432.1,296.1z"/>
	<path class="saxShadow gig-st0" d="M499.2,297.3c2.5,4.3-15.9,7.5-29.7,5c-13.8-2.5-31.2,0.7-35.7-5.3c-4.6-6,19.5-2.8,35.7-5.4
		S496.7,293,499.2,297.3L499.2,297.3z"/>
	<path class="frontShoe gig-st2" d="M360.3,287.5c-1.3-2.7-0.8-8.4,3.2-11.9c1.4-1.1,4.6-1.1,5.6-0.7c4.2,1.7,22.3,13.8,22.3,13.8
		l6.1,7.3c0,0,6.8,6.2,8.5,8.3s1.3,5.8-4.7,7.1c-5.2,1.1-11.5,1.2-15-0.4c-4.7-2.1-13.1-13.8-17.1-16.6
		C365.2,291.5,361.6,290.2,360.3,287.5L360.3,287.5z"/>
	<path class="backShoe gig-st2" d="M446.4,306.3c-9.3,0.3-14.6,0.4-22.6-1.2c-11.3-2.2-23.6-8.2-23.1-11.1
		c0.5-2.8,3.6-12.4,7.6-12.2c3.9,0.2,11.5,5.1,18.1,6.2s14,7.7,22.2,8.3C456.8,297,455.8,305.9,446.4,306.3L446.4,306.3z"/>
	<path class="pants gig-st14" d="M387.9,238.2c0,0-21.6,33.7-21.2,37.2s14.2,17,22.1,16.2s22.8-47,22.8-47l0.9-36.1l7.9,25
		c0,0-15.7,41.7-17.6,49c-2,7.3,27.9,13.7,29.2,8.7c1.3-5,14-56.9,14-56.9l-7.8-47l-1.6-9.3l-22.8-5.1l-16.7-18c0,0-15,21-14.6,35.4
		c0.1,5.3,2.3,8.7,2.4,9.7C385.7,220.7,387.9,238.2,387.9,238.2L387.9,238.2z"/>
  <g class="torso">
    <path class="neck gig-st12" d="M385.7,107.8c0,0-20.8,18.7-25.7,11.5s-3.1-33.4-3.1-33.4l27.1,5.3L385.7,107.8z"/>
    <g class="head">
      <path class="gig-st13" d="M398.2,54c1.6,1.5,2.9,3.9,3.9,6.8c3,9,8.8,15.6,5.2,23.4c-3.6,7.8-11.1,7.9-21.7,8.9
      c-9.3,0.8-19.2-3.6-23.6-4.3c-1-0.1-1.8,1.7-2.1,1.9c-3.6,1.4-12.9-2.7-17.1-8.8c-13.5-19.7-1.4-40.1,13.9-47.3
      c7-3.1,15.7-2,22.5,3.3c2.3,1.8,3.5,5.6,5.5,7.7C392.2,53.5,391.6,48,398.2,54L398.2,54z"/>
      <path class="gig-st12" d="M367,64.8c-2.8,5.8-5.9,6.9-8,6s-1.3-8.6,1.2-12.4s12.1-3.6,12.4-1.8S369.8,59,367,64.8z"/>
      <path class="gig-st0" d="M354.5,36.8c4.6-2,9.6-3.2,11-4.6c0.6-0.6-1.3-4.3-4.4-4.7c-0.8-0.1-1.6-0.2-2.5-0.2c0.1-0.8,0-1.5-0.2-2
      c-1.1-2.8-6.9-9.6-8.6-7.9c-0.7,0.7,0.4,2,0,3.2c-0.6,1.5-2.6,2.9-2.6,2.9s1-4.5-1.2-5c-1.1-0.3-2.5,3.4-4,3.7
      c-5.2,0.8-11.9,0.9-13.5,8.9c-2.7,13.3-2.2,12.4-1.7,16.6c-0.1,0.5-0.2,0.9-0.3,1.4c-2.3,12.2,0.5,19.4,5.7,27.3
      c5.1,7.9,24.4,17.5,24.4,17.5l0.2-2.9l-4.1-12.3l1.6-3.3c0,0-7.9-6.1-8.8-7.6c-0.4-0.7-1.3-3.4-1.7-7.1c3.1-6.9,4.9-17.5,6.9-19.4
      C352.1,39.8,353.4,38.3,354.5,36.8L354.5,36.8z"/>
      <path class="gig-st0" d="M359.2,70.2c0,0,1.6-5.5,4.6-8.8s8.4-4.5,8.5-4.5c0,0-5,1.4-7.7,5.3c-1.8,2.6-3.1,6.6-4.1,8.1
      C359.9,71,359.5,70.5,359.2,70.2z"/>
      <path class="gig-st12" d="M375.3,55.5c0,0,2.5-0.8,5.2-3.1s5-1.6,5-3.1c0-4-3.2-6.3-6.2-5.4c-3,0.9-4.7,1.7-5.4,4.3
      C373.2,50.7,375.3,55.5,375.3,55.5z"/>
      <path class="gig-st0" d="M384.9,45.7c0,0-4.1,1.2-6.7,3.5s-3.5,6.5-3.4,6.6c0,0,1.1-3.9,4-6c2-1.4,5-2.4,6.1-3.1
      C385.4,46.3,385.1,46,384.9,45.7z"/>
      <path class="gig-st13" d="M389.3,67c4.6-2.8,4.7-11.4,0.1-11c-4.7,0.4-7.3-2-10.9-2.1c-3.5-0.1-8.8-2.5-8.8-2.5"/>
      <path class="gig-st12" d="M389.3,67.5c-0.2,0-0.3-0.1-0.4-0.2c-0.1-0.2-0.1-0.5,0.2-0.7c2.7-1.7,3.8-5.7,3-8.2c-0.3-0.9-1-2-2.6-1.9
      c-2.8,0.3-4.9-0.5-6.8-1.1c-1.4-0.5-2.7-0.9-4.1-1c-3.6-0.1-8.8-2.4-9-2.5c-0.3-0.1-0.4-0.4-0.2-0.7c0.1-0.3,0.4-0.4,0.7-0.2
      c0.1,0,5.2,2.4,8.6,2.4c1.6,0,3,0.5,4.4,1c1.9,0.6,3.8,1.3,6.4,1.1c1.7-0.2,3.1,0.8,3.7,2.6c1,2.9-0.2,7.4-3.4,9.4
      C389.5,67.4,389.4,67.5,389.3,67.5L389.3,67.5z"/>
      <path class="gig-st0" d="M351.5,66.9c1.9,0,0.9-8.7,5.9-11.2s6.2-1.8,8.2-1.9c2.5-0.1-1.4-2.8-2.6-2.8s-4.3-0.6-7.8,3.7
      S349.6,66.9,351.5,66.9z M379.8,39.3c-0.2,0.9-6.8-0.6-8.9,3c-2.2,3.6-1.7,4.6-1.8,6c-0.2,1.9-2.1-1.2-2.1-2.1s-0.3-3.2,3.3-5.7
      S379.9,37.9,379.8,39.3z"/>

      <ellipse transform="matrix(0.5863 -0.8101 0.8101 0.5863 76.9498 319.0765)" class="gig-st13" cx="350.9" cy="84.2" rx="5.6" ry="10.9"/>
      <path class="gig-st13" d="M397.2,79.7c0,0,1.4,0.1,3.2-1.8c1.8-1.9,1.5-4.5,1.5-4.5"/>
      <path class="gig-st12" d="M397.2,80.2c-0.3,0-0.5-0.2-0.5-0.5s0.2-0.5,0.5-0.5c0,0,1.2,0,2.8-1.7c1.6-1.7,1.4-4.1,1.4-4.1
        c0-0.3,0.2-0.5,0.4-0.5c0.3,0,0.5,0.2,0.5,0.4c0,0.1,0.3,2.8-1.6,4.9C399,80.2,397.5,80.2,397.2,80.2L397.2,80.2z M393.3,79
        c0,0,1.5-7.3,2-7.7c0.3-0.2,0.6-0.4,0.9-0.7c0.3-0.2,0.8-1.1,1.6-1.1c0.6,0,4,1.1,3.5,1.4s-1.1,0.2-3,1.9
        C395.2,76.2,394.5,79.8,393.3,79z"/>
      <path class="gig-st13" d="M392.8,81.7c0.8-0.4,1.1-4.7-0.6-8.9c-1.2-2.8-3.3-5.5-6.7-6.9"/>
      <path class="gig-st12" d="M392.8,82.2c-0.2,0-0.3-0.1-0.4-0.3c-0.1-0.2,0-0.5,0.2-0.7c0.5-0.5,0.8-4.3-0.8-8.2
        c-0.9-2.2-2.8-5.1-6.5-6.7c-0.3-0.1-0.4-0.4-0.3-0.7c0.1-0.3,0.4-0.4,0.7-0.3c4,1.7,6,4.8,7,7.2c1.7,4,1.7,8.8,0.4,9.5
        C392.9,82.1,392.9,82.2,392.8,82.2L392.8,82.2z"/>
      <path class="gig-st13" d="M357.8,46.1c0,0,1.3-1.2,3.6,0.6c2.3,1.9-2.3-1.8-1.8-3"/>
      <path class="gig-st12" d="M362.1,47.7c-0.2,0-0.4-0.2-0.5-0.2l-0.5-0.4c-1.9-1.6-2.9-0.7-3-0.7c-0.2,0.2-0.5,0.2-0.7,0s-0.2-0.5,0-0.7
        c0,0,0.8-0.7,2.1-0.5c-0.6-0.9-0.6-1.4-0.4-1.7c0.1-0.3,0.4-0.4,0.6-0.3c0.3,0.1,0.4,0.4,0.3,0.6c-0.1,0.2,0.2,1,2.2,2.9
        c0.4,0.4,0.2,0.7,0.1,0.8C362.3,47.7,362.2,47.7,362.1,47.7z"/>
      <path class="gig-st13" d="M350.8,82.6c0,0-3.4-3.3-5.6,0"/>
      <path class="gig-st12" d="M345.2,83.1c-0.1,0-0.2,0-0.3-0.1c-0.2-0.2-0.3-0.5-0.1-0.7c0.6-1,1.5-1.6,2.5-1.7c2-0.2,3.8,1.5,3.9,1.6
        c0.2,0.2,0.2,0.5,0,0.7s-0.5,0.2-0.7,0c0,0-1.6-1.5-3.1-1.3c-0.7,0.1-1.2,0.5-1.7,1.2C345.5,83,345.3,83.1,345.2,83.1L345.2,83.1z"/>
    </g>
	<path class="backArm gig-st13" d="M392.5,121.6c0,0,34.5-21.8,35.5-23.8s1-11.2,3.5-15.9s6-8.4,10-7.8s-3,12.1-3,12.1
		s14.1-0.2,21,3.1c2.6,1.3-0.2,4.1-2.1,7.2c-3.3,5.2-7.9,11-7.9,11l-16.5,3l-27.5,27.9C405.5,138.4,392.5,121.6,392.5,121.6z"/>
	<path class="shirt gig-st8" d="M379.8,194c0,0,14.9-0.1,28.4-3.8s28.9-10.5,28.9-10.5l1.5-2.7c0,0-4-18-9.1-26.8
		c-4.4-7.7-13.2-16.6-20.3-25.1c-5.8-7-9.7-13.9-14.6-18.7c-5.5-5.4-7.6-10.3-10-8.3s-3.2,4.4-17.4,3.9c-6.7-0.2-10.1-1-12.4-0.2
		c-2.6,0.9-0.3,3.5-0.9,5.7s1.9,2,2.7,2.5c-3.5-2.2-3.5,1.5-4.3,9.9c-0.5,4.9,14.2,28.6,22.2,48.2C380,181.7,379.8,194,379.8,194
		L379.8,194z"/>
	<g class="saxophone">

    <path class="gig-st15" d="M410.9,80.5c0,0,17.9,7.3,23.7,0.7c5.8-6.6,6.5-52.3,9.3-45.7c2.9,6.7-7,65-7,65s-2.8,11.4-3.8,21.7
      c-1.1,11.9-2.4,14.5-0.9,29.9s1.6,31,26.3,31s31.3-29.7,31.3-29.7s6.4-21.3,10.4-21.5s6.9,2.2,10,0s7-3.5-1.7-13.5
      s-34.7-30-39.3-26.3c-4.7,3.7,1.7,13,1.7,13s-13.2,9-14,39.3c-5.1,1.3-8.1-18.7-2.9-39s11.8-87.2-2.8-91.7
      c-14.6-4.5-16.7,8-16.7,18.3s-0.9,34.6-6.3,39c-5.5,4.4-16.4,0.7-16.4,0.7L410.9,80.5L410.9,80.5z"/>
    <path class="gig-st16" d="M473.4,98.2c2.1-3.5,14,7.3,21,12.3s15,15,12,15.7s-15-6.7-20.3-10.7C480.7,111.5,471.4,101.5,473.4,98.2z"
      />
		<path class="gig-st14" d="M402.4,77.4c-1.9-0.6-5.3-3.4-3.5-4.6c1.8-1.1,12.4-2.4,12.4-2.4s5.1,0.7,5.9,2.5c0.5,1.2-2.4,9.1-2.4,9.1
			s-4.3,0.1-6.3-1.3C406.5,79.2,402.4,77.4,402.4,77.4z"/>
		<circle class="gig-st16" cx="449.4" cy="49.8" r="4.1"/>
		<circle class="gig-st16" cx="448.2" cy="62.2" r="4.1"/>
		<circle class="gig-st16" cx="450.8" cy="84" r="3.7"/>
		<circle class="gig-st16" cx="449.3" cy="94.7" r="4.7"/>
		<circle class="gig-st16" cx="446.5" cy="106.8" r="5.1"/>
		<circle class="gig-st16" cx="471.6" cy="132.2" r="10.7"/>
		<circle class="gig-st16" cx="463.8" cy="153.3" r="9.1"/>
		<circle class="gig-st16" cx="441.8" cy="128.8" r="6.8"/>
		<circle class="gig-st16" cx="441.8" cy="146.6" r="6.8"/>

		<ellipse transform="matrix(0.2643 -0.9644 0.9644 0.2643 215.7833 546.7231)" class="gig-st15" cx="466.2" cy="131.9" rx="3.8" ry="3.8"/>
		<path class="gig-st15" d="M460.3,124.3c0,0,1.4,4.8,5,6s1.6,3.2-0.7,2.4c-2.2-0.8-4.6-3.9-6-5.3C457.2,126.1,458.6,123.4,460.3,124.3z
			"/>
		<path class="gig-st16" d="M465.7,133.4c-0.4,0-0.8-0.1-1.2-0.2c-1.8-0.7-3.6-2.6-5.1-4.2c-0.4-0.5-0.8-0.9-1.1-1.2
			c-1-1-0.9-2.4-0.2-3.3c0.6-0.9,1.6-1.1,2.5-0.7l0.2,0.1l0.1,0.2c0,0,1.4,4.6,4.6,5.7c1.7,0.6,2.2,1.3,2.3,1.8
			c0.1,0.5-0.1,0.9-0.5,1.2C466.9,133.2,466.3,133.4,465.7,133.4L465.7,133.4z M459.7,124.6c-0.4,0-0.7,0.3-0.8,0.5
			c-0.4,0.5-0.5,1.4,0.1,2c0.3,0.3,0.7,0.8,1.2,1.2c1.3,1.4,3.1,3.4,4.7,3.9c0.8,0.3,1.5,0.2,1.8-0.1c0.2-0.1,0.1-0.2,0.1-0.3
			c0-0.3-0.5-0.7-1.6-1.1c-3.3-1.2-4.9-5.1-5.2-6.1L459.7,124.6L459.7,124.6z"/>

		<ellipse transform="matrix(0.4821 -0.8761 0.8761 0.4821 105.14 483.3508)" class="gig-st15" cx="461.4" cy="152.7" rx="3.8" ry="3.8"/>
		<path class="gig-st15" d="M457.6,144c0,0,0.3,5,3.4,7s0.8,3.5-1.2,2.2s-3.6-4.9-4.6-6.5C454.1,145,456.1,142.8,457.6,144L457.6,144z"
			/>
		<path class="gig-st16" d="M461.3,154.2c-0.6,0-1.2-0.2-1.8-0.6c-1.6-1.1-2.9-3.4-3.9-5.3c-0.3-0.5-0.6-1-0.8-1.4
			c-0.7-1.2-0.3-2.6,0.5-3.3s1.8-0.7,2.6-0.1l0.2,0.1v0.2c0,0,0.3,4.8,3.2,6.6c1.5,1,1.8,1.8,1.8,2.3s-0.3,0.9-0.7,1.1
			C462,154.1,461.7,154.2,461.3,154.2L461.3,154.2z M456.6,144.2c-0.3,0-0.6,0.2-0.7,0.3c-0.5,0.4-0.8,1.3-0.4,2
			c0.2,0.4,0.5,0.9,0.8,1.5c0.9,1.7,2.2,4,3.6,4.9c0.7,0.4,1.4,0.5,1.8,0.3c0.2-0.1,0.2-0.2,0.2-0.2c0-0.3-0.3-0.8-1.3-1.4
			c-3-1.9-3.5-6.1-3.6-7.2C456.9,144.2,456.8,144.2,456.6,144.2L456.6,144.2z"/>
		<circle class="gig-st15" cx="438.8" cy="146" r="3"/>
		<path class="gig-st15" d="M432.2,141.5c0,0,2.2,3.3,5.4,3.5c3.2,0.2,2,2.1,0,2s-4.6-2-6.1-2.7C430.1,143.5,430.6,141.2,432.2,141.5z"/>
		<path class="gig-st16" d="M437.8,147.5h-0.2c-1.6-0.1-3.6-1.2-5.1-2.1c-0.4-0.3-0.8-0.5-1.2-0.7c-1-0.5-1.3-1.7-1-2.5
			c0.3-0.9,1.1-1.3,2-1.2h0.2l0.1,0.2c0,0,2.1,3.1,5,3.3c1.3,0.1,2,0.4,2.3,1c0.2,0.3,0.1,0.7-0.1,1.1
			C439.5,147.2,438.7,147.5,437.8,147.5L437.8,147.5z M431.9,142c-0.5,0-0.6,0.4-0.7,0.5c-0.1,0.4,0,1,0.5,1.3
			c0.3,0.2,0.8,0.4,1.2,0.7c1.4,0.8,3.2,1.9,4.7,2c0.8,0.1,1.3-0.2,1.4-0.4c0-0.1-0.2-0.4-1.5-0.5
			C434.6,145.4,432.5,142.8,431.9,142z"/>
		<circle class="gig-st15" cx="439.3" cy="129.3" r="3"/>
		<path class="gig-st15" d="M433.5,124.7c0,0,2,3.4,4.8,3.6c2.8,0.2,1.8,2.1,0,2s-4.1-2-5.4-2.8S432,124.4,433.5,124.7z"/>
		<path class="gig-st16" d="M438.5,130.8h-0.2c-1.5-0.1-3.2-1.3-4.6-2.2c-0.4-0.3-0.7-0.5-1-0.7c-1-0.6-1.2-1.8-0.9-2.7
			c0.3-0.8,1-1.2,1.8-1h0.2l0.1,0.2c0,0,1.9,3.2,4.4,3.3c1.4,0.1,1.9,0.6,2.1,1s0.1,0.8-0.1,1.2C440,130.4,439.3,130.8,438.5,130.8z
			 M433.2,125.1c-0.3,0-0.4,0.2-0.5,0.4c-0.2,0.5-0.1,1.1,0.4,1.4c0.3,0.2,0.7,0.4,1.1,0.7c1.2,0.8,2.9,1.9,4.1,2
			c0.6,0,1-0.2,1.2-0.4c0.1-0.1,0-0.1,0-0.2c-0.1-0.1-0.4-0.4-1.3-0.4C435.6,128.6,433.7,125.9,433.2,125.1L433.2,125.1z"/>
		<path class="gig-st15" d="M440.7,81.3c2.2,1.2,4.9,1.8,6.2,1.9c1.4,0.1,5-1.9,5,0.6s-3.5,1.2-5,1c-1.6-0.3-5.3-1.6-7-2.2
			C438.3,81.9,438.5,80.1,440.7,81.3z"/>
		<path class="gig-st16" d="M450.2,85.8c-0.8,0-1.7-0.2-2.5-0.4c-0.3-0.1-0.6-0.1-0.9-0.2c-1.6-0.3-5.3-1.6-7.1-2.3
			c-0.8-0.3-1.3-0.9-1.4-1.5c0-0.4,0.1-0.7,0.4-0.9c0.3-0.2,1-0.4,2.2,0.3c2,1.1,4.6,1.8,6,1.8c0.3,0,0.9-0.1,1.5-0.3
			c1.2-0.3,2.6-0.7,3.5,0c0.4,0.3,0.6,0.8,0.6,1.4c0,0.7-0.2,1.2-0.7,1.6C451.4,85.7,450.8,85.8,450.2,85.8z M439.5,81.4h-0.1
			c0,0,0.2,0.4,0.8,0.6c1.6,0.6,5.4,2,6.9,2.2c0.3,0,0.6,0.1,0.9,0.2c1,0.2,2.6,0.6,3.2,0.1c0.1-0.1,0.3-0.2,0.3-0.8
			c0-0.5-0.2-0.6-0.2-0.6c-0.4-0.3-1.7,0-2.6,0.2c-0.7,0.2-1.3,0.3-1.8,0.3c-1.5-0.1-4.3-0.8-6.4-1.9
			C440,81.4,439.7,81.4,439.5,81.4L439.5,81.4z"/>
		<path class="gig-st15" d="M439.3,92.3c2.1,1.2,4.7,1.8,6.1,1.9s4.9-1.9,4.9,0.6s-3.4,1.2-4.9,1c-1.5-0.3-5.2-1.6-6.8-2.2
			S437.2,91.1,439.3,92.3L439.3,92.3z"/>
		<path class="gig-st16" d="M448.6,96.9c-0.8,0-1.6-0.2-2.4-0.4c-0.3-0.1-0.6-0.1-0.9-0.2c-1.6-0.3-5.2-1.6-6.9-2.3
			c-0.8-0.3-1.3-0.9-1.4-1.5c0-0.4,0.1-0.7,0.4-0.9c0.3-0.2,1-0.4,2.1,0.3c2,1.1,4.5,1.8,5.9,1.8c0.3,0,0.9-0.1,1.4-0.3
			c1.2-0.3,2.6-0.7,3.4,0c0.4,0.3,0.6,0.8,0.6,1.4c0,0.7-0.2,1.2-0.7,1.6C449.7,96.7,449.2,96.9,448.6,96.9z M438.1,92.4H438
			c0,0,0.1,0.4,0.7,0.7c1.6,0.6,5.3,2,6.7,2.2c0.3,0,0.6,0.1,0.9,0.2c1,0.2,2.5,0.6,3.1,0.1c0.1-0.1,0.3-0.2,0.3-0.8
			c0-0.3-0.1-0.5-0.2-0.6c-0.4-0.3-1.6,0-2.5,0.2c-0.7,0.2-1.3,0.3-1.7,0.3c-1.5-0.1-4.2-0.8-6.3-1.9
			C438.6,92.5,438.3,92.4,438.1,92.4L438.1,92.4z"/>
		<path class="gig-st15" d="M437.2,104.4c2,1.3,4.5,2,5.7,2.1c1.3,0.1,4.6-2.1,4.6,0.7s-3.2,1.4-4.6,1.1s-4.9-1.8-6.4-2.5
			S435.2,103.1,437.2,104.4L437.2,104.4z"/>
		<path class="gig-st16" d="M446,109.4c-0.7,0-1.6-0.2-2.3-0.4c-0.3-0.1-0.6-0.2-0.8-0.2c-1.5-0.3-4.9-1.8-6.5-2.5
			c-0.8-0.3-1.3-1-1.3-1.7c0-0.4,0.2-0.8,0.5-1s1-0.3,2,0.4c1.9,1.2,4.2,1.9,5.5,2c0.3,0,0.8-0.2,1.3-0.3c1.1-0.3,2.3-0.7,3.1-0.1
			c0.4,0.3,0.7,0.9,0.7,1.6c0,0.8-0.2,1.4-0.7,1.8C447,109.3,446.5,109.4,446,109.4L446,109.4z M436.1,104.5
			C436.1,104.5,436,104.5,436.1,104.5c-0.1,0-0.1,0.1,0,0.2c0,0.1,0.2,0.4,0.7,0.7c1.5,0.7,4.9,2.2,6.3,2.5c0.2,0,0.5,0.1,0.9,0.2
			c1,0.3,2.3,0.6,2.8,0.2c0.2-0.2,0.3-0.5,0.3-1c0-0.3,0-0.7-0.2-0.8c-0.4-0.3-1.5,0-2.2,0.3c-0.6,0.2-1.2,0.4-1.7,0.4
			c-1.4-0.1-3.9-0.8-6-2.2C436.5,104.5,436.2,104.5,436.1,104.5L436.1,104.5z"/>
		<path class="gig-st6" d="M412.2,70.5c-0.6-0.1-0.9-0.2-0.9-0.2H411c-0.8,1-1.5,2.3-1.9,4.2c-0.4,2.3-0.4,4.6-0.4,6.2
			c0.3,0.2,0.7,0.3,1,0.5c-0.1-1.6-0.1-4,0.3-6.5C410.5,72.7,411.4,71.4,412.2,70.5L412.2,70.5z M415,71.3c-0.3-0.1-0.7-0.2-1-0.3
			c-0.7,0.8-1.5,2.2-1.9,4.3c-0.2,1.2-0.8,4.3-0.8,6.4c0.3,0.1,0.7,0.1,1,0.1c0-1.2,0.2-3.3,0.7-6.3C413.6,73.3,414.4,72,415,71.3
			L415,71.3z"/>
		<path class="gig-st15" d="M442.7,60.6c1,0.4,1.9,0.7,2.4,0.7c0.9,0.1,3.4-1.8,3.4,0.6s-2.4,1.2-3.4,0.9c-0.5-0.1-1.4-0.5-2.4-0.9
			S442.1,60.3,442.7,60.6z"/>
		<path class="gig-st16" d="M447.4,63.8c-0.6,0-1.2-0.2-1.8-0.4c-0.2-0.1-0.4-0.1-0.6-0.2c-0.5-0.1-1.3-0.4-2.5-1
			c-0.8-0.4-1.1-1.2-0.8-1.8c0.2-0.4,0.7-0.6,1.1-0.4c1,0.5,1.8,0.6,2.3,0.7c0.2,0,0.6-0.1,0.9-0.3c0.8-0.3,1.7-0.6,2.4-0.2
			c0.4,0.3,0.6,0.8,0.6,1.5c0,0.8-0.2,1.3-0.7,1.6C448.2,63.7,447.8,63.8,447.4,63.8z M442.7,61.1c0,0.1,0.1,0.2,0.3,0.3
			c1.3,0.6,2,0.8,2.3,0.9c0.2,0,0.4,0.1,0.7,0.2c0.6,0.2,1.5,0.5,1.9,0.2c0.2-0.2,0.3-0.5,0.3-0.8s-0.1-0.6-0.2-0.7
			c-0.2-0.2-1,0.1-1.5,0.3s-0.9,0.3-1.3,0.3C444.5,61.8,443.6,61.5,442.7,61.1L442.7,61.1z M442.7,60.6l-0.2,0.5L442.7,60.6z"/>
		<path class="gig-st15" d="M444.4,48.5c1,0.4,1.9,0.7,2.4,0.7c0.9,0.1,3.4-1.8,3.4,0.6s-2.4,1.2-3.4,0.9c-0.5-0.1-1.4-0.5-2.4-0.9
			S443.8,48.2,444.4,48.5z"/>
		<path class="gig-st16" d="M449.1,51.7c-0.6,0-1.2-0.2-1.8-0.4c-0.2-0.1-0.4-0.1-0.6-0.2c-0.5-0.1-1.3-0.4-2.5-1
			c-0.8-0.4-1.1-1.2-0.8-1.8c0.2-0.4,0.7-0.6,1.1-0.4c1,0.5,1.8,0.6,2.3,0.7c0.2,0,0.6-0.1,0.9-0.3c0.8-0.3,1.7-0.6,2.4-0.2
			c0.4,0.3,0.6,0.8,0.6,1.5c0,0.8-0.2,1.3-0.7,1.6C449.8,51.7,449.5,51.7,449.1,51.7z M444.4,49c0,0.1,0.1,0.2,0.3,0.3
			c1.3,0.6,2,0.8,2.3,0.9c0.2,0,0.4,0.1,0.7,0.2c0.6,0.2,1.5,0.5,1.9,0.2c0.2-0.2,0.3-0.5,0.3-0.8s-0.1-0.6-0.2-0.7
			c-0.2-0.2-1,0.1-1.5,0.3s-0.9,0.3-1.3,0.3C446.2,49.7,445.3,49.4,444.4,49L444.4,49z M444.4,48.5l-0.2,0.5L444.4,48.5z"/>
		<circle class="gig-st6" cx="412.4" cy="77.1" r="1.5"/>
		<circle class="gig-st6" cx="409.4" cy="76.1" r="1.5"/>
	</g>
	<g class="frontArm">
		<path class="gig-st13" d="M358.4,114.2c6.8-3.4,17.1-1.6,22.9,10.5c2.8,5.9,11.1,31,11.1,31l34.5-25.8c0,0,1.7-2.3,1.5-4.9
			c-0.2-3,1.7-6.5,2.5-7.5c1.4-1.8,4.4-0.2,4.4-0.2s-0.9,8.1,1.1,8.6c2.8,1.1,7.8-0.8,10.8-3.6c3-2.9,2.8-3.1,4.7-4.5
			c1.2-0.5,2,4.8-0.4,6.5c-0.5,0.4-2.3,1.8-2.3,1.8l-4.9,3.8c0,0,3.3-0.4,6.9-1.8c2.9-1.1,3.5,4.4,0.2,5.2c-3.4,0.9-5.4,2.4-5.4,2.4
			s2.8,0.4,5.8,0.8c0.2,0,2,0.1,2.5,1.3c0.7,1.5,0.1,4.1-1,4c-0.8,0-8.8,1.6-8.8,1.6s3.5,2.3,6,4.1s3.3,2.8,2,4.2
			c-1.3,1.3-14.1-5-14.1-5l-6.6-5c0,0-35.1,35.7-44,35.7s-18.7-12.3-22.6-20S354.9,116,358.4,114.2L358.4,114.2z"/>
		<path class="gig-st9" d="M361.4,149.7c-3,0.4-8.5-17-9.1-27.9s1.1-12.2,11.7-15.7c5.2-1.7,10.4,2.4,14.7,8.5
			c4.4,6.2,9.6,24.6,9.6,24.6S363.9,149.4,361.4,149.7L361.4,149.7z"/>
	</g>
	<g class="backFingers">
		<ellipse class="gig-st13" cx="452.5" cy="109.5" rx="4.9" ry="2.4"/>
		<path class="gig-st13" d="M463.7,84.4c-0.3,2.8-2.8,2.7-6.3,2.7s-6.3,0-6.3-2.7s2.8-2.7,6.3-2.7c0.7,0,0.5-3.6,1.1-3.6
			C461.1,78.1,463.9,82.1,463.7,84.4L463.7,84.4z M463.4,95.7c-0.3,3.2-3.1,3-7,3s-7,0-7-3s3.1-3,7-3c0.8,0,0.5-4,1.2-4
			C460.5,88.8,463.6,93.2,463.4,95.7z"/>
		<path class="gig-st13" d="M459.6,104.5c-0.2,2.2-2.2,2.2-5,2.2c-2.7,0-5,0-5-2.2s2.2-2.2,5-2.2c0.5,0,0.4-3.8,0.9-3.8
			C457.5,98.6,459.8,102.7,459.6,104.5z"/>
	</g>
</g>
	<path class="shoetongue_1_ gig-st2" d="M397.2,292.5c0.9,2,4.2,6.1,3.9,8c-0.3,2.3-4.5,2.2-6.4,3c-3.4,1.5-7.8-0.9-9.9-5.4
		c-2-4.5-1-9.5,2.4-11C390.8,285.5,395.2,288,397.2,292.5z"/>
	<path class="shoetongue gig-st2" d="M438.2,290.9c0.8,1.4,3.4,4.1,3.4,5.4c-0.1,1.7-3.1,1.9-4.4,2.6c-2.3,1.3-5.7-0.1-7.4-3.2
		c-1.8-3.1-1.4-6.7,1-8C433.1,286.4,436.4,287.8,438.2,290.9z"/>
</g>
</svg>
