<svg id="Layer_1" xmlns="http://www.w3.org/2000/svg" viewBox="0 0 960 360">
  <style>.st0{fill:#623b19}.st1{fill:#FE6800}.st2{fill:#aa7d4b}.st3{fill:#beab84}.st4{fill:#f7981f}.st5{fill:#f7bd5e}.st6{fill:#e5bb8c}.st7{fill:#f1cf95}.st8{fill:#3f291b}.st9{fill:#0eb5e0}.st10{fill:#fff100}.st11{fill:#ffda00}.st12{fill:#a6a8ab}.st13{fill:#0e8bbd}.st14{fill:#808184}.st15{fill:#56de4e}.st16{fill:#068c45}</style>
  <g id="stage">
    <path class="st0" d="M213.3.2h516v337.9h-516V.2z"/>
    <path class="st1" d="M-44 0h273.6v360H-44V0zm742.2 0H1007v360H698.2V0z"/>
    <path class="st0" d="M213.1 335h505v25h-505v-25z"/>
    <path class="st2" d="M698.2 297v-45.5H229.6V297h-9.3l-16.2 24.1V338h522v-16.9L708.5 297h-10.3z"/>
    <ellipse class="st3" cx="414.6" cy="292.8" rx="137.1" ry="25.2"/>
  </g>
  <g id="curtain">
    <path class="st0" d="M240 0l-4.4 273.7c0 6.6 5.4 12 12.1 12h9.1c1.3 0 2.6-.2 3.8-.6 10.9-1.7 10.1-6.3 17.5-8.7 6.3.3 9 6.1 12.2 11.2 1.4 3.5 4.3 6.3 8 7.3.3.1.6.2.9.2.3.1.6.1 1 .1h.1c.4 0 .8.1 1.2.1h3.5c6.6 0 12.1-5.4 12.1-12v-.7c2.3-2.9 5-5.4 9.2-6.3 7.2-1.5 11.2 2 15.2 5.1 2 2.4 5 3.9 8.2 4.2h6c6.6 0 12.1-5.4 12.1-12v-1.2c2.1-1.8 4.5-3.3 7.4-4.5 5.7-2.2 9.4.5 12.6 4 1.3 5.2 6.1 9.1 11.7 9.1h6.3c4.7 0 8.8-2.7 10.8-6.6 3-.8 6.7-1.3 11.6-1.1 3.8.1 6.1 1 7.5 2.2v3.1c0 3.8 1.8 7.1 4.5 9.3 1.2 1.6 3.4 2.7 7.6 2.7h9c6.6 0 12.1-5.4 12.1-12V274c2-1.7 4.3-3 7.5-3.4 2.7-.3 4.6-.1 6.2.4 1 5.7 5.9 10 11.9 10h17c6.6 0 12.1-5.4 12.1-12v-1.3c2.5-.6 5.6-.8 9.8-.6 8.3.5 13.4 1.7 17.1 3 2.1 3.6 6 6 10.4 6h9c6.9 0 9-2.9 10.4-5.9.6-1 1.1-2.1 1.3-3.3 1.2-2.6 2.8-4.6 7.9-3.8 1.9.3 3.1 1 4 2v8.6c0 6.6 5.4 12 12.1 12h8.7c6.6 0 12.1-5.4 12.1-12v-1.9c2.3-1.6 6.1-2.7 12.7-2.7 10.5 0 14.1 1.8 16.3 3.7.2.2.5.4.7.6 2.6 2.4 4 4.6 16.6 2.7 6.6 0 12.1-5.4 12.1-12v-19.2L240 0z"/>
    <path class="st1" d="M254.6 279.7c22.6.3 19.2-6.3 28.4-9.3 11.4.5 10.7 18.9 23.5 18.9 12.7 0 12.5-16.3 24.8-18.9s15.3 9.4 24.3 9.4 12.4-13 24.6-17.7 15.3 13.1 24.3 13.1 10.5-8.4 28.6-7.8 3 17.3 19.6 17.3 14.7-18.4 28.7-20 9.1 10.4 26 10.4 6.2-15.3 31-13.9c24.8 1.5 21 9.1 36.6 9.1s6.9-15 19.7-13c12.7 2-1.6 23.1 19.5 22.5 21.1-.5 4.6-16.5 30.1-16.5s10.3 10.6 33.7 7c18.6-2.9 4.6-194-1.8-270.3H252.7c-5.1 78.6-16.3 279.5 1.9 279.7z"/>
    <path class="st4" d="M610.7 279.9h8.8c6.6 0 12-5.4 12-12V-.1h-32.8v268c0 6.6 5.4 12 12 12zm-44.8-9.5h9.2c6.6 0 12-5.4 12-12V-.1h-33.2v258.5c0 6.6 5.4 12 12 12zm-66.5 4.7h17.1c6.6 0 12-5.4 12-12V-.1h-41.1v263.2c0 6.6 5.4 12 12 12zm-246.8 4.6h9.2c6.6 0 12-5.4 12-12V-.1h-33.2v267.8c0 6.6 5.4 12 12 12zm53.8 9.6h3.6c6.6 0 12-5.4 12-12V-.1h-27.6v277.4c0 6.6 5.4 12 12 12zm49.1-9.6h5.3c6.6 0 12-5.4 12-12V-.1h-29.3v267.8c0 6.6 5.4 12 12 12zM656.8-.1v258.5c0 6.6 5.4 12 12 12h9.2c6.6 0 12-5.4 12-12V-.1h-33.2zM404.4 275.1h6.4c6.6 0 12-5.4 12-12V-.1h-30.4v263.2c0 6.6 5.4 12 12 12zm48.2 9.6h9.2c6.6 0 12-5.4 12-12V-.1h-33.2v272.8c0 6.6 5.4 12 12 12z"/>
    <path class="st4" d="M414.6 105.8c-73 0-132.6 73.9-136.8 167.1v.3c1.3-1.1 2.9-2.1 5.2-2.9 11.4.5 10.7 18.9 23.5 18.9 12.7 0 12.5-16.3 24.8-18.9s15.3 9.4 24.3 9.4 12.4-13 24.6-17.7 15.3 13.1 24.3 13.1 10.5-8.4 28.6-7.8c18.1.7 3 17.3 19.6 17.3s14.7-18.4 28.7-20 9.1 10.4 26 10.4 6.2-15.3 31-13.9c5.3.3 9.2.9 12.4 1.6-7.9-88.2-65.9-156.9-136.2-156.9z"/>
    <path class="st5" d="M516.5 275.1c6.6 0 12-5.4 12-12v-78.5c-10.7-20.7-24.8-38.4-41.1-51.7v130.2c0 6.6 5.4 12 12 12h17.1zM440.7 109v163.7c0 6.6 5.4 12 12 12h9.2c6.6 0 12-5.4 12-12V123.2c-10.5-6.5-21.6-11.3-33.2-14.2zm-26.1-3.2c-7.5 0-14.9.8-22.2 2.3v155c0 6.6 5.4 12 12 12h6.4c6.6 0 12-5.4 12-12v-157c-2.7-.2-5.4-.3-8.2-.3zm-71.1 25.7v136.2c0 6.6 5.4 12 12 12h5.3c6.6 0 12-5.4 12-12V114.2c-10.3 4.3-20.2 10.1-29.3 17.3zM294.4 198v79.3c0 6.6 5.4 12 12 12h3.6c6.6 0 12-5.4 12-12V152.4c-11 13.1-20.4 28.5-27.6 45.6z"/>
  </g>
  <g id="performer">
    <path id="neck" class="st6" d="M385.7 107.8s-20.8 18.7-25.7 11.5-3.1-33.4-3.1-33.4l27.1 5.3 1.7 16.6z"/>
    <g id="head">
      <path class="st7" d="M398.2 54c1.6 1.5 2.9 3.9 3.9 6.8 3 9 8.8 15.6 5.2 23.4-3.6 7.8-11.1 7.9-21.7 8.9-9.3.8-19.2-3.6-23.6-4.3-1-.1-1.8 1.7-2.1 1.9-3.6 1.4-12.9-2.7-17.1-8.8-13.5-19.7-1.4-40.1 13.9-47.3 7-3.1 15.7-2 22.5 3.3 2.3 1.8 3.5 5.6 5.5 7.7 7.5 7.9 6.9 2.4 13.5 8.4z"/>
      <path class="st6" d="M367 64.8c-2.8 5.8-5.9 6.9-8 6s-1.3-8.6 1.2-12.4 12.1-3.6 12.4-1.8-2.8 2.4-5.6 8.2z"/>
      <path class="st0" d="M354.5 36.8c4.6-2 9.6-3.2 11-4.6.6-.6-1.3-4.3-4.4-4.7-.8-.1-1.6-.2-2.5-.2.1-.8 0-1.5-.2-2-1.1-2.8-6.9-9.6-8.6-7.9-.7.7.4 2 0 3.2-.6 1.5-2.6 2.9-2.6 2.9s1-4.5-1.2-5c-1.1-.3-2.5 3.4-4 3.7-5.2.8-11.9.9-13.5 8.9-2.7 13.3-2.2 12.4-1.7 16.6-.1.5-.2.9-.3 1.4-2.3 12.2.5 19.4 5.7 27.3 5.1 7.9 24.4 17.5 24.4 17.5l.2-2.9-4.1-12.3 1.6-3.3s-7.9-6.1-8.8-7.6c-.4-.7-1.3-3.4-1.7-7.1 3.1-6.9 4.9-17.5 6.9-19.4 1.4-1.5 2.7-3 3.8-4.5z"/>
      <path class="st0" d="M359.2 70.2s1.6-5.5 4.6-8.8 8.4-4.5 8.5-4.5c0 0-5 1.4-7.7 5.3-1.8 2.6-3.1 6.6-4.1 8.1-.6.7-1 .2-1.3-.1z"/>
      <path class="st6" d="M375.3 55.5s2.5-.8 5.2-3.1 5-1.6 5-3.1c0-4-3.2-6.3-6.2-5.4-3 .9-4.7 1.7-5.4 4.3-.7 2.5 1.4 7.3 1.4 7.3z"/>
      <path class="st0" d="M384.9 45.7s-4.1 1.2-6.7 3.5-3.5 6.5-3.4 6.6c0 0 1.1-3.9 4-6 2-1.4 5-2.4 6.1-3.1.5-.4.2-.7 0-1z"/>
      <path class="st7" d="M389.3 67c4.6-2.8 4.7-11.4.1-11-4.7.4-7.3-2-10.9-2.1-3.5-.1-8.8-2.5-8.8-2.5"/>
      <path class="st6" d="M389.3 67.5c-.2 0-.3-.1-.4-.2-.1-.2-.1-.5.2-.7 2.7-1.7 3.8-5.7 3-8.2-.3-.9-1-2-2.6-1.9-2.8.3-4.9-.5-6.8-1.1-1.4-.5-2.7-.9-4.1-1-3.6-.1-8.8-2.4-9-2.5-.3-.1-.4-.4-.2-.7.1-.3.4-.4.7-.2.1 0 5.2 2.4 8.6 2.4 1.6 0 3 .5 4.4 1 1.9.6 3.8 1.3 6.4 1.1 1.7-.2 3.1.8 3.7 2.6 1 2.9-.2 7.4-3.4 9.4-.3-.1-.4 0-.5 0z"/>
      <path class="st0" d="M351.5 66.9c1.9 0 .9-8.7 5.9-11.2s6.2-1.8 8.2-1.9c2.5-.1-1.4-2.8-2.6-2.8s-4.3-.6-7.8 3.7-5.6 12.2-3.7 12.2zm28.3-27.6c-.2.9-6.8-.6-8.9 3-2.2 3.6-1.7 4.6-1.8 6-.2 1.9-2.1-1.2-2.1-2.1s-.3-3.2 3.3-5.7 9.6-2.6 9.5-1.2z"/>
      <ellipse transform="rotate(-54.105 350.887 84.22)" class="st7" cx="350.9" cy="84.2" rx="5.6" ry="10.9"/>
      <path class="st7" d="M397.2 79.7s1.4.1 3.2-1.8c1.8-1.9 1.5-4.5 1.5-4.5"/>
      <path class="st6" d="M397.2 80.2c-.3 0-.5-.2-.5-.5s.2-.5.5-.5c0 0 1.2 0 2.8-1.7 1.6-1.7 1.4-4.1 1.4-4.1 0-.3.2-.5.4-.5.3 0 .5.2.5.4 0 .1.3 2.8-1.6 4.9-1.7 2-3.2 2-3.5 2zm-3.9-1.2s1.5-7.3 2-7.7c.3-.2.6-.4.9-.7.3-.2.8-1.1 1.6-1.1.6 0 4 1.1 3.5 1.4s-1.1.2-3 1.9c-3.1 3.4-3.8 7-5 6.2z"/>
      <path class="st7" d="M392.8 81.7c.8-.4 1.1-4.7-.6-8.9-1.2-2.8-3.3-5.5-6.7-6.9"/>
      <path class="st6" d="M392.8 82.2c-.2 0-.3-.1-.4-.3-.1-.2 0-.5.2-.7.5-.5.8-4.3-.8-8.2-.9-2.2-2.8-5.1-6.5-6.7-.3-.1-.4-.4-.3-.7.1-.3.4-.4.7-.3 4 1.7 6 4.8 7 7.2 1.7 4 1.7 8.8.4 9.5-.2.1-.2.2-.3.2z"/>
      <path class="st7" d="M357.8 46.1s1.3-1.2 3.6.6c2.3 1.9-2.3-1.8-1.8-3"/>
      <path class="st6" d="M362.1 47.7c-.2 0-.4-.2-.5-.2l-.5-.4c-1.9-1.6-2.9-.7-3-.7-.2.2-.5.2-.7 0s-.2-.5 0-.7c0 0 .8-.7 2.1-.5-.6-.9-.6-1.4-.4-1.7.1-.3.4-.4.6-.3.3.1.4.4.3.6-.1.2.2 1 2.2 2.9.4.4.2.7.1.8 0 .2-.1.2-.2.2z"/>
      <path class="st7" d="M350.8 82.6s-3.4-3.3-5.6 0"/>
      <path class="st6" d="M345.2 83.1c-.1 0-.2 0-.3-.1-.2-.2-.3-.5-.1-.7.6-1 1.5-1.6 2.5-1.7 2-.2 3.8 1.5 3.9 1.6.2.2.2.5 0 .7s-.5.2-.7 0c0 0-1.6-1.5-3.1-1.3-.7.1-1.2.5-1.7 1.2-.2.2-.4.3-.5.3z"/>
    </g>
    <path id="cartoonShadow" class="st0" d="M432.1 296.1c-6-9-40.9-14.1-65.8-9.5-27.3 5-47.3 1.6-47.3 12.2s57 12.2 57 12.2 10.1 2.2 21.7 1.1c6.4-.6 3.4-4.3 9.4-6 .9-.3 2-.5 3.1-.7l24.9 1.4 11.8-.6s6.3-1.5 6.5-4.9c0-1.6-10.2-3.6-21.3-5.2z"/>
    <path id="saxShadow" class="st0" d="M499.2 297.3c2.5 4.3-15.9 7.5-29.7 5-13.8-2.5-31.2.7-35.7-5.3-4.6-6 19.5-2.8 35.7-5.4s27.2 1.4 29.7 5.7z"/>
    <path id="frontShoe" class="st2" d="M360.3 287.5c-1.3-2.7-.8-8.4 3.2-11.9 1.4-1.1 4.6-1.1 5.6-.7 4.2 1.7 22.3 13.8 22.3 13.8l6.1 7.3s6.8 6.2 8.5 8.3 1.3 5.8-4.7 7.1c-5.2 1.1-11.5 1.2-15-.4-4.7-2.1-13.1-13.8-17.1-16.6-4-2.9-7.6-4.2-8.9-6.9z"/>
    <path id="backShoe" class="st2" d="M446.4 306.3c-9.3.3-14.6.4-22.6-1.2-11.3-2.2-23.6-8.2-23.1-11.1.5-2.8 3.6-12.4 7.6-12.2 3.9.2 11.5 5.1 18.1 6.2s14 7.7 22.2 8.3c8.2.7 7.2 9.6-2.2 10z"/>
    <path id="pants" class="st8" d="M387.9 238.2s-21.6 33.7-21.2 37.2 14.2 17 22.1 16.2 22.8-47 22.8-47l.9-36.1 7.9 25s-15.7 41.7-17.6 49c-2 7.3 27.9 13.7 29.2 8.7 1.3-5 14-56.9 14-56.9l-7.8-47-1.6-9.3-22.8-5.1-16.7-18s-15 21-14.6 35.4c.1 5.3 2.3 8.7 2.4 9.7.8 20.7 3 38.2 3 38.2z"/>
    <path id="backArm" class="st7" d="M392.5 121.6S427 99.8 428 97.8s1-11.2 3.5-15.9 6-8.4 10-7.8-3 12.1-3 12.1 14.1-.2 21 3.1c2.6 1.3-.2 4.1-2.1 7.2-3.3 5.2-7.9 11-7.9 11l-16.5 3-27.5 27.9-13-16.8z"/>
    <path id="shirt" class="st9" d="M379.8 194s14.9-.1 28.4-3.8 28.9-10.5 28.9-10.5l1.5-2.7s-4-18-9.1-26.8c-4.4-7.7-13.2-16.6-20.3-25.1-5.8-7-9.7-13.9-14.6-18.7-5.5-5.4-7.6-10.3-10-8.3s-3.2 4.4-17.4 3.9c-6.7-.2-10.1-1-12.4-.2-2.6.9-.3 3.5-.9 5.7s1.9 2 2.7 2.5c-3.5-2.2-3.5 1.5-4.3 9.9-.5 4.9 14.2 28.6 22.2 48.2 5.5 13.6 5.3 25.9 5.3 25.9z"/>
    <g id="sazophone">
      <path class="st10" d="M410.9 80.5s17.9 7.3 23.7.7c5.8-6.6 6.5-52.3 9.3-45.7 2.9 6.7-7 65-7 65s-2.8 11.4-3.8 21.7c-1.1 11.9-2.4 14.5-.9 29.9s1.6 31 26.3 31 31.3-29.7 31.3-29.7 6.4-21.3 10.4-21.5 6.9 2.2 10 0 7-3.5-1.7-13.5-34.7-30-39.3-26.3c-4.7 3.7 1.7 13 1.7 13s-13.2 9-14 39.3c-5.1 1.3-8.1-18.7-2.9-39s11.8-87.2-2.8-91.7c-14.6-4.5-16.7 8-16.7 18.3s-.9 34.6-6.3 39c-5.5 4.4-16.4.7-16.4.7l-.9 8.8z"/>
      <path class="st11" d="M473.4 98.2c2.1-3.5 14 7.3 21 12.3s15 15 12 15.7-15-6.7-20.3-10.7c-5.4-4-14.7-14-12.7-17.3z"/>
      <path class="st8" d="M402.4 77.4c-1.9-.6-5.3-3.4-3.5-4.6 1.8-1.1 12.4-2.4 12.4-2.4s5.1.7 5.9 2.5c.5 1.2-2.4 9.1-2.4 9.1s-4.3.1-6.3-1.3c-2-1.5-6.1-3.3-6.1-3.3z"/>
      <circle class="st11" cx="449.4" cy="49.8" r="4.1"/>
      <circle class="st11" cx="448.2" cy="62.2" r="4.1"/>
      <circle class="st11" cx="450.8" cy="84" r="3.7"/>
      <circle class="st11" cx="449.3" cy="94.7" r="4.7"/>
      <circle class="st11" cx="446.5" cy="106.8" r="5.1"/>
      <circle class="st11" cx="471.6" cy="132.2" r="10.7"/>
      <circle class="st11" cx="463.8" cy="153.3" r="9.1"/>
      <circle class="st11" cx="441.8" cy="128.8" r="6.8"/>
      <circle class="st11" cx="441.8" cy="146.6" r="6.8"/>
      <ellipse transform="rotate(-74.674 466.24 131.879)" class="st10" cx="466.2" cy="131.9" rx="3.8" ry="3.8"/>
      <path class="st10" d="M460.3 124.3s1.4 4.8 5 6 1.6 3.2-.7 2.4c-2.2-.8-4.6-3.9-6-5.3-1.4-1.3 0-4 1.7-3.1z"/>
      <path class="st11" d="M465.7 133.4c-.4 0-.8-.1-1.2-.2-1.8-.7-3.6-2.6-5.1-4.2-.4-.5-.8-.9-1.1-1.2-1-1-.9-2.4-.2-3.3.6-.9 1.6-1.1 2.5-.7l.2.1.1.2s1.4 4.6 4.6 5.7c1.7.6 2.2 1.3 2.3 1.8.1.5-.1.9-.5 1.2-.4.4-1 .6-1.6.6zm-6-8.8c-.4 0-.7.3-.8.5-.4.5-.5 1.4.1 2 .3.3.7.8 1.2 1.2 1.3 1.4 3.1 3.4 4.7 3.9.8.3 1.5.2 1.8-.1.2-.1.1-.2.1-.3 0-.3-.5-.7-1.6-1.1-3.3-1.2-4.9-5.1-5.2-6.1h-.3z"/>
      <ellipse transform="rotate(-61.177 461.441 152.715)" class="st10" cx="461.4" cy="152.7" rx="3.8" ry="3.8"/>
      <path class="st10" d="M457.6 144s.3 5 3.4 7 .8 3.5-1.2 2.2-3.6-4.9-4.6-6.5c-1.1-1.7.9-3.9 2.4-2.7z"/>
      <path class="st11" d="M461.3 154.2c-.6 0-1.2-.2-1.8-.6-1.6-1.1-2.9-3.4-3.9-5.3-.3-.5-.6-1-.8-1.4-.7-1.2-.3-2.6.5-3.3s1.8-.7 2.6-.1l.2.1v.2s.3 4.8 3.2 6.6c1.5 1 1.8 1.8 1.8 2.3s-.3.9-.7 1.1c-.4.3-.7.4-1.1.4zm-4.7-10c-.3 0-.6.2-.7.3-.5.4-.8 1.3-.4 2 .2.4.5.9.8 1.5.9 1.7 2.2 4 3.6 4.9.7.4 1.4.5 1.8.3.2-.1.2-.2.2-.2 0-.3-.3-.8-1.3-1.4-3-1.9-3.5-6.1-3.6-7.2-.1-.2-.2-.2-.4-.2z"/>
      <circle class="st10" cx="438.8" cy="146" r="3"/>
      <path class="st10" d="M432.2 141.5s2.2 3.3 5.4 3.5c3.2.2 2 2.1 0 2s-4.6-2-6.1-2.7c-1.4-.8-.9-3.1.7-2.8z"/>
      <path class="st11" d="M437.8 147.5h-.2c-1.6-.1-3.6-1.2-5.1-2.1-.4-.3-.8-.5-1.2-.7-1-.5-1.3-1.7-1-2.5.3-.9 1.1-1.3 2-1.2h.2l.1.2s2.1 3.1 5 3.3c1.3.1 2 .4 2.3 1 .2.3.1.7-.1 1.1-.3.6-1.1.9-2 .9zm-5.9-5.5c-.5 0-.6.4-.7.5-.1.4 0 1 .5 1.3.3.2.8.4 1.2.7 1.4.8 3.2 1.9 4.7 2 .8.1 1.3-.2 1.4-.4 0-.1-.2-.4-1.5-.5-2.9-.2-5-2.8-5.6-3.6z"/>
      <circle class="st10" cx="439.3" cy="129.3" r="3"/>
      <path class="st10" d="M433.5 124.7s2 3.4 4.8 3.6c2.8.2 1.8 2.1 0 2s-4.1-2-5.4-2.8-.9-3.1.6-2.8z"/>
      <path class="st11" d="M438.5 130.8h-.2c-1.5-.1-3.2-1.3-4.6-2.2-.4-.3-.7-.5-1-.7-1-.6-1.2-1.8-.9-2.7.3-.8 1-1.2 1.8-1h.2l.1.2s1.9 3.2 4.4 3.3c1.4.1 1.9.6 2.1 1s.1.8-.1 1.2c-.3.5-1 .9-1.8.9zm-5.3-5.7c-.3 0-.4.2-.5.4-.2.5-.1 1.1.4 1.4.3.2.7.4 1.1.7 1.2.8 2.9 1.9 4.1 2 .6 0 1-.2 1.2-.4.1-.1 0-.1 0-.2-.1-.1-.4-.4-1.3-.4-2.6 0-4.5-2.7-5-3.5z"/>
      <path class="st10" d="M440.7 81.3c2.2 1.2 4.9 1.8 6.2 1.9 1.4.1 5-1.9 5 .6s-3.5 1.2-5 1c-1.6-.3-5.3-1.6-7-2.2-1.6-.7-1.4-2.5.8-1.3z"/>
      <path class="st11" d="M450.2 85.8c-.8 0-1.7-.2-2.5-.4-.3-.1-.6-.1-.9-.2-1.6-.3-5.3-1.6-7.1-2.3-.8-.3-1.3-.9-1.4-1.5 0-.4.1-.7.4-.9.3-.2 1-.4 2.2.3 2 1.1 4.6 1.8 6 1.8.3 0 .9-.1 1.5-.3 1.2-.3 2.6-.7 3.5 0 .4.3.6.8.6 1.4 0 .7-.2 1.2-.7 1.6-.4.4-1 .5-1.6.5zm-10.7-4.4h-.1s.2.4.8.6c1.6.6 5.4 2 6.9 2.2.3 0 .6.1.9.2 1 .2 2.6.6 3.2.1.1-.1.3-.2.3-.8 0-.5-.2-.6-.2-.6-.4-.3-1.7 0-2.6.2-.7.2-1.3.3-1.8.3-1.5-.1-4.3-.8-6.4-1.9-.5-.3-.8-.3-1-.3z"/>
      <path class="st10" d="M439.3 92.3c2.1 1.2 4.7 1.8 6.1 1.9s4.9-1.9 4.9.6-3.4 1.2-4.9 1c-1.5-.3-5.2-1.6-6.8-2.2s-1.4-2.5.7-1.3z"/>
      <path class="st11" d="M448.6 96.9c-.8 0-1.6-.2-2.4-.4-.3-.1-.6-.1-.9-.2-1.6-.3-5.2-1.6-6.9-2.3-.8-.3-1.3-.9-1.4-1.5 0-.4.1-.7.4-.9.3-.2 1-.4 2.1.3 2 1.1 4.5 1.8 5.9 1.8.3 0 .9-.1 1.4-.3 1.2-.3 2.6-.7 3.4 0 .4.3.6.8.6 1.4 0 .7-.2 1.2-.7 1.6-.4.3-.9.5-1.5.5zm-10.5-4.5h-.1s.1.4.7.7c1.6.6 5.3 2 6.7 2.2.3 0 .6.1.9.2 1 .2 2.5.6 3.1.1.1-.1.3-.2.3-.8 0-.3-.1-.5-.2-.6-.4-.3-1.6 0-2.5.2-.7.2-1.3.3-1.7.3-1.5-.1-4.2-.8-6.3-1.9-.4-.3-.7-.4-.9-.4z"/>
      <path class="st10" d="M437.2 104.4c2 1.3 4.5 2 5.7 2.1 1.3.1 4.6-2.1 4.6.7s-3.2 1.4-4.6 1.1-4.9-1.8-6.4-2.5-1.3-2.7.7-1.4z"/>
      <path class="st11" d="M446 109.4c-.7 0-1.6-.2-2.3-.4-.3-.1-.6-.2-.8-.2-1.5-.3-4.9-1.8-6.5-2.5-.8-.3-1.3-1-1.3-1.7 0-.4.2-.8.5-1s1-.3 2 .4c1.9 1.2 4.2 1.9 5.5 2 .3 0 .8-.2 1.3-.3 1.1-.3 2.3-.7 3.1-.1.4.3.7.9.7 1.6 0 .8-.2 1.4-.7 1.8-.5.3-1 .4-1.5.4zm-9.9-4.9s-.1 0 0 0c-.1 0-.1.1 0 .2 0 .1.2.4.7.7 1.5.7 4.9 2.2 6.3 2.5.2 0 .5.1.9.2 1 .3 2.3.6 2.8.2.2-.2.3-.5.3-1 0-.3 0-.7-.2-.8-.4-.3-1.5 0-2.2.3-.6.2-1.2.4-1.7.4-1.4-.1-3.9-.8-6-2.2-.5-.5-.8-.5-.9-.5z"/>
      <path class="st12" d="M412.2 70.5c-.6-.1-.9-.2-.9-.2h-.3c-.8 1-1.5 2.3-1.9 4.2-.4 2.3-.4 4.6-.4 6.2.3.2.7.3 1 .5-.1-1.6-.1-4 .3-6.5.5-2 1.4-3.3 2.2-4.2zm2.8.8c-.3-.1-.7-.2-1-.3-.7.8-1.5 2.2-1.9 4.3-.2 1.2-.8 4.3-.8 6.4.3.1.7.1 1 .1 0-1.2.2-3.3.7-6.3.6-2.2 1.4-3.5 2-4.2z"/>
      <path class="st10" d="M442.7 60.6c1 .4 1.9.7 2.4.7.9.1 3.4-1.8 3.4.6s-2.4 1.2-3.4.9c-.5-.1-1.4-.5-2.4-.9s-.6-1.6 0-1.3z"/>
      <path class="st11" d="M447.4 63.8c-.6 0-1.2-.2-1.8-.4-.2-.1-.4-.1-.6-.2-.5-.1-1.3-.4-2.5-1-.8-.4-1.1-1.2-.8-1.8.2-.4.7-.6 1.1-.4 1 .5 1.8.6 2.3.7.2 0 .6-.1.9-.3.8-.3 1.7-.6 2.4-.2.4.3.6.8.6 1.5 0 .8-.2 1.3-.7 1.6-.1.4-.5.5-.9.5zm-4.7-2.7c0 .1.1.2.3.3 1.3.6 2 .8 2.3.9.2 0 .4.1.7.2.6.2 1.5.5 1.9.2.2-.2.3-.5.3-.8s-.1-.6-.2-.7c-.2-.2-1 .1-1.5.3s-.9.3-1.3.3c-.7 0-1.6-.3-2.5-.7zm0-.5l-.2.5.2-.5z"/>
      <path class="st10" d="M444.4 48.5c1 .4 1.9.7 2.4.7.9.1 3.4-1.8 3.4.6s-2.4 1.2-3.4.9c-.5-.1-1.4-.5-2.4-.9s-.6-1.6 0-1.3z"/>
      <path class="st11" d="M449.1 51.7c-.6 0-1.2-.2-1.8-.4-.2-.1-.4-.1-.6-.2-.5-.1-1.3-.4-2.5-1-.8-.4-1.1-1.2-.8-1.8.2-.4.7-.6 1.1-.4 1 .5 1.8.6 2.3.7.2 0 .6-.1.9-.3.8-.3 1.7-.6 2.4-.2.4.3.6.8.6 1.5 0 .8-.2 1.3-.7 1.6-.2.5-.5.5-.9.5zm-4.7-2.7c0 .1.1.2.3.3 1.3.6 2 .8 2.3.9.2 0 .4.1.7.2.6.2 1.5.5 1.9.2.2-.2.3-.5.3-.8s-.1-.6-.2-.7c-.2-.2-1 .1-1.5.3s-.9.3-1.3.3c-.7 0-1.6-.3-2.5-.7zm0-.5l-.2.5.2-.5z"/>
      <circle class="st12" cx="412.4" cy="77.1" r="1.5"/>
      <circle class="st12" cx="409.4" cy="76.1" r="1.5"/>
    </g>
    <g id="frontArm">
      <path class="st7" d="M358.4 114.2c6.8-3.4 17.1-1.6 22.9 10.5 2.8 5.9 11.1 31 11.1 31l34.5-25.8s1.7-2.3 1.5-4.9c-.2-3 1.7-6.5 2.5-7.5 1.4-1.8 4.4-.2 4.4-.2s-.9 8.1 1.1 8.6c2.8 1.1 7.8-.8 10.8-3.6 3-2.9 2.8-3.1 4.7-4.5 1.2-.5 2 4.8-.4 6.5-.5.4-2.3 1.8-2.3 1.8l-4.9 3.8s3.3-.4 6.9-1.8c2.9-1.1 3.5 4.4.2 5.2-3.4.9-5.4 2.4-5.4 2.4s2.8.4 5.8.8c.2 0 2 .1 2.5 1.3.7 1.5.1 4.1-1 4-.8 0-8.8 1.6-8.8 1.6s3.5 2.3 6 4.1 3.3 2.8 2 4.2c-1.3 1.3-14.1-5-14.1-5l-6.6-5s-35.1 35.7-44 35.7-18.7-12.3-22.6-20-10.3-41.4-6.8-43.2z"/>
      <path class="st13" d="M361.4 149.7c-3 .4-8.5-17-9.1-27.9s1.1-12.2 11.7-15.7c5.2-1.7 10.4 2.4 14.7 8.5 4.4 6.2 9.6 24.6 9.6 24.6s-24.4 10.2-26.9 10.5z"/>
    </g>
    <g id="backFingers">
      <ellipse class="st7" cx="452.5" cy="109.5" rx="4.9" ry="2.4"/>
      <path class="st7" d="M463.7 84.4c-.3 2.8-2.8 2.7-6.3 2.7s-6.3 0-6.3-2.7 2.8-2.7 6.3-2.7c.7 0 .5-3.6 1.1-3.6 2.6 0 5.4 4 5.2 6.3zm-.3 11.3c-.3 3.2-3.1 3-7 3s-7 0-7-3 3.1-3 7-3c.8 0 .5-4 1.2-4 2.9.1 6 4.5 5.8 7z"/>
      <path class="st7" d="M459.6 104.5c-.2 2.2-2.2 2.2-5 2.2-2.7 0-5 0-5-2.2s2.2-2.2 5-2.2c.5 0 .4-3.8.9-3.8 2 .1 4.3 4.2 4.1 6z"/>
    </g>
    <path id="shoetongue_1_" class="st2" d="M397.2 292.5c.9 2 4.2 6.1 3.9 8-.3 2.3-4.5 2.2-6.4 3-3.4 1.5-7.8-.9-9.9-5.4-2-4.5-1-9.5 2.4-11 3.6-1.6 8 .9 10 5.4z"/>
    <path id="shoetongue" class="st2" d="M438.2 290.9c.8 1.4 3.4 4.1 3.4 5.4-.1 1.7-3.1 1.9-4.4 2.6-2.3 1.3-5.7-.1-7.4-3.2-1.8-3.1-1.4-6.7 1-8 2.3-1.3 5.6.1 7.4 3.2z"/>
    <g id="notes">
      <ellipse transform="rotate(-28.334 559.727 100.407)" class="st8" cx="559.7" cy="100.4" rx="6.3" ry="4"/>
      <path class="st8" d="M562.6 96.3s-5.2-26.9-5.2-28.8c0-1 3.4-4.9 6.8-7.6 3.5-2.7 7-4.1 7.7-3.9 2.3.7 2.7 4.3 2.7 4.3l3.6 25.1-2.4 1.3-3.3-24.8s-2.5-.7-7.2 2.6c-4.7 3.4-5.3 5.3-5.3 5.3l5.2 27.8-2.6-1.3z"/>
      <ellipse transform="rotate(-28.334 572.315 87.608)" class="st8" cx="572.3" cy="87.6" rx="6.3" ry="4"/>
      <path class="st8" d="M621.6 37c-.1-.1-1.7-13.3-1.7-13.3s-.3-3.7-2.6-4.4c-.6-.2-4.2 1.1-7.7 3.7s-7 6.5-7 7.4c-.1 1.6 3.7 18.2 5 24-1.5-.3-3.4-.1-5.2.9-3.1 1.6-4.8 4.5-3.8 6.4 1 2 4.3 2.3 7.5.7 2.6-1.3 4.2-3.5 4.1-5.3l-5-24.1s.7-2 5.5-5.2 7.3-2.5 7.3-2.5l1.1 10.1c-.7-.1-1.5-.1-2.4.1-.8.2-1.6.4-2.3.8-3.1 1.6-4.8 4.5-3.8 6.4s4.3 2.3 7.5.7c2.8-1.6 4.1-2.6 3.5-6.4z"/>
      <path class="st8" d="M477.4 107.1c1.2-3.2 4.8-12.1 9.3-20.1 7.4-13.5 15.3-21.8 23.5-24.9 10-3.8 20.4 1.1 30.5 5.8 9.3 4.3 18.1 8.4 24.8 4.3 4.6-2.8 8.3-8.7 12.7-15.4 8.8-13.7 19.9-30.8 44.4-33.2l.1 1c-24.1 2.3-35 19.2-43.7 32.7-4.4 6.8-8.2 12.8-13 15.7-7.1 4.5-16.2.2-25.7-4.2-9.9-4.6-20.1-9.4-29.7-5.8-16.8 6.3-29.5 38.2-32.1 45.2l-1.1-1.1z"/>
      <ellipse transform="rotate(-20.991 532.932 78.619)" class="st8" cx="532.9" cy="78.6" rx="6.3" ry="4"/>
      <path class="st8" d="M536.3 75.3s-2.8-20.5-2.6-21.9c.1-.7 4.9-5.1 7.4-.7s2.5 12.9.7 10.6c-.9-1.1-.2-5.9-1.4-7.5-1.3-1.8-4.4-.3-4.4-.3l2.7 21.1-2.4-1.3z"/>
      <path class="st8" d="M480.9 111c1.2-2.5 5.1-10.5 9.8-18.2 5.3-8.6 13.9-19.6 24.1-22.9s20.4 2 30.2 7.2c9.1 4.8 17.7 9.3 24.6 5.4 4.7-2.6 8.7-8.3 13.4-14.8 9.5-13.3 21.2-29.8 45.9-31.1l.1 1c-24.2 1.2-35.8 17.6-45.1 30.7-4.7 6.6-8.8 12.4-13.7 15.1-7.3 4.1-16.2-.5-25.5-5.4-9.7-5.1-19.7-10.3-29.4-7.1-17.1 5.6-30.5 34.9-33.2 41.1l-1.2-1z"/>
      <path class="st8" d="M486.1 115.6c2.9-6.4 15-31.1 32.1-36.3 10.2-3.1 20.3 2.4 30.1 7.7 9 4.9 17.5 9.6 24.5 5.8 4.7-2.5 8.8-8.1 13.6-14.6 9.7-13.1 21.8-29.4 46.5-30.3v1c-24.2.8-36.1 16.9-45.7 29.9-4.8 6.5-9 12.2-14 14.9-7.4 4-16.2-.8-25.4-5.8-9.6-5.2-19.5-10.6-29.3-7.6-16.9 5.1-31.6 36-31.6 36l-.8-.7z"/>
      <path class="st8" d="M495.2 121.5c5.2-8.8 16.9-25.5 31.7-28.7 10.4-2.3 20.1 4 29.3 10.2 8.6 5.6 16.7 11 23.9 7.8 4.9-2.2 9.5-7.4 14.8-13.4C605.7 85.1 619 69.8 643.7 71v1c-24.2-1.2-37.4 13.9-48 26-5.4 6.1-10 11.4-15.1 13.7-7.7 3.4-16-2.1-24.9-7.9-9.1-6-18.6-12.2-28.6-10-14.4 3.1-25.9 19.6-31.1 28.3l-.8-.6z"/>
      <path class="st8" d="M491.2 119.1c1.6-3.3 15.5-29.7 34.5-33.8 9.9-2.2 18.2 3.5 26.3 8.9 8.5 5.7 16.4 11.1 24.9 6.1 5.2-3.1 9.9-8.5 15-14.2 11.4-13 24.3-27.8 49.6-26.6v1c-24.8-1.2-37.6 13.4-48.8 26.2-5.1 5.8-9.9 11.3-15.2 14.4-9 5.4-17.2-.2-26-6.1-7.9-5.3-16.1-10.9-25.5-8.8-18.8 4.1-32.6 30.7-33.9 33.4l-.9-.5z"/>
      <ellipse transform="rotate(-26.709 588.04 61.964)" class="st8" cx="588.1" cy="62" rx="6.3" ry="4"/>
      <path class="st8" d="M591.1 58.4s-4.9-20.1-4.8-21.5c0-.7 4.4-5.5 7.3-1.4 3 4.1 3.8 12.6 1.7 10.5-1-1-.8-5.8-2.1-7.3-1.5-1.7-4.4.1-4.4.1l4.8 20.8-2.5-1.2zm-87.9 24.7c.7-.2 1.4-.5 2.1-.7s1.4-.4 2.1-.5 1.4-.2 2.1-.2 1.4.1 2 .3c.7.2 1.3.5 1.9 1 .6.4 1.2 1 1.7 1.8.8 1.1 1.4 2.3 1.7 3.5s.4 2.5.2 3.8-.6 2.5-1.3 3.8c-.7 1.2-1.7 2.4-3 3.5l1.4 2.3c.2.3.3.7.2 1.2s-.3.8-.7 1.1l-2 1.4-2.3-3.9c-1.5.8-3.1 1.3-4.7 1.6-1.6.3-3.1.4-4.5.2l-.1-3.6c0-.3.1-.6.2-.9s.3-.6.6-.8c.3-.2.6-.3 1-.4s.8-.1 1.3-.2c.5 0 1-.1 1.6-.2s1.2-.2 1.8-.5l-4.1-7.1c-1 .4-2 .7-3.1 1s-2.1.4-3.2.4c-1.1-.1-2.1-.3-3.1-.9-1-.5-2-1.4-2.9-2.7-.7-.9-1.1-2-1.4-3.1s-.3-2.3-.1-3.5c.2-1.2.7-2.4 1.4-3.6.7-1.2 1.7-2.3 3-3.4l-1.2-2.1c-.2-.3-.3-.7-.2-1.2.1-.5.3-.8.7-1.1l2-1.4 2.2 3.7c1.4-.7 2.8-1.1 4.1-1.2 1.3-.1 2.5-.1 3.5 0l.1 2.9c0 .4 0 .8-.1 1.1-.1.3-.3.5-.6.7-.2.1-.4.2-.7.3-.3.1-.6.2-1 .2l-1.2.3c-.4.1-.8.2-1.3.4l3.9 6.7zm-7.3-4.4c-.5.5-.8.9-1.1 1.4-.2.4-.4.8-.5 1.2-.1.4-.1.8 0 1.1s.3.7.5 1c.5.7 1.1 1.1 1.9 1.2s1.6 0 2.5-.2l-3.3-5.7zm14 15.8c1.7-1.7 1.9-3.5.6-5.3-.5-.7-1.1-1.1-1.8-1.1-.7-.1-1.5 0-2.4.2l3.6 6.2zm102.3 10.7c.3.1.5.2.8.3.3.1.5.2.8.4.2.1.5.3.7.5s.4.4.5.6.2.5.3.8.1.6.1 1c0 .5-.2 1-.4 1.5s-.5.9-.9 1.2c-.4.3-.8.6-1.4.8-.5.2-1.1.3-1.8.3l-.2 1c0 .2-.1.3-.2.4-.1.1-.3.2-.5.2l-1-.1.3-1.7c-.6-.2-1.3-.4-1.8-.7-.6-.3-1-.7-1.4-1.1l.9-1.1c.1-.1.2-.2.3-.2.1-.1.2-.1.4-.1.1 0 .3.1.4.1.1.1.3.2.4.3.2.1.3.2.5.4.2.1.4.2.7.3l.6-3.2c-.4-.1-.8-.3-1.2-.5s-.7-.4-1-.7c-.3-.3-.5-.6-.7-1.1-.2-.4-.2-.9-.2-1.5 0-.4.2-.9.4-1.3s.5-.8.9-1.1c.4-.3.8-.6 1.4-.7.5-.2 1.1-.3 1.8-.2l.2-.9c0-.2.1-.3.2-.4.1-.1.3-.2.5-.2l1 .1-.3 1.7c.6.2 1.1.4 1.5.7.4.3.8.6 1.1.9l-.7.9-.3.3c-.1.1-.2.1-.4.1-.1 0-.2 0-.3-.1s-.2-.1-.4-.2c-.1-.1-.3-.1-.4-.2-.1-.1-.3-.2-.5-.2l-.7 2.7zm-1-3.2c-.3 0-.5.1-.7.1-.2.1-.3.1-.5.2l-.3.3c-.1.1-.1.3-.1.4 0 .3.1.6.3.8.2.2.5.4.8.6l.5-2.4zm.1 8.4c1-.1 1.5-.5 1.5-1.4 0-.3-.1-.6-.2-.8-.2-.2-.5-.4-.8-.6l-.5 2.8zM523 50.1c.3 0 .6 0 .9-.1h.9c.3 0 .6.1.8.1.3.1.5.2.7.3s.4.3.6.5c.2.2.4.5.5.8.2.5.3 1 .3 1.5s-.1 1-.3 1.5-.5.9-.9 1.3-.9.8-1.5 1.1l.3 1v.5c-.1.2-.2.3-.4.4l-.9.4-.5-1.7c-.6.1-1.3.2-2 .2s-1.2-.1-1.8-.3l.3-1.4c0-.1.1-.2.2-.3.1-.1.2-.2.3-.2.1-.1.3-.1.4-.1.2 0 .3 0 .5.1.2 0 .4.1.6.1h.7l-.9-3.1c-.4 0-.9.1-1.3.1s-.9 0-1.3-.2c-.4-.1-.8-.3-1.1-.6s-.6-.7-.9-1.3c-.2-.4-.2-.9-.2-1.3 0-.5.1-.9.3-1.4.2-.4.5-.9.9-1.3s.9-.7 1.5-1l-.3-.9v-.5c.1-.2.2-.3.4-.4l.9-.4.5 1.6c.6-.1 1.2-.2 1.7-.1s1 .2 1.4.3l-.2 1.1c0 .2-.1.3-.2.4-.1.1-.2.2-.3.2s-.2.1-.3.1h-1.4l1.1 3zm-2.4-2.4c-.2.1-.4.3-.5.4-.1.1-.2.3-.3.4-.1.1-.1.3-.1.4 0 .1 0 .3.1.4.1.3.3.5.6.6s.6.2 1 .2l-.8-2.4zm3.9 7.4c.8-.5 1.1-1.1.7-2-.1-.3-.3-.5-.6-.6s-.6-.1-.9-.1l.8 2.7zm113.2-39c.3.1.5.2.8.3.3.1.5.2.8.4.2.1.5.3.7.5s.4.4.5.6.2.5.3.8.1.6.1 1c0 .5-.2 1-.4 1.5s-.5.9-.9 1.2-.8.6-1.4.8c-.5.2-1.1.3-1.8.3l-.2 1c0 .2-.1.3-.2.4-.1.1-.3.2-.5.2l-1-.1.3-1.7c-.6-.2-1.3-.4-1.8-.7-.6-.3-1-.7-1.4-1.1l.9-1.1c.1-.1.2-.2.3-.2.1-.1.2-.1.4-.1.1 0 .3.1.4.1.1.1.3.2.4.3.2.1.3.2.5.4.2.1.4.2.7.3l.6-3.2c-.4-.1-.8-.3-1.2-.5s-.7-.4-1-.7c-.3-.3-.5-.6-.7-1.1-.2-.4-.2-.9-.2-1.5 0-.4.2-.9.4-1.3s.5-.8.9-1.1.8-.6 1.4-.7c.5-.2 1.1-.3 1.8-.2l.2-.9c0-.2.1-.3.2-.4.1-.1.3-.2.5-.2l1 .1-.3 1.7c.6.2 1.1.4 1.5.7s.8.6 1.1.9l-.7.9-.3.3c-.1.1-.2.1-.4.1-.1 0-.2 0-.3-.1s-.2-.1-.4-.2-.3-.1-.4-.2c-.1-.1-.3-.2-.5-.2l-.7 2.7zm-1-3.2c-.3 0-.5.1-.7.1-.2.1-.3.1-.5.2l-.3.3c-.1.1-.1.3-.1.4 0 .3.1.6.3.8s.5.4.8.6l.5-2.4zm.1 8.3c1-.1 1.5-.5 1.5-1.4 0-.3-.1-.6-.2-.8-.2-.2-.5-.4-.8-.6l-.5 2.8zm-71.1 6.9c.3.1.5.2.8.3.3.1.5.2.8.4.2.1.5.3.7.5s.4.4.5.6.2.5.3.8.1.6.1 1c0 .5-.2 1-.4 1.5s-.5.9-.9 1.2-.8.6-1.4.8c-.5.2-1.1.3-1.8.3l-.2 1c0 .2-.1.3-.2.4-.1.1-.3.2-.5.2l-1-.1.3-1.7c-.6-.2-1.3-.4-1.8-.7-.6-.3-1-.7-1.4-1.1l.9-1.1c.1-.1.2-.2.3-.2.1-.1.2-.1.4-.1.1 0 .3.1.4.1.1.1.3.2.4.3.2.1.3.2.5.4.2.1.4.2.7.3l.6-3.2c-.4-.1-.8-.3-1.2-.5s-.7-.4-1-.7c-.3-.3-.5-.6-.7-1.1-.2-.4-.2-.9-.2-1.5 0-.4.2-.9.4-1.3s.5-.8.9-1.1c.4-.3.8-.6 1.4-.7.5-.2 1.1-.3 1.8-.2l.2-.9c0-.2.1-.3.2-.4.1-.1.3-.2.5-.2l1 .1-.3 1.7c.6.2 1.1.4 1.5.7.4.3.8.6 1.1.9l-.7.9-.3.3c-.1.1-.2.1-.4.1-.1 0-.2 0-.3-.1s-.2-.1-.4-.2c-.1-.1-.3-.1-.4-.2-.1-.1-.3-.2-.5-.2l-.7 2.7zm-1.1-3.2c-.3 0-.5.1-.7.1-.2.1-.3.1-.5.2l-.3.3c-.1.1-.1.3-.1.4 0 .3.1.6.3.8.2.2.5.4.8.6l.5-2.4zm.1 8.4c1-.1 1.5-.5 1.5-1.4 0-.3-.1-.6-.2-.8-.2-.2-.5-.4-.8-.6l-.5 2.8zm-55.3 29l1.4-.5L522 94.4l-1.4.5-11.2-32.6zm-6.1 48.5l-18.8-19.4.7-1.4 19 19.5-.9 1.3z"/>
    </g>
  </g>
  <g id="props">
    <path class="st0" d="M548.9 295.7c-1.6-6.7 17.3-8.7 30.5-3.2 13.1 5.5 26.1 6.5 25.6 10s-27.8-.4-27.8-.4-26.7.3-28.3-6.4zm102.2 17.1s-8.7 1.5-31.7 1.2-31.7-2.1-31.7-2.1c-.9 0-1.7-.8-1.7-1.7l.1-5.5c0-.9.8-1.7 1.7-1.7l63.4.9c.9 0 1.7.8 1.7 1.7l-.1 5.5c0 1-.8 1.7-1.7 1.7z"/>
    <path class="st12" d="M651.1 309.8s-8.7 1.5-31.7 1.2-31.7-2.1-31.7-2.1c-.9 0-1.7-.8-1.7-1.7l.1-5.5c0-.9.8-1.7 1.7-1.7l63.4.9c.9 0 1.7.8 1.7 1.7l-.1 5.5c0 1-.7 1.7-1.7 1.7z"/>
    <path class="st14" d="M652.9 302.5c-.1 4.9-66.9 4-66.8-.9s15.1-8.7 33.5-8.4c18.5.2 33.4 4.4 33.3 9.3z"/>
    <path class="st12" d="M619.7 299.5c-1.7 0-3-1.4-3-3.1l1.8-133c0-1.7 1.4-3 3.1-3 1.7 0 3 1.4 3 3.1l-1.8 133c0 1.6-1.4 3-3.1 3z"/>
    <path class="st12" d="M633.7 174.4c-.8 1.5-2.6 2.1-4.1 1.3L560.4 140c-1.5-.8-2.1-2.6-1.3-4.1s2.6-2.1 4.1-1.3l69.2 35.7c1.5.7 2.1 2.6 1.3 4.1z"/>
    <path class="st14" d="M569.2 149l-3.2 2.2c-3 2-7.1 1.2-9.2-1.8l-2.6-3.9c-2-3-1.2-7.1 1.8-9.2l3.2-2.2c3-2 7.1-1.2 9.2 1.8l2.6 3.9c2 3 1.2 7.2-1.8 9.2z"/>
    <path class="st12" d="M549.9 126.2c1.7-1.3 4.2-.9 5.4.8l19.6 26.7c1.3 1.7.9 4.2-.8 5.4-1.7 1.3-4.2.9-5.4-.8L549 131.6c-1.2-1.7-.8-4.2.9-5.4z"/>
    <path class="st14" d="M556.9 119.5c4 5.5 3.8 12.4-.5 15.6s-11 1.2-15-4.2c-4-5.5-8-13-.5-17.6s12 .8 16 6.2z"/>
    <path class="st12" d="M556.2 118.6l.9 1.5c-6 3.6-9.2 6-14.9 11.3 0 0-1-.9-1.4-1.4l-.9-1.5c4.8-5.2 10.3-9.2 15-11.2 0-.1.9.8 1.3 1.3z"/>
    <path class="st9" d="M636.6 312.8v-34.1c0-5.5 9.6-5.6 19.1-5.6 9.6 0 19.1.1 19.1 5.6v34.1c0 5.5-9.6 8.3-19.1 8.3-9.5-.1-19.1-2.8-19.1-8.3z"/>
    <ellipse class="st13" cx="655.9" cy="277.4" rx="16.4" ry="3.5"/>
    <circle class="st15" cx="656.8" cy="301.2" r="14.1"/>
    <path class="st16" d="M658.4 299.2c.4.1.7.2 1.1.3.4.1.7.3 1 .4l.9.6c.3.2.5.5.8.7.2.3.4.6.5 1s.2.8.2 1.3c0 .7-.1 1.4-.4 2-.2.6-.6 1.2-1.1 1.7s-1 .9-1.7 1.2c-.7.3-1.5.5-2.3.6l-.1 1.4c0 .2-.1.4-.3.6s-.4.3-.7.3H655l.2-2.3c-.9-.1-1.7-.4-2.5-.8s-1.5-.8-2-1.3l1.1-1.6c.1-.1.2-.2.4-.3.2-.1.3-.1.5-.1s.4 0 .6.1l.6.3c.2.1.5.3.7.4.3.1.6.3.9.3l.4-4.3c-.5-.2-1.1-.3-1.6-.5s-1-.5-1.5-.8c-.4-.3-.8-.8-1-1.3-.3-.5-.4-1.2-.4-2 0-.6.1-1.2.4-1.7.2-.6.6-1.1 1.1-1.5.5-.5 1-.8 1.7-1.1.7-.3 1.5-.5 2.3-.5l.1-1.3c0-.2.1-.4.3-.6s.4-.3.7-.3h1.3l-.2 2.2c.8.2 1.5.4 2.1.7.6.3 1.1.7 1.5 1.1l-.9 1.3c-.1.2-.3.3-.4.4-.1.1-.3.1-.5.1-.1 0-.2 0-.4-.1s-.3-.1-.5-.2-.4-.2-.6-.2c-.2-.1-.4-.2-.7-.2l-.3 4zm-1.7-4.1c-.3.1-.6.1-.9.2-.2.1-.4.2-.6.4-.1.1-.3.3-.3.5-.1.2-.1.4-.1.6 0 .4.1.8.4 1.1.3.3.7.5 1.1.7l.4-3.5zm1 11c1.2-.2 1.9-.9 1.9-2 0-.4-.1-.8-.4-1-.3-.3-.6-.5-1.1-.6l-.4 3.6zm-9.4-25.5s-3.4-13.1-1.5-15.1 12.9-.5 12.9-.5-1.5 15.6 0 15.8c-7.9.3-11.4-.2-11.4-.2z"/>
  </g>
</svg>
