<?xml version="1.0" encoding="utf-8"?>
<!-- Generator: Adobe Illustrator 19.2.1, SVG Export Plug-In . SVG Version: 6.00 Build 0)  -->
<svg version="1.1" xmlns="http://www.w3.org/2000/svg" xmlns:xlink="http://www.w3.org/1999/xlink" x="0px" y="0px"
	 viewBox="0 0 960 300" style="enable-background:new 0 0 960 300;" xml:space="preserve">
<style type="text/css">
	.legalTips-st0{fill:#F69721;}
	.legalTips-st1{fill:#0CB4DE;}
	.legalTips-st2{fill:#1396CC;}
	.legalTips-st3{fill:#929497;}
	.legalTips-st4{fill:#623A17;}
	.legalTips-st5{fill:#F1F1F2;}
	.legalTips-st6{fill:#D0D2D3;}
	.legalTips-st7{fill:#FFFFFF;}
	.legalTips-st8{fill:#0EB5E0;}
	.legalTips-st9{fill:#808184;}
	.legalTips-st10{fill:#FFDA00;}
	.legalTips-st11{fill:#FFF100;}
	.legalTips-st12{fill:#A6A8AB;}
	.legalTips-st13{fill:#BBBDBF;}
	.legalTips-st14{fill:#29AB3A;}
	.legalTips-st15{fill:#008C3B;}
	.legalTips-st16{fill:#B4DD73;}
	.legalTips-st17{fill:#F7981F;}
	.legalTips-st18{fill:#F16922;}
	.legalTips-st19{fill:#F06924;}
	.legalTips-st20{fill:#FBED1F;}
	.legalTips-st21{fill:#FDD900;}
</style>
<g id="background">
	<rect x="-0.2" y="-0.1" class="legalTips-st0" width="960" height="300"/>
	<circle id="circle" class="legalTips-st1" cx="480" cy="150" r="133.3"/>
</g>
<g id="clipboardGroup">
	<path id="shadow" class="legalTips-st2" d="M468.1,36.6l-6,9.6l-28,1.3L427.3,58l-37.2,2.4l-42.4,73.4c-0.6,5.3-1,10.7-1,16.2
		c0,63.3,44.1,116.2,103.2,129.9c0,0,29-198.5,30.9-224.6S468.1,36.6,468.1,36.6z"/>
	<path id="backclip" class="legalTips-st3" d="M511.1,40l-30.9,2.7c0-0.3,0-0.7,0-1c-0.4-4-3.9-7-7.9-6.7s-7,3.9-6.7,8c0,0.3,0.1,0.7,0.2,1
		l-30.6,2.7c-0.7,0.1-2.2,1-2,4c0.2,3,0.3,8.8,0.3,8.8s2.6,3.2,4.5,3l72.7-6.4c1.9-0.2,4.6-3.8,4.6-3.8s-0.9-5.7-1.2-8.4
		C513.6,41.2,512.4,40,511.1,40z M471.4,38.3c2.2-0.2,4.2,1.5,4.4,3.8c0,0.4,0,0.7,0,1c-0.1,0.7-0.4,1.3-0.8,1.8c0,0,0,0,0,0
		c-0.1,0.2-0.3,0.3-0.4,0.5c0,0,0,0,0,0c-0.2,0.1-0.3,0.3-0.5,0.4c0,0,0,0,0,0c-0.2,0.1-0.3,0.2-0.5,0.3c0,0-0.1,0-0.1,0
		c-0.2,0.1-0.4,0.1-0.6,0.2c0,0-0.1,0-0.1,0c-0.2,0.1-0.4,0.1-0.6,0.1c-0.2,0-0.4,0-0.6,0c0,0-0.1,0-0.1,0c-0.2,0-0.4-0.1-0.6-0.1
		c0,0-0.1,0-0.1,0c-0.2-0.1-0.4-0.1-0.6-0.2c0,0,0,0,0,0c-0.2-0.1-0.4-0.2-0.6-0.3c0,0,0,0,0,0c-0.2-0.1-0.3-0.3-0.5-0.4
		c0,0,0,0,0,0c-0.5-0.5-0.8-1-1.1-1.7c-0.1-0.3-0.2-0.7-0.2-1C467.5,40.5,469.2,38.5,471.4,38.3z"/>
	<path id="clipboard" class="legalTips-st4" d="M577.6,240.8L561.1,52.4c-0.6-6.6-6.4-11.5-13-10.9l-148.5,13c-6.6,0.6-11.5,6.4-10.9,13
		l16.9,193.2c21.2,14.3,46.8,22.6,74.4,22.6C518.5,283.3,553.3,266.9,577.6,240.8z"/>
	<path id="bottomPaper" class="legalTips-st5" d="M572.6,245.9L555.5,50.4L537,52L392.8,64.6l17.4,199c20.3,12.5,44.2,19.7,69.8,19.7
		C516,283.3,548.6,269.1,572.6,245.9z"/>
	<g id="CheckList">
		<g id="paper">
			<path class="legalTips-st6" d="M572.4,246.1L559,81.6L524.7,53L395.4,64.3l18.3,201.4c19.5,11.2,42.2,17.6,66.3,17.6
				C515.9,283.3,548.5,269.1,572.4,246.1z"/>
			<path class="legalTips-st5" d="M573.5,245L560,79.6L525.7,51L396.4,62.3L415,266.4c19.2,10.8,41.4,16.9,65,16.9
				C516.4,283.3,549.4,268.7,573.5,245z"/>
			<polygon class="legalTips-st6" points="558.9,82.1 526.1,85 523.6,55.8 525.7,51 560,79.6 			"/>
			<polygon class="legalTips-st7" points="559.8,79.6 528.4,82.4 525.7,51 			"/>
		</g>
		<g id="lightbulb">
			<g>

					<ellipse transform="matrix(0.9972 -7.485279e-02 7.485279e-02 0.9972 -18.175 36.3316)" class="legalTips-st8" cx="475.6" cy="260.6" rx="16.6" ry="16.6"/>
				<path class="legalTips-st2" d="M469.6,254.6l-8,15.1c3.2,5,8.9,8.1,15.2,7.6c0.2,0,0.3,0,0.5,0l2.1-4.2l-0.7-6.3l3-6.2L469.6,254.6z"/>
				<g>
					<path class="legalTips-st9" d="M477.7,274.3l-2,0.2c-0.5,0-1-0.4-1-0.9v0c0-0.5,0.4-1,0.9-1l2-0.2c0.5,0,1,0.4,1,0.9v0
						C478.7,273.8,478.3,274.3,477.7,274.3z"/>
					<path class="legalTips-st10" d="M475,251.5c-4.7,0.4-6.7,3.7-6.5,7.1c0.1,1.2,1.5,3.9,3.5,5.7c0.9,0.8,1.8,2.1,1.9,3.3s1.2,2.5,2.4,2.4
						c1.3-0.1,2.1-1.5,2-2.7c-0.1-1.3,0.6-2.6,1.4-3.6c1.7-2.1,2.7-5,2.6-6.2C482.2,254.2,479.7,251.2,475,251.5z"/>
					<path class="legalTips-st11" d="M476.9,267.8c0,0-0.4-3.7-0.7-5.2c0-0.1,0-0.2,0-0.4c-0.2,0.1-0.4,0.1-0.6,0.1c-0.1,0-0.3,0-0.5-0.1
						c0.3,2.3,0,5.3,0,5.5l-0.5,0c0,0,0.3-3.4-0.1-5.6c-0.7-0.4-1.4-1.1-1.8-1.7c-0.2-0.4-0.5-0.9-0.3-1.3c0.2-0.4,0.4-0.5,0.6-0.5
						c0.5,0,1,0.6,1.6,2.1c0.1,0.3,0.2,0.7,0.3,1.1c0.2,0.1,0.4,0.1,0.5,0.1c0.2,0,0.4-0.1,0.6-0.2c0.1-1.2,0.5-2.6,1.1-3
						c0.3-0.2,0.6-0.2,0.9-0.1c0.2,0.1,0.5,0.4,0.4,1c-0.2,0.8-1.1,1.8-2,2.4c0,0.2,0,0.4,0,0.5c0.3,1.5,0.7,5.2,0.7,5.2
						L476.9,267.8z M477.8,259c-0.1,0-0.1,0-0.2,0.1c-0.4,0.3-0.8,1.4-0.9,2.4c0.7-0.5,1.4-1.3,1.5-1.9c0.1-0.4-0.1-0.5-0.1-0.5
						C477.9,259,477.9,259,477.8,259z M473.1,259.1c-0.1,0-0.1,0.1-0.2,0.2c-0.1,0.1,0,0.4,0.3,0.9c0.3,0.5,0.8,1,1.3,1.3
						c-0.1-0.2-0.1-0.4-0.2-0.6C473.5,259.1,473.1,259.1,473.1,259.1C473.1,259.1,473.1,259.1,473.1,259.1z"/>
					<path class="legalTips-st3" d="M477.7,273.5l-2.2,0.2c-1,0.1-2-0.7-2-1.7l-0.2-2.7c-0.1-1,0.7-2,1.7-2l2.2-0.2c1-0.1,2,0.7,2,1.7l0.2,2.7
						C479.6,272.5,478.8,273.4,477.7,273.5z"/>
					<path class="legalTips-st12" d="M477.2,268.8c-0.3,0.1-0.8,0.2-2,0.2s-1.7-0.3-2-0.4c-0.2-0.1-0.4-0.2-0.3-0.3l0,0c0-0.2,0.2-0.4,0.4-0.3
						s1.1,0.3,2,0.4c0.9,0,1.8-0.1,2-0.2c0.2-0.1,0.4,0.2,0.3,0.3l0,0C477.6,268.7,477.5,268.8,477.2,268.8z"/>
					<path class="legalTips-st12" d="M477.3,270.5c-0.3,0.1-0.8,0.2-2,0.2c-1.2-0.1-1.7-0.3-2-0.4c-0.2-0.1-0.4-0.2-0.3-0.3l0,0
						c0-0.2,0.2-0.4,0.4-0.3c0.2,0.1,1.1,0.3,2,0.4s1.8-0.1,2-0.2c0.2-0.1,0.4,0.2,0.3,0.3l0,0C477.7,270.4,477.6,270.4,477.3,270.5
						z"/>
					<path class="legalTips-st12" d="M477.5,272.2c-0.3,0.1-0.8,0.2-2,0.2c-1.2-0.1-1.7-0.3-2-0.4c-0.2-0.1-0.4-0.2-0.3-0.3l0,0
						c0-0.2,0.2-0.4,0.4-0.3c0.2,0.1,1.1,0.3,2,0.4s1.8-0.1,2-0.2c0.2-0.1,0.4,0.2,0.3,0.3l0,0C477.8,272,477.8,272.1,477.5,272.2z"
						/>
					<path class="legalTips-st12" d="M479.3,269.4c-0.1,0-0.2,0-0.3,0.1c-0.3,0.1-0.4,0.1-0.5-0.1l0,0c-0.1-0.2-0.1-0.4,0.1-0.5
						c0.1,0,0.3-0.1,0.6-0.2C479.6,268.6,479.8,269.3,479.3,269.4z"/>
					<path class="legalTips-st12" d="M479.4,271.1c-0.3,0.1-0.4,0.1-0.5-0.1l0,0c-0.1-0.2-0.1-0.4,0.1-0.5c0.1,0,0.2-0.1,0.4-0.1
						C479.8,270.3,479.9,271.1,479.4,271.1z"/>
				</g>
			</g>
			<path class="legalTips-st11" d="M475,250.8c0,0-0.2-0.3-0.3-0.7c-0.1-0.4-0.2-0.9-0.3-1.5c0-0.5,0-1.1,0.1-1.5c0.1-0.4,0.2-0.7,0.2-0.7
				s0.2,0.3,0.3,0.7c0.1,0.4,0.2,0.9,0.3,1.5c0,0.5,0,1.1-0.1,1.5C475.2,250.5,475,250.8,475,250.8z"/>
			<path class="legalTips-st11" d="M481.8,253.1c0,0,0.1-0.3,0.3-0.7c0.2-0.4,0.5-0.8,0.8-1.3c0.4-0.4,0.8-0.8,1.1-1c0.3-0.2,0.6-0.4,0.6-0.4
				s-0.1,0.3-0.3,0.7c-0.2,0.4-0.5,0.8-0.8,1.3c-0.4,0.4-0.8,0.8-1.1,1C482.1,253,481.8,253.1,481.8,253.1z"/>
			<path class="legalTips-st11" d="M469.8,265.7c0,0-0.1,0.3-0.3,0.7c-0.2,0.4-0.5,0.8-0.8,1.3c-0.4,0.4-0.8,0.8-1.1,1
				c-0.3,0.2-0.6,0.4-0.6,0.4s0.1-0.3,0.3-0.7c0.2-0.4,0.5-0.8,0.8-1.3c0.4-0.4,0.8-0.8,1.1-1C469.5,265.8,469.8,265.7,469.8,265.7z
				"/>
			<path class="legalTips-st11" d="M467.5,254.7c0,0-0.3-0.1-0.7-0.3c-0.4-0.2-0.8-0.5-1.3-0.8c-0.4-0.4-0.8-0.8-1-1.1
				c-0.2-0.3-0.4-0.6-0.4-0.6s0.3,0.1,0.7,0.3c0.4,0.2,0.8,0.5,1.3,0.8c0.4,0.4,0.8,0.8,1,1.1C467.3,254.4,467.5,254.7,467.5,254.7z
				"/>
			<path class="legalTips-st11" d="M481.7,265.4c0,0,0.3,0.1,0.7,0.3c0.4,0.2,0.8,0.5,1.3,0.8c0.4,0.4,0.8,0.8,1,1.1c0.2,0.3,0.4,0.6,0.4,0.6
				s-0.3-0.1-0.7-0.3c-0.4-0.2-0.8-0.5-1.3-0.8c-0.4-0.4-0.8-0.8-1-1.1C481.8,265.7,481.7,265.4,481.7,265.4z"/>
			<path class="legalTips-st11" d="M467.6,260.8c0,0-0.3,0.2-0.7,0.3c-0.4,0.1-0.9,0.2-1.5,0.3c-0.5,0-1.1,0-1.5-0.1c-0.4-0.1-0.7-0.2-0.7-0.2
				s0.3-0.2,0.7-0.3c0.4-0.1,0.9-0.2,1.5-0.3c0.5,0,1.1,0,1.5,0.1C467.3,260.7,467.6,260.8,467.6,260.8z"/>
			<path class="legalTips-st11" d="M488,259.2c0,0-0.3,0.2-0.7,0.3c-0.4,0.1-0.9,0.2-1.5,0.3c-0.5,0-1.1,0-1.5-0.1c-0.4-0.1-0.7-0.2-0.7-0.2
				s0.3-0.2,0.7-0.3c0.4-0.1,0.9-0.2,1.5-0.3c0.5,0,1.1,0,1.5,0.1C487.7,259,488,259.2,488,259.2z"/>
		</g>
		<g id="contract">

				<ellipse transform="matrix(0.9962 -8.715574e-02 8.715574e-02 0.9962 -16.9964 41.9484)" class="legalTips-st0" cx="471.9" cy="215.6" rx="16.5" ry="16.5"/>
			<g>
				<path class="legalTips-st5" d="M481.8,208.3l-4.2-3.6l-15.8,1.4l2.1,24c2.8,1.5,6,2.3,9.4,2c4-0.3,7.5-2.1,10.2-4.7L481.8,208.3z"/>
				<polygon class="legalTips-st6" points="481.7,208.5 477.7,208.9 477.4,205.3 477.6,204.7 481.8,208.2 				"/>
				<polygon class="legalTips-st7" points="481.8,208.2 478,208.5 477.6,204.7 				"/>
			</g>
			<path class="legalTips-st13" d="M474.5,227.7c0-0.1,0-0.2,0-0.3c-0.3,0-0.7,0.1-1,0.1c0.5,0.5,0.9,1,1.2,1.6c0.2,0.3,0.7,0.4,1,0.1
				c0.7-0.8,0.7-1.7,1.8-1.9c0.3-0.1,0.8,0,1.1,0c0.6,0,0.7-0.1,1.2-0.2c0.7-0.2,1.3,0,2-0.4c0.7-0.3,0.1-1.4-0.6-1.1
				c-0.4,0.2-0.9,0-1.3,0.1c-0.2,0-0.4,0.2-0.7,0.3c-0.4,0.1-1,0-1.4,0.1c-0.5,0-1-0.1-1.5,0.2c-0.8,0.5-0.9,1.5-1.5,2.1
				c0.3,0,0.7,0.1,1,0.1c-0.4-0.7-0.9-1.3-1.4-1.9c-0.3-0.3-0.8-0.2-1,0.1c-0.2,0.4-0.2,0.5-0.2,0.9
				C473.4,228.5,474.6,228.5,474.5,227.7L474.5,227.7z"/>

				<rect x="464.1" y="209.8" transform="matrix(0.9962 -8.692463e-02 8.692463e-02 0.9962 -16.4928 41.8219)" class="legalTips-st13" width="15.8" height="1"/>

				<rect x="464.2" y="211.8" transform="matrix(0.9962 -8.692463e-02 8.692463e-02 0.9962 -16.6685 41.845)" class="legalTips-st13" width="15.8" height="1"/>

				<rect x="464.4" y="213.8" transform="matrix(0.9962 -8.692463e-02 8.692463e-02 0.9962 -16.8441 41.8681)" class="legalTips-st13" width="15.8" height="1"/>

				<rect x="464.6" y="215.9" transform="matrix(0.9962 -8.692463e-02 8.692463e-02 0.9962 -17.0197 41.8912)" class="legalTips-st13" width="15.8" height="1"/>

				<rect x="464.8" y="217.9" transform="matrix(0.9962 -8.692463e-02 8.692463e-02 0.9962 -17.1953 41.9143)" class="legalTips-st13" width="15.8" height="1"/>

				<rect x="465.1" y="221.3" transform="matrix(0.9962 -8.692463e-02 8.692463e-02 0.9962 -17.488 41.9528)" class="legalTips-st13" width="15.8" height="1"/>

				<rect x="465.2" y="223.3" transform="matrix(0.9962 -8.692463e-02 8.692463e-02 0.9962 -17.6636 41.9759)" class="legalTips-st13" width="15.8" height="1"/>

				<rect x="463.9" y="208.2" transform="matrix(0.9962 -8.692463e-02 8.692463e-02 0.9962 -16.3753 41.358)" class="legalTips-st13" width="5.6" height="1"/>
		</g>
		<g id="dollarsign">

				<ellipse transform="matrix(0.9962 -8.715574e-02 8.715574e-02 0.9962 -13.2951 41.4564)" class="legalTips-st14" cx="468.1" cy="173" rx="16.5" ry="16.5"/>
			<path class="legalTips-st15" d="M467,159.2c-1.3,2.1-2.6,4.7-2.6,4.7l-4.1,2.5l-6.8,14.1c3.5,6.8,11.1,10.3,18.5,8.6
				c0.7-0.2,4.1-10.2,4.1-10.2l-5.1-7.3l2.5-5.5c0,0-2.6-2.3-4.2-4.3C468.1,160.3,468.1,159,467,159.2z"/>
			<g>
				<path class="legalTips-st16" d="M469.5,171.1c0.5,0.1,1,0.2,1.5,0.3c0.5,0.1,1,0.3,1.5,0.5c0.5,0.2,0.9,0.4,1.3,0.6
					c0.4,0.3,0.8,0.6,1.1,0.9c0.3,0.4,0.6,0.8,0.8,1.3c0.2,0.5,0.3,1.1,0.4,1.7c0.1,1,0,1.9-0.3,2.8c-0.3,0.9-0.7,1.7-1.2,2.4
					c-0.6,0.7-1.3,1.3-2.2,1.8c-0.9,0.5-1.9,0.8-3.1,1l0,1.9c0,0.3-0.1,0.6-0.3,0.8c-0.2,0.3-0.5,0.4-0.9,0.4l-1.7,0.2l0-3.2
					c-1.2-0.1-2.3-0.3-3.5-0.7c-1.1-0.4-2.1-0.9-2.9-1.5l1.3-2.3c0.1-0.2,0.3-0.3,0.5-0.5c0.2-0.1,0.4-0.2,0.7-0.2
					c0.2,0,0.5,0,0.8,0.1c0.3,0.1,0.6,0.2,0.9,0.4c0.3,0.2,0.7,0.3,1,0.5c0.4,0.2,0.8,0.3,1.3,0.4l0.1-5.8c-0.8-0.1-1.5-0.3-2.3-0.5
					c-0.8-0.2-1.4-0.5-2.1-0.9c-0.6-0.4-1.1-1-1.6-1.7c-0.4-0.7-0.7-1.6-0.8-2.7c-0.1-0.8,0-1.6,0.3-2.4c0.3-0.8,0.7-1.5,1.3-2.2
					c0.6-0.7,1.3-1.2,2.2-1.7c0.9-0.5,1.9-0.8,3.1-1l0-1.7c0-0.3,0.1-0.6,0.3-0.8c0.2-0.2,0.5-0.4,0.9-0.4l1.7-0.2l0,3
					c1.1,0.1,2.1,0.4,2.9,0.7c0.8,0.4,1.5,0.8,2.1,1.3l-1,1.8c-0.2,0.3-0.3,0.5-0.5,0.6c-0.2,0.1-0.4,0.2-0.6,0.2
					c-0.2,0-0.3,0-0.6-0.1c-0.2-0.1-0.5-0.1-0.7-0.2c-0.3-0.1-0.5-0.2-0.8-0.3c-0.3-0.1-0.6-0.2-0.9-0.2L469.5,171.1z M466.7,165.8
					c-0.5,0.1-0.8,0.3-1.2,0.4c-0.3,0.2-0.6,0.4-0.7,0.6c-0.2,0.2-0.3,0.4-0.4,0.7c-0.1,0.2-0.1,0.5-0.1,0.8
					c0.1,0.6,0.3,1.1,0.7,1.4c0.4,0.3,0.9,0.6,1.6,0.8L466.7,165.8z M469.4,180.5c1.7-0.4,2.4-1.4,2.3-3c-0.1-0.6-0.3-1-0.7-1.4
					c-0.4-0.3-0.9-0.6-1.6-0.7L469.4,180.5z"/>
			</g>
		</g>
		<g id="lock">

				<ellipse transform="matrix(0.9962 -8.715574e-02 8.715574e-02 0.9962 -9.427 40.9472)" class="legalTips-st1" cx="464.2" cy="128.4" rx="16.5" ry="16.5"/>
			<path class="legalTips-st2" d="M468.5,128.1l5.3,10.2l-2.5,5.1c-1.7,0.8-3.6,1.4-5.6,1.5c-7.2,0.6-13.8-3.5-16.6-9.8l9-19.1l7.7-0.9
				L468.5,128.1z"/>
			<g>
				<path class="legalTips-st17" d="M466.7,139.7l-3.8,0.3c-2,0.2-3.7-1.3-3.9-3.3l-1.6-18.5c-0.2-2,1.3-3.7,3.3-3.9l3.8-0.3
					c2-0.2,3.7,1.3,3.9,3.3l1.6,18.5C470.1,137.8,468.7,139.5,466.7,139.7z M460.9,116.9c-0.6,0-1,0.5-0.9,1.1l1.6,18.5
					c0,0.6,0.5,1,1.1,0.9l3.8-0.3c0.6,0,1-0.5,0.9-1.1l-1.6-18.5c0-0.6-0.5-1-1.1-0.9L460.9,116.9z"/>
				<path class="legalTips-st18" d="M467.9,141.8l-5.9,0.5c-3.5,0.3-6.5-2.3-6.8-5.7l-0.4-5c-0.3-3.5,2.3-6.5,5.7-6.8l5.9-0.5
					c3.5-0.3,6.5,2.3,6.8,5.7l0.4,5C473.9,138.4,471.4,141.5,467.9,141.8z"/>

					<ellipse transform="matrix(0.9962 -8.715574e-02 8.715574e-02 0.9962 -9.8711 40.9686)" class="legalTips-st17" cx="464.2" cy="133.5" rx="6.2" ry="6.2"/>
				<g>
					<path class="legalTips-st11" d="M468.4,132.6c0,0-0.6-0.1-0.9,0.1s-0.6,0.8-0.6,0.8s-0.5-0.2-0.9,0.1c-0.4,0.2-0.5,0.7-0.5,0.7l-1.2,0.7
						l-0.9-1.7l5.3-2.9l0.5,0.9L468.4,132.6z"/>
					<polygon class="legalTips-st10" points="469.1,131.2 463.7,134.1 463.5,133.6 468.8,130.7 					"/>
					<path class="legalTips-st11" d="M461.1,132.8c-1.2,0.6-1.6,2.1-1,3.2c0.6,1.1,2.1,1.6,3.2,0.9c1.2-0.6,1.6-2.1,1-3.2
						C463.7,132.5,462.2,132.1,461.1,132.8z M461.4,135.7c-0.1,0.2-0.4,0.3-0.6,0.1c-0.2-0.1-0.3-0.4-0.1-0.6
						c0.1-0.2,0.4-0.3,0.6-0.1C461.4,135.2,461.5,135.5,461.4,135.7z"/>
				</g>
			</g>
		</g>
		<g id="scales">

				<ellipse transform="matrix(0.9962 -8.715574e-02 8.715574e-02 0.9962 -5.6954 40.4559)" class="legalTips-st0" cx="460.4" cy="85.5" rx="16.5" ry="16.5"/>
			<path class="legalTips-st19" d="M461.4,85.8l-4.2,9l-1-0.5l2.8-6l-1.6-2.3l-7.1,0.7l-3.6,7.8c3.2,4.9,9,8,15.3,7.4c0.5,0,1.1-0.1,1.6-0.2
				l6.7-14.3l-4.1-1.9L461.4,85.8z"/>
			<g>
				<path class="legalTips-st20" d="M459.3,86c0.2,2.5-1.6,4.7-4.1,4.9s-4.7-1.6-4.9-4.1l4.4-0.4L459.3,86z"/>

					<ellipse transform="matrix(0.9962 -8.715574e-02 8.715574e-02 0.9962 -5.7979 39.9694)" class="legalTips-st21" cx="454.8" cy="86.4" rx="4.5" ry="0.6"/>
				<path class="legalTips-st20" d="M470.6,85.1c0.2,2.5-1.6,4.7-4.1,4.9c-2.5,0.2-4.7-1.6-4.9-4.1l4.4-0.4L470.6,85.1z"/>

					<ellipse transform="matrix(0.9962 -8.715574e-02 8.715574e-02 0.9962 -5.6797 40.9499)" class="legalTips-st21" cx="466.1" cy="85.5" rx="4.5" ry="0.6"/>
				<path class="legalTips-st21" d="M461.2,94.5L461.2,94.5c-0.3,0-0.6-0.2-0.6-0.5l-1.5-17.1c0-0.3,0.2-0.6,0.5-0.6l0,0
					c0.3,0,0.6,0.2,0.6,0.5l1.5,17.1C461.7,94.2,461.5,94.5,461.2,94.5z"/>
				<path class="legalTips-st21" d="M453,77.7L453,77.7c0-0.1,0.1-0.3,0.2-0.3l12.7-1.1c0.1,0,0.3,0.1,0.3,0.2l0,0c0,0.1-0.1,0.3-0.2,0.3
					L453.3,78C453.2,78,453,77.9,453,77.7z"/>
				<path class="legalTips-st21" d="M450.4,87.1c-0.1,0-0.1,0-0.2,0c-0.2-0.1-0.3-0.3-0.2-0.5l3.7-8.8c0.1-0.2,0.3-0.3,0.5-0.2
					c0.2,0.1,0.3,0.3,0.2,0.5l-3.7,8.8C450.7,87,450.5,87.1,450.4,87.1z"/>
				<path class="legalTips-st21" d="M459.3,86.3c-0.1,0-0.3-0.1-0.4-0.2l-5.2-8.1c-0.1-0.2-0.1-0.4,0.1-0.5c0.2-0.1,0.4-0.1,0.5,0.1l5.2,8.1
					c0.1,0.2,0.1,0.4-0.1,0.5C459.4,86.3,459.4,86.3,459.3,86.3z"/>
				<path class="legalTips-st21" d="M461.7,86.1c-0.1,0-0.1,0-0.2,0c-0.2-0.1-0.3-0.3-0.2-0.5l3.7-8.8c0.1-0.2,0.3-0.3,0.5-0.2
					c0.2,0.1,0.3,0.3,0.2,0.5l-3.7,8.8C462,86,461.8,86.1,461.7,86.1z"/>
				<path class="legalTips-st21" d="M470.6,85.3c-0.1,0-0.3-0.1-0.4-0.2l-5.2-8.1c-0.1-0.2-0.1-0.4,0.1-0.5c0.2-0.1,0.4-0.1,0.5,0.1l5.2,8.1
					c0.1,0.2,0.1,0.4-0.1,0.5C470.7,85.3,470.7,85.3,470.6,85.3z"/>
				<path class="legalTips-st21" d="M466,94.4l-9.9,0.9c-0.2,0-0.4-0.1-0.4-0.4l0-0.3c0-0.4,0.3-0.7,0.7-0.8l9.6-0.8c0.4,0,0.7,0.3,0.8,0.7
					l0,0C466.7,94,466.4,94.4,466,94.4z"/>
				<path class="legalTips-st21" d="M463.5,94.1l-5,0.4c-0.2,0-0.4-0.1-0.4-0.4l0-0.3c0-0.4,0.3-0.7,0.7-0.8l4.6-0.4c0.4,0,0.7,0.3,0.8,0.7
					l0,0C464.1,93.7,463.9,94.1,463.5,94.1z"/>
			</g>
		</g>
		<g id="checkboxes">
			<path class="legalTips-st0" d="M414.7,99.6l-1.8-20.2l20.2-1.8l1.8,20.2L414.7,99.6z M417.3,83.1l1.1,12.2l12.2-1.1L429.5,82L417.3,83.1z"
				/>
			<path class="legalTips-st0" d="M418.5,143.3l-1.8-20.2l20.2-1.8l1.8,20.2L418.5,143.3z M421.1,126.7l1.1,12.2l12.2-1.1l-1.1-12.2
				L421.1,126.7z"/>
			<path class="legalTips-st0" d="M422.3,187l-1.8-20.2l20.2-1.8l1.8,20.2L422.3,187z M424.9,170.4l1.1,12.2l12.2-1.1l-1.1-12.2L424.9,170.4z"
				/>
			<path class="legalTips-st0" d="M426.2,230.6l-1.8-20.2l20.2-1.8l1.8,20.2L426.2,230.6z M428.7,214l1.1,12.2l12.2-1.1l-1.1-12.2L428.7,214z"
				/>
			<path class="legalTips-st0" d="M428.2,254.1l1.7,19.5c0.5,0.2,1,0.4,1.4,0.6l18.8-1.6l-1.8-20.2L428.2,254.1z M433.6,269.9l-1.1-12.2
				l12.2-1.1l1.1,12.2L433.6,269.9z"/>
		</g>
		<path id="check5" class="legalTips-st18" d="M440.3,268.1c-0.4,0-0.8-0.1-1.1-0.4l-4.5-4.6c-0.5-0.5-0.5-1.4,0-1.9c0.5-0.5,1.4-0.5,1.9,0
			l2.9,2.9c2.3-7.5,4-11.6,5.2-12.3c1.6-1,4.1-1.8,4.2-1.8c0.7-0.2,1.5,0.1,1.7,0.9c0.2,0.7,0,2.9-0.7,3.1c0,0-2.2,0.7-3.6,1.5
			c-0.9,1-3.2,6.1-4.9,11.6c-0.1,0.5-0.5,0.8-1,0.9C440.5,268.1,440.4,268.1,440.3,268.1z"/>
		<path id="check4" class="legalTips-st18" d="M436.5,225c-0.4,0-0.8-0.1-1.1-0.4L431,220c-0.5-0.5-0.5-1.4,0-1.9c0.5-0.5,1.4-0.5,1.9,0
			l2.9,2.9c2.3-7.5,4-11.6,5.2-12.3c1.6-1,4.1-1.8,4.2-1.8c0.7-0.2,1.5,0.1,1.7,0.9c0.2,0.7,0,2.9-0.7,3.1c0,0-2.2,0.7-3.6,1.5
			c-0.9,1-3.2,6.1-4.9,11.6c-0.1,0.5-0.5,0.8-1,0.9C436.7,225,436.6,225,436.5,225z"/>
		<path id="check3" class="legalTips-st18" d="M432.8,182.1c-0.4,0-0.8-0.1-1.1-0.4l-4.5-4.6c-0.5-0.5-0.5-1.4,0-1.9c0.5-0.5,1.4-0.5,1.9,0
			l2.9,2.9c2.3-7.5,4-11.6,5.2-12.3c1.6-1,4.1-1.8,4.2-1.8c0.7-0.2,1.5,0.1,1.7,0.9c0.2,0.7,0,2.9-0.7,3.1c0,0-2.2,0.7-3.6,1.5
			c-0.9,1-3.2,6.1-4.9,11.6c-0.1,0.5-0.5,0.8-1,0.9C432.9,182.1,432.9,182.1,432.8,182.1z"/>
		<path id="check2" class="legalTips-st18" d="M428.9,137.5c-0.4,0-0.8-0.1-1.1-0.4l-4.5-4.6c-0.5-0.5-0.5-1.4,0-1.9c0.5-0.5,1.4-0.5,1.9,0
			l2.9,2.9c2.3-7.5,4-11.6,5.2-12.3c1.6-1,4.1-1.8,4.2-1.8c0.7-0.2,1.5,0.1,1.7,0.9c0.2,0.7,0,2.9-0.7,3.1c0,0-2.2,0.7-3.6,1.5
			c-0.9,1-3.2,6.1-4.9,11.6c-0.1,0.5-0.5,0.8-1,0.9C429,137.5,429,137.5,428.9,137.5z"/>
		<path id="check1" class="legalTips-st18" d="M425.1,94.3c-0.4,0-0.8-0.1-1.1-0.4l-4.5-4.6c-0.5-0.5-0.5-1.4,0-1.9c0.5-0.5,1.4-0.5,1.9,0
			l2.9,2.9c2.3-7.5,4-11.6,5.2-12.3c1.6-1,4.1-1.8,4.2-1.8c0.7-0.2,1.5,0.1,1.7,0.9c0.2,0.7,0,2.9-0.7,3.1c0,0-2.2,0.7-3.6,1.5
			c-0.9,1-3.2,6.1-4.9,11.6c-0.1,0.5-0.5,0.8-1,0.9C425.2,94.3,425.2,94.3,425.1,94.3z"/>
		<g id="text">

				<rect x="482.5" y="73.8" transform="matrix(0.9962 -8.715574e-02 8.715574e-02 0.9962 -4.6871 43.9192)" class="legalTips-st13" width="36.3" height="3.7"/>

				<rect x="483" y="79.9" transform="matrix(0.9962 -8.715574e-02 8.715574e-02 0.9962 -5.2153 43.9887)" class="legalTips-st13" width="36.3" height="3.7"/>

				<rect x="483.5" y="85.9" transform="matrix(0.9962 -8.715574e-02 8.715574e-02 0.9962 -5.7435 44.0583)" class="legalTips-st13" width="36.3" height="3.7"/>

				<rect x="486.1" y="115.1" transform="matrix(0.9962 -8.715574e-02 8.715574e-02 0.9962 -8.2262 45.4217)" class="legalTips-st13" width="59.9" height="3.7"/>

				<rect x="486.7" y="121.1" transform="matrix(0.9962 -8.715574e-02 8.715574e-02 0.9962 -8.7544 45.4913)" class="legalTips-st13" width="59.9" height="3.7"/>

				<rect x="487.2" y="127.2" transform="matrix(0.9962 -8.715574e-02 8.715574e-02 0.9962 -9.2826 45.5608)" class="legalTips-st13" width="59.9" height="3.7"/>

				<rect x="490.1" y="160.2" transform="matrix(0.9962 -8.715574e-02 8.715574e-02 0.9962 -12.1492 45.9382)" class="legalTips-st13" width="59.9" height="3.7"/>

				<rect x="490.6" y="166.3" transform="matrix(0.9962 -8.715574e-02 8.715574e-02 0.9962 -12.6774 46.0078)" class="legalTips-st13" width="59.9" height="3.7"/>

				<rect x="491.1" y="172.4" transform="matrix(0.9962 -8.715574e-02 8.715574e-02 0.9962 -13.2056 46.0773)" class="legalTips-st13" width="59.9" height="3.7"/>

				<rect x="493.9" y="203.9" transform="matrix(0.9962 -8.715574e-02 8.715574e-02 0.9962 -15.9392 46.4372)" class="legalTips-st13" width="59.9" height="3.7"/>

				<rect x="494.4" y="210" transform="matrix(0.9962 -8.715574e-02 8.715574e-02 0.9962 -16.4675 46.5067)" class="legalTips-st13" width="59.9" height="3.7"/>

				<rect x="495" y="216.1" transform="matrix(0.9962 -8.715574e-02 8.715574e-02 0.9962 -16.9957 46.5763)" class="legalTips-st13" width="59.9" height="3.7"/>

				<rect x="498" y="250.6" transform="matrix(0.9962 -8.715574e-02 8.715574e-02 0.9962 -19.9919 46.9707)" class="legalTips-st13" width="59.9" height="3.7"/>

				<rect x="498.5" y="256.6" transform="matrix(0.9962 -8.715574e-02 8.715574e-02 0.9962 -20.5201 47.0403)" class="legalTips-st13" width="59.9" height="3.7"/>
			<path class="legalTips-st13" d="M499.3,269.1l48.4-4.2c2.3-1.4,4.6-2.8,6.9-4.3l-55.6,4.9L499.3,269.1z"/>
		</g>
	</g>
	<path id="frontclip" class="legalTips-st13" d="M510.6,40l-29,2.5c0-0.3,0-0.7,0-1c-0.4-4-3.9-7-8-6.7c-4,0.4-7,3.9-6.7,8
		c0,0.3,0.1,0.7,0.2,1l-29.4,2.6c-1.9,0.2-3.3,1.8-3.1,3.7l0.8,9.2c0.2,1.9,1.8,3.3,3.7,3.1L512,56c1.9-0.2,3.3-1.8,3.1-3.7
		l-0.8-9.2C514.2,41.3,512.5,39.9,510.6,40z M473.9,38c2.3-0.2,4.3,1.5,4.5,3.8c0,0.4,0,0.7,0,1c-0.1,0.7-0.4,1.3-0.8,1.8
		c0,0,0,0,0,0c-0.1,0.2-0.3,0.3-0.4,0.5c0,0,0,0,0,0c-0.2,0.1-0.3,0.3-0.5,0.4c0,0,0,0,0,0c-0.2,0.1-0.4,0.2-0.5,0.3
		c0,0-0.1,0-0.1,0c-0.2,0.1-0.4,0.1-0.6,0.2c0,0-0.1,0-0.1,0c-0.2,0.1-0.4,0.1-0.6,0.1c-0.2,0-0.4,0-0.6,0c0,0-0.1,0-0.1,0
		c-0.2,0-0.4-0.1-0.6-0.1c0,0-0.1,0-0.1,0c-0.2-0.1-0.4-0.1-0.6-0.2c0,0,0,0,0,0c-0.2-0.1-0.4-0.2-0.6-0.3c0,0,0,0,0,0
		c-0.2-0.1-0.3-0.3-0.5-0.4c0,0,0,0,0,0c-0.5-0.5-0.9-1-1.1-1.7c-0.1-0.3-0.2-0.7-0.2-1C470,40.3,471.6,38.2,473.9,38z"/>
</g>
</svg>
