<svg id="Layer_1" xmlns="http://www.w3.org/2000/svg" viewBox="0 0 960 300"><style>.st0{fill:#1396cc}.st1{fill:#c3996b}.st2{fill:#a41d39}.st3{fill:#3f291b;stroke:#3f291b;stroke-miterlimit:10}.st4{fill:#d41c53}.st5{fill:#f1f1f2}.st6{fill:#8a5d3b}.st7{fill:#a87c4f}.st8{fill:#754c28}.st9{fill:#623a17}.st10{fill:#3f291b}.st11{fill:#f16922}.st12{fill:#f7bd5e}.st13{fill:#f1cf95}.st14{fill:#e5bb8c}.st15{fill:#a6a8ab}.st16{fill:#0cb4de}.st17{fill:#bbbdbf}.st18{fill:#d0d2d3}.st19{fill:#603813}.st20{fill:#f69721}.st21{fill:#6d6e70}.st22{fill:#808184}.st23{fill:#929497}.st24{fill:#bbbdbf;stroke:#929497;stroke-miterlimit:10}.st25{fill:#fff}.st26{fill:#068c45}.st27{fill:#29ab3a}.st28{fill:#56de4e}.st29,.st30{fill:#8a5d3b;stroke:#3f291b;stroke-miterlimit:10}.st30{fill:#3f291b;stroke-width:1.002}.st31{fill:#0d73a5}</style><path class="st0" d="M-.2-.1h960v300H-.2V-.1z"/><path class="st1" d="M486 47.8c0 12.6-7 22.8-15.5 22.8s-15.3-10.3-15.3-22.9 7-22.8 15.5-22.8c6.3 0 11.4 10.2 14 13.6s1.3 6 1.3 9.3z"/><path class="st2" d="M465.8 75.4l9.5-3.6 8.5-3.2-18-4.9-4 9.1 4 2.6z"/><path class="st3" d="M494.3 197.6l-61.7-.2.2-80.4 7.9-11.6 33.1.1s17.8 19.5 17.7 25.5 2.8 66.6 2.8 66.6z"/><path class="st2" d="M468.1 72.8s1.9 1.3 6 4c2.7 1.7 5.8 2.8 8.9 3.4l-15 5.2-3.2-9.9 3.3-2.7z"/><path class="st4" d="M481.5 74.8c.1 1.4-7 2-9.1 3.2s-3.1 4.7-4.5 4.5c-2.8-.3-4.9-5.5-5-6.5-.1-1.4 4-2.9 9.1-3.2s9.4.6 9.5 2z"/><path class="st5" d="M468.9 106.6h5.3s15.9 21.2 15.9 27.8c0 6.6-21.2-27.8-21.2-27.8z"/><path class="st6" d="M475.6 46.5c.4-.4 3.8-3.8 5-4.2 1.4-.3 2.8-.6 4.3-.7.4-.1.8-.1 1.2 0 .3.5.4 1.1.1 1.6-.4.1-.8.2-1.2.2-.7.1-3.6-.2-4.5.3s-4.2 4.1-4.7 4c-.3-.2-.5-.6-.3-.9 0-.1.1-.2.1-.3z"/><path class="st7" d="M486.4 54.3c-.8 1.6-2.6 2.4-4.4 1.9-3.1-.7-3.7-2.8-5.5-4.1-.1-1.5 3-4.2 5.5-5.8s2.9.6 3.9 1.5.5 6.5.5 6.5z"/><path class="st5" d="M476.7 52.2s1.5-1.4 3.3-2.8c.8-.5 4.2-1.8 4.9-1.6 1 .6 1.7 1.5 2 2.6.1.9 0 1.8-.2 2.6-.4 1-.1 1.3-3.1 1.3s-6.9-2.1-6.9-2.1z"/><ellipse transform="matrix(.00436 -1 1 .00436 432.844 535.989)" class="st8" cx="485.6" cy="50.6" rx="2.9" ry="1.5"/><path class="st9" d="M487 50.7c-.2.8-1.1 1.3-1.9 1.1-.5-.1-.9-.6-1.1-1.1 0-1.6.7-2.9 1.5-2.9s1.5 1.3 1.5 2.9z"/><ellipse transform="matrix(.00436 -1 1 .00436 433.625 536.27)" class="st10" cx="486.1" cy="50.4" rx="1.9" ry=".8"/><path class="st5" d="M484.9 49.7c0 .4-.2.8-.6 1-.2-.4-.1-.8.1-1.2 0-.4.2-.8.6-1 .1.4.1.8-.1 1.2z"/><path class="st6" d="M476.7 52.1s5.1-3.3 6.8-3.8 2.4.1 3.1-.3.5-.5.5-.5-2.2.1-3.1 0-3.2 1.2-3.2 1.2l-4.1 3.4zm-.2 0c2.4.8 4.8 1.5 7.2 2 .9 0 1.8 0 2.7-.2.1 0 .7.6.2.7-.7.1-1.6.3-2 .5-.9.3-2.2-.3-3.2-.7s-4.9-2.3-4.9-2.3z"/><path class="st5" d="M473.9 66.8h6.8c.9 0 1.7.8 1.7 1.7v.5c0 .9-.8 1.7-1.7 1.7h-6.8c-.9 0-1.7-.8-1.7-1.7v-.5c0-.9.7-1.7 1.7-1.7z"/><path class="st6" d="M486 39.4c-1 0-2 .2-2.8.8-.1.3-.2.7-.2 1-.1-.6-.2-1.4-.6-1.5-.6-.2-2.9 0-3 .3-.3.3-.7.6-1.1.6-1.7-.1-6.3 3-6.8 3.4-.5.6-.4 1.5.2 2l.1.1c.7.5 5.1-3 6.3-3.2s3.1.7 4.4.7 4 1.8 4.2 1c.6-2.1.9-5.2-.7-5.2z"/><path class="st3" d="M476.9 110l-34.6-2.9 3.1-14.2 3.9-1 26.4 7.6 1.2 10.5z"/><path class="st5" d="M481.3 82.3l-9.7 1.4c-.4.1-.9-.2-1-.6v-.3l.1-1.8c.1-.6.5-1.1 1.1-1.2l9.7-1.4c.4-.1.9.2 1 .6v.3l-.1 1.8c0 .7-.5 1.1-1.1 1.2z"/><path class="st1" d="M485.1 64c.7-.3 1.4-.6 2.1-.6 1.2-.2 1.7.7 3.4-1.7s-7.1-9.7-7.9-11.7c-.5-1.4 1.1-3.4.8-8.1s-2.3-9.2-16-9.3H466l-.2-6.9s-30.7-5.3-33.8 10.1-2.2 24.5 6.9 37.7c1.8 2.6 3.8 5.1 6 7.3-.2 9.5-.8 21.3 1.4 21.4 3.4.2 24.6.1 24.6.1-.3-3.2-.5-6.5-.3-9.7 0 0 16.8-.2 16.5-3.6s-1.9-5.2-.7-5.7.1-3.4-1.8-3.4c-1.1 0-8.1 1.3-11.3-.5-1.4-.8-8-2.4-6.9-4.5s.7-.3 6.8-3.6 9.3-2.2 10.7-2.4.5-1.3.4-1.7c-.3-.9-1.1-1.8-1-2 .3-.5 1.2-.8 1.8-1.2z"/><ellipse transform="rotate(-11.246 482.751 63.303)" class="st7" cx="482.7" cy="63.2" rx="2.4" ry=".7"/><path class="st6" d="M480.2 40.4c-1 0-2 .2-2.8.8-.1.3-.2.7-.2 1-.1-.6-.2-1.4-.6-1.5-.6-.2-2.9 0-3 .3-.3.3-.7.6-1.1.6-1.7-.1-6.3 3-6.8 3.4-.5.6-.4 1.5.2 2l.1.1c.7.5 5.1-3 6.3-3.2s3.1.7 4.4.7 4 1.8 4.2 1c.6-2.1 1-5.2-.7-5.2z"/><path class="st7" d="M479.9 51.3c1.2 1.2-.4 2.2-1.2 3-1 1.2-1.2 2.6-4.4 1.9s-3.7-2.8-5.5-4.1c-.1-1.5 3-4.2 5.5-5.8s2.9.6 3.9 1.5 1.5 2.2 1.7 3.5z"/><path class="st5" d="M469.1 52.2s1.5-1.4 3.3-2.8c1.5-.7 3.1-1.2 4.7-1.4.7 0 2 1.4 2.2 2.4s.2.6.6 1c.3.5.2 1.1-.3 1.4-.2-.1-.5 0-.6.2-.4 1-.1 1.3-3.1 1.3s-6.8-2.1-6.8-2.1z"/><ellipse transform="rotate(-89.8 477.213 50.84)" class="st8" cx="477.2" cy="50.8" rx="3" ry="2.2"/><path class="st9" d="M479.4 50.6c0 1.6-2.2 1-2.2 1s-2.2.5-2.2-1 1-2.8 2.2-2.8 2.2 1.3 2.2 2.8z"/><ellipse transform="rotate(-89.8 478.005 50.338)" class="st10" cx="478" cy="50.3" rx="1.9" ry="1.2"/><path class="st5" d="M476.8 49.6c-.1.5-.4.8-.9.9-.3-.4-.3-.9 0-1.2.1-.5.4-.8.9-.9.2.3.2.8 0 1.2z"/><path class="st6" d="M469.1 52.1s5.1-3.3 6.8-3.8 2.4.1 3.1-.3.5-.5.5-.5-2.2.1-3.1 0-3.2 1.2-3.2 1.2l-4.1 3.4zm-.2 0c2.4.8 4.8 1.5 7.2 2 .9 0 1.8 0 2.7-.2.1 0 .7.6.2.7-.7.1-1.6.3-2 .5-.9.3-2.2-.3-3.2-.7s-4.9-2.3-4.9-2.3z"/><path class="st7" d="M500.5 94.8c1.3-3.7 4.9-2.5 8.2-2.4l7-1.8c1.3-.3 2.5.4 2.9 1.7.2.8 0 1.7-.7 2.3.5.1-7.1 2.7-12.4 2.9-3.9.2-6.1-1.8-5-2.7z"/><path class="st11" d="M513.4 109.9l-6 .8c-1.7.1-3.1-1.1-3.2-2.8l-3.4-24.6c-.3-1.6.7-3.2 2.3-3.5l6-.8c1.5-.2 5.8 2.4 5.8 2.4l.9 25c.2 1.5-.8 3.1-2.4 3.5z"/><path class="st1" d="M523.1 101c.7-1.1.5-2.5-.6-3.3-.4-.3-.8-.4-1.3-.4.5-1.2 0-2.6-1.2-3.1-.3-.1-.7-.2-1-.2.6-1.1.2-2.6-.9-3.2-.7-.4-1.7-.4-2.4 0l-6.1 3.8c-2 .5-3.8 1.4-5.6 2.5-.8-1.4-1.5-2.8-2.1-4.3-.9-1.4-4.2-4.3-6.4-2.9s1 3.7 2.6 7c.4.8.1 2.1.4 3.1.4 1.3.9 7.6 2.5 10.4 2.4 4.2.5 9.5.5 9.5h16s-2.8-7.1 0-9.3c2.2-1.7 4.5-3.6 6-4.8 1-.7 1.5-2 1.3-3.2-.1-1.6-.8-1.7-1.7-1.6z"/><path class="st5" d="M517.9 113.7l.4 27.5-17.8.3-.4-27.5 17.8-.3z"/><path class="st3" d="M499 117.1l-.8 29.8-32-29s-8.1-8.2-17 .9-1.4 16.6-1.4 16.6c8.3 10.3 17.2 20.2 26.6 29.5 12.1 11.9 38.2 17.2 41.3 9.3 1.9-4.6 3.2-9.5 3.7-14.4.7-8.8.6-32.6.5-42.3-.2-1.4-20.9-.4-20.9-.4z"/><ellipse transform="matrix(.9999 -.015 .015 .9999 -1.803 7.777)" class="st12" cx="517.2" cy="124" rx="1.7" ry="1.7"/><ellipse transform="matrix(.9999 -.015 .015 .9999 -1.74 7.775)" class="st12" cx="517.1" cy="119.8" rx="1.7" ry="1.7"/><ellipse transform="matrix(.9999 -.015 .015 .9999 -1.863 7.778)" class="st12" cx="517.3" cy="128" rx="1.7" ry="1.7"/><path class="st13" d="M498.4 92.3c-.3-.7-.8-1.4-1.3-2-.4-.3-.7-.7-1.9.2-.6.5-.7 1.3-.2 1.8 0 .1.1.1.2.2l1 1.5 2.2-1.7z"/><path class="st14" d="M498.5 92.5c-.2-.8-.6-1.5-1.2-2-.4-.2-.7-.7-1.9.2-.6.4-.7 1.2-.3 1.7l.2.2 1 1.5c.3-.3.7-.6 1-.9.5-.2.9-.4 1.2-.7z"/><path class="st15" d="M490.8 64.3l12.3-1.7c1.7-.2 3.3 1 3.6 2.7l1.5 10.7c.2 1.7-1 3.3-2.7 3.6l-12.3 1.7c-1.7.2-3.3-1-3.6-2.7l-1.5-10.7c-.2-1.7 1-3.3 2.7-3.6z"/><path class="st16" d="M475.7 109.8l-5 3.9-2.2-8.6 2.2-.9 4.6 3.3c-.1 0 .4 2.4.4 2.3z"/><path class="st16" d="M473 108.2c-.6.3-.1 2.5.8 5.4 3.8 5.9 16.7 25.5 16.7 25.5l-.3-5.7s-2.7-4.8-6-10.2c-4.5-7.2-10-15.7-11.2-15z"/><path class="st3" d="M472.2 114.6l-34.6-7.5 3.1-14.2 3.9-1 26.4 7.6 1.2 15.1z"/><path class="st17" d="M492.2 60.3l44.1-6.2 3.4 24.6-44.1 6.2-3.4-24.6z"/><path class="st18" d="M565.3 95.8l-41-13.5-3.8-27.6 35.8-24.2 9 65.3z"/><ellipse transform="rotate(-7.946 560.891 63.431)" class="st17" cx="560.8" cy="63.4" rx="3.4" ry="32.7"/><path class="st19" d="M479.6 17.4c-1.1 0-2.1.3-3 .8-.4-2.1-2.2-3.6-4.3-3.6-.9 0-1.8.3-2.5.8-1.4-2-3.7-3.1-6.1-3.1-2.5 0-4.8 1.2-6.2 3.2-.8-.6-1.7-.9-2.6-.9-2.2 0-4.1 1.7-4.3 3.9-1.3-1.3-3.1-2-4.9-2-3.2 0-6.1 2.2-6.8 5.4-1-.5-2.2-.8-3.3-.8-3.5 0-6.4 2.6-6.8 6h-.1c-4.2 0-7.6 3.4-7.6 7.6 0 2.2.9 4.3 2.6 5.7-2.8 1.9-3.4 5.7-1.5 8.5.3.4.6.8 1 1.1-.2.6-.3 1.3-.3 1.9 0 1.9.9 3.6 2.4 4.7-.6 1-.9 2.1-.9 3.3 0 3.4 2.8 6.2 6.2 6.2h.1c-.1.3-.1.5-.1.8 0 2.5 2 4.5 4.5 4.5.4 0 .7-.1 1-.1 5.2 8.2 10.1 12.3 11.6 12.4s.9-6.1.6-8.7-2.2-4.2-3.3-5.2c-3.4-2.9-5.6-7-6.2-11.4-.4-2.5 1.1-6.3 4.8-6.1s7 8.5 7.9 9.8 3.8 1.2 4.7-.5-2.2-14.1-2.5-16c-.1-1.1-1-6.8 2.3-10.6 2.4-2.7 8.5-3.6 11.1-4.8s7.6-1.2 10.3-1c.7.3 1.4.4 2.2.4 3.4 0 6.1-2.7 6.1-6.1 0-3.4-2.8-6.1-6.1-6.1z"/><path class="st16" d="M578.7 36.8l37-20.4-34.9 23.8-2.1-3.4zm7.8 40.6l39 16.3-40.3-12.5 1.3-3.8zm.6-20.6l59.4-7.5-58.8 11.5-.6-4zm-21.6-30.9L578.2 6 569 27.8l-3.5-1.9zM580.4 94l9.2 21.8-12.8-19.9 3.6-1.9z"/><path class="st20" d="M557 146.8l-167.3-.5-.1 19.6h14.9l-.5 148.4 141.7.4.5-148.4h10.6l.2-19.5z"/><path class="st11" d="M404.5 165.9l140.3.4-7.3 12.5-133-.4v-12.5z"/><ellipse transform="rotate(-89.82 475.23 240.717)" class="st16" cx="475.2" cy="240.7" rx="39.1" ry="39.1"/><path class="st0" d="M501.2 211.6c-.2.2-.5.4-.7.6-3.1 3.5 4 5.7 0 8.2s-5.3 1.2-5.3 1.2-2.8-.7-7.3 2.1 1.1 6.3 1.1 6.3l-4.2 10.7s-1.7 4.2 6.3 4.4-.5-6.1 5.5-9.9 6 2.4 9.8 7.8c1.7 2.5 4.3 4.1 7.2 4.4 2.4-13.2-2.3-26.8-12.4-35.8zm-25.9-10c-3.6 0-7.2.5-10.7 1.5 0 2.4 1.2 5.4 7.5 5.3 10.4-.2 12.1 2.6 16.9 2.1 2.1-.3 3.9-2 5.2-3.9-5.8-3.2-12.3-4.9-18.9-5zm4.7 63.5c-8.9-5-4.2 0-12.3-4.5s1-13.4 1-13.4 1.4-3.3 6.4 3.8.4-16 .4-16 6-4 3.1-8.6-4.9-7.2-8.5-6-5.8-6.4-8.1-8.5-4.9.2-7.8-3.6c-.1-.1-.2-.3-.3-.4-3.9 2.5-7.3 5.7-10.1 9.4-.7 1-1.4 2.1-2.1 3.1-.5.8-.9 1.5-1.3 2.3-3.4 7.7-.9 19 3.3 17.8 4.7-1.3 5.9 7 8.7 8.9s9.2 8.3 6.1 11.5-12 1.9-11.6 6.6c7.3 7.7 17.5 12.1 28.1 12.1 0 .2 13.8-9.5 5-14.5z"/><ellipse transform="rotate(-4.95 659.357 164.432) scale(1.00003)" class="st10" cx="659.3" cy="164.4" rx="15.9" ry="15.9"/><path class="st11" d="M676.7 196.3c-3.1 1.2-17.2 4.8-17.2 4.8s-11.2-2.2-12.7-2.6c-1.5-.4-2.6-1.6-2.9-3.1l-.4-4.8c-.3-2.9 1.9-5.5 4.8-5.7l26.3-2.3c2.9-.3 5.5 1.9 5.7 4.8l.3 4.1c.3 2.5-.8 3.6-3.9 4.8z"/><path class="st21" d="M672.1 243.3l-11.8 1-6.8-52.2 16.2-1.4 2.4 52.6z"/><path class="st15" d="M643.9 163.4l30.3-2.6c1.3-.1 2.4.8 2.5 2.1.1 1.3-.8 2.4-2.1 2.5l-30.3 2.6c-1.3.1-2.4-.8-2.5-2.1-.2-1.2.8-2.3 2.1-2.5z"/><path class="st20" d="M675.6 196l-16.6-1.1-1.7-19.2 16.6 1.1c3.1.2 5.7 2.4 6 4.8l.9 10.3c.2 2.5-2.2 4.3-5.2 4.1z"/><path class="st12" d="M658.9 194.9l-11.3 3.5c-1.9.6-3.6-.9-3.8-3.4l-.9-10.3c-.2-2.4 1.1-4.9 3-5.5l11.3-3.5 1.7 19.2z"/><path class="st17" d="M641.7 166c-.1-1.3.8-2.4 2.1-2.5l30.3-2.6c1.3-.1 2.4.8 2.5 2.1l-34.9 3z"/><ellipse transform="rotate(-4.95 666.19 243.8) scale(1.00003)" class="st22" cx="666.2" cy="243.8" rx="6" ry="1.6"/><path class="st1" d="M670.1 216.6c-.1-1.7 1.9-4.8 3.3-7.9 1-2.1 1.9-4.2 2.6-6.4.9-2 4.9-6.6 8.1-5.1s-.7 5.2-2.2 10c-.4 1.2.2 2.9 0 4.2-.5 2.4-1 4.8-1.7 7.1-.9 2.1-9.8 1.6-10.1-1.9z"/><path class="st1" d="M680.9 216.6c-.3-3.8-1.4-2.2-4.4-5.4-.9-5.2-6.1-4.4-10.5-5l-9-4c-1.6-.7-3.5 0-4.2 1.7-.5 1.1-.3 2.3.4 3.2-1.8.2-3.1 1.7-2.9 3.5 0 .5.2 1 .5 1.5-1.7.3-2.9 1.9-2.6 3.7.1.6.4 1.2.8 1.7-1.2 0-2.3.8-2.7 2-.2.9-.1 1.8.4 2.6.5 1 18.8 11.7 20.1 11.6 2.4-.2 5.6 5.1 5.6 5.1l10.6-17c0-.1-1.8-1.3-2.1-5.2z"/><path class="st5" d="M683.1 219.6l28.1 31.5-19.4 17.3-28.1-31.5 19.4-17.3z"/><path class="st3" d="M774.1 374.5L664 241.2l23.6-21.1 119.1 138.3-32.6 16.1z"/><ellipse transform="rotate(-41.712 694.138 236.07)" class="st12" cx="694.2" cy="236.1" rx="2.6" ry="2.6"/><ellipse transform="rotate(-41.712 689.853 231.256)" class="st12" cx="689.9" cy="231.3" rx="2.6" ry="2.6"/><ellipse transform="rotate(-41.712 698.24 240.665)" class="st12" cx="698.3" cy="240.7" rx="2.6" ry="2.6"/><path class="st13" d="M680.6 201c.3-1.1.8-2.1 1.3-3 .5-.4.9-1.1 2.6-.1.8.5 1.1 1.6.6 2.4-.1.1-.1.2-.2.2l-1.1 2.2-3.2-1.7z"/><path class="st14" d="M680.5 201.3c.1-1.1.6-2 1.3-2.9.5-.4.8-1 2.5 0 .8.4 1.1 1.5.7 2.3-.1.1-.1.2-.2.3l-1.1 2.2c-.5-.4-1-.7-1.6-1-.6-.2-1.1-.5-1.6-.9z"/><path class="st21" d="M599.7 149.1l-12.4-2.4-1.3 6.4 2.3.4-.9 4.6 8.1 1.6.9-4.6 2 .4 1.3-6.4z"/><path class="st10" d="M585.7 154.2c-2.8-.5-4.6-2.9-4.2-5.4s3.1-3.9 5.9-3.4c1.4.3.7 2.4.2 4.6s-.4 4.5-1.9 4.2zm14.2-6.3c2.8.5 4.6 2.9 4.2 5.4s-3.1 3.9-5.9 3.4c-1.4-.3-.7-2.4-.2-4.6s.5-4.5 1.9-4.2z"/><path class="st15" d="M588.5 153.9l6.6 1.3c5.2 1.1 8.6 6.2 7.5 11.4l-10 49.4c-1.1 5.2-6.2 8.6-11.4 7.5l-6.6-1.3c-5.2-1.1-8.6-6.2-7.5-11.4l10.1-49.4c1-5.2 6.1-8.6 11.3-7.5z"/><path class="st0" d="M581.2 159.8l19.3 3.8-4 20.5-19.3-3.8 4-20.5z"/><path class="st23" d="M577.2 180.3l19.3 3.8-6.1 31-19.3-3.8 6.1-31z"/><ellipse transform="rotate(-78.93 583.78 197.753)" class="st15" cx="583.8" cy="197.8" rx="8.2" ry="8.2"/><ellipse transform="rotate(-78.93 579.468 185.512)" class="st15" cx="579.5" cy="185.5" rx="2.1" ry="2.1"/><ellipse transform="rotate(-78.93 592.563 188.068)" class="st15" cx="592.6" cy="188.1" rx="2.1" ry="2.1"/><path class="st15" d="M574.9 206l1 .2c.9.2 1.6 1.1 1.4 2.1l-.2 1c-.2.9-1.1 1.6-2.1 1.4l-1-.2c-.9-.2-1.6-1.1-1.4-2.1l.2-1c.3-.9 1.2-1.6 2.1-1.4zM579.9 207l4 .8c.9.2 1.6 1.1 1.4 2.1l-.2 1c-.2.9-1.1 1.6-2.1 1.4l-4-.8c-.9-.2-1.6-1.1-1.4-2.1l.2-1c.3-1 1.2-1.6 2.1-1.4zM588 208.6l1 .2c.9.2 1.6 1.1 1.4 2.1l-.2 1c-.2.9-1.1 1.6-2.1 1.4l-1-.2c-.9-.2-1.6-1.1-1.4-2.1l.2-1c.3-1 1.2-1.6 2.1-1.4z"/><path class="st17" d="M591 186.7c.8-.9 2.1-1 3-.2l-2.8 3.2c-.9-.8-1-2.1-.2-3zm-13.1-2.6c.8-.9 2.1-1 3-.2l-2.8 3.2c-.9-.7-1-2.1-.2-3zm-.3 8.2c3-3.4 8.1-3.8 11.5-.8l-10.8 12.4c-3.3-2.9-3.7-8.1-.7-11.6z"/><ellipse transform="rotate(-78.93 583.767 197.753)" class="st24" cx="583.8" cy="197.8" rx="4" ry="4"/><path class="st17" d="M573.3 210.4c-.5-.1-.8-.6-.8-1.1l.5-2.6c.1-.5.6-.8 1.1-.8l2.6.5-3.4 4zm8 1.5l-3-.6c-.5-.1-.8-.6-.8-1.1l.5-2.6c.1-.5.6-.8 1.1-.8l5.6 1.1-3.4 4zm5.1 1c-.5-.1-.8-.6-.8-1.1l.5-2.6c.1-.5.6-.8 1.1-.8l2.6.5-3.4 4z"/><path class="st16" d="M600.5 163.6l-19.3-3.8-4 20.5 7.5 1.5 15.8-18.2z"/><path class="st14" d="M586.5 221.9c-.3-1.9 1.8-5.7 3.2-9.4 1-2.5 1.8-5 2.5-7.6.9-2.4 5.2-8 9-6.6s-.3 6-1.8 11.7c-.4 1.4.5 3.4.3 4.9-.3 2.8-.8 5.6-1.4 8.4-.8 2.4-11.2 2.6-11.8-1.4z"/><path class="st25" d="M597.4 201.9s1.5-2.7 2.2-3.1 1.2-1 2.9.5-.1 3.1-.1 3.1l-1.8 2.3-3.2-2.8z"/><path class="st12" d="M595 258.3c-1.4.8-3.3.4-4.1-1.1-.8-1.4-.4-3.3 1.1-4.1 1.4-.8 3.3-.4 4.1 1 .8 1.5.3 3.3-1.1 4.2z"/><path class="st13" d="M597.2 202.2c.4-1.2 1.1-2.2 2.1-3 .6-.4 1.2-1 2.9.6.8.7 1 2 .3 2.8l-.3.3-1.7 2.2c-.5-.6-1-1.1-1.6-1.6-.8-.6-1.7-1-1.7-1.3z"/><path class="st14" d="M609 235.6l-7.2-8.9s-2.1-1.3-2.8-5.7-1.8-2.4-5.5-5.9c-1.5-6-7.4-4.6-12.5-5l-10.7-3.9c-1.9-.7-4.1.3-4.8 2.2-.5 1.3-.2 2.8.7 3.8-2 .3-3.4 2.2-3.1 4.3.1.6.3 1.2.7 1.6-2 .5-3.2 2.5-2.8 4.5.2.7.5 1.3 1.1 1.8-1.4.2-2.6 1.2-3 2.6-.2 1 0 2.1.7 2.9.7 1.1 22.6 12 24.1 11.8 2.7-.4 6.9 5.5 6.9 5.5L637.2 352l32.9-16L609 235.6z"/><path class="st12" d="M607.3 249.9c-1.4.8-3.3.4-4.1-1.1-.8-1.4-.4-3.3 1.1-4.1 1.4-.8 3.3-.4 4.1 1 .8 1.5.4 3.4-1.1 4.2zm7.1-6.4c-1.4.8-3.3.4-4.1-1.1-.8-1.4-.4-3.3 1.1-4.1 1.4-.8 3.3-.4 4.1 1 .8 1.5.3 3.3-1.1 4.2z"/><path class="st12" d="M612.3 246.2c-1 1.4-2.8 1.7-4.2.7s-1.7-2.8-.7-4.2c1-1.3 2.8-1.7 4.2-.7 1.3 1 1.7 2.8.7 4.2zm-9.4 6.9c-1.4.8-3.3.4-4.1-1.1-.8-1.4-.4-3.3 1.1-4.1 1.4-.8 3.3-.4 4.1 1 .8 1.5.3 3.3-1.1 4.2z"/><path class="st12" d="M598.3 256.1c-1.4.8-3.3.4-4.1-1.1-.8-1.4-.4-3.3 1.1-4.1 1.4-.8 3.3-.4 4.1 1.1.8 1.4.4 3.3-1.1 4.1z"/><g><ellipse transform="rotate(-31.802 510.027 173.666)" class="st10" cx="510.1" cy="173.7" rx="15.9" ry="15.9"/><path class="st26" d="M514.8 211.5c3.2-.9 16.7-6.4 16.7-6.4s7.6-8.5 8.6-9.7c1-1.2 1.2-2.8.5-4.2l-2.5-4.1c-1.5-2.5-4.8-3.2-7.3-1.7l-22.5 13.9c-2.5 1.5-3.2 4.8-1.7 7.3l2.1 3.5c1.3 2.1 2.8 2.3 6.1 1.4z"/><path class="st21" d="M546.5 246.4l10.1-6.2-25.8-45.9-13.8 8.6 29.5 43.5z"/><path class="st15" d="M523.9 169.5l-25.9 16c-1.1.7-2.6.3-3.2-.8-.7-1.1-.3-2.5.8-3.2l25.9-16c1.1-.7 2.6-.3 3.2.8.6 1.1.3 2.5-.8 3.2z"/><path class="st27" d="M515.4 210.6l12.7-10.8-10.1-16.4-12.7 10.8c-2.3 2-3.2 5.3-1.9 7.4l5.5 8.8c1.2 2.1 4.2 2.2 6.5.2z"/><path class="st28" d="M528.1 199.8l11.1-4c1.8-.6 2.3-2.9 1-5l-5.5-8.8c-1.3-2.1-3.8-3.2-5.7-2.6l-11.1 4 10.2 16.4z"/><path class="st17" d="M524.6 166.3c-.7-1.1-2.1-1.4-3.2-.8l-25.9 16c-1.1.7-1.4 2.1-.8 3.2l29.9-18.4z"/><ellipse transform="rotate(-31.761 551.494 243.25)" class="st22" cx="551.5" cy="243.3" rx="6" ry="1.6"/><path class="st6" d="M525 230.9c-.4-3.8 1-2.4 3.3-6.1 0-5.3 5.2-5.4 9.4-6.9l8.1-5.6c1.5-1 3.5-.6 4.5.9.6 1 .7 2.2.2 3.2 1.8-.2 3.3 1.1 3.5 2.9.1.5 0 1-.2 1.5 1.8 0 3.2 1.4 3.3 3.1 0 .6-.2 1.2-.5 1.8 1.2-.2 2.4.4 3 1.5.4.8.4 1.8 0 2.6-.3 1.1-16.4 14.9-17.6 15-2.4.3-4.6 6.1-4.6 6.1l-12.4-1.5c0 .1.4-14.7 0-18.5z"/><path class="st5" d="M549.4 241l-3.7 42-25.9-2.3 3.7-42.1 25.9 2.4z"/><path class="st3" d="M551.7 244.7l-10.6 120.8-31.5-2.8 10.6-120.8 31.5 2.8z"/><ellipse transform="rotate(-85 524.525 258.689)" class="st12" cx="524.5" cy="258.7" rx="2.6" ry="2.6"/><ellipse transform="rotate(-85 525.088 252.282)" class="st12" cx="525.1" cy="252.3" rx="2.6" ry="2.6"/><ellipse transform="rotate(-85 523.984 264.842)" class="st12" cx="524" cy="264.8" rx="2.6" ry="2.6"/><path class="st6" d="M535.6 228.9c-.2-1.7-2.7-4.4-4.7-7.1-1.3-1.9-2.6-3.8-3.7-5.8-1.2-1.8-6-5.6-8.9-3.6s1.6 5 4 9.4c.6 1.1.3 2.9.8 4.1.9 2.3 1.9 4.5 3 6.7 1.2 1.9 9.9-.2 9.5-3.7z"/><path class="st13" d="M522.4 215.5c-.5-1-1.1-1.9-1.8-2.7-.5-.3-1-.9-2.5.4-.8.6-.8 1.8-.2 2.5l.2.2 1.5 2 2.8-2.4z"/><path class="st14" d="M522.6 215.8c-.3-1-1-1.9-1.8-2.6-.5-.3-1-.9-2.5.4-.7.6-.8 1.7-.2 2.4l.2.2 1.5 1.9c.4-.5.9-.9 1.4-1.3.5-.2 1-.6 1.4-1z"/></g><g><path class="st10" d="M477.7 191.6h-.8c-.3-1.1-1.3-1.9-2.4-1.9h-2.2c-1.1 0-2.1.8-2.4 1.9h-4.4c-.8-3.2-3.7-5.4-7-5.4h-3.8V184h4.3c1.4 0 2.5-1.1 2.5-2.5V151c0-1.4-1.1-2.5-2.5-2.5h-16.2c-1.4 0-2.5 1.1-2.5 2.5v30.5c0 1.4 1.1 2.5 2.5 2.5h4.3v2.2h-3.8c-3.3 0-6.2 2.2-7 5.4h-12.1c-4.1 0-7.4 3.3-7.4 7.4v38.4c0 4.1 3.3 7.4 7.4 7.4h53.4c4.1 0 7.4-3.3 7.4-7.4V199c.1-4.1-3.3-7.4-7.3-7.4z"/><circle class="st20" cx="451" cy="193.2" r="3.5"/><path class="st20" d="M442.6 204h36.5v34.7h-36.5V204z"/><path class="st12" d="M479 204h-36.4v34.7H459l20-34.7z"/><circle class="st9" cx="431" cy="221.2" r="8.6"/><path class="st6" d="M423.5 216.9c2.4-4.1 7.6-5.5 11.7-3.1l-8.6 14.9c-4.1-2.5-5.5-7.7-3.1-11.8z"/><circle class="st29" cx="430.9" cy="221.2" r="4.2"/><path class="st9" d="M423.1 232.5h1.1c1 0 1.8.8 1.8 1.8v1.1c0 1-.8 1.8-1.8 1.8h-1.1c-1 0-1.8-.8-1.8-1.8v-1.1c.1-1 .9-1.8 1.8-1.8zM428.3 232.5h4.3c1 0 1.8.8 1.8 1.8v1.1c0 1-.8 1.8-1.8 1.8h-4.3c-1 0-1.8-.8-1.8-1.8v-1.1c.1-1 .9-1.8 1.8-1.8zM436.8 232.5h1.1c1 0 1.8.8 1.8 1.8v1.1c0 1-.8 1.8-1.8 1.8h-1.1c-1 0-1.8-.8-1.8-1.8v-1.1c0-1 .8-1.8 1.8-1.8z"/><path class="st6" d="M422.4 237.1c-.6 0-1-.4-1-1v-2.7c0-.6.4-1 1-1h2.6l-2.6 4.7zm8.3 0h-3.2c-.6 0-1-.4-1-1v-2.7c0-.6.4-1 1-1h5.8l-2.6 4.7zm5.3 0c-.6 0-1-.4-1-1v-2.7c0-.6.4-1 1-1h2.7l-2.7 4.7z"/><path class="st9" d="M436.8 205.2h1.1c1 0 1.8.8 1.8 1.8v1.1c0 1-.8 1.8-1.8 1.8h-1.1c-1 0-1.8-.8-1.8-1.8V207c0-1 .8-1.8 1.8-1.8z"/><path class="st6" d="M436 209.9c-.6 0-1-.4-1-1v-2.6c0-.6.4-1 1-1h2.7l-2.7 4.6z"/><path class="st1" d="M426.8 251.5c.4-2.2.1-5 1.1-8.6 4.4-15.1-1.4-20.2-1.5-25.3 0-2.8-9.6 5.1-9.6 5.1v-18.9s-10.4 6-11 8.5c-.4 1.4-.4 2.9.2 4.3-1.1 1-1.8 2.3-2.1 3.8-.4 1.3-.3 2.7.1 4.1-1 1-1.6 2.3-1.9 3.6-.5 1.5-.4 3.1.3 4.5-.7.4 2.9 13.2 4.4 18.5l-3.6 83.2 25.7.4-2.1-83.2z"/><path class="st1" d="M413.3 239.6c-.7-2.4 1.2-7.5 2.3-12.4.8-3.3 1.4-6.6 1.8-10 .6-3.2 5-11 10.1-10s.7 7.7-.1 15.1c-.2 1.9 1.2 4.1 1.3 6.1.1 3.6 0 7.2-.2 10.8-.7 3.2-13.7 5.4-15.2.4z"/><path class="st13" d="M423.6 213.9s.4-4 1-4.7.9-1.8 3.7-.9 1.5 3.7 1.5 3.7l-.9 3.6-5.3-1.7z"/><path class="st14" d="M423.5 214.4c-.3-.7.4-3.8.9-4.5s.9-1.8 3.7-.8 1.5 3.6 1.5 3.6l-.9 3.4c-.8-.4-1.7-.7-2.6-1-1.2-.4-2.4-.4-2.6-.7z"/><path class="st5" d="M401.7 265.4l29.1.9 1.1 69.8-31.3-1 1.1-69.7z"/><path class="st5" d="M403.5 258.5l29.2.9c2.1.1 3.8 1.8 3.7 3.9l-.6 19.1c-.1 2.1-1.8 3.8-3.9 3.7l-29.2-.9c-2.1-.1-3.8-1.8-3.7-3.9l.6-19.1c.1-2.1 1.8-3.8 3.9-3.7z"/><ellipse transform="matrix(.07272 -.9974 .9974 .07272 129.648 678.133)" class="st12" cx="429.5" cy="269.3" rx="2.9" ry="2.9"/></g><g><path class="st6" d="M341.7 226.4c.4-2.4.1-4.8-.8-7-5-2.7-6.5-8 1.2-11.5 3.6-1.6 18.4-5.1 25.4-4.3 2 .2 3.4 3.4 3.6 3.9 1.2 2.1 4.3 5.1-.4 10.8-1.6 2.1-1.2 12.2-1.2 12.2l-27.8-4.1z"/><path class="st5" d="M370.8 226.5l-3.3 46.9-30.5-2.1 3.3-46.9 30.5 2.1z"/><path class="st30" d="M371.8 230.4l-7.9 113.2-35.2-2.5 7.9-113.1 35.2 2.4z"/><ellipse transform="matrix(.07272 -.9974 .9974 .07272 72.47 567.687)" class="st12" cx="341.5" cy="244.9" rx="2.9" ry="2.9"/><ellipse transform="matrix(.07272 -.9974 .9974 .07272 80.068 561.584)" class="st12" cx="342" cy="237.7" rx="2.9" ry="2.9"/><ellipse transform="matrix(.07272 -.9974 .9974 .07272 65.194 573.515)" class="st12" cx="341" cy="251.7" rx="2.9" ry="2.9"/><path class="st6" d="M347.1 210c-1.6-1-5.7-.8-9.5-.9-2.5-.1-5.1-.4-7.6-.9-2.4-.2-9 1.3-9.4 5.2s5.4 2.1 10.9 3.1c1.4.3 2.7 1.8 4.1 2.2 2.6.8 5.2 1.6 7.9 2.1 2.5.2 6.9-8.7 3.6-10.8z"/><path class="st6" d="M326.2 213.1c-1.2-.2-2.4-.3-3.6-.3-.7.1-1.5.1-1.4 1.7s2.4 1.4 2.4 1.4l2.8.1-.2-2.9z"/><path class="st6" d="M326.5 213.2c-1.1-.3-2.3-.4-3.5-.3-.6.2-1.5.2-1.3 1.7s2.3 1.4 2.3 1.4l2.7.1c-.1-.5-.2-1-.2-1.5 0-.6.3-1.2 0-1.4zm41.6-37.3h-.2c-1.8 0-3.5 1.2-4.1 2.9v-1.2c0-2.4-2-4.4-4.4-4.4h-.9c-2.4 0-4.4 2-4.4 4.4v.2c0-2.4-2-4.4-4.4-4.4h-.9c-2.4 0-4.4 2-4.4 4.4v.4c-.6-1.9-2.3-3.2-4.2-3.2h-.9c-2.4 0-4.4 2-4.4 4.4v13.3c0 2.4 2 4.4 4.4 4.4h.9c2.1 0 3.9-1.5 4.3-3.5.4 2 2.2 3.5 4.3 3.5h.9c2.4 0 4.4-2 4.4-4.4 0 2.4 2 4.4 4.4 4.4h.9c2.2 0 4-1.6 4.4-3.8.6 1.8 2.3 3 4.2 3h.2c2.4 0 4.4-2 4.4-4.4v-11.7c-.1-2.4-2.1-4.3-4.5-4.3z"/><path class="st6" d="M339.6 211.4s-7.8-8.7-8.1-13.3 2.4-21.8 5-21.1 8.8 26.3 7.6 28.1-4.5 6.3-4.5 6.3z"/><path class="st10" d="M371.2 207.1l-35.3 2c-2 .1-3.7-1.4-3.8-3.4l-1-17.5c-.1-2 1.4-3.7 3.4-3.8l35.3-2c2-.1 3.7 1.4 3.8 3.4l1 17.5c.1 2-1.4 3.7-3.4 3.8z"/><path class="st17" d="M369.9 205.5l-15.5.9c-1.6.1-2.9-1.1-3-2.7l-.9-15.5c-.1-1.6 1.1-2.9 2.7-3l15.5-.9c1.6-.1 2.9 1.1 3 2.7l.9 15.5c.1 1.5-1.1 2.9-2.7 3z"/><path class="st16" d="M342.8 205.7l-6.6.4-1.1-19.1 6.6-.4 1.1 19.1z"/><path class="st0" d="M349 205.4l-6.6.4-1.1-19.1 6.6-.4 1.1 19.1z"/><path class="st5" d="M335.8 206.5l-1.1-19.9 14.1-.8 1.1 19.9-14.1.8zm-.2-19.1l1 18.2 12.4-.6-1-18.2-12.4.6z"/><path class="st17" d="M342.4 202.5c-1.6.1-2.9-1.1-3-2.6l-.4-7.6c-.1-1.5 1.1-2.9 2.6-3 1.5-.1 2.9 1.1 3 2.6l.4 7.6c.1 1.6-1.1 2.9-2.6 3z"/><path class="st18" d="M341.6 189.2c1.6-.1 2.9 1.1 3 2.6l.4 7.6c.1 1.6-1.1 2.9-2.6 3l-.8-13.2z"/><ellipse transform="rotate(-3.18 342.217 199.599) scale(1.00004)" class="st10" cx="342.2" cy="199.6" rx="1.9" ry="1.9"/><ellipse transform="rotate(-3.18 341.807 192.212) scale(1.00004)" class="st10" cx="341.8" cy="192.2" rx="1.9" ry="1.9"/><ellipse transform="rotate(-3.18 370.312 200.09) scale(1.00004)" class="st10" cx="370.3" cy="200.1" rx="1.1" ry="1.1"/><ellipse transform="rotate(-3.18 367.336 200.255) scale(1.00004)" class="st10" cx="367.3" cy="200.2" rx="1.1" ry="1.1"/><ellipse transform="rotate(-3.18 364.37 200.42) scale(1.00004)" class="st10" cx="364.4" cy="200.4" rx="1.1" ry="1.1"/><ellipse transform="rotate(-3.18 368.562 197.341) scale(1.00004)" class="st10" cx="368.5" cy="197.3" rx="1.1" ry="1.1"/><ellipse transform="rotate(-3.18 365.586 197.506) scale(1.00004)" class="st10" cx="365.6" cy="197.5" rx="1.1" ry="1.1"/><ellipse transform="rotate(-3.18 362.62 197.67) scale(1.00004)" class="st10" cx="362.6" cy="197.7" rx="1.1" ry="1.1"/><ellipse transform="rotate(-3.18 370.006 194.735) scale(1.00004)" class="st10" cx="370" cy="194.7" rx="1.1" ry="1.1"/><ellipse transform="rotate(-3.18 367.038 194.889) scale(1.00004)" class="st10" cx="367" cy="194.9" rx="1.1" ry="1.1"/><ellipse transform="rotate(-3.18 364.062 195.064) scale(1.00004)" class="st10" cx="364" cy="195.1" rx="1.1" ry="1.1"/><ellipse transform="rotate(-3.18 368.27 192.065) scale(1.00004)" class="st10" cx="368.3" cy="192.1" rx="1.1" ry="1.1"/><ellipse transform="rotate(-3.18 365.295 192.23) scale(1.00004)" class="st10" cx="365.3" cy="192.2" rx="1.1" ry="1.1"/><ellipse transform="rotate(-3.18 362.326 192.394) scale(1.00004)" class="st10" cx="362.3" cy="192.4" rx="1.1" ry="1.1"/><ellipse transform="rotate(-3.18 369.696 189.15) scale(1.00004)" class="st10" cx="369.7" cy="189.1" rx="1.1" ry="1.1"/><ellipse transform="rotate(-3.18 366.731 189.324) scale(1.00004)" class="st10" cx="366.7" cy="189.3" rx="1.1" ry="1.1"/><ellipse transform="rotate(-3.18 363.754 189.48) scale(1.00004)" class="st10" cx="363.7" cy="189.5" rx="1.1" ry="1.1"/><ellipse transform="rotate(-3.18 361.392 200.584) scale(1.00004)" class="st10" cx="361.4" cy="200.6" rx="1.1" ry="1.1"/><ellipse transform="rotate(-3.18 358.427 200.757) scale(1.00004)" class="st10" cx="358.4" cy="200.7" rx="1.1" ry="1.1"/><ellipse transform="rotate(-3.18 359.643 197.834) scale(1.00004)" class="st10" cx="359.6" cy="197.8" rx="1.1" ry="1.1"/><ellipse transform="rotate(-3.18 361.107 195.227) scale(1.00004)" class="st10" cx="361.1" cy="195.2" rx="1.1" ry="1.1"/><ellipse transform="rotate(-3.18 358.14 195.391) scale(1.00004)" class="st10" cx="358.1" cy="195.4" rx="1.1" ry="1.1"/><ellipse transform="rotate(-3.18 359.362 192.559) scale(1.00004)" class="st10" cx="359.3" cy="192.5" rx="1.1" ry="1.1"/><ellipse transform="rotate(-3.18 360.798 189.653) scale(1.00004)" class="st10" cx="360.8" cy="189.6" rx="1.1" ry="1.1"/><ellipse transform="rotate(-3.18 357.832 189.818) scale(1.00004)" class="st10" cx="357.8" cy="189.8" rx="1.1" ry="1.1"/><ellipse transform="rotate(-3.18 368.872 202.926) scale(1.00004)" class="st10" cx="368.9" cy="202.9" rx="1.1" ry="1.1"/><ellipse transform="rotate(-3.18 365.895 203.08) scale(1.00004)" class="st10" cx="365.9" cy="203.1" rx="1.1" ry="1.1"/><ellipse transform="rotate(-3.18 362.928 203.255) scale(1.00004)" class="st10" cx="362.9" cy="203.2" rx="1.1" ry="1.1"/><circle class="st10" cx="349.2" cy="223.7" r="1.1"/><ellipse transform="rotate(-3.18 356.597 198.002) scale(1.00004)" class="st10" cx="356.6" cy="198" rx="1.1" ry="1.1"/><ellipse transform="rotate(-3.18 356.305 192.737) scale(1.00004)" class="st10" cx="356.3" cy="192.7" rx="1.1" ry="1.1"/><ellipse transform="rotate(-3.18 355.382 200.927) scale(1.00004)" class="st10" cx="355.4" cy="200.9" rx="1.1" ry="1.1"/><ellipse transform="rotate(-3.18 353.632 198.178) scale(1.00004)" class="st10" cx="353.6" cy="198.2" rx="1.1" ry="1.1"/><ellipse transform="rotate(-3.18 355.074 195.56) scale(1.00004)" class="st10" cx="355.1" cy="195.6" rx="1.1" ry="1.1"/><ellipse transform="rotate(-3.18 353.339 192.891) scale(1.00004)" class="st10" cx="353.3" cy="192.9" rx="1.1" ry="1.1"/><ellipse transform="rotate(-3.18 354.764 189.987) scale(1.00004)" class="st10" cx="354.8" cy="190" rx="1.1" ry="1.1"/><ellipse transform="rotate(-3.18 356.907 203.587) scale(1.00004)" class="st10" cx="356.9" cy="203.6" rx="1.1" ry="1.1"/><ellipse transform="rotate(-3.18 353.94 203.751) scale(1.00004)" class="st10" cx="353.9" cy="203.7" rx="1.1" ry="1.1"/><ellipse transform="rotate(-3.18 367.97 186.64) scale(1.00004)" class="st10" cx="368" cy="186.6" rx="1.1" ry="1.1"/><ellipse transform="rotate(-3.18 364.994 186.813) scale(1.00004)" class="st10" cx="365" cy="186.8" rx="1.1" ry="1.1"/><ellipse transform="rotate(-3.18 362.026 186.969) scale(1.00004)" class="st10" cx="362" cy="187" rx="1.1" ry="1.1"/><ellipse transform="rotate(-3.18 359.061 187.142) scale(1.00004)" class="st10" cx="359" cy="187.1" rx="1.1" ry="1.1"/><ellipse transform="rotate(-3.18 356.005 187.312) scale(1.00004)" class="st10" cx="356" cy="187.3" rx="1.1" ry="1.1"/><ellipse transform="rotate(-3.18 353.038 187.476) scale(1.00004)" class="st10" cx="353" cy="187.5" rx="1.1" ry="1.1"/><path class="st6" d="M368.1 175.9h-.2c-1.8 0-3.5 1.2-4.1 2.9v-1.2c0-2.4-2-4.4-4.4-4.4h-.9c-2.4 0-4.4 2-4.4 4.4v.2c0-2.4-2-4.4-4.4-4.4h-.9c-2.4 0-4.4 2-4.4 4.4v.4c-.6-1.9-2.3-3.2-4.2-3.2h-.9c-1.8 0-3.4 1.1-4.1 2.8v1.9c0 2.4 2 4.8 4.4 4.8h1.3c2.1 0 3.5-1.9 3.9-3.9.4 2 2.2 3.5 4.3 3.5h.9c2.4 0 4.4-2 4.4-4.4 0 2.4 2 4.4 4.4 4.4h.9c2.2 0 4-1.6 4.4-3.8.6 1.8 2.3 3 4.2 3h.2c1.8 0 3.4-1.1 4.1-2.8v-.3c-.1-2.4-2.1-4.3-4.5-4.3z"/></g><g><ellipse transform="rotate(-7.987 295.958 160.995)" class="st10" cx="295.9" cy="161" rx="15.9" ry="15.9"/><path class="st11" d="M286.2 196c3.3.5 17.8.9 17.8.9s10.4-4.7 11.8-5.4c1.4-.7 2.2-2.1 2.1-3.7l-.7-4.8c-.4-2.9-3.1-4.9-6-4.5l-26.2 3.7c-2.9.4-4.9 3.1-4.5 6l.6 4c.4 2.5 1.8 3.3 5.1 3.8z"/><path class="st21" d="M301.2 240.7l11.7-1.6-5.1-52.4-16.1 2.3 9.5 51.7z"/><path class="st15" d="M311.5 161.2l-30.1 4.2c-1.3.2-2.5-.7-2.7-2-.2-1.3.7-2.5 2-2.6l30.1-4.2c1.3-.2 2.5.7 2.7 2 .1 1.3-.7 2.5-2 2.6z"/><path class="st20" d="M287.2 195.4l16-4.8-2.7-19.1-16 4.8c-2.9.9-5.1 3.6-4.7 6l1.4 10.3c.4 2.4 3.1 3.7 6 2.8z"/><path class="st12" d="M303.2 190.7l11.8.9c1.9.1 3.2-1.7 2.9-4.1l-1.4-10.3c-.3-2.4-2.2-4.5-4.1-4.7l-11.8-.9 2.6 19.1z"/><path class="st17" d="M313.5 158.6c-.2-1.3-1.4-2.2-2.6-2l-30.1 4.2c-1.3.2-2.2 1.4-2 2.6l34.7-4.8z"/><ellipse transform="rotate(-7.987 307.089 239.873)" class="st22" cx="307.1" cy="239.9" rx="6" ry="1.6"/><path class="st1" d="M295.5 206.4c.1-1.7-1.9-4.8-3.4-7.9-1-2.1-1.9-4.2-2.6-6.4-.9-2-4.9-6.6-8.1-5.1s.7 5.2 2.2 10c.4 1.2-.2 2.9 0 4.2.5 2.4 1 4.8 1.7 7.1 1 2.1 9.9 1.6 10.2-1.9z"/><path class="st1" d="M284.6 206.4c.3-3.8 1.4-2.2 4.4-5.4.9-5.2 6.1-4.4 10.5-5l9-4c1.6-.7 3.5 0 4.2 1.7.5 1.1.3 2.3-.4 3.2 1.8.2 3.1 1.7 2.9 3.5 0 .5-.2 1-.5 1.5 1.7.3 2.9 1.9 2.6 3.7-.1.6-.4 1.2-.8 1.7 1.2 0 2.3.8 2.7 2 .2.9.1 1.8-.4 2.6-.5 1-18.8 11.7-20.1 11.6-2.4-.2-5.6 5.1-5.6 5.1l-10.6-17c.1-.1 1.8-1.3 2.1-5.2z"/><path class="st5" d="M301.9 226.6l-28.1 31.5-19.4-17.3 28.1-31.5 19.4 17.3z"/><path class="st31" d="M201.9 335.6L301.5 231l-23.6-21-119.7 117.5 43.7 8.1z"/><ellipse transform="rotate(-48.287 271.349 225.93)" class="st12" cx="271.3" cy="225.9" rx="2.6" ry="2.6"/><ellipse transform="rotate(-48.287 276.625 221.123)" class="st12" cx="276.6" cy="221.1" rx="2.6" ry="2.6"/><ellipse transform="rotate(-48.226 266.254 230.656)" class="st12" cx="266.3" cy="230.7" rx="2.6" ry="2.6"/><path class="st13" d="M284.9 190.8c-.3-1.1-.8-2.1-1.3-3-.5-.4-.9-1.1-2.6-.1-.8.5-1.1 1.6-.6 2.4.1.1.1.2.2.2l1.1 2.2 3.2-1.7z"/><path class="st14" d="M285 191.1c-.1-1.1-.6-2-1.3-2.9-.5-.4-.9-1-2.5 0-.8.4-1.1 1.5-.7 2.3.1.1.1.2.2.3l1.1 2.2c.5-.4 1-.7 1.6-1 .6-.2 1.1-.5 1.6-.9z"/></g></svg>