<svg xmlns="http://www.w3.org/2000/svg" viewBox="0 0 960 300">
  <title>newsEvents</title>
  <path fill="#1396cc" d="M-.24-.05h960v300h-960z"/>
  <path d="M486 47.78c0 12.62-7 22.82-15.45 22.8s-15.34-10.28-15.3-22.89 7-22.82 15.45-22.8c6.26 0 11.37 10.21 14 13.56s1.3 6.01 1.3 9.33z" fill="#c3996b"/>
  <path fill="#a41d39" d="M465.8 75.42l9.53-3.58 8.53-3.2-18.02-4.88-3.96 9.15 3.92 2.51z"/>
  <path d="M494.33 197.6l-61.7-.19.24-80.41 7.9-11.64 33.13.1S491.66 125 491.64 131s2.69 66.6 2.69 66.6z" fill="#3f291b" stroke="#3f291b" stroke-miterlimit="10"/>
  <path d="M468.15 72.85s1.85 1.33 6 4a24.83 24.83 0 0 0 8.94 3.39l-15 5.18-3.23-9.93z" fill="#a41d39"/>
  <path d="M481.54 74.82c.1 1.43-7 2-9.14 3.21s-3.09 4.65-4.5 4.51c-2.75-.27-4.93-5.53-5-6.47-.1-1.43 4-2.87 9.14-3.21s9.4.54 9.5 1.96z" fill="#d41c53"/>
  <path d="M468.88 106.57h5.34s15.91 21.22 15.89 27.82-21.23-27.82-21.23-27.82z" fill="#f1f1f2"/>
  <path d="M475.64 46.54c.41-.43 3.83-3.82 5-4.24a25.61 25.61 0 0 1 4.29-.67 2.45 2.45 0 0 1 1.24 0 1.42 1.42 0 0 1 .06 1.57 7.81 7.81 0 0 1-1.21.21c-.71.12-3.6-.25-4.53.3s-4.18 4.13-4.7 4a.7.7 0 0 1-.15-1.17z" fill="#8a5d3b"/>
  <path d="M486.35 54.3a3.73 3.73 0 0 1-4.35 1.9c-3.14-.73-3.7-2.82-5.48-4.07-.06-1.51 3-4.15 5.51-5.79s2.89.56 3.88 1.46.44 6.5.44 6.5z" fill="#a87c4f"/>
  <path d="M476.72 52.2s1.55-1.4 3.34-2.85c.84-.51 4.22-1.83 4.87-1.56a4.55 4.55 0 0 1 2 2.6 5.77 5.77 0 0 1-.25 2.61c-.41 1-.12 1.31-3.09 1.3s-6.87-2.1-6.87-2.1z" fill="#f1f1f2"/>
  <ellipse cx="485.55" cy="50.63" rx="2.88" ry="1.48" transform="rotate(-89.75 485.567 50.609)" fill="#754c28"/>
  <path d="M487 50.67a1.56 1.56 0 0 1-3 0c0-1.61.67-2.91 1.49-2.9s1.51 1.29 1.51 2.9z" fill="#623a17"/>
  <ellipse cx="486.09" cy="50.38" rx="1.91" ry=".75" transform="rotate(-89.75 486.102 50.362)" fill="#3f291b"/>
  <path d="M484.93 49.72a1.24 1.24 0 0 1-.59 1 1.46 1.46 0 0 1 .06-1.19 1.24 1.24 0 0 1 .59-1 1.46 1.46 0 0 1-.06 1.19z" fill="#f1f1f2"/>
  <path d="M476.72 52.12s5.12-3.34 6.81-3.84 2.41.07 3.07-.34.45-.55.45-.55-2.18.08-3.13 0-3.16 1.15-3.16 1.15zm-.18.01a67.55 67.55 0 0 0 7.22 2 14.09 14.09 0 0 0 2.69-.19c.15 0 .66.58.19.67-.66.13-1.56.32-2.05.49-.85.28-2.17-.29-3.24-.65s-4.81-2.32-4.81-2.32z" fill="#8a5d3b"/>
  <rect x="472.19" y="66.79" width="10.13" height="3.87" rx="1.67" ry="1.67" transform="rotate(.18 468.02 66.11)" fill="#f1f1f2"/>
  <path d="M486 39.44a4.79 4.79 0 0 0-2.83.78 5.57 5.57 0 0 0-.23 1c-.14-.57-.16-1.44-.57-1.55-.62-.15-2.89 0-3 .33a1.45 1.45 0 0 1-1.09.58c-1.68-.14-6.26 3-6.8 3.37a1.39 1.39 0 0 0 .34 2.06c.74.55 5.08-3 6.34-3.22s3.14.7 4.42.66 4 1.81 4.21 1c.5-1.91.84-5.01-.79-5.01z" fill="#8a5d3b"/>
  <path fill="#3f291b" stroke="#3f291b" stroke-miterlimit="10" d="M476.87 110l-34.64-2.9 3.08-14.17 3.86-1.01 26.39 7.59 1.31 10.49z"/>
  <path d="M481.32 82.32l-9.66 1.36a.81.81 0 0 1-1-.87l.14-1.81a1.34 1.34 0 0 1 1.12-1.16l9.66-1.36a.81.81 0 0 1 1 .87l-.12 1.8a1.34 1.34 0 0 1-1.14 1.17z" fill="#f1f1f2"/>
  <path d="M485.07 64a6.1 6.1 0 0 1 2.14-.63c1.22-.25 1.71.68 3.42-1.65S483.5 52 482.75 50c-.53-1.43 1.11-3.38.76-8.06s-2.27-9.25-16-9.29H466l-.23-6.86S435.08 20.45 432 35.87s-2.18 24.54 6.9 37.73a51.32 51.32 0 0 0 6 7.3c-.17 9.53-.84 21.32 1.38 21.42 3.43.15 24.56.08 24.56.08a68 68 0 0 1-.34-9.69s16.83-.19 16.49-3.55-1.92-5.25-.74-5.69.12-3.45-1.79-3.37c-1.14 0-8.08 1.33-11.33-.54-1.37-.79-8-2.4-6.94-4.52s.69-.32 6.77-3.56 9.34-2.2 10.74-2.42.5-1.29.35-1.73c-.29-.86-1.15-1.76-1-2 .51-.64 1.47-.93 2.02-1.33z" fill="#c3996b"/>
  <ellipse cx="482.72" cy="63.23" rx="2.35" ry=".73" transform="rotate(-11.24 482.798 63.26)" fill="#a87c4f"/>
  <path d="M480.25 40.4a4.79 4.79 0 0 0-2.83.78 5.57 5.57 0 0 0-.23 1c-.14-.57-.16-1.44-.57-1.55-.62-.15-2.89 0-3 .33a1.45 1.45 0 0 1-1.09.58c-1.68-.14-6.26 3-6.8 3.37a1.39 1.39 0 0 0 .34 2.06c.74.55 5.08-3 6.34-3.22s3.14.7 4.42.66 4 1.81 4.21 1c.5-1.91.85-5.01-.79-5.01z" fill="#8a5d3b"/>
  <path d="M479.87 51.26c1.17 1.16-.44 2.18-1.16 3-1 1.16-1.21 2.63-4.35 1.9s-3.7-2.82-5.48-4.07c-.06-1.51 3-4.15 5.51-5.79s2.89.56 3.88 1.46a6.18 6.18 0 0 1 1.6 3.5z" fill="#a87c4f"/>
  <path d="M469.08 52.18s1.55-1.4 3.34-2.85a17.38 17.38 0 0 1 4.7-1.39c.73 0 2 1.4 2.17 2.43s.18.63.58 1a1.11 1.11 0 0 1-.29 1.43.43.43 0 0 0-.58.2c-.41 1-.12 1.31-3.09 1.3s-6.83-2.12-6.83-2.12z" fill="#f1f1f2"/>
  <ellipse cx="477.2" cy="50.84" rx="3.05" ry="2.19" transform="rotate(-89.8 477.208 50.832)" fill="#754c28"/>
  <path d="M479.39 50.62c0 1.56-2.2 1-2.2 1s-2.19.54-2.19-1.02 1-2.82 2.2-2.81 2.19 1.27 2.19 2.83z" fill="#623a17"/>
  <ellipse cx="477.99" cy="50.34" rx="1.86" ry="1.15" transform="rotate(-89.8 477.998 50.33)" fill="#3f291b"/>
  <path d="M476.76 49.61a1.12 1.12 0 0 1-.89.92 1.05 1.05 0 0 1 0-1.25 1.12 1.12 0 0 1 .89-.92 1.05 1.05 0 0 1 0 1.25z" fill="#f1f1f2"/>
  <path d="M469.08 52.1s5.12-3.34 6.81-3.84 2.41.07 3.07-.34.45-.55.45-.55-2.18.08-3.13 0-3.16 1.15-3.16 1.15zm-.18.01a67.55 67.55 0 0 0 7.22 2 14.09 14.09 0 0 0 2.69-.19c.15 0 .66.58.19.67-.66.13-1.56.32-2.05.49-.85.28-2.17-.29-3.24-.65s-4.81-2.32-4.81-2.32z" fill="#8a5d3b"/>
  <path d="M500.46 94.83c1.29-3.68 4.92-2.46 8.19-2.4l7-1.81a2.36 2.36 0 0 1 2.21 4c.46.12-7.12 2.69-12.39 2.89-3.87.14-6.07-1.86-5.01-2.68z" fill="#a87c4f"/>
  <path d="M513.41 109.87l-6.05.84a3 3 0 0 1-3.22-2.77l-3.44-24.63a3 3 0 0 1 2.3-3.54l6.05-.84c1.53-.21 5.77 2.41 5.77 2.41l.88 25a3 3 0 0 1-2.29 3.53z" fill="#f16922"/>
  <path d="M523.1 101a2.36 2.36 0 0 0-1.86-3.71A2.36 2.36 0 0 0 519 94a2.36 2.36 0 0 0-3.29-3.17l-6.15 3.79a19.73 19.73 0 0 0-5.56 2.51 29 29 0 0 1-2.11-4.3c-.85-1.37-4.24-4.29-6.43-2.93s1 3.7 2.63 7c.41.83.14 2.14.44 3.05.42 1.27.92 7.62 2.5 10.36 2.43 4.22.52 9.48.52 9.48h16s-2.79-7.12 0-9.27c2.2-1.69 4.53-3.55 6-4.84a3.2 3.2 0 0 0 1.32-3.21c-.18-1.47-.87-1.56-1.77-1.47z" fill="#c3996b"/>
  <path fill="#f1f1f2" d="M517.86 113.665l.412 27.467-17.768.267-.413-27.467z"/>
  <path d="M499 117.06l-.79 29.76-32-29s-8.1-8.16-17 .88-1.44 16.57-1.44 16.57a355.61 355.61 0 0 0 26.58 29.5c12.15 11.92 38.19 17.18 41.33 9.33a52.49 52.49 0 0 0 3.7-14.42c.69-8.82.61-32.57.54-42.27-.23-1.29-20.92-.35-20.92-.35z" fill="#3f291b" stroke="#3f291b" stroke-miterlimit="10"/>
  <circle cx="517.2" cy="124.05" r="1.69" transform="rotate(-.86 515.419 123.794)" fill="#f7bd5e"/>
  <circle cx="517.14" cy="119.86" r="1.69" transform="rotate(-.86 515.449 119.797)" fill="#f7bd5e"/>
  <circle cx="517.26" cy="128.06" r="1.69" transform="rotate(-.86 516.055 127.796)" fill="#f7bd5e"/>
  <path d="M498.4 92.28a9.63 9.63 0 0 0-1.26-2c-.39-.26-.74-.7-1.87.21a1.31 1.31 0 0 0-.06 2l1 1.53z" fill="#f1cf95"/>
  <path d="M498.53 92.49a4.22 4.22 0 0 0-1.21-2c-.38-.25-.72-.67-1.85.24a1.25 1.25 0 0 0-.09 1.94l1 1.46a7.69 7.69 0 0 1 1.05-.92 4 4 0 0 0 1.1-.72z" fill="#e5bb8c"/>
  <rect x="488.76" y="63.39" width="18.73" height="17.12" rx="3.18" ry="3.18" transform="rotate(-7.94 498.064 71.92)" fill="#a6a8ab"/>
  <path fill="#0cb4de" d="M475.73 109.85l-5.05 3.87-2.25-8.58 2.21-.92 4.59 3.26.5 2.37z"/>
  <path d="M473 108.24c-.61.34-.14 2.5.84 5.43 3.81 5.87 16.7 25.54 16.7 25.54l-.3-5.74s-2.73-4.79-6-10.2C479.7 116 474.2 107.54 473 108.24z" fill="#0cb4de"/>
  <path fill="#3f291b" stroke="#3f291b" stroke-miterlimit="10" d="M472.24 114.63l-34.64-7.53 3.08-14.17 3.86-1.01 26.38 7.59 1.32 15.12z"/>
  <path fill="#bbbdbf" d="M492.197 60.305l44.113-6.153 3.437 24.642-44.113 6.152z"/>
  <path fill="#d0d2d3" d="M565.28 95.75l-41.03-13.52-3.85-27.58 35.76-24.23 9.12 65.33z"/>
  <ellipse cx="560.76" cy="63.36" rx="3.39" ry="32.71" transform="rotate(-7.94 560.696 63.381)" fill="#bbbdbf"/>
  <path d="M479.6 17.4a6.11 6.11 0 0 0-3 .8 4.49 4.49 0 0 0-4.3-3.6 4.38 4.38 0 0 0-2.5.8 7.53 7.53 0 0 0-6.1-3.1 7.81 7.81 0 0 0-6.2 3.2 4.52 4.52 0 0 0-2.6-.9 4.34 4.34 0 0 0-4.3 3.9 7.23 7.23 0 0 0-4.9-2 7 7 0 0 0-6.8 5.4 7.31 7.31 0 0 0-3.3-.8 6.82 6.82 0 0 0-6.8 6h-.1a7.6 7.6 0 0 0-7.6 7.6 7.49 7.49 0 0 0 2.6 5.7 6.1 6.1 0 0 0-.5 9.6 5.82 5.82 0 0 0-.3 1.9 5.91 5.91 0 0 0 2.4 4.7 6 6 0 0 0-.9 3.3 6.23 6.23 0 0 0 6.2 6.2h.1a2.2 2.2 0 0 0-.1.8 4.48 4.48 0 0 0 4.46 4.5c.4 0 .7-.1 1-.1 5.2 8.2 10.1 12.3 11.6 12.4s.9-6.1.6-8.7-2.2-4.2-3.3-5.2a18.54 18.54 0 0 1-6.2-11.4c-.4-2.5 1.1-6.3 4.8-6.1s7 8.5 7.9 9.8 3.8 1.2 4.7-.5-2.2-14.1-2.5-16c-.1-1.1-1-6.8 2.3-10.6 2.4-2.7 8.5-3.6 11.1-4.8s7.6-1.2 10.3-1a5.38 5.38 0 0 0 2.2.4 6.1 6.1 0 0 0 0-12.2z" fill="#603813"/>
  <path d="M578.65 36.77l36.98-20.4-34.89 23.8-2.09-3.4zm7.86 40.6l38.97 16.3-40.34-12.54 1.37-3.76zm.55-20.52l59.43-7.52-58.8 11.47-.63-3.95zm-21.6-30.93l12.75-19.94-9.21 21.8-3.54-1.86zm14.94 68.04l9.22 21.8-12.75-19.94 3.53-1.86z" fill="#0cb4de"/>
  <path fill="#f69721" d="M556.95 146.82l-167.27-.51-.06 19.57 14.91.04-.46 148.41 141.72.44.46-148.41 10.64.04.06-19.58z"/>
  <path fill="#f16922" d="M404.5 165.94l140.26.43-7.33 12.47-132.97-.41.04-12.49z"/>
  <circle cx="475.2" cy="240.7" r="39.06" transform="rotate(-89.82 475.225 240.693)" fill="#0cb4de"/>
  <path d="M501.24 211.59a5.05 5.05 0 0 0-.68.64c-3.09 3.52 4 5.66 0 8.24s-5.33 1.16-5.33 1.16-2.81-.71-7.3 2.1S489 230 489 230l-4.23 10.7s-1.74 4.17 6.34 4.43-.45-6.12 5.55-9.87 6 2.37 9.76 7.8a10.15 10.15 0 0 0 7.22 4.41 39 39 0 0 0-12.4-35.88zm-25.92-9.95a39.06 39.06 0 0 0-10.69 1.46c0 2.37 1.21 5.4 7.54 5.28 10.36-.2 12.08 2.64 16.87 2.06 2.12-.26 3.88-2 5.18-3.85a38.87 38.87 0 0 0-18.9-4.95zm4.68 63.5c-8.85-5-4.17 0-12.28-4.51s1-13.42 1-13.42 1.42-3.29 6.41 3.79.39-16 .39-16 6-4 3.09-8.56-4.86-7.21-8.46-6-5.8-6.37-8.15-8.5-4.94.22-7.77-3.56a3.08 3.08 0 0 0-.34-.38 39.26 39.26 0 0 0-10.07 9.44c-.68 1-1.38 2.08-2.09 3.11-.46.75-.88 1.53-1.29 2.31-3.4 7.7-.93 19 3.34 17.79 4.71-1.34 5.87 7 8.68 8.91s9.16 8.27 6.09 11.55-12 1.85-11.62 6.61a38.93 38.93 0 0 0 28.11 12.08s13.81-9.69 4.96-14.66z" fill="#1396cc"/>
  <circle cx="659.34" cy="164.41" r="15.89" transform="rotate(-4.95 659.51 164.45)" fill="#3f291b"/>
  <path d="M676.66 196.34c-3.1 1.24-17.19 4.83-17.19 4.83s-11.15-2.24-12.68-2.62a3.83 3.83 0 0 1-2.87-3.1l-.42-4.79a5.28 5.28 0 0 1 4.8-5.72l26.32-2.28a5.28 5.28 0 0 1 5.72 4.8l.35 4.06c.22 2.48-.93 3.58-4.03 4.82z" fill="#f16922"/>
  <path fill="#6d6e70" d="M672.06 243.27l-11.81 1.02-6.75-52.2 16.24-1.41 2.32 52.59z"/>
  <rect x="641.66" y="162.11" width="35.12" height="4.69" rx="2.35" ry="2.35" transform="rotate(-4.95 659.394 164.444)" fill="#a6a8ab"/>
  <path d="M675.56 196l-16.63-1.07-1.66-19.19 16.63 1.07c3.06.2 5.74 2.35 5.95 4.79l.89 10.33c.21 2.43-2.12 4.26-5.18 4.07z" fill="#f69721"/>
  <path d="M658.93 194.93l-11.28 3.48c-1.86.57-3.56-.95-3.77-3.38l-.88-10.34c-.21-2.44 1.14-4.9 3-5.47l11.28-3.48z" fill="#f7bd5e"/>
  <path d="M641.73 166a2.35 2.35 0 0 1 2.13-2.54l30.32-2.63a2.35 2.35 0 0 1 2.54 2.13z" fill="#bbbdbf"/>
  <ellipse cx="666.17" cy="243.78" rx="6.01" ry="1.61" transform="rotate(-4.95 666.279 243.78)" fill="#808184"/>
  <path d="M670.07 216.64c-.13-1.69 1.87-4.82 3.35-7.87a60.88 60.88 0 0 0 2.61-6.36c.89-2 4.92-6.57 8.13-5.15s-.66 5.18-2.24 10c-.39 1.2.21 2.91 0 4.2a71 71 0 0 1-1.72 7.13c-.93 1.99-9.85 1.54-10.13-1.95z" fill="#c3996b"/>
  <path d="M680.88 216.63c-.31-3.83-1.44-2.21-4.37-5.37-.92-5.22-6.08-4.39-10.49-5l-9-4a3.22 3.22 0 0 0-3.86 4.89 3.21 3.21 0 0 0-2.42 4.94 3.21 3.21 0 0 0-1.83 5.35 3 3 0 0 0-2.72 2 3.08 3.08 0 0 0 .43 2.56c.54 1 18.81 11.67 20.09 11.58 2.37-.16 5.6 5.15 5.6 5.15l10.64-17s-1.76-1.27-2.07-5.1z" fill="#c3996b"/>
  <path fill="#f1f1f2" d="M683.09 219.56l28.086 31.51-19.388 17.28-28.085-31.511z"/>
  <path fill="#3f291b" stroke="#3f291b" stroke-miterlimit="10" d="M774.13 374.55L663.99 241.24l23.64-21.07 119.14 138.31-32.64 16.07z"/>
  <circle cx="694.2" cy="236.11" r="2.59" transform="rotate(-41.71 694.15 236.115)" fill="#f7bd5e"/>
  <circle cx="689.92" cy="231.3" r="2.59" transform="rotate(-41.71 689.863 231.31)" fill="#f7bd5e"/>
  <circle cx="698.3" cy="240.71" r="2.59" transform="rotate(-41.71 698.245 240.711)" fill="#f7bd5e"/>
  <path d="M680.62 201a13.11 13.11 0 0 1 1.32-3c.48-.43.87-1.08 2.57-.06a1.78 1.78 0 0 1 .45 2.68l-1.12 2.25z" fill="#f1cf95"/>
  <path d="M680.48 201.34a5.75 5.75 0 0 1 1.27-2.87c.47-.41.85-1 2.55 0a1.7 1.7 0 0 1 .49 2.6l-1.08 2.16a10.48 10.48 0 0 0-1.59-1 5.43 5.43 0 0 1-1.64-.89z" fill="#e5bb8c"/>
  <g>
    <path fill="#6d6e70" d="M599.65 149.11l-12.43-2.43-1.26 6.42 2.29.45-.91 4.65 8.13 1.59.91-4.65 2.02.39 1.25-6.42z"/>
    <path d="M585.74 154.21c-2.77-.54-4.63-2.94-4.16-5.35s3.1-3.93 5.87-3.39c1.44.28.66 2.4.23 4.58s-.5 4.44-1.94 4.16zm14.15-6.3c2.77.54 4.63 2.94 4.16 5.35s-3.1 3.93-5.87 3.39c-1.44-.28-.66-2.4-.23-4.58s.5-4.44 1.94-4.16z" fill="#3f291b"/>
    <rect x="572.26" y="155.34" width="26.08" height="69.75" rx="9.67" ry="9.67" transform="rotate(11.5 592.6 187.2)" fill="#a6a8ab"/>
    <path fill="#f69721" d="M581.2 159.79l19.284 3.773-4.012 20.501-19.284-3.773z"/>
    <path fill="#929497" d="M577.196 180.293l19.284 3.773-6.067 31.012-19.284-3.773z"/>
    <ellipse cx="583.8" cy="197.76" rx="8.24" ry="8.22" transform="rotate(-78.93 583.789 197.766)" fill="#a6a8ab"/>
    <ellipse cx="579.48" cy="185.51" rx="2.13" ry="2.13" transform="rotate(-78.93 579.478 185.515)" fill="#a6a8ab"/>
    <ellipse cx="592.57" cy="188.08" rx="2.13" ry="2.13" transform="rotate(-78.93 592.562 188.075)" fill="#a6a8ab"/>
    <rect x="572.75" y="206.1" width="4.53" height="4.54" rx="1.75" ry="1.75" transform="rotate(11.07 575.065 208.376)" fill="#a6a8ab"/>
    <rect x="577.69" y="207.37" width="7.61" height="4.54" rx="1.75" ry="1.75" transform="rotate(11.07 581.545 209.675)" fill="#a6a8ab"/>
    <rect x="585.84" y="208.67" width="4.53" height="4.54" rx="1.75" ry="1.75" transform="rotate(11.07 588.18 210.96)" fill="#a6a8ab"/>
    <path d="M591 186.69a2.12 2.12 0 0 1 3-.21l-2.8 3.22a2.14 2.14 0 0 1-.2-3.01zm-13.12-2.57a2.12 2.12 0 0 1 3-.21l-2.8 3.22a2.14 2.14 0 0 1-.2-3.01zm-.28 8.23a8.18 8.18 0 0 1 11.56-.8l-10.77 12.39a8.23 8.23 0 0 1-.79-11.59z" fill="#bbbdbf"/>
    <ellipse cx="583.78" cy="197.76" rx="4.01" ry="4" transform="rotate(-78.93 583.772 197.762)" fill="#bbbdbf" stroke="#929497" stroke-miterlimit="10"/>
    <path d="M573.29 210.35a1 1 0 0 1-.75-1.12l.51-2.58a1 1 0 0 1 1.12-.75l2.58.5zm8.01 1.57l-3-.59a1 1 0 0 1-.75-1.12l.51-2.58a1 1 0 0 1 1.12-.75l5.6 1.1zm5.07.99a1 1 0 0 1-.75-1.12l.51-2.58a1 1 0 0 1 1.12-.75l2.58.5z" fill="#bbbdbf"/>
    <path fill="#f7bd5e" d="M600.48 163.57l-19.29-3.77-4.01 20.5 7.49 1.46 15.81-18.19z"/>
    <path d="M586.54 221.87c-.29-1.95 1.78-5.73 3.24-9.38a70.81 70.81 0 0 0 2.51-7.56c.87-2.4 5.16-8 9-6.61s-.35 6-1.8 11.72c-.36 1.42.48 3.35.3 4.86a82.61 82.61 0 0 1-1.42 8.39c-.91 2.4-11.24 2.6-11.83-1.42z" fill="#e5bb8c"/>
    <path d="M597.44 201.86s1.52-2.73 2.17-3.11 1.23-1 2.93.5-.09 3.15-.09 3.15l-1.78 2.32z" fill="#fff"/>
    <path d="M595 258.28a3 3 0 1 1 1.05-4.12 3 3 0 0 1-1.05 4.12z" fill="#f7bd5e"/>
    <path d="M597.22 202.18a6.68 6.68 0 0 1 2.08-3c.63-.36 1.19-1 2.9.55a2 2 0 0 1 0 3.07l-1.74 2.2a12.11 12.11 0 0 0-1.57-1.55c-.77-.58-1.67-.98-1.67-1.27z" fill="#f1cf95"/>
    <path d="M609 235.61l-7.18-8.88s-2.14-1.33-2.8-5.73-1.83-2.44-5.46-5.86c-1.47-6-7.36-4.59-12.5-5l-10.7-3.88a3.73 3.73 0 0 0-4.06 6 3.73 3.73 0 0 0-2.41 5.91 3.73 3.73 0 0 0-1.69 6.34 3.49 3.49 0 0 0-3 2.56 3.57 3.57 0 0 0 .7 2.93c.7 1.11 22.63 12 24.09 11.78 2.72-.38 6.86 5.5 6.86 5.5L637.23 352l32.88-16z" fill="#e5bb8c"/>
    <path d="M607.34 249.91a3 3 0 1 1 1.05-4.12 3 3 0 0 1-1.05 4.12zm7.05-6.42a3 3 0 1 1 1.05-4.12 3 3 0 0 1-1.05 4.12z" fill="#f7bd5e"/>
    <path d="M612.32 246.22a3 3 0 1 1-.74-4.19 3 3 0 0 1 .74 4.19zm-9.44 6.88a3 3 0 1 1 1.05-4.12 3 3 0 0 1-1.05 4.12z" fill="#f7bd5e"/>
    <path d="M598.34 256.11a3 3 0 1 1 1.06-4.11 3 3 0 0 1-1.06 4.11z" fill="#f7bd5e"/>
  </g>
  <g>
    <circle cx="509.57" cy="175.56" r="15.89" transform="rotate(-31.8 506.51 173.73)" fill="#3f291b"/>
    <path d="M514.77 211.51c3.23-.86 16.67-6.4 16.67-6.4s7.6-8.46 8.6-9.68a3.83 3.83 0 0 0 .45-4.2l-2.49-4.09a5.28 5.28 0 0 0-7.27-1.71l-22.46 13.91a5.28 5.28 0 0 0-1.71 7.27l2.14 3.46c1.25 2.09 2.84 2.3 6.07 1.44z" fill="#f16922"/>
    <path fill="#6d6e70" d="M546.51 246.38l10.08-6.24-25.8-45.88-13.85 8.58 29.57 43.54z"/>
    <rect x="492.13" y="173.18" width="35.12" height="4.69" rx="2.35" ry="2.35" transform="rotate(148.24 509.69 175.527)" fill="#a6a8ab"/>
    <path d="M515.44 210.57l12.69-10.8L518 183.4l-12.69 10.8c-2.33 2-3.19 5.31-1.91 7.39l5.46 8.82c1.29 2.07 4.25 2.15 6.58.16z" fill="#f69721"/>
    <path d="M528.14 199.78l11.12-4c1.84-.65 2.28-2.89 1-5L534.8 182c-1.29-2.08-3.84-3.25-5.68-2.59l-11.12 4z" fill="#f7bd5e"/>
    <path d="M524.62 166.28a2.35 2.35 0 0 0-3.23-.76l-25.88 16a2.35 2.35 0 0 0-.76 3.23z" fill="#bbbdbf"/>
    <ellipse cx="551.54" cy="243.26" rx="6.01" ry="1.61" transform="rotate(-31.76 551.546 243.27)" fill="#808184"/>
    <path d="M525 230.9c-.4-3.82 1-2.44 3.32-6.08 0-5.3 5.18-5.42 9.4-6.85l8.13-5.55a3.22 3.22 0 0 1 4.68 4.11 3.21 3.21 0 0 1 3.28 4.41 3.21 3.21 0 0 1 2.77 4.93 3 3 0 0 1 3 1.49 3.08 3.08 0 0 1 0 2.6c-.34 1.08-16.37 14.9-17.64 15-2.36.27-4.56 6.08-4.56 6.08L525 249.51s.36-14.79 0-18.61z" fill="#8a5d3b"/>
    <path fill="#f1f1f2" d="M549.357 240.987l-3.679 42.05-25.87-2.264 3.678-42.05z"/>
    <path fill="#3f291b" stroke="#3f291b" stroke-miterlimit="10" d="M551.735 244.698l-10.569 120.809-31.55-2.76 10.57-120.809z"/>
    <circle cx="524.48" cy="258.67" r="2.59" transform="rotate(-85 524.515 258.654)" fill="#f7bd5e"/>
    <circle cx="525.04" cy="252.26" r="2.59" transform="rotate(-85 525.078 252.244)" fill="#f7bd5e"/>
    <circle cx="523.94" cy="264.81" r="2.59" transform="rotate(-85 523.982 264.801)" fill="#f7bd5e"/>
    <path d="M535.59 228.93c-.18-1.69-2.72-4.4-4.72-7.13a60.88 60.88 0 0 1-3.72-5.78c-1.25-1.82-6-5.56-8.93-3.58s1.59 5 4 9.4c.61 1.11.32 2.9.79 4.12a71 71 0 0 0 3 6.7c1.26 1.82 9.99-.24 9.58-3.73z" fill="#8a5d3b"/>
    <path d="M522.38 215.51a13.11 13.11 0 0 0-1.85-2.7c-.55-.33-1.05-.91-2.53.41a1.78 1.78 0 0 0 0 2.72l1.51 2z" fill="#f1cf95"/>
    <path d="M522.57 215.79a5.75 5.75 0 0 0-1.77-2.59c-.54-.31-1-.86-2.51.45a1.7 1.7 0 0 0 0 2.64l1.46 1.93a10.48 10.48 0 0 1 1.37-1.32 5.43 5.43 0 0 0 1.45-1.11z" fill="#e5bb8c"/>
  </g>
  <g>
    <path d="M477.66 191.6h-.79a2.48 2.48 0 0 0-2.39-1.86h-2.17a2.48 2.48 0 0 0-2.39 1.86h-4.35a7.22 7.22 0 0 0-7-5.42h-3.79V184h4.26a2.49 2.49 0 0 0 2.48-2.48V151a2.49 2.49 0 0 0-2.48-2.48h-16.22a2.49 2.49 0 0 0-2.48 2.48v30.51a2.49 2.49 0 0 0 2.48 2.48h4.26v2.17h-3.79a7.22 7.22 0 0 0-7 5.42h-12.06a7.46 7.46 0 0 0-7.43 7.42v38.41a7.46 7.46 0 0 0 7.43 7.43h53.43a7.46 7.46 0 0 0 7.43-7.43V199a7.46 7.46 0 0 0-7.43-7.4z" fill="#3f291b"/>
    <circle cx="451.03" cy="193.22" r="3.48" fill="#f69721"/>
    <path fill="#f69721" d="M442.58 203.99h36.55v34.69h-36.55z"/>
    <path fill="#f7bd5e" d="M479.01 203.99h-36.43v34.69h16.4l20.03-34.69z"/>
    <circle cx="430.96" cy="221.16" r="8.62" fill="#623a17"/>
    <path d="M423.49 216.85a8.59 8.59 0 0 1 11.73-3.14l-8.59 14.87a8.59 8.59 0 0 1-3.14-11.73z" fill="#8a5d3b"/>
    <circle cx="430.94" cy="221.16" r="4.19" fill="#8a5d3b" stroke="#3f291b" stroke-miterlimit="10"/>
    <rect x="421.39" y="232.5" width="4.63" height="4.63" rx="1.75" ry="1.75" fill="#623a17"/>
    <rect x="426.57" y="232.5" width="7.77" height="4.63" rx="1.75" ry="1.75" fill="#623a17"/>
    <rect x="435.02" y="232.5" width="4.63" height="4.63" rx="1.75" ry="1.75" fill="#623a17"/>
    <path d="M422.37 237.13a1 1 0 0 1-1-1v-2.68a1 1 0 0 1 1-1H425zm8.34 0h-3.16a1 1 0 0 1-1-1v-2.68a1 1 0 0 1 1-1h5.83zm5.29 0a1 1 0 0 1-1-1v-2.68a1 1 0 0 1 1-1h2.68z" fill="#8a5d3b"/>
    <rect x="435.02" y="205.23" width="4.63" height="4.63" rx="1.75" ry="1.75" fill="#623a17"/>
    <path d="M436 209.85a1 1 0 0 1-1-1v-2.65a1 1 0 0 1 1-1h2.68z" fill="#8a5d3b"/>
    <path d="M426.75 251.52c.39-2.2.09-5 1.12-8.57 4.42-15.14-1.43-20.21-1.51-25.34 0-2.82-9.58 5.13-9.58 5.13v-18.88s-10.42 6-11 8.49a6.8 6.8 0 0 0 .17 4.3 6.8 6.8 0 0 0-2.06 3.78 7.2 7.2 0 0 0 .07 4.07 7.2 7.2 0 0 0-1.87 3.62 6.32 6.32 0 0 0 .31 4.54c-.74.42 2.88 13.2 4.42 18.53l-3.56 83.25 25.74.43z" fill="#c3996b"/>
    <path d="M413.33 239.65c-.72-2.4 1.18-7.53 2.34-12.38a89.71 89.71 0 0 0 1.75-10c.65-3.18 5-11 10.08-10s.68 7.67-.09 15.06c-.19 1.85 1.22 4.12 1.28 6.05a104.64 104.64 0 0 1-.24 10.81c-.64 3.24-13.63 5.41-15.12.46z" fill="#c3996b"/>
    <path d="M423.62 213.88s.4-4 1-4.72.91-1.83 3.68-.89 1.49 3.72 1.49 3.72l-.91 3.6z" fill="#f1cf95"/>
    <path d="M423.52 214.36c-.32-.72.37-3.79.92-4.53s.9-1.75 3.66-.82 1.52 3.59 1.52 3.59l-.88 3.4a15.44 15.44 0 0 0-2.62-1c-1.19-.29-2.45-.3-2.6-.64z" fill="#e5bb8c"/>
    <path fill="#f1f1f2" d="M401.69 265.37l29.11.85 1.08 69.78-31.26-1 1.07-69.63z"/>
    <rect x="399.3" y="258.9" width="36.85" height="26.77" rx="3.83" ry="3.83" transform="rotate(1.67 417.795 272.538)" fill="#f1f1f2"/>
    <circle cx="429.53" cy="269.36" r="2.88" transform="rotate(-85.83 429.512 269.362)" fill="#f7bd5e"/>
  </g>
  <g>
    <path d="M341.66 226.39a12.89 12.89 0 0 0-.83-7c-5-2.72-6.54-8 1.21-11.5 3.58-1.61 18.44-5.07 25.42-4.27 2 .23 3.35 3.43 3.62 3.9 1.18 2.11 4.28 5.15-.39 10.79-1.65 2.13-1.19 12.19-1.19 12.19z" fill="#8a5d3b"/>
    <path fill="#f1f1f2" d="M370.847 226.488l-3.285 46.94-30.47-2.133 3.285-46.94z"/>
    <path fill="#3f291b" stroke="#3f291b" stroke-miterlimit="10" d="M371.762 230.447l-7.92 113.15-35.22-2.465 7.92-113.15z" stroke-width="1.002"/>
    <circle cx="341.53" cy="244.88" r="2.88" transform="rotate(-85.83 341.523 244.877)" fill="#f7bd5e"/>
    <circle cx="342.05" cy="237.74" r="2.88" transform="rotate(-85.83 342.043 237.74)" fill="#f7bd5e"/>
    <circle cx="341.04" cy="251.72" r="2.88" transform="rotate(-85.83 341.019 251.718)" fill="#f7bd5e"/>
    <path d="M347.13 210c-1.58-1-5.7-.75-9.46-.95a67.7 67.7 0 0 1-7.59-.86c-2.44-.2-9 1.29-9.37 5.17s5.41 2.13 10.92 3.15c1.38.26 2.72 1.76 4.11 2.22a79 79 0 0 0 7.88 2.14c2.38.13 6.77-8.77 3.51-10.87z" fill="#8a5d3b"/>
    <path d="M326.17 213.15a20.53 20.53 0 0 0-3.62-.31c-.67.15-1.51.15-1.36 1.72s2.41 1.44 2.41 1.44l2.79.15z" fill="#8a5d3b"/>
    <path d="M326.54 213.21a9 9 0 0 0-3.48-.3c-.64.16-1.45.16-1.31 1.71s2.32 1.37 2.32 1.37l2.68.14a6 6 0 0 1-.23-1.49c0-.64.23-1.29.02-1.43zm41.57-37.34h-.2a4.43 4.43 0 0 0-4.14 2.89v-1.23a4.43 4.43 0 0 0-4.41-4.41h-.92a4.43 4.43 0 0 0-4.41 4.41v.18a4.43 4.43 0 0 0-4.41-4.41h-.92a4.43 4.43 0 0 0-4.41 4.41v.43a4.43 4.43 0 0 0-4.23-3.16h-.92a4.43 4.43 0 0 0-4.41 4.41v13.33a4.43 4.43 0 0 0 4.41 4.41h.92a4.43 4.43 0 0 0 4.32-3.52 4.43 4.43 0 0 0 4.32 3.52h.92a4.43 4.43 0 0 0 4.41-4.41 4.43 4.43 0 0 0 4.41 4.41h.92a4.43 4.43 0 0 0 4.36-3.77 4.43 4.43 0 0 0 4.19 3h.2a4.43 4.43 0 0 0 4.41-4.41v-11.7a4.43 4.43 0 0 0-4.41-4.38z" fill="#8a5d3b"/>
    <path d="M339.61 211.41s-7.77-8.69-8.13-13.26 2.42-21.81 5-21.08 8.81 26.31 7.61 28.08-4.48 6.26-4.48 6.26z" fill="#8a5d3b"/>
    <rect x="331.57" y="183.44" width="42.56" height="24.68" rx="3.58" ry="3.58" transform="rotate(176.82 352.856 195.778)" fill="#3f291b"/>
    <rect x="350.95" y="184.68" width="21.23" height="21.23" rx="2.86" ry="2.86" transform="rotate(176.82 361.567 195.289)" fill="#bbbdbf"/>
    <path fill="#3f291b" d="M342.832 205.728l-6.62.368-1.059-19.06 6.62-.368z"/>
    <path fill="#623a17" d="M349.05 205.392l-6.62.368-1.058-19.06 6.62-.368z"/>
    <path d="M335.82 206.54l-1.11-19.88 14.06-.78 1.11 19.88zm-.24-19.11l1 18.25L349 205l-1-18.25z" fill="#f1f1f2"/>
    <rect x="339.18" y="189.23" width="5.65" height="13.27" rx="2.81" ry="2.81" transform="rotate(176.82 342.006 195.862)" fill="#bbbdbf"/>
    <path d="M341.63 189.24a2.83 2.83 0 0 1 3 2.66l.42 7.6a2.83 2.83 0 0 1-2.66 3z" fill="#d0d2d3"/>
    <circle cx="342.21" cy="199.58" r="1.87" transform="rotate(-3.18 342.374 199.686)" fill="#3f291b"/>
    <circle cx="341.8" cy="192.19" r="1.87" transform="rotate(-3.18 342.039 192.286)" fill="#3f291b"/>
    <circle cx="370.3" cy="200.07" r="1.12" transform="rotate(-3.18 370.484 200.106)" fill="#3f291b"/>
    <circle cx="367.33" cy="200.23" r="1.12" transform="rotate(-3.18 367.592 200.386)" fill="#3f291b"/>
    <circle cx="364.36" cy="200.4" r="1.12" transform="rotate(-3.18 364.525 200.481)" fill="#3f291b"/>
    <circle cx="368.55" cy="197.32" r="1.12" transform="rotate(-3.18 368.758 197.354)" fill="#3f291b"/>
    <circle cx="365.58" cy="197.48" r="1.12" transform="rotate(-3.18 365.866 197.634)" fill="#3f291b"/>
    <circle cx="362.61" cy="197.65" r="1.12" transform="rotate(-3.18 362.799 197.73)" fill="#3f291b"/>
    <circle cx="370" cy="194.71" r="1.12" transform="rotate(-3.18 370.27 194.872)" fill="#3f291b"/>
    <circle cx="367.03" cy="194.87" r="1.12" transform="rotate(-3.18 367.202 194.967)" fill="#3f291b"/>
    <circle cx="364.06" cy="195.04" r="1.12" transform="rotate(-3.18 364.31 195.248)" fill="#3f291b"/>
    <circle cx="368.26" cy="192.04" r="1.12" transform="rotate(-3.18 368.543 192.12)" fill="#3f291b"/>
    <circle cx="365.29" cy="192.21" r="1.12" transform="rotate(-3.18 365.47 192.396)" fill="#3f291b"/>
    <circle cx="362.32" cy="192.37" r="1.12" transform="rotate(-3.18 362.584 192.496)" fill="#3f291b"/>
    <circle cx="369.69" cy="189.13" r="1.12" transform="rotate(-3.18 369.884 189.273)" fill="#3f291b"/>
    <circle cx="366.72" cy="189.3" r="1.12" transform="rotate(-3.18 366.997 189.373)" fill="#3f291b"/>
    <circle cx="363.75" cy="189.46" r="1.12" transform="rotate(-3.18 363.925 189.649)" fill="#3f291b"/>
    <circle cx="361.39" cy="200.56" r="1.12" transform="rotate(-3.18 361.633 200.762)" fill="#3f291b"/>
    <circle cx="358.42" cy="200.73" r="1.12" transform="rotate(-3.18 358.746 200.862)" fill="#3f291b"/>
    <circle cx="359.64" cy="197.81" r="1.12" transform="rotate(-3.18 359.907 198.01)" fill="#3f291b"/>
    <circle cx="361.1" cy="195.2" r="1.12" transform="rotate(-3.18 361.423 195.348)" fill="#3f291b"/>
    <circle cx="358.13" cy="195.37" r="1.12" transform="rotate(-3.18 358.356 195.443)" fill="#3f291b"/>
    <circle cx="359.35" cy="192.54" r="1.12" transform="rotate(-3.18 359.516 192.59)" fill="#3f291b"/>
    <circle cx="360.79" cy="189.63" r="1.12" transform="rotate(-3.18 361.037 189.749)" fill="#3f291b"/>
    <circle cx="357.82" cy="189.79" r="1.12" transform="rotate(-3.18 358.15 189.849)" fill="#3f291b"/>
    <circle cx="368.86" cy="202.9" r="1.12" transform="rotate(-3.18 369.144 202.953)" fill="#3f291b"/>
    <circle cx="365.89" cy="203.06" r="1.12" transform="rotate(-3.18 366.071 203.228)" fill="#3f291b"/>
    <circle cx="362.92" cy="203.23" r="1.12" transform="rotate(-3.18 363.184 203.328)" fill="#3f291b"/>
    <circle cx="359.95" cy="203.39" r="1.12" transform="translate(-10.74 20.29)" fill="#3f291b"/>
    <circle cx="356.59" cy="197.98" r="1.12" transform="rotate(-3.18 356.84 198.105)" fill="#3f291b"/>
    <circle cx="356.3" cy="192.71" r="1.12" transform="rotate(-3.18 356.624 192.871)" fill="#3f291b"/>
    <circle cx="355.37" cy="200.9" r="1.12" transform="rotate(-3.18 355.679 200.957)" fill="#3f291b"/>
    <circle cx="353.62" cy="198.15" r="1.12" transform="rotate(-3.18 353.953 198.205)" fill="#3f291b"/>
    <circle cx="355.07" cy="195.54" r="1.12" transform="rotate(-3.18 355.283 195.718)" fill="#3f291b"/>
    <circle cx="353.33" cy="192.87" r="1.12" transform="rotate(-3.18 353.557 192.966)" fill="#3f291b"/>
    <circle cx="354.76" cy="189.96" r="1.12" transform="rotate(-3.18 355.078 190.124)" fill="#3f291b"/>
    <circle cx="356.9" cy="203.56" r="1.12" transform="rotate(-3.18 357.225 203.704)" fill="#3f291b"/>
    <circle cx="353.93" cy="203.73" r="1.12" transform="rotate(-3.18 354.158 203.799)" fill="#3f291b"/>
    <circle cx="367.96" cy="186.62" r="1.12" transform="rotate(-3.18 368.152 186.701)" fill="#3f291b"/>
    <circle cx="364.99" cy="186.79" r="1.12" transform="rotate(-3.18 365.26 186.982)" fill="#3f291b"/>
    <circle cx="362.02" cy="186.95" r="1.12" transform="rotate(-3.18 362.193 187.077)" fill="#3f291b"/>
    <circle cx="359.05" cy="187.12" r="1.12" transform="rotate(-3.18 359.306 187.177)" fill="#3f291b"/>
    <circle cx="356" cy="187.29" r="1.12" transform="rotate(-3.18 356.234 187.452)" fill="#3f291b"/>
    <circle cx="353.03" cy="187.45" r="1.12" transform="rotate(-3.18 353.347 187.552)" fill="#3f291b"/>
    <path d="M368.11 175.87h-.2a4.43 4.43 0 0 0-4.14 2.89v-1.23a4.43 4.43 0 0 0-4.41-4.41h-.92a4.43 4.43 0 0 0-4.41 4.41v.18a4.43 4.43 0 0 0-4.41-4.41h-.92a4.43 4.43 0 0 0-4.41 4.41v.43a4.43 4.43 0 0 0-4.23-3.16h-.92a4.43 4.43 0 0 0-4.1 2.8v1.94c0 2.43 2 4.82 4.41 4.82h1.33c2.12 0 3.5-1.93 3.91-3.93a4.43 4.43 0 0 0 4.32 3.52h.92a4.43 4.43 0 0 0 4.41-4.41 4.43 4.43 0 0 0 4.41 4.41h.92a4.43 4.43 0 0 0 4.36-3.77 4.43 4.43 0 0 0 4.19 3h.2a4.43 4.43 0 0 0 4.1-2.8v-.31a4.43 4.43 0 0 0-4.41-4.38z" fill="#8a5d3b"/>
  </g>
  <g>
    <circle cx="295.95" cy="161.01" r="15.89" transform="rotate(-7.99 295.948 161.028)" fill="#3f291b"/>
    <path d="M286.22 196c3.3.52 17.83.86 17.83.86s10.36-4.68 11.77-5.39a3.83 3.83 0 0 0 2.1-3.66l-.67-4.76a5.28 5.28 0 0 0-6-4.5l-26.16 3.67a5.28 5.28 0 0 0-4.5 6l.57 4c.38 2.44 1.76 3.27 5.06 3.78z" fill="#f16922"/>
    <path fill="#6d6e70" d="M301.21 240.72l11.74-1.65-5.11-52.39-16.14 2.27 9.51 51.77z"/>
    <rect x="278.51" y="158.69" width="35.12" height="4.69" rx="2.35" ry="2.35" transform="rotate(172.01 296.075 161.034)" fill="#a6a8ab"/>
    <path d="M287.22 195.42l16-4.77-2.68-19.07-16 4.77c-2.94.88-5.06 3.58-4.72 6l1.44 10.27c.34 2.38 3.02 3.68 5.96 2.8z" fill="#f69721"/>
    <path d="M303.18 190.66l11.82.87c1.94.14 3.25-1.72 2.91-4.14l-1.44-10.27c-.34-2.42-2.21-4.52-4.15-4.66l-11.77-.87z" fill="#f7bd5e"/>
    <path d="M313.47 158.59a2.35 2.35 0 0 0-2.65-2l-30.14 4.23a2.35 2.35 0 0 0-2 2.65z" fill="#bbbdbf"/>
    <ellipse cx="307.07" cy="239.89" rx="6.01" ry="1.61" transform="rotate(-7.99 307.06 239.862)" fill="#808184"/>
    <path d="M295.46 206.44c.13-1.69-1.87-4.82-3.35-7.87a60.88 60.88 0 0 1-2.61-6.36c-.89-2-4.92-6.57-8.13-5.15s.66 5.18 2.24 10c.39 1.2-.21 2.91 0 4.2a71 71 0 0 0 1.72 7.13c.93 1.99 9.86 1.55 10.13-1.95z" fill="#c3996b"/>
    <path d="M284.65 206.43c.31-3.83 1.44-2.21 4.37-5.37.92-5.22 6.08-4.39 10.49-5l9-4a3.22 3.22 0 0 1 3.86 4.89 3.21 3.21 0 0 1 2.42 4.94 3.21 3.21 0 0 1 1.83 5.35 3 3 0 0 1 2.72 2 3.08 3.08 0 0 1-.43 2.56c-.54 1-18.81 11.67-20.09 11.58-2.37-.16-5.6 5.15-5.6 5.15l-10.64-17s1.77-1.27 2.07-5.1z" fill="#c3996b"/>
    <path fill="#f1f1f2" d="M301.854 226.646l-28.084 31.51-19.388-17.279 28.085-31.51z"/>
    <path fill="#3f291b" stroke="#3f291b" stroke-miterlimit="10" d="M201.86 335.58l99.68-104.54-23.64-21.07-119.68 117.54 43.64 8.07z"/>
    <circle cx="271.33" cy="225.91" r="2.59" transform="rotate(-48.29 271.35 225.92)" fill="#f7bd5e"/>
    <circle cx="275.61" cy="221.1" r="2.59" transform="rotate(-48.29 275.633 221.116)" fill="#f7bd5e"/>
    <circle cx="267.23" cy="230.51" r="2.59" transform="matrix(.67 -.75 .75 .67 -82.66 276.65)" fill="#f7bd5e"/>
    <path d="M284.91 190.84a13.11 13.11 0 0 0-1.32-3c-.48-.43-.87-1.08-2.57-.06a1.78 1.78 0 0 0-.45 2.68l1.12 2.25z" fill="#f1cf95"/>
    <path d="M285 191.14a5.75 5.75 0 0 0-1.27-2.87c-.47-.41-.85-1-2.55 0a1.7 1.7 0 0 0-.49 2.6l1.08 2.16a10.48 10.48 0 0 1 1.59-1 5.43 5.43 0 0 0 1.64-.89z" fill="#e5bb8c"/>
  </g>
</svg>
