<svg xmlns="http://www.w3.org/2000/svg" viewBox="-335 -19.1 400 400">
	<g class="circle">
		<circle class="circle_1_ svg-med-green" cx="-135" cy="180.9" r="172"/>
		<path class="tagShadow svg-dark-green" d="M-109.4 57.3l-72.7-16.8-43.9 24.6-79.2 140.3c1 7.2 2.6 14.4 4.6 21.6 25.5 91.5 120.3 145 211.8 119.6 15.5-4.3 29.9-10.6 43-18.5L-1 248.5-109.4 57.3z"/>
	</g>
	<g class="pricing">
		<g class="priceTag">
			<path class="string_x5F_l svg-darker-gray" d="M-201.1 69.6l4.9-1.9c-.2-.5-7.3-15.7-14-32.5-3.7-9.2-9.3-33.3-16.6-57.3-5-16.5-10.1-66.3-16.5-108.8-5.5-36.3-12.7-67.1-12.7-67.1h-4.7s7.1 31.1 12.5 67.8c6.3 42.8 11.3 93.1 16.5 109.9 7.5 24.1 13.1 48.1 16.7 57.4 6.8 16.9 13.9 32.4 13.9 32.5z"/>
			<path class="tag svg-light-orange" d="M-109.4 57.4L-182 40.5l-42.9 24.4-22.6 71 108.6 191.2L-.8 248.6-109.4 57.4zM-176.6 84c-2 5.8-8.3 8.9-14.1 6.9-5.8-2-8.9-8.3-6.9-14.1s8.3-8.9 14.1-6.9c5.8 2 8.9 8.3 6.9 14.1z"/>
			<path class="tagHole svg-white" d="M-180.2 60.3c-11.1-3.8-23.2 2.2-27 13.3s2.2 23.2 13.3 27c11.1 3.8 23.2-2.2 27-13.3 3.7-11.1-2.2-23.2-13.3-27zm3.6 23.7c-2 5.8-8.3 8.9-14.1 6.9-5.8-2-8.9-8.3-6.9-14.1 2-5.8 8.3-8.9 14.1-6.9 5.8 2 8.9 8.3 6.9 14.1z"/>
			<path class="string_x5F_r svg-darker-gray" d="M-194.1 62.4c3.5 6.5 6.3 11.6 5.8 13-.1.2-.5.5-.7.6-.4.2-.6.2-.9.1-1.4-.5-3-3-3.8-4.7-1.5 1.2-2.9 2.8-3.6 4.4 1.2 1.9 3.1 4.3 5.6 5.2.7.2 1.4.4 2 .4 1.1 0 2.1-.3 3.1-.8 1.7-.9 2.8-2.2 3.3-3.7 1.1-3.6-1.2-7.8-6.3-17.1-1-1.8-2-3.7-3.2-5.9-2.8-5.3-9.4-47-15.7-83.2-2.9-16.7-18-69.9-27.8-112.3-7.3-31.7-10.4-57.4-10.4-57.4h-4.5s3.1 26.7 10.5 59.4c9.5 42.3 24.1 94.5 27 111.2 6.4 36.8 13.3 79.4 16.2 84.8 1.4 2.2 2.4 4.2 3.4 6z"/>
			<g class="cartoon">
				<g class="circle_2_">
					<path class="circle_3_ svg-dark-orange" d="M-134.7 243.7c-38.5 0-69.9-31.3-69.9-69.9s31.3-69.9 69.9-69.9 69.9 31.3 69.9 69.9-31.4 69.9-69.9 69.9z"/>
					<path class="ring svg-med-orange" d="M-134.7 110c35.2 0 63.9 28.7 63.9 63.9s-28.7 63.9-63.9 63.9-63.9-28.7-63.9-63.9 28.7-63.9 63.9-63.9m0-12c-41.9 0-75.9 34-75.9 75.9s34 75.9 75.9 75.9 75.9-34 75.9-75.9-34-75.9-75.9-75.9z"/>
				</g>
				<path class="backHair svg-black-brown" d="M-95.2 209.4c-4.4-3.7-5.2 1.5-5.2 1.5s.4 4.1-7 4.1c-2.2 0-5.6 2-9.3 1.7-8.5-.7-18.7-4-21-4-2.2 0-11.3 3.4-20.6 3.8-5.1.2-14.4-2.6-14.4-2.6s-8.9-27.8 38-27.6 40.8 24.2 39.5 23.1z"/>
				<g class="shirt">
					<path class="svg-med-blue" d="M-135.5 237.8c26 .1 42.3-15.3 41.8-15.5-10-4.5-40.6-4-40.6-4s-17.5 19.5-1.2 19.5z"/>
					<path class="svg-darker-blue" d="M-139 218.4c-9.2.3-29.2 1.1-37.4 3.6-.4.1 10.9 8.7 17 10.8 6.6 2.4 17.4 5.1 24 5.1h.8l5.5-9.6c-1.3-3.9-4.8-7.3-9.9-9.9z"/>
					<path class="svg-dark-blue" d="M-111.7 218.6s-11.5-1.6-23.2-1.5c-11.6.1-23.4 1.8-25 2-.1 0-.2.1-.4.5-.9 1.8-1.4 3.7-1.4 5.7 0 2.3.7 4.5 1.9 6.4.3.5 19.7 6.3 24 6.3 7 .2 15.9-1.7 23-4 2.2-2.6 3.5-5.5 3.5-8.7 0-2.2-.6-4.3-1.7-6.2-.4-.5-.7-.5-.7-.5z"/>
					<path class="svg-darkest-blue" d="M-141.7 217.2c-9.1.5-17 1.7-18.3 1.9-.1 0-.2.1-.4.5-.9 1.8-1.4 3.8-1.4 5.8 0 2.6.8 5.1 2.3 7.3 6 2.4 15.9 5.3 24 5.3h.8l5.5-9.6c-1.4-4.6-6-8.6-12.5-11.2z"/>
				</g>
				<g class="neck">
					<path class="skin svg-light-brown" d="M-155 203.1c5.7 4 2.5 16.6 1.6 23.2-.2 3.2 8.9 7 17.9 7 9.1 0 18.1-3.8 17.9-7-.9-6.6-4.1-19.1 1.6-23.2 1-.4-40-.4-39 0z"/>
					<path class="neckShadow svg-skin-shadow" d="M-155 203.1c5.7 4 2.5 16.6 1.6 23.2-.2 3.2 8.9 7 17.9 7 1.2 0 2.4-.1 3.6-.2l12-21 .6-.6c.1-3.6.9-6.8 3.3-8.5 1-.3-40-.3-39 .1z"/>
				</g>
				<path class="face svg-light-brown" d="M-99.2 173.7c0 24.5-23.4 44.4-36.4 44.4s-36.4-19.9-36.4-44.4 4.6-48.6 36.4-48.6 36.4 24 36.4 48.6z"/>
				<path class="nose svg-med-brown" d="M-136 190.3c-3.6 0-5.1-2.8-5.4-4.3-.1-.5.2-1 .7-1.1s1 .2 1.1.7c.1.3.7 2.8 3.6 2.8 3.1 0 4-2.8 4.1-2.9.2-.5.7-.7 1.2-.6.5.2.7.7.6 1.1-.5 1.6-2.3 4.3-5.9 4.3z"/>
				<g class="mouth">
					<path class="throat svg-red" d="M-151.5 194.4s2.4 7.8 9.7 9.7 9.7 1.4 13.8-.9c4.1-2.4 7.4-8.3 7.4-8.3v-1.1s-9.3 3.5-13.7 3.6-16.4-3-16.4-3h-.8z"/>
					<path class="teeth svg-off-white" d="M-147.5 195.9s.1 4.5 1.5 5c1.5.6 4 3.7 10.1 3.7 6.4 0 9.2-2.1 10.3-4.3 1.2-2.4 1.3-4.9 1.3-4.9l-11.7 2.1-11.5-1.6z"/>
					<path class="lips svg-dark-pink" d="M-135.9 196.4s-.9-.3-1.8-.4c-8.4-.3-12.3-2-13.8-2.9-.6-.3-.8.2-.7.5.8 5.7 7.8 13.1 16.3 13.1s15.4-7.3 16.3-13.1c.1-.4-.2-.9-1.1-.4-1.8.9-5.8 2.4-13.6 2.6-.5.2-1.6.6-1.6.6zm-.2 6.7c-12.2 0-14.5-8.3-14.5-8.3s6.8 3.7 14.5 3.6c7.7-.1 14.5-3.6 14.5-3.6s-2.2 8.3-14.5 8.3z"/>
				</g>
				<g class="eyes">
					<g class="openEyes">
						<g class="rEye">
							<path class="eyeball_1_ svg-off-white" d="M-130.7 167.6c0 3.4 3.3 5.2 10.2 5.2 7 0 10.2-1.9 10.2-5.2s-4.6-6.1-10.2-6.1-10.2 2.8-10.2 6.1z"/>
							<circle class="iris_1_ svg-med-blue" cx="-120.3" cy="166.8" r="5.7"/>
							<path class="irisShadow_1_ svg-dark-blue" d="M-126.1 166.7c.4 1.3 2.2 1.4 3.1.5.9-.8 1.3-2.5 2.7-2.5 1.3 0 1.6 1.6 2.5 2.4 1.5 1.3 3.2.4 3.3-.3 0-3.2-2.6-5.7-5.7-5.7-3.3-.1-5.9 2.5-5.9 5.6z"/>
							<circle class="pupil_1_ svg-black-brown" cx="-120.3" cy="166.8" r="2.8"/>
							<circle class="highlight_1_ svg-off-white" cx="-117.6" cy="163.7" r="2"/>
						</g>
						<g class="lEye">
							<path class="eyeball svg-off-white" d="M-140.7 167.7c0 3.4-3.3 5.2-10.2 5.2s-10.2-1.9-10.2-5.2 4.6-6.1 10.2-6.1 10.2 2.7 10.2 6.1z"/>
							<circle class="iris svg-med-blue" cx="-151.1" cy="166.9" r="5.7"/>
							<path class="irisShadow svg-dark-blue" d="M-145.3 166.8c-.4 1.3-2.2 1.4-3.1.5-.9-.8-1.3-2.5-2.7-2.5-1.3 0-1.6 1.6-2.5 2.4-1.5 1.3-3.2.4-3.3-.3 0-3.2 2.6-5.7 5.7-5.7s5.9 2.5 5.9 5.6z"/>
							<circle class="pupil svg-black-brown" cx="-151.1" cy="166.9" r="2.8"/>
							<circle class="highlight svg-off-white" cx="-148.1" cy="163.7" r="2"/>
						</g>
					</g>
					<g class="openLashes">
						<path class="eyelash_1_ svg-black-brown" d="M-106.9 165.3s-1.4 2.5-3.4.6-5.3-4.4-10.2-4.4c-5 0-8.7 2.9-10.3 5 0-1.7 4.4-6.6 10.4-6.7 6 0 12.8 3.5 12.8 3.5s-1.7.8-1.3 1.3c.7.8 2 .7 2 .7z"/>
						<path class="eyelash svg-black-brown" d="M-164.6 165.4s1.4 2.5 3.4.6 5.3-4.4 10.2-4.4c5 0 8.7 2.9 10.3 5 0-1.7-4.4-6.6-10.4-6.7s-12.8 3.5-12.8 3.5 1.7.8 1.3 1.3c-.7.8-2 .7-2 .7z"/>
					</g>
					<g class="closedEyes">
						<g class="rClosedEye">
							<path class="eyeball_2_ svg-light-brown" d="M-119.7 173.9c8.9-.1 11.5-5.4 11.1-7.1-.3-1.7-4.6-6-11.1-6-3.5 0-7.4 1.5-9.4 3.3-1.7 1.6-1.7 3.4-1.7 4.6 0 .7 5 5.2 11.1 5.2z"/>
							<path class="eyelash_2_ svg-black-brown" d="M-106.9 169.6s-1.3-.1-2 .7c-.4.5 1.3 1.3 1.3 1.3s-6.8 3.6-12.8 3.6c-6-.1-10.4-5.2-10.4-6.9 1.6 2.2 5.3 5.2 10.3 5.2 4.9 0 8.2-2.6 10.2-4.5s3.4.6 3.4.6z"/>
						</g>
						<g class="lClosedEye">
							<path class="eyeball_3_ svg-light-brown" d="M-140.6 169c0-1.2 0-3-1.7-4.6-2-1.8-5.9-3.3-9.5-3.3-6.5 0-10.8 4.3-11.1 6-.3 1.7 2.2 7 11.1 7 6.2 0 11.2-4.4 11.2-5.1z"/>
							<path class="eyelash_3_ svg-black-brown" d="M-164.5 170s1.4-2.5 3.4-.6 5.3 4.4 10.2 4.4c5 0 8.7-2.9 10.3-5 0 1.7-4.4 6.6-10.4 6.7-6 0-12.8-3.5-12.8-3.5s1.7-.8 1.3-1.3c-.7-.8-2-.7-2-.7z"/>
						</g>
					</g>
					<g class="halfClosedEyes">
						<g class="lClosedEye_1_">
							<path class="eyeball_4_ svg-light-brown" d="M-140.5 167.8c-.5-3.8-5-6.7-11.1-6.7s-11.1 4.5-11.1 5.4c0 .9 6.8-.4 11.1-.2s8 .9 11.1 1.5z"/>
							<path class="eyelash_4_ svg-black-brown" d="M-162.7 165.3s9.4-1.2 14.7-.2c5.3 1 7.5 2.4 7.5 3-2.2-.8-7-1.6-10.3-1.6-3.3-.1-9.3 0-10.7.8-1.4.8-2.9-.9-2.9-.9s1.5.5 2.1-.1c.6-.6-.4-1-.4-1z"/>
						</g>
						<g class="rClosedEye_1_">
							<path class="eyeball_5_ svg-light-brown" d="M-119.9 166.3c4.4-.2 11.1 1.1 11.1.2 0-.9-5-5.5-11.1-5.5s-10.6 2.9-11.1 6.8c3-.5 6.7-1.3 11.1-1.5z"/>
							<path class="eyelash_5_ svg-black-brown" d="M-109.2 166.3c.6.6 2.1.1 2.1.1s-1.5 1.8-2.9 1-7.4-.9-10.7-.8c-3.3.1-8.1.8-10.3 1.7 0-.7 2.3-2.1 7.5-3.1 5.3-1 14.7.2 14.7.2s-1.1.3-.4.9z"/>
						</g>
					</g>
				</g>
				<g class="frontHair">
					<path class="svg-light-brown" d="M-142.8 124s11.1 25.2 23.3 30.3c12.2 5.1 18.1 9.8 20 17.4 1.2 4.7 7.5-3.7 7.5-3.7s-5.4-23.6-9.8-28.1c-10.3-10.4-25-23.7-41-15.9zM-176.7 157.3c2.1.4 4.4.6 6.7.7 1.2 0 2.4-.1 3.6-.2l12-21c.2-.2-.8-9.3-7.3-9.3-11.9 0-21.4 28.6-15 29.8z"/>
					<path class="svg-hair-brown" d="M-85.2 155.7c0-12.6-2.1-23-9.1-31.9-5.6-7.2-14.7-17-26.6-17.9-11.9-.9-15.6 3.3-15.6 3.3s-7.8-2.1-11.7-1.6c-6.7.8-14.8 6.2-20.5 11.3-10.6 9.3-19.9 27.2-19.9 42.2 0 6.4 5.7 13.1 5.1 19.4-.6 6.5-7.7 12.9-5.7 19.5 2.1 6.7 7.6 11.3 7.6 9.1s-.7-3.8 1.7-6.7c2.2 0 0 6.9 4.7 9.6-1.9 2.9-4.7 4.1-4.7 4.1s9.3 4.9 15.3.1c6-4.8-.5-25.2-2.8-32.1-2.2-6.8 2.8-16.4 2.2-24.9-.9-12.3 2.6-15.9 11.4-23.5 7.9-5.7 13.8-7.6 16.9-9.3 4 7.9 10.3 18 17.2 21.3 12 5.7 17.6 10.7 19.1 18.4.9 4.8-11.8 21.8-6.9 36 5 14.2-2.7 17.9-2.7 17.9s5 5 11 .1c2.3-1.9 4-6 5.2-10.8 4.5 2.3 11-.6 11-.6s-4.1-8.1-3.9-13.8c.2-5.8 3.3-9.1 4.7-17.5s-3-16.2-3-21.7z"/>
				</g>
				<path class="rEyebrow svg-hair-brown" d="M-129.2 159.2c1.8-1.6 3.3-3.8 9.1-3.8 10.9 0 12.9 3.7 13.8 2.8s-6.6-4.4-13.8-4.4c-3.8 0-7.6 0-10.2 1.6-1.1.7-3 2-2.6 2.9.4 1.1 2.9 1.6 3.7.9z"/>
				<path class="lEyebrow svg-hair-brown" d="M-142.4 159.2c-1.8-1.6-3.3-3.8-9.1-3.8-10.9 0-12.9 3.7-13.8 2.8-.9-.9 6.6-4.4 13.8-4.4 3.8 0 7.6 0 10.2 1.6 1.1.7 3 2 2.6 2.9-.4 1.1-2.9 1.6-3.7.9z"/>
			</g>
			<g class="coin">
				<g class="coinCylinder_1_">
					<path class="svg-dark-orange" d="M-72.2 212.3c-21.3 34.7-66.9 45.6-101.7 24.3s-45.6-66.9-24.3-101.7 67-45.6 101.7-24.3c34.8 21.4 45.6 67 24.3 101.7z"/>
					<path class="svg-med-orange" d="M-196.3 136c20.7-33.7 65.1-44.4 98.9-23.6s44.4 65.1 23.6 98.9-65.1 44.4-98.9 23.6-44.3-65.2-23.6-98.9m21.5 102.3c35.7 21.9 82.5 10.8 104.4-24.9s10.8-82.5-24.9-104.4-82.5-10.8-104.4 24.9-10.8 82.4 24.9 104.4z"/>
					<path class="svg-med-orange" d="M-199.7 133.9c-21.9 35.7-10.9 82.4 24.9 104.4 35.7 21.9 82.5 10.8 104.4-24.9s10.8-82.5-24.9-104.4-82.5-10.8-104.4 24.9zm134.8 24.4l-4.2.9c-.1-.9-.4-1.8-.7-2.8l4.2-1.1c.3 1.1.5 2.2.7 3zM-84.4 129c.6.7 1.2 1.5 1.7 2.2l3.4-2.7c.6.8 1.3 1.6 1.8 2.4l-3.5 2.6c.1.2.3.4.4.6-5-6.9-11.5-13-19.3-17.9-6.9-4.2-14.3-7-21.8-8.6.2 0 .5.1.8.1l.9-4.4c1.1.2 2 .4 3 .7l-1.1 4.3c1 .3 1.9.5 2.8.8l1.3-4.2c1 .3 2 .6 2.9 1l-1.5 4.1c.9.3 1.8.7 2.6 1l1.7-4.1c.9.4 1.9.8 2.8 1.2l-1.7 4.1c.8.4 1.6.8 2.5 1.2l2-4c.9.4 1.8.9 2.7 1.4l-2.1 3.9c.8.4 1.7.9 2.4 1.4l2.3-3.7c.9.6 1.7 1.2 2.6 1.7l-2.5 3.6c.8.6 1.7 1.1 2.4 1.7l2.6-3.5 2.4 1.8-2.8 3.3c.7.6 1.5 1.2 2.2 1.8l2.8-3.3 2.2 2.1-3 3.2c.7.7 1.4 1.4 2 2.1l3.1-3c.7.7 1.4 1.4 2.1 2.2l-3.1 2.9zm-59.2-22.2l-.6-4.4c1-.2 2-.3 3-.4l.4 4.5c-.8.1-1.8.2-2.8.3zm5.6-5h3.1v4.4h-2.8c-.1 0-.3-4.4-.3-4.4zm6.1.1c1 0 2 .2 3 .2l-.4 4.5.7.1c-1.6-.1-3.1-.3-4.6-.3h1.2c-.1-.1.1-4.5.1-4.5zm5.5 4.9l.5-4.4c1 .1 2 .3 3 .4l-.7 4.4c.5.1 1.1.2 1.7.3-1.8-.3-3.7-.6-5.6-.8.4 0 .8.1 1.1.1zm47.2 29l3.7-2.4c.6.8 1.1 1.6 1.6 2.5l-3.7 2.3c.1.2.3.5.4.7-.8-1.3-1.7-2.7-2.5-3.9.1.3.3.6.5.8zm6.9 2.8c.5.9.9 1.7 1.4 2.6l-3.9 1.9c-.5-.9-.9-1.7-1.4-2.6-.1.1 0 .1 0 .1l3.9-2zm-1.3 7.2l3.9-1.8c.5 1 .8 1.9 1.2 2.8l-4 1.6c-.3-.8-.7-1.8-1.1-2.6zm6.2 3.8c.3 1 .6 1.9.9 2.9l-4.1 1.3-.9-2.7c.1 0 4.1-1.5 4.1-1.5zm3 11.8c.2 1 .4 2 .5 3l-4.2.6c-.1-1-.3-2-.5-2.9l4.2-.7zm-3.4 6.4l4.3-.4c.1 1 .1 2.1.2 3.1l-4.2.2c-.2-1.1-.2-1.9-.3-2.9zm.3 5.7l4.3.1c0 .9 0 2-.1 3l-4.3-.1c.1-1.1.1-2.1.1-3zm-.2 5.7l4.2.4-.3 3-4.3-.5c.2-1 .3-2 .4-2.9zm3.3 6.4c-.1 1-.3 2-.5 3l-4.1-.9c.2-.9.4-1.8.6-2.8l4 .7zm-1.1 6c-.2.9-.6 1.9-.8 2.9l-4.1-1.2c.3-1 .6-1.9.8-2.8l4.1 1.1zm-5.8 4.4l4 1.4-1.1 2.9-3.9-1.6c.3-.9.7-1.8 1-2.7zm-2.1 5.3l3.9 1.7-1.3 2.7-3.8-1.9c.4-.8.8-1.7 1.2-2.5zm1 7.2c-.4.9-1 1.8-1.5 2.6l-3.6-2.2c.5-.9.9-1.7 1.4-2.5l3.7 2.1zm-6.6 2.9l3.4 2.5c-.5.9-1.1 1.7-1.7 2.5l-3.4-2.5c.6-1 1.2-1.7 1.7-2.5zm-.1 7.2c-.6.8-1.2 1.6-1.9 2.3l-3.2-2.8c.6-.7 1.2-1.4 1.8-2.2l3.3 2.7zm-7 1.7l3.1 3c-.7.7-1.4 1.5-2.2 2.2l-2.9-3.1c.6-.7 1.3-1.5 2-2.1zm-1.3 7.2c-.8.7-1.6 1.3-2.4 1.9l-2.7-3.3 2.2-1.8 2.9 3.2zm-4.8 3.7c-.8.6-1.7 1.2-2.5 1.8l-2.3-3.4c.8-.5 1.5-1.1 2.3-1.6l2.5 3.2zm-7.3-.1l2.2 3.6c-.8.6-1.7 1.1-2.6 1.6l-2.1-3.7c.9-.6 1.7-1 2.5-1.5zm-5 2.8l1.9 3.8c-.9.5-1.8 1-2.7 1.4l-1.7-3.9 2.5-1.3zm-5.2 2.4l1.6 3.9c-.9.4-1.9.7-2.9 1l-1.4-3.9c.9-.4 1.8-.7 2.7-1zm-5.4 1.8l1.3 4.1c-1 .2-2 .5-2.9.8l-1-4c.8-.3 1.7-.6 2.6-.9zm-53.2-10.2c-29.8-18.3-39.2-57.5-20.8-87.4s57.5-39.2 87.4-20.8 39.2 57.5 20.8 87.4-57.6 39.1-87.4 20.8zm-22.6-92.2l-3.7-2.5c.5-.9 1.1-1.7 1.7-2.5l3.6 2.7c-.4.8-1 1.6-1.6 2.3zm0-7.4c.7-.7 1.3-1.5 2-2.3l3.3 3c-.6.7-1.3 1.5-1.8 2.2l-3.5-2.9zm7.2-1.4l-3.3-3.1c.7-.7 1.4-1.5 2.2-2.2l3.2 3.2c-.7.6-1.4 1.4-2.1 2.1zm1.3-7.4c.8-.7 1.6-1.3 2.4-1.9l2.8 3.5-2.2 1.8-3-3.4zm4.7-3.8c.8-.6 1.7-1.2 2.5-1.8l2.5 3.8c-.8.5-1.5 1.1-2.3 1.6l-2.7-3.6zm5.1-3.3c.8-.6 1.7-1.1 2.6-1.6l2.2 3.9c-.8.5-1.7 1-2.4 1.4l-2.4-3.7zm7.3 1l-2-3.9c1-.5 1.9-1 2.8-1.3l1.8 4.1c-.9.2-1.7.7-2.6 1.1zm5.2-2.4l-1.7-4.2c.9-.4 1.9-.7 2.9-1l1.5 4.2c-.9.4-1.8.7-2.7 1zm4.1-6.2c1-.2 2-.5 2.9-.8l1.1 4.3c-.9.3-1.8.5-2.7.8l-1.3-4.3zm-46 77.3c.1.9.2 1.9.5 2.9l-4.3.7c-.2-1-.4-2-.5-3l4.3-.6zm-4.7-2.4c-.1-1-.1-2.1-.2-3.1l4.5-.2c.1 1 .2 1.9.2 2.8-.1.1-4.5.5-4.5.5zm-.2-6.2c0-.9 0-2 .1-3l4.5.2c-.1 1-.1 1.9-.1 2.9l-4.5-.1zm.3-6.1c.1-1 .2-2.1.4-3.1l4.4.6c-.1 1-.2 1.9-.3 2.8-.1.1-4.5-.3-4.5-.3zm.7-6c.2-1.1.3-2 .6-3l4.4.9c-.2.9-.4 1.8-.6 2.8l-4.4-.7zm1.3-6.1c.2-.9.6-1.9.8-2.9l4.2 1.3c-.3 1-.6 1.9-.8 2.8l-4.2-1.2zm1.8-5.8l1.1-2.9 4.1 1.7c-.4.8-.7 1.8-1 2.6l-4.2-1.4zm2.3-5.7l1.3-2.7 4 2c-.4.9-.9 1.8-1.3 2.6l-4-1.9zm25.3 84.1l-2.6 3.5-2.4-1.8 2.7-3.4c.7.6 1.5 1.1 2.3 1.7zm-7.3-.3l-2.2-2.1 3-3.1c.7.6 1.5 1.3 2.1 1.9l-2.9 3.3zm-1.3-7.3l-3.2 2.9c-.7-.6-1.4-1.4-2.1-2.2l3.3-2.8c.7.7 1.3 1.5 2 2.1zm-3.8-4.3l-3.3 2.8c-.6-.9-1.3-1.6-1.9-2.5l3.5-2.6c.5.7 1.1 1.5 1.7 2.3zm-3.4-4.6l-3.7 2.4c-.6-.8-1.1-1.6-1.6-2.5l3.7-2.3c.5.8 1 1.6 1.6 2.4zm-6.8-2.9c-.5-.9-.9-1.7-1.4-2.6l3.9-1.9c.4.8.9 1.7 1.3 2.6l-3.8 1.9zm-2.8-5.3c-.5-1-.8-1.9-1.2-2.8l4-1.6c.3.9.6 1.8 1.1 2.7l-3.9 1.7zm1.9-7.2l-4.2 1.4c-.3-1-.6-1.9-.9-2.9l4.2-1.3c.2 1 .6 1.9.9 2.8zm69.6 44.9c.9 0 1.9-.2 2.9-.3l.5 4.2c-1 .2-2 .3-3 .4l-.4-4.3zm-2.9.2l.2 4.2c-1.1 0-2.1.1-3.1.1v-4.2c1 0 2 0 2.9-.1zm-5.7 0l-.2 4.3c-1 0-2-.2-3-.2l.4-4.2c.9 0 1.9.1 2.8.1zm-6.3 3.7c-1-.1-2-.3-3-.4l.7-4.2c.8.2 1.8.3 2.8.4l-.5 4.2zm-6.1-.9c-1.1-.2-2-.4-3-.7l1.1-4.1 2.8.6-.9 4.2zm-4.6-5.6l-1.3 4.2c-1-.3-2-.6-2.9-1l1.4-4c.9.2 1.9.5 2.8.8zm-5.4-1.9l-1.6 3.9c-1-.4-1.9-.7-2.8-1.1l1.8-3.8c.8.2 1.7.7 2.6 1zm-7.3 1.4c-.9-.4-1.8-.9-2.7-1.4l2.1-3.8c.9.4 1.7.9 2.6 1.3l-2 3.9zm-3.1-6.6l-2.3 3.7c-.9-.6-1.7-1.2-2.6-1.7l2.4-3.6c.8.6 1.6 1 2.5 1.6zm-34.8-42.5l4.3-.9c.1.9.4 1.8.7 2.8l-4.2 1.2c-.3-1.1-.7-2.1-.8-3.1zm7.5-50.3c.5-.8 1-1.6 1.4-2.5l.1-.2 3.8 2.4-.2.3c-.5.8-.8 1.5-1.3 2.3l-3.8-2.3zm50.7-35.7l.8 4.5c-.9.1-1.8.3-2.8.5l-1-4.3c1-.3 2-.5 3-.7zm24.4 141.8l-.7-4.2c1-.2 1.9-.4 2.8-.6l.9 4.1c-1.1.1-2 .4-3 .7z"/>
				</g>
				<path class="moneyShadow svg-orange-shadow" d="M-95.2 223.2c5.6-4.5 10.4-9.9 14.4-16.3 15.1-24.6 11.4-55.7-7.3-76.1l-57.3-2.2-13.6 14.7-18.3-1.7 1.9 47.4 4.5 6.4 21.2.8 9.2 18.9s9 7.7 14.1 7.1l31.2 1z"/>
				<path class="moneySign svg-white" d="M-174.2 191.1c-4.9-4.8-7.8-10.3-8.5-16.1-.8-6.2 1-13.5 5.4-21.8l-5.3-3.2 4.7-7.8 5.3 3.2c5.8-8.5 12.2-13.7 19.2-15.6 7-1.8 13.7-.9 20 3 4.6 2.8 7.9 6.3 9.8 10.5 1.9 4.1 2.7 8.2 2.3 12.1-.3 3.9-1.7 10.1-4.1 18.5l18.9 11.5c.3-3.2 0-5.9-.9-7.9-.9-2.1-3-4.5-6.1-7.3l15.6-20.1c3.2 2.8 5.6 5.6 7.4 8.4 1.8 2.8 3 6.1 3.7 9.8.7 3.7.6 7.6-.1 11.6s-2.5 8.8-5.2 14.3l10.1 6.1-4.7 7.8-10.1-6.1c-2.8 4.2-5.7 7.5-8.5 10s-6.2 4.3-10 5.7c-3.8 1.3-7.9 2-12.2 1.7-4.3-.3-8.4-1.5-12.3-3.9-6.6-4.1-10.6-9.8-12-17.3-1-5.7.3-14.7 4-27.3l-15.5-9.4c-.1 2.4 0 4.4.6 5.8s1.7 3.3 3.7 5.9l-15.2 17.9zm29.3-29.4c.5-2.7.5-4.8-.1-6.5-.5-1.6-1.7-2.9-3.3-3.9-1.5-.9-3.1-1.3-4.8-1-1.7.3-3.5 1.3-5.7 3.1l13.9 8.3zm17.1 21c-.9 4.3-1 7.4-.3 9.4.6 2 1.8 3.6 3.5 4.6 1.9 1.2 4.1 1.6 6.5 1.1 2.4-.4 4.8-2 7.4-4.6l-17.1-10.5z"/>
			</g>
		</g>
	</g>
</svg>
