<svg class="work-life" xmlns="http://www.w3.org/2000/svg">
  <style>.work-st1{fill:#f90}.work-st2{fill:#ffb53c}.work-st3{fill:#f3f7ec}.work-st4{fill:#ffc854}.work-st5{fill:#f5db75}.work-st6{fill:#f1eab1}.work-st7{fill:#3f291b}</style>
<path class="sky work-st1" d="M.05-11.1H960v360.3H.05V-11.1z"/>
<circle class="sunHighlight work-st2" cx="386.75" cy="91.8" r="41.4"/>
<ellipse class="sun work-st3" cx="386.55" cy="91.9" rx="7.7" ry="7.6"/>
<path class="water work-st2" d="M.05 106.3H960v131.9H.05V106.3z"/>
<g class="waterReflection">
  <path class="work-st4" d="M462 106.2c16.4-.1-17.9 12.3-8.4 15.7s32 12.5 8.3 12.5c-12.3 0-33.8.5-35.5 3.2s13.4 1.2 11.2 9.5 9.8 4.2 10.2 13.2-14.5 9.6-6.4 13.2c3.7 1.7 10.9 2.5 17.8 3.4 26.1 3.2 45.8 9.3 32.3 12.3-5.1 1.2-9.8 2.7-8 4.4 1.2 1 4.8 1.9 8.6 2.4 20 3.2-10.6 22.8-99.7 19.8-20.2-.7-42.4-16.9-59.8-18.1-29.7-2.4-39.6-5.4-40.9-14.9-1.2-9.3 53.4-9.6 49.6-12-3.9-2.2-35.1 1.7-35.2-6.1s28.9-7.3 31.2-12.8-17.8-6.1-10.2-10.6 7.7-9.3.8-14.4c-3.3-2.5 8.8-7.9 7.7-10.3s-15.6-1.1-16.8-5.2 6.7-5.2 14.9-5.1 128.3-.1 128.3-.1z"/>
<path class="work-st5" d="M438.65 106.3c10.7 9.1-33.9 8.4-30 14.2s26.9 3.2 22.5 10-29.4-5.6-26.5.7c3.9 8.1 20.6 6.9 17.8 11.1s-2.6 5.1-17.7 5.1c10.2 1.9 29.8 2.9 24.3 11.1s-11 .2-18.5 2-14.2 6.2-10.1 9.8c3.6 7.4 38.2-4.9 37.7 6.9s-20.3 6.4-16.7 13.2 27.1 5.8 38.9 6.6 23.2 3.9 20.1 6.6-57.2 10-90.5 6.6c-14.9-1.5-29.7-13.5-44.2-15.7-14.9-2.4-31.3-3.9-26.1-13.2s39.5-4.2 38.8-10.3-22.6-2.4-25.3-9.5c-2.6-6.9 21.7-6.1 22.5-11.1s-12.3 0-17.3-4.6 5.1-1.4 3.7-7.8 27.1-1.7 29.3-4.9-35.6-4.1-35.1-9.5 23.7-3.5 24.3-6.8-25.1-6.8-23.9-10.5c6.6 0 87.6.5 102 0z"/>
<path class="work-st6" d="M370 106.4c2.8 1.7 10.2 6.6 10.2 9.2 0 1.8-7.7 1.1-7.9 6s7.2 5.8 6.4 11-12.3 4.1-12.5 9.2 9.4 5.5 11.2 12.3-9.5 5.4-8 11.1 11.7 2.2 12.3 6.1-12.7 7.8-15.2 13.7 5 10.8 8.6 13.2c11.2 7.3 25.9 11 32.8 8.2s-13.8-8.7-14.8-12.3 6.2-4.6 6.9-9.8-6.4-3.4-9.8-6.9 3-15.6 5.6-18.6c2.8-3-4.4-5.9-6.8-7.8 3.6 0 9.6-1 10.8-5.1s-9.4-5.1-13.8-11.1c4.3.3 9.5 2.9 12.8-.7 3.3-3.4-12.7-5.9-9-10s9.1 2.2 12.3-.8c1.8-1.7-.6-4.7-.8-7.6-.1-2 2.1-3.7 1.4-4.9-.7-1.4-3.2-3.4-4.4-4.3-.4-.3-28.3-.1-28.3-.1z"/>
</g>
<g class="clouds">
  <path class="work-st4" d="M628.55 92.9c-6.8-.4-8.6-7.6-.3-9.5s17.2 3.2 20.7-3.1-11-12.8-12.1-16.4c-.8-3.2 1-7.6 7.7-7.3s22.3 4 23.5 11.6-4.9 10.4-3 13.4 18-1.4 26.1 4.6c8.1 4.4 33.6 1.2 29.7-8.7-1.7-3.6-8.7-3.3-8.7-7.3s7.5-.7 8.8-6.5 6.4-2.8 7.5-3.5c1.8-1.1-6-10.3 3.4-13.8 3.2-1.1 12.3-2.4 17.8 7.2 1.8 3.7 9.6-1.7 19.2.6s4.8 13.5 9.5 16.5c1.7 3.2.8 7.2 2.8 10.1a6.26 6.26 0 0 0 8.8 1.4 6.55 6.55 0 0 0 .8-9c-1.9-2.1-5.5-4.3-4-6.6.8-1.4 2.8-1.4 4-2.3 1.7-1.4-2.4-9.9 3.2-19s11.2-17.1 21.2-10.7-3.4 18.4 2.5 20.8a12.86 12.86 0 0 1 5.8 11.3c3.6-.7 13.1-.9 22.1 14.7 1.5.4 27.8.4 29.4 5.1s-4 3.7-6.9 3.6c-24.3-1.2-232.8 3.4-239.5 2.8z"/>
<path class="work-st5" d="M560 39c-2.6-2.2-1.4-5.2.4-5.8s6.1 3.5 9.4 4.6c2.3.8 5.8-.7 7.5 1.1 3.2 3.9 14.8 2.4 19.8 5.8s3.4 9.8-1.6 9.1c-4-.6-2.3 3.5-7.9 2.8s-8.8-4.6-17.2.2c-3.7 1.9-12.7-.8-14.5.4-1.2.8-2.8 2.2-3.9 1.1s-.1-2.5-.6-3.7c-1-2.9-6.2.7-8.1-2.5-3.3-8.8 19.2-11 16.7-13.1z"/>
<path class="work-st4" d="M545.15 61.6c-3 1.8-3 1.8-9.2-.7s-8 5.4-5.4 7.6 14.7.4 16.7.6 7.8 2.2 10.8.5-9.9-9.8-12.9-8zM503.25 92c-2.9-.3-7.2 3.5-3.7 3.5s80.8-.6 85.7-.7.2-9.5-6.8-9-3.9 2.6-7.4 3.3-7.3-4.6-9.9-2.1c.8-4.4 1.2-7.1-6.8-10.2s-13.7 3.5-14.8 5.2-2.8 3.1-7 .8c-2.3-.6-3 3.3-5.2 4.1-2.6 1-4.4-2.8-6.8-4.1-2.2-1.2-5.2-.7-7.3-2.3-1.4-1.2-1.8-3.3-2.6-4.8-1-1.7-4-2.9-5.2.1s-4.3 5.8-3.9 9c.3 2.4 2.9 7.4 1.7 7.2zm-44.6-3.3c-1-1.2 1.4-4.9 4.4-5.8s1.5-4.9 5.5-4.9 4.7 3.5 5.4 4.4c3 4.4 16.2 2.4 17.3 4.5s-3.7-.3-8.8 1.9-10.1 1.3-15 1.5-7.8-.3-8.8-1.6z"/>
<path class="work-st5" d="M459.45 41.1c4.4 2 8.1-1.4 11.8-1.1s3.5 3.3 5.8 3.5c2.2 0 8.6-4.9 13.3-3.5s3.5 6.7 9.7 5.8c3.6-.5 8.3-.4 6.5 3.1s-25.1 5.8-36 5.2-14.6-6.2-21.5-5.5-17.6 9.8-18.5 6.3 4.3-3.3 6.5-4.8-.3-2.9.3-4.3 2.1-.8 3.3-2.2c1.4-1.4.2-3.9 3.1-6s11.3 1.5 15.7 3.5z"/>
<path class="work-st4" d="M423.75 88.2c-1.1 2.6-7.2 1.6-7.7 5.2s.9 2.9 2.3 3.2c2.8.7 20.3.4 30.4.6 2.5 0 7.3 1.5 7.3-2.1s-7.8-2.7-9.2-4 2.9-.7 3.3-2.1c2.7-5.6-7-5.1-4-10.5-.4-2.2-4.9-2.6-6.5-4.5s-.1-7.7-2.3-8.9c-3-1.8-8.7 2.3-12.5-3.4-1.8-1-3-.6-3.6-1.4-.4-.8-3.8-8.1-7.1-5.4s3.1 4.9 4.2 7.1c.6 1.2.1 2.8 1 3.7 8.5 1.9-5.1 3.3-5 6.3s4.9 3.1 9 1.8 9.6 9.5 7.2 10.9-5.8.8-6.8 3.5zm-71.3-38.1c4.4-.8 3.9 3.7 6.2 5.8s3.7-.7 4.7.7c.7.8.1 2.1.7 3 .7 1.1 2.2 1 3.5 1.1 3.3.3 8.8 6.2 5 7.2s-7.9-3.4-10.3-2-1.5 4.9-3 5-2.2-1.8-4.4-1c-2.2 1-2.9 5.1-6.7 3.4s0-4.6-1.9-5.6-13.2-1.7-10.5-4.8 3.9 1 5.5 0-4-3.7-2.3-5.7c1-1.2 6.7-.1 9.7-1.7 2.4-1.1 1.9-5.1 3.8-5.4zm-34.3 20.7a65.79 65.79 0 0 1-14.7-1.1c-7.6-1.5 1.4-9.4-6.2-10.5s-12-11.1-12.4-14 6.1-13.6-1.3-17.7c-5.8-3.9-10.5.4-11.5.9-2.4 1.2-4.9-1.2-7.7 1.4s6.1 11.2 4.1 13.5-6.4-4.3-8.7-2.1.8 2.5 1.3 3.9c-2.9 1.1-3.4 6.6-.7 8.4 1.3 1 7.4 4.3 5.9 5.8s-7.7-3.8-8.7.2 9.5 10.1 6.3 14.4-2.4-2.5-8.2-1.9-9.9-7.8-7.4-9.6 5.9 2.5 7.2-.4-2.7-5.8-5.2-5.5c.3-3-1.8-9.7-10.6-10.9s-11.3-.4-14.7-3.3 2.2-12.7-5.9-9.9c-2.1.7-9.1.3-8.6 4.5 0 2.9 6.8 6.9 0 8.6s-13.3-2.7-16 2.5 9.8 8.8 8.1 13-15 1.2-15.5 5.5 6.8 3.7 9.7 4.2c-5 8.1 3.2 16.3 10.4 14.3 0 .3-2.5 2.1 1.4 3.2s17.5-.8 21.8 5.6c3.2 3.3 13.1 8.2 15.5 5s-4.5-5.8-4.7-7.7l16.7 1.2c1.6.1-1.1 6.9 4.2 6.4s14.7 2.1 14.8.3-2.4-1.7-3.7-2.5c4-1.5 10.9.8 12.5-.8s-5.8-4.1-8.8-6.1c4.6.6 10.1-1 14 1.8s6.5-2 5.9-4.2-3.1-2.3-5.1-2.5c-3.5-.3-9.3-1.3-10.1-3.3s23.7-7.4 32.9-4c3.7 1.4 8.2 5.2 11.1 2.8 3.1-2.5-3.2-9.5-7.4-9.4zm-73.9 11.4c-2.5-1.2 1.3-5.4 3.7-3.5s11 2.3 14.8 2.2a23.8 23.8 0 0 1-18.5 1.3z"/>
<path class="work-st5" d="M94.15-8.9c1.4 1.2 18.5 6.5 17.5 11.1s-6.6 1.5-8.1 4.4c-1 1.8-4.4.6-5 4.3s1.9 1.2 3.2 9.6 34 3.9 39.8 10.4 9.3-6.2 16.6-4.1-5.4 6.6-1.1 10.6 15.4-3.3 20-2.7 8.7 3.9 12.6 3 .8-2.6 2.9-3.3c2.8-1 10.5 3.9 12.3-2.5 1.1-3.7-.3-6.3-4-4s-11.5-11.8-6.6-14.2 8.2 6.7 12.1 5.2.1-9-2.1-11.3c-4.7-4.7-10.9-3.5-15.3-5.9-3-1.6-6.4-8.5-9.8-12.8h-86a2.7 2.7 0 0 0 1 2.2zM854.45-3.1c-3 1.4-2.2 2.9-1.5 3.3 1.4 1.1 5.4 4.9-.3 8.5s-7.7 7.8-10.9 3.4 2.9-7.8 4.9-9.6c1-.9 1.5-2.1.4-4s-5.5 2.8-7.4.2c-1.3-1.8.5-6 2.4-9.8h-21.5a24.33 24.33 0 0 0-2 2.5c-1.6 2.1-2.9 5.8-1.2 7.9-1.8-1-3.2-2.6-5.8-.8s1.1 9.1-5.7 10.5-3.8-1.6-7.6-1.7-2.3 2.8-6.7 2.8-6.7 2.3-6.3 4.8 5.5 1.4 10.2 1.4 7.6 7.3 20 5.8 17.5 3.3 14.2 6.5-8.4 3.3-8 6.1 5.1.8 8 3.3 12.2-10.3 17.3-6.6 12.8-5.9 15.2-1.2-5.3 2.1-4.5 6.1 16 .2 17.6-6.9 21.7-6.2 25.5-7.9 2.5-8.1 3.7-11.7c.8-2.3 7.3-.2 6.9-3.8s-7.5-.9-10-1.6-5.1-4.4-4-7.6c.8-2.2 2.2-1.1 4.6-4.9.8-1.2 0-2.2-1.4-3h-43.8c-1.9 3.5.5 6.6-2.3 8z"/>
</g>
<path class="ground work-st7" d="M960.05 349.2H.05V232.9s114.9-1.9 184-1.4 187.1 2.7 225.1 1.7 165.5-4.1 280.9-5.5 270 5.3 270 5.3v116.2z"/>
<path class="hammock work-st7" d="M685.15 92.7l-81.9 54.5c-1.4-7.6-5.9-14.7-7.3-18.2-1.6-4-9.8-8.1-15.2-7.2-2.3.4-4.3 1.3-7.2 4.3a28.66 28.66 0 0 0-8.2 4.1 11.4 11.4 0 0 0-2.3 3 10 10 0 0 1-5.4 4.5c-3.9 1.4-2.4 4.9-3.1 6.3-1.2 2.6-2.2 5.3-2.9 6.9a6.53 6.53 0 0 0 .6 6.2s-.1 0-.1.2c-6.6.9-15.8 1.6-20.7.7-8.5-1.7-13.2 4.5-18 10.8a25.4 25.4 0 0 1-6 5.8l-13.7-1.1c-.7-.48-1.37-1-2-1.55l.83-.45c.1.1.8-1.9-.2-2.2-.35-.07-2.69-.75-5.56-1.6a32.52 32.52 0 0 0-3.84-2.1 14.89 14.89 0 0 0-3.15 0l-5.38-1.6c-.9-4.7-5.2-26-5.5-27.1-.3-1.3-1-1-1.7-.9s-31.4 3.3-32.9 3.5c-1.12.15-.9 1.53-.84 1.8l-.06-.2c-.18-.61 2.6 11.63 4.8 21.31-8.19-7.72-15.51-14.61-17.6-16.51-5.4-4.8-7.7-8-22.6.3-11.1 6.2-28.3 17.9-36.4 23.5-5-1.1-9.4-2-12.6-2.8-6-1.4-15.8-4.8-15.8-4.8s-12.2-6.5-16.4-12.6a13.49 13.49 0 0 0-2.8-3.5c-.8-.6-1.8-3-2.5-3.5-1.5-1.1-2.5-6.4-4.5-5.7a4.23 4.23 0 0 0-2.9 2.9 5.45 5.45 0 0 0-.1 2.2c.6 3.5-.2 6.3 1.2 9.7-27.2-12.4-66.8-50.3-66.8-50.3s38.3 46.9 73.4 69.6c13.7 8.8 71.9 41.7 123.1 52.2 30.8 6.4 61.7-4.1 71.6-7.9 6.9-2.6 30.1-11.5 45.4-21.7 4-2.7 16.5-11.8 32.8-23.9 1.9-1.4 3.9-2.9 5.9-4.4 28.8-21.4 66.9-49.9 91.7-68.5 15.2-11.4 2.8-4 2.8-4zm-279.7 85c-.7.1-5.4-.6-11.8-1.8 5.8-3.7 8.3-5.5 9.7-6.4 1.2-.7 3.9 1.5 7.6 5.9.4.4.8 1 1.4 1.7q-3.45.15-6.9.6z"/>
<g class="hammock screen">
  <path class="work-st5" d="M471.55 163l-27.8 7.6-6.1-28.1 29.2-3.5 4.7 24z"/>
<path class="work-st6" d="M441 157.73l-3.31-15.23 29.2-3.5.87 4.47z"/>
</g>
<path class="treetrunks work-st7" d="M250.75-10.8c-4.1 16.9-15 63.1-19.5 93.9-5.7 38.2-22.1 137.1-24.8 168.4s-8.3 73.6-8.3 73.6h54.3s4.1-139.8 6.5-163.9 7.3-76.8 11-97.6c3-16.6 13.4-74.4 13.4-74.4h-32.6zM430.85 92c0 .1-.1.2-.1.3a.37.37 0 0 1 .1-.3zm-111.5-27.3c.1.2.1.5.2.7a1.85 1.85 0 0 0-.2-.7zm.6 2.6a14.61 14.61 0 0 0-.5-2c.2.6.3 1.3.55 2zm331.1-78.1s6.8 38.8 7.8 52.5c1.5 20.4 10.4 119.7 12 150.1 1 16.7 7.6 56.7-1.7 88.1-7.5 25.8-31.1 45.3-31.1 45.3h118.7s-22.4-135-30.8-179.5-22-117-22-117l-4.2-39.5h-48.7z"/>
<path class="rightLeaves work-st7" d="M534.55 69.9a110 110 0 0 0 .7 38.8c3-5 1.1-11.3.4-17.1a41.23 41.23 0 0 1 3.9-23.7c-1.4 5.8-2.8 11.7-1 17.7 1.8 6.6 5.4 18.3 5.7 20.5-.2-2.4-1.5-20-2.2-28.7a71.29 71.29 0 0 1 4.4 24.6 8.11 8.11 0 0 0 0 2.2v-1.9c.3-3.3 1.8-6.5 1.5-9.8-.8-10.9-3.9-21.8-3.3-32.7.6 8.8 5 12.4 6.5 23.3a263.38 263.38 0 0 1 1-38.7c1.2 9.2 2.5 18.5 3.7 27.7.4 3.2 1.1 6.6 3.6 8.6a126.4 126.4 0 0 1-3.2-42.9 167.34 167.34 0 0 0 9.8 38.8 124.1 124.1 0 0 1-1.4-42.1c1.2 14.4 2.9 45.1 3.7 43.2.8-2.1-1.8-33 1.4-42.8.4-1.4 2.2-6.8 4.3-3.1s5.5 12.3 6.1 12-.1-8.8.4-9.1c.4-.1 5.8 17.1 5.5 13.5s-3.3-24.2-2.9-24.3c.6-.3 8.6 11.1 13.2 17.9a61.21 61.21 0 0 0-7.1 7.3c2.9-1.7 5.8-3.3 8.6-5.1.3.4.5.8.7 1.1-3.7 2.7-10.6 9.5-9 8.8 2.3-1 9.1-5.7 10.4-5.9 1.7-.4-2.2 2.6-3.2 3.3-3.2 2.3-10.3 12.8-9.3 12.3 1.5-1 2.5-3.9 4.7-6.2 2.6-2.6 6.5-4.8 8.1-5.9-2.6 2.9-6.4 5.2-8.8 8.4-2.1 2.8-4.7 7.3-4.8 9 0 .8 1.8-1.4 3.3-2.9 1.9-1.9 3.7-3.5 5.4-5-2.2 3.5-4.4 6.9-6.6 10.4-4.1 6.4-7.3 20.8-7.3 20.8s5.1-11.5 7.9-17.1c-.8 4.3-1.8 8.7-1.1 13.1a28.16 28.16 0 0 1 1.4-6.4c.7-1.7.1 11 .6 11.7 1.7-2.8 3.2-16.4 3.2-16.4l1.1-6.5s.8 22.8 2.1 22.4c.6-4.1.1-12.8.1-12.8L602 56.8s-1.2 16.7.7 28.4a29 29 0 0 1 2.1-13 55.23 55.23 0 0 0 1.8 16.2c.4-5.4 5-17.9 6.9-24.4.8 5.7 1.7 11.3 2.6 17.1.7-7.5 1.5-14.8 2.2-22.2.7 6.2 1.4 12.6 2.1 18.8.6-10.1 1.7-20 3.3-30 1 9.9 1.7 19.8 1.9 29.7a22 22 0 0 0-1.2 6.2 67.39 67.39 0 0 1 5.5-11.9c-.4 1.4-.8 2.8-1.2 4.1a42.22 42.22 0 0 1 6.5-9.7 2.34 2.34 0 0 0 .7-.7v4.1c-1 1.2-1.9 2.5-2.9 3.8-2.6 3.6-11.6 27.2-13.1 30.8s10.8 27.1 12 29.3c3.9 7 8.7 13.5 13.5 20-3.9-9.7-15.6-32.6-15.6-32.6s14.7 15.6 19.7 21.1a6.41 6.41 0 0 0-1.8-4.1c-2.9-4.3-5.8-8.4-8.7-12.7a79.66 79.66 0 0 0 13.1 13.5c-4.6-6.2-9.1-12.6-13.7-18.8-1.7-2.2-3.5-4.8-3.2-7.6 2.1 2.5 3.3 5.5 4.8 8.4a68.12 68.12 0 0 0 12 16.2 322.36 322.36 0 0 1-14.5-29.5c4.4 7.9 8.8 15.7 13.4 23.7-.1-2.8-4.7-16.8-9.6-24.6 5 6.1 9.8 12.3 14.2 18.8-.8-2.2-5.2-17.4-8.5-22.2a17.47 17.47 0 0 1 7.2 7.3c0-6.9-8.4-10.8-10.9-17.4-1.7-4.4-.7-10.2-4.3-13.4a60.33 60.33 0 0 1 17.4 25.4c0-1.7 0-3.2-.1-4.8 1.2 1.2-4.8-14.1-6.2-16.5 5.1 5.7 10.4 11.3 15.5 17-2.6-4.3-10.8-20.4-10.8-20.4l7 8.1s0-3.6-4-8.1-3.5-4.4-5.4-6.1 10.5 5.1 13 8.6a18.06 18.06 0 0 0-2.5-9.9c1-.1 3.9 2.8 4.6 4.1-.7-1.4-2.5-6-2.8-7a5 5 0 0 1 2.1.1v-.1c.9 1.8 1.9 3.5 2.8 5.3-1.6-8.2-7.2-15.1-11-22.5.1-2.2.2-4.4.4-6.5 2.9 2.8 14.2 18.6 16.4 23.7q-4.35-10.95-9-21.9a103.85 103.85 0 0 1 7 13.2c-.9-10.2-9.4-29.3-9.5-29.5a128.58 128.58 0 0 1 9.2 13.9c-3.8-7.3-8-15.4-9.4-19.2 0-.5 2.9 3.1 5.2 7.3.1.6 11.4 21.7 11.4 21.7s-7.7-22.4-9.6-28.1c1.7 5 8 20.9 9.2 22.8.7 1.2-1.6-6.4-4-14.6.1-1.9.2-3.9.4-5.8.6 1.4 1.1 2.8 1.6 4.1.2 2.5.3 5.1.5 7.7a5.19 5.19 0 0 0 1.7-1.9c.7 1.7 1.1 2.9 1.3 3.3-.3-1.4-.6-2.9-.9-4.3a15.09 15.09 0 0 0 .5-4.2c0-8.1 0-16.3.1-24.6.4 8.1 3.2 16.2 4.3 24.4a74.94 74.94 0 0 0 .4-14.2c0-5.8-.1-11.2-.3-16.7a98 98 0 0 0-1-13.3 3.59 3.59 0 0 1-.2-1.1h-9.5c.2 2.1.4 4.1.5 6.2.4 6-.4 12-1 18-.4-1.2-.8-2.4-1.2-3.5.1-3.3.3-6.6.5-9.9a2 2 0 0 0 .4.8 7 7 0 0 0-.3-2.9l.6-8.7h-3.2v.4a1.47 1.47 0 0 0-.2-.4h-39.4c1 1.1 2 2.3 2.9 3.5a39.82 39.82 0 0 0-6.7 5.6c-.9-2-1.7-4-2.6-6a8.67 8.67 0 0 1 2.3-3.1h-16.7C597.85-3.7 576.45 8.2 559 28c-21.8 24.7-32.7 45.3-32.3 59.2v1.2c1.8-5.9 3.5-12 5.2-17.9-2.3 14.2-4.6 28.4-6.9 42.7 7.25-13.1 5.15-29.1 9.55-43.3zm129.8-27.1v.2a1.06 1.06 0 0 1-.2-.5c.1.1.1.2.2.3zm8.4-22.1c.3.7.6 1.4 1 2.3a34.93 34.93 0 0 0 .5 6.5c-.5-1.8-1-3.6-1.5-5.1v-3.7zm-2.5 5.3a2.27 2.27 0 0 1 .1.4c0-.1-.1-.3-.1-.4zm.1-34.2c.2.5.4.9.6 1.4-.1 3.3 0 6.6-.2 9.9-.3-.4-1-.8-1.1-.6a63.44 63.44 0 0 1 .7-10.7zm-2.6 28a8.6 8.6 0 0 1 .1 1.6c-.6-1.7-1.2-3.1-1.6-4.2a13.5 13.5 0 0 1 1.5 2.6zm-11.1 24c.2 1.7.3 3.5.4 5.2a36.87 36.87 0 0 1-1.8-6.5 8.64 8.64 0 0 1 1.4 1.3zm-3.2.7l3.6 6.6c0 .7.1 1.4.1 2.2a11.35 11.35 0 0 0-1.5-2.3c-.7-1.1-1.6-2.2-2.4-3.3.1-1.1.1-2.1.2-3.2zm-24 25a34.54 34.54 0 0 0-2.5 4.1c1.9-9 1.9-18.4 1.5-27.8a4.18 4.18 0 0 1 .4 1c-.1-.7-.3-1.5-.5-2.3-.1-3.5-.3-7-.5-10.4.3 2.2 2.9 5.8 2.9 7.3A95.21 95.21 0 0 0 633 59.1a74.75 74.75 0 0 0-3.5 10.4zm3.6-5.1c-1.1 1.4-2.2 2.8-3.2 4.1a63.29 63.29 0 0 1 3.6-8 18.24 18.24 0 0 0 .7 2.5c-.4.5-.8 1-1.1 1.4zm2.7-27.2c0 5.4 0 10.8-.1 16.2-.5.9-.9 1.7-1.3 2.6-.2-5.5-.2-12.5 1.4-18.8zm0 23.8a10.63 10.63 0 0 1-.9 1.1q-.15-1.5-.3-3.6c.4-.7.8-1.3 1.2-2V61zm4-10.3c1-1.2 1.9-2.4 3-3.6V49a32.94 32.94 0 0 1-5.1 9.4c.6-2.6 1.35-5.2 2.1-7.7zm-2.7 10.8a13.65 13.65 0 0 1 1.7-1.7l1.7-1.7c-.2.7-.4 1.1-.5 1.6-.9.7-1.9 1.5-3 2.2a.6.6 0 0 1 .1-.4zm2.4.4c-.8 2-1.6 4-2.5 5.8l-.9 1.2c.2-1.5.4-3.1.6-4.6a20.94 20.94 0 0 1 2.8-2.4zm-3.3-66.3c.1.1.2.3.3.4a30.09 30.09 0 0 0-7.8 4.4 10.09 10.09 0 0 0-.7-1.5 29.38 29.38 0 0 1 8.2-3.3zm-8 14c.2.7.5 1.4.7 2-.7 1-1.4 2-2.2 3.1-.4-1.3-.8-2.5-1.1-3.7.8-.4 1.6-.9 2.6-1.4zm-3.6-1.6c0-.1-.1-.3-.1-.4a16.27 16.27 0 0 1 2.3-1.1c-.7.5-1.5 1-2.2 1.5zm-2.1-9.3a29.17 29.17 0 0 1 2.9 4.8c-.5.5-1 1.1-1.5 1.7-1-3.6-1.6-6.1-1.4-6.5zm-25.4 42.4a6 6 0 0 0-.6-1.9l3.4-2.5a7.1 7.1 0 0 0 1 1.4c-1.3 1-2.5 2-3.8 3zm1.5 3.9c-.2-.4-.3-.8-.5-1.2 1.6-1 3.1-2.1 4.6-3.2a5.5 5.5 0 0 0 .7.9c-1.3 1-3 2.3-4.8 3.5zm5.1-8.9a7.74 7.74 0 0 1-.7-1.6l.8-.6c.3.5.5 1.1.8 1.6l-.9.6zm1.8 3.7c-.2-.3-.3-.6-.5-.9a2.7 2.7 0 0 0 .8-.7c.1.3.3.5.4.8-.15.3-.5.5-.7.8zm13.4-14.4c.1 0 .1-.1.2-.1.2.4.4.8.6 1.3-.3.2-.6.3-.9.5-.2-.4-.3-.8-.5-1.2a2.65 2.65 0 0 1 .6-.5zm-2.4-5.6c.2.4.4.9.6 1.3-.2.1-.3.2-.5.3-.2-.9-.3-1.4-.1-1.6zm-.7 7.4a3.7 3.7 0 0 1 .5 1.1c-.4.2-.7.4-1.1.6a5.64 5.64 0 0 1-.4-1.2 3.13 3.13 0 0 0 1-.5zm-3.2-6.3l1.2 2.4a1 1 0 0 0-.5.4c-.4-1-.7-1.8-1-2.6.1-.1.2-.1.3-.2zm-.7 8.1c.2.5.5 1 .7 1.5-.5.3-.9.5-1.4.8a13.32 13.32 0 0 1-.5-1.9 5.64 5.64 0 0 0 1.2-.4zm-2.6-4.7a16.18 16.18 0 0 1 1 1.8c-.2.2-.4.3-.6.5-.4-1.8-.6-2.7-.4-2.3zm0 11.5a10.45 10.45 0 0 0-2.1 2.1 1.42 1.42 0 0 1-.2-.6 18.39 18.39 0 0 1 2.2-1.7.2.2 0 0 0 .1.2zM608 33.3a13.73 13.73 0 0 0-2 1.3c-.2-.6-.5-1.2-.7-1.8l1.7-1.3c.25.6.55 1.1 1 1.8zm-4.6-7.5a34.19 34.19 0 0 1 2.6 4 8.64 8.64 0 0 0-1.4 1.3c-1-2.9-1.7-5.2-1.2-5.3zm-4.1-.3a59 59 0 0 1 3.8 7c-.2.2-.5.4-.7.6-2.35-4.9-3.95-8.6-3.15-7.6zm.2 10.5c-1.3 1.3-2.4 2.4-3 3.1-.4-1.1-7-12.1-7.6-14.2-.75-2.8 10.15 10.5 10.55 11.1zm94.6-16.8c-2.9 13.1-4.6 26.7-.6 39.3-.4-21.5 2.7-43.7 13-62.6-2 6.8-4.1 13.6-5.5 20.6-2 9.4-2.9 19.1-3.7 28.6-.4 5.6-1 11.2.5 16.7-1.7-9.7.4-19.9 2.6-29.5 3.1-13.8 6.8-27.5 12.6-40.4a128.82 128.82 0 0 0-3.1 25.5 120.58 120.58 0 0 1 6.5-19.5c-.6 13.7-6.7 26.5-13 38.8A102.67 102.67 0 0 0 720.25.5a231.94 231.94 0 0 1-8.6 31.7c-1.4 3.9-2.7 7.8-2.5 11.6a108.66 108.66 0 0 0 10.3-27.7c.9-3.9 1.7-8.2 3.8-11.6.4 1.8-7.3 32.9-10.4 41.3 2.3-4.6 12.3-21.9 13.9-26.7.5 1.5-1.7 12.7-3.6 16.8-3.6 7.5-7.9 14.8-10.2 22.7A87.55 87.55 0 0 0 729 27.4c.2.7.4 1.3.6 2-2.6 11.5-7.9 22.7-13.1 33.4a127 127 0 0 0 14.9-29.1 28.92 28.92 0 0 1 .1 7.2c-.9 3.3-2.2 6.5-2.5 10-.3 2.8.2 5.5.3 8.4a33.4 33.4 0 0 1-2.9 15.6c4.3-6.8 3.7-15.4 5.4-23.3.8-3.7 2.2-7.1 3.3-10.7a39.22 39.22 0 0 1 2.8 17.9c0 2.5-.7 3.9.1 3.7.2-.1 4.4-10.9 2.4-18.2-.8-2.9-2-7-3.2-10.9a10.68 10.68 0 0 0 .3-2.5v-1.3a57.1 57.1 0 0 1 4.3 9.8 66.88 66.88 0 0 1 3.2 13.2s2.6-12-1.8-20.1-5.6-11.9-2.3-7.8 7.6 18.6 7.6 18.6-3.3-20.3-10.3-31.4c-4.7-7.4-11.9-17.2-16.2-23h-19.7a288.79 288.79 0 0 0-8.25 30.3z"/>
<path class="leftLeaves work-st7" d="M201 25.1c-2.2 4.1-12.7 21.8-12.7 25.1.9-.6 5.6-9.8 7.3-13.1-1.5 3-5.4 11.6-6.5 20.1-.3 2.2 6.4-16.8 4.3-5.8s-3 17.3-2.3 19.3c1.2 3.9 3.6 7.3 5.8 10.6 2.9 4.4 5.8 8.8 8.7 13.3a118.88 118.88 0 0 1-11.5-24.8 39.82 39.82 0 0 1 11.7 9.9c1.8 3 3.6 6 5.3 8.9v-.3l.9 2.1c-.3-1-.6-2-1-3a77.18 77.18 0 0 0-5.5-18.1c3 5 5.9 9.9 8.9 14.8-3.5-11.6-8.4-22.8-13.4-33.8 5.9 10.5 12 20.8 17.9 31.3a109 109 0 0 0-17.5-36.3 123.52 123.52 0 0 1 19.3 30.6c-1.7-7.5-5.7-25.2-11.1-34 6.2 9.5 11.9 19.2 17.3 29.1q-8.9-21.9-19.55-43.2c2.3 4 5 3.7 7.7 7.6 4.3 5.9 8.9 14.9 13.7 21.1-.9.9-1.9 1.7-2.8 2.6 1.1-.7 2.2-1.3 3.4-2a17.41 17.41 0 0 0 1.2 1.4c-.2-.6-.5-1.1-.7-1.7 1.1-.7 2.2-1.3 3.4-2 .4.6.8 1.2 1.2 1.7-.2-.7-.5-1.4-.7-2 5.6-3.3 11.3-6.5 16.8-9.8a102.11 102.11 0 0 1-10.4 10.4 226.86 226.86 0 0 1 31.9-19.5c-13.7 12.4-26.9 25.4-39.3 38.9 8.1-5.8 15.9-12 23.3-18.5-8.4 9.6-14.4 24.4-21.2 31.5a195.77 195.77 0 0 1 25.5-21.8c-3.2 3.6-3.7 7.7-5.8 12-1.9 4.5-5.7 8.9-6.5 13.4a137.46 137.46 0 0 0 22.3-33.1c-1.5 4.4-3.2 8.8-5.1 13s-4.7 13.5-6.1 16.6c-1.4 2.9-5.5 10.6-6.2 18.5a220.22 220.22 0 0 0 17.1-39.6c-1.1 7.7-.6 15.9-2.6 23.5-1.8 6.6-3.5 13-5.7 19.5-1.2 3.7-4.3 7.6-3.7 11.5a72.61 72.61 0 0 0 5.2-10.9c2.5-6.5 4-13.3 5.7-19.9 2.6-10.6 1 .7.8 11.3 0 3.7-1.8 7.3-.4 9.9 1.8-2.6 2.1-5.9 2.5-9.1A397.34 397.34 0 0 1 280 53.7c-2.5 15.7-3.2 31.9-.3 47.8a52.52 52.52 0 0 0 3.2-28c4.1 10.4 12.3 21.8 14.4 31.6-1.7-12.6-3.5-25-5.5-37.4 2.8 9.5 5.9 18.9 9.5 28.2-.4-2.7-.9-5.4-1.4-8.1a23 23 0 0 0 5.4-6.6c.5-.9 2.8-5.7 3.6-6.9a1.38 1.38 0 0 0 .3-.4c2.2 4.3 4.3 8.6 6.5 12.8-.5-2.3-1.1-4.5-1.7-6.8 7.7-6.5 15.5-12.8 23.3-19.3-5.1 7.6-8.4 17.2-16.2 25.1 3-2.5 11-7.6 11-7.6s-7.1 6.2-8.9 9.8c7.5-4.6 13.4-11.3 19.1-17.9-4.6 6.5-9.1 13-13.7 19.5 4.4-4 9-7.9 13.4-11.9-2.1 6.8-7.5 13.1-10.7 21.2 4.3-2.3 7.3-6.4 10.1-10.2 3-4.1 6.1-8.3 9.1-12.3-1.8 10.2-11.3 17.4-15.5 26.9 4.8-6.2 9.7-12.4 14.5-18.6-1.5 8.4-7.5 21.1-10.95 29.4 3.6-4.3 7-8.7 10.4-13.3a28.38 28.38 0 0 1-8.1 14.5c5.4-3.2 8.6-9.1 11.3-14.8-.3 5.1-3 16.4-5.3 24.4a138.14 138.14 0 0 0 10.5-20.2c-.1 4.8-.6 9.9-2.8 14.2-2.2 4.1-6.2 8.1-5.5 12.8l5.8-10.1c1.8-3 3.6-6.2 4.3-9.7.8-4.1.1-8.3-.3-12.4a72.34 72.34 0 0 1 .6-18.6 7.16 7.16 0 0 0-.1-4.1c-.3-.6-.7-1-1-1.5a4.22 4.22 0 0 1-.3-2.2c0-2.5 0-5.1-.1-7.6.8 6.1 7.4 13.9 9.4 20-.3-9.7-3.6-18.9-6.9-27.9 3.5 7.7 10.8 14 14 19.8-1.8-7.7-4-15.5-7.9-22.2 4 5.8 8 11.6 11.9 17.4-1.4-4.4-4.2-15.5-7.8-19.5a43.27 43.27 0 0 0-6.5-8.3 2.09 2.09 0 0 1-.4-.6 2.09 2.09 0 0 1-.4-.6c3.2 1.9 5.8 4.6 8.8 7.3 2.5 2.2 11.7 7.3 14.1 9.7-1.9-5.8-13.9-12-18.2-15.7 5.4 1.4 13.8 3.5 20 10.8.3-4.7-4-8.3-7.5-11.5a62.54 62.54 0 0 1-10.9-12.6c3.6 2.1 5.8 5.7 8.3 9a54.66 54.66 0 0 0 12.4 11.6 31.85 31.85 0 0 0-6.4-8.2c9.3-4.8 9.6-18.9 18-25.1-3.9 10.8-7.7 21.4-11.7 32.2 5.5-8.3 10.8-16.8 15.5-25.7a88.23 88.23 0 0 1-8.6 29.7c5.8-10.2 11.5-20.6 17.3-30.8-3.7 13.5-15.7 39.3-13.7 39.8 1.5.3 5.6-11.5 10.3-22.1 1.9-4.4 10.4-14.7 11.8-16.5-8.1 13.1-16.9 25.7-20.1 40.6 5.3-9.1 11.1-18.1 17.3-26.8 3 12.3-6.8 25.9-9.9 32.8 3.6-4.6 7-9.1 10.6-13.7a53.76 53.76 0 0 1-8.3 18.4 46.93 46.93 0 0 0 6.8-9.1 49.75 49.75 0 0 1-4.4 15.6A72.38 72.38 0 0 0 424 69.8c2.3 9.7-4.2 18.6-5.7 22.4.8 1 12.8-18.4 12.8-18.4l-2.2 6.1s-5.4 12.6-5.2 15.7c.7-.6 6.5-11.7 6.4-9.9a23.36 23.36 0 0 1-1.9 6.2c2.6-3.5 4-7.7 5.4-12-.4 6.2-1 12.4-1.5 18.6 4.6-6.1 4.3-14.2 3.9-21.8-.3-4.1-.6-8.1-.7-12.3.7 2.1 1.5 4.3 2.2 6.9.6 2.1 1.1 4.8 1.5 4.3.8-1.5.7-6.8.3-10.2-.6-3.9-2.7-15.7-1.5-14.4 1 1 4.6 8.3 6.1 10.4 1.1 1.4.6-1.8.6-2.3 0-2.1-8.3-21-8.6-22.1.1.4 6.6 14.5 10.1 20.5-2.1-12.8-15.3-36.3-15.2-36.9.5.4 9.3 9.6 12.5 14.1 3.9 5.5 7.6 11 11.5 16.6a214.13 214.13 0 0 0-26.6-53c4.3 6.4 8.4 10.1 13.3 16.2 4.3 5.4 9 13.4 14.5 17.8a170.42 170.42 0 0 0-25.1-36.7c2.8 2.5 4.8 2.6 9.4 6.1 3 2.3 9.2 11.2 13.1 12.4a82.59 82.59 0 0 0-19.9-25.2h-28.9c-3.3 7.1-7.8 16.7-11.8 24.8a8.72 8.72 0 0 0-1.9-3.7c.2-.2.4-.5.6-.7l2.1 2.1c-.6-.9-1.1-1.8-1.7-2.6.7-.9 1.5-1.8 2.1-2.7a60.73 60.73 0 0 0 4.4-6.8c2-3.4 3.9-6.9 5.8-10.4h-5a106.08 106.08 0 0 1-7.5 16.9 5.39 5.39 0 0 1-.7 1.3c-1-1.4-2-2.9-3-4.3 3.2-4.6 6.3-9.2 9.3-13.9h-6.2L385.45-.6a10.59 10.59 0 0 0-1-1.2 54.18 54.18 0 0 0 5.5-9.3h-8.4c-.7 1.3-1.4 2.5-2.1 3.8l-2-2 1.6-1.8h-3.1l-.2.3-.3-.3h-4.5l.05.1a37.13 37.13 0 0 1 2.8 4.1c0 .1-.1.2-.1.3-1.3-1.5-2.6-3-4-4.5h-36L331-8.9c-3.8 2.9-7.6 5.7-11.4 8.6a6.07 6.07 0 0 1-.7-1c4.5-3.2 9-6.5 13.4-9.8h-17.7c-.8.6-1.7 1.2-2.5 1.8a14 14 0 0 1-1.3-1.8H306c1.2 1.4 2.5 2.8 3.8 4.2l-1.3 1.3a40.66 40.66 0 0 0-2.8-5.5h-27.6c-5.5 4.6-10.6 9.8-17.1 12.5-3.2 1.2-6.5 2.2-9.8 3.1q-3.9-8-8.1-15.6h-2.2c2.3 5.6 4.4 11.4 7.4 16.5a11.92 11.92 0 0 0-2 .8c-2.5-5.8-5.2-11.6-8-17.3h-10.2c3.3 4.4 4.9 9.7 6.8 14.8 1.1 3.1 2.4 6.2 3.8 9.2 1.3 2.8 2.8 5.6 4.4 8.3l-2.1 1.2c-3.2-6.5-6.4-13-9.5-19.5-2.1-4.4-4.3-9-4.6-14h-18C201.65-4 193.65 4.1 190.75 9c5.9-5.1 11.7-10.1 17.7-15.2a68.84 68.84 0 0 0-12.3 15.6c3.7-3.5 7.3-7 11-10.5a74 74 0 0 1-12.6 16.3c3.5-2.9 6.9-5.9 10.4-8.8.6 4.6-2.1 9-5.1 12.4s-8.3 17.9-7.5 17.4c3.5-2.3 8.3-12.8 11.7-15.2-.7 2.3-1.8 1.9-3.05 4.1zm186.6 11.6a14.47 14.47 0 0 0-3.4-4c.3-.5.6-.9.9-1.4 1.3 1 2.6 1.9 3.9 2.8-.55.9-.95 1.7-1.45 2.6zm-3.1-10.5l-2.7-4.2 2.1-2.4c1.4 1.5 2.8 3 4.1 4.5l-2.1 4.2c-.55-.7-1.05-1.4-1.45-2.1zm5 6.9a7.35 7.35 0 0 0-1.6-1.9c.6.3 1 .4 1.5.7a10.62 10.62 0 0 1-2.9-2.7c.8-1.3 1.7-2.6 2.5-3.9l2.8 3.4c-.75 1.5-1.55 2.9-2.35 4.4zm2.3-4.5c-.8-1.4-1.6-2.7-2.4-4 1-1.6 2.1-3.2 3.1-4.8a14.45 14.45 0 0 1 1.1 2.9 11.56 11.56 0 0 0-.8-3.2l10.5-16.2c-3.5 8.6-7.3 17-11.5 25.3zM393 14l-1.5 3a23.71 23.71 0 0 0-3.2-3.9l.1-.1c.7-.7 1.3-1.4 2-2.2.85 1.1 1.75 2.1 2.6 3.2zm-5.9-9.4c1.3 1.1 2.5 2.3 3.7 3.5a2 2 0 0 0-.4.8 31.89 31.89 0 0 0-4-3.3 3.59 3.59 0 0 1 .7-1zm-2.2-13.2c-.6 1.7-1.3 3.3-1.9 4.9a3 3 0 0 1-.8-.8c.9-1.4 1.8-2.7 2.7-4.1zM382.4.9a13 13 0 0 1 1.8 2.3l.1 1.1s-2.1-2-2.7-2.5a6.47 6.47 0 0 0 .8-.9zM380-.9c.2.1.5.4.8.6a6.13 6.13 0 0 0 .6.4 4.18 4.18 0 0 0-.4 1l-1.4-1.4c.05-.2.25-.4.4-.6zm-1.8 2.6c.6.4 1.2.9 1.8 1.3l-.3.6a1.2 1.2 0 0 0 .5-.5 81.81 81.81 0 0 1 9.5 7.2l-1.5 2.7a4.35 4.35 0 0 1-.7-.6c-3-2.8-6.5-5.1-9.2-8.1a10.59 10.59 0 0 1-1-1.2c.3-.5.6-.9.9-1.4zm-1.1-4.5a4.35 4.35 0 0 1-.6-.7 4.35 4.35 0 0 1 .55.7zm8.3 14.9c.7.6 1.5 1.2 2.2 1.8a20.47 20.47 0 0 1 3.5 3.7c-.9 1.8-1.8 3.6-2.6 5.4-1.1-1.8-2.2-3.5-3.3-5.2a25.45 25.45 0 0 0 2.4-3.9c-.9 1.1-1.9 2.2-2.8 3.2-2.8-4.2-5.7-8.2-8.8-12 2.9 2.6 6.4 4.7 9.4 7zM374.65-5.8c.1.2.3.5.4.7a2.65 2.65 0 0 1-.5-.6c0-.1 0-.1.1-.1zm1 5.6l-.3.6a13.66 13.66 0 0 1-1.5-2.1zm7.5 19.1c-.7.7-1.3 1.5-2 2.2-4.5-6.8-9.7-13-16.2-17.8a118 118 0 0 1 18.2 15.6zm-5.8 6.4c-.3.3-.6.7-.9 1a8.34 8.34 0 0 0 1.2-.8q3.45 2.85 6.9 5.4c-.2.5-.5 1-.7 1.5-1.3-1.1-2.7-2.1-4-3-5.9-4.6-10.9-10.2-15.7-16 4.2 4.2 8.7 8.2 13.2 11.9zm5.4 9.2l-.6 1.2c.2-.4.5-.7.7-1.1 1.3 1.1 2.6 2.3 3.9 3.4-1 2-2 3.9-3.1 5.7-1.1-1.2-9.9-11.2-12.5-15.6a10.1 10.1 0 0 0-2.8-3.7 16.66 16.66 0 0 0-2.8-1.8c-2.5-1.8-3.9-4.8-5.1-7.7 7.55 6.6 14.8 13.1 22.3 19.6zm-153.4 21.6c-3.4-8.3-7.1-16.5-11-24.5a240 240 0 0 0 13.8 22.1c-1 .8-1.9 1.6-2.8 2.4zm33.1-30.7c-5.1 3.2-10.1 6.6-15.1 10.1l-1.5-3c1.2-.5 2.3-1.1 3.5-1.6l.1.1v-.1c4.3-1.9 8.7-3.6 13-5.5zm-9.7-3.7c-.3-.8-.7-1.7-1-2.5 5.3-2.2 10.7-4.5 16-6.7-5 3-10 6.1-15 9.2zm-6 14.1c-1.6 1.3-3.3 2.5-4.9 3.6-.4-1.4-.9-2.8-1.4-4.2 1.2-.7 2.4-1.3 3.6-1.9a16 16 0 0 0 2.7 2.5zm-5.2 4c-1.6 1.2-3.2 2.3-4.7 3.5q-.6-2.55-1.2-4.8a37.52 37.52 0 0 1 3.6-2.4c.8 1.2 1.5 2.4 2.3 3.7zm-5.9-1.5c-.4-1.2-.7-2.4-1.1-3.6 1.1-.3 2.1-.7 3.2-1.1.4.6.7 1.2 1.1 1.8-1.1 1-2.1 2-3.2 2.9zm.5 5.5a24.72 24.72 0 0 0-2.7 2.1c-.5-1.3-1-2.7-1.5-4 .8-.7 1.5-1.4 2.3-2 .6 1.3 1.3 2.6 1.9 3.9zm-4.2-2c-.8-2-1.6-3.9-2.3-5.8l2.4-.6c.7 1.5 1.5 2.9 2.2 4.4a22 22 0 0 0-2.3 2zm-1 .8c.8 1.2 1.5 2.3 2.3 3.4-.7.6-1.5 1.1-2.2 1.7a135.45 135.45 0 0 0-5.8-13.6c1.8 2.9 3.75 5.7 5.75 8.5zm2 10.2c-.6-1.7-1.2-3.3-1.8-5 1.9-.9 3.7-1.9 5.6-2.8l.6 1.2a5.85 5.85 0 0 1-.2-1.3c10.9-5.4 21.7-10.9 32.6-16.2A160 160 0 0 0 233 52.8zm67.2 34.2c-2.7-15.2-6.2-30.4-10.3-45.4 6.4 10.8 17 26.7 18.9 30.4-.2.2-6.3 11.6-8.6 15zm-1.4-44.9c4.9 8.3 9.9 16.6 14.8 24.9-.3.3-.6.7-.9 1-.5.6-1 1.2-1.5 1.7a162.8 162.8 0 0 0-12.4-27.6zm4.6-3.9c.2.4.5.7.7 1.1-.1 0-.1.1-.2.1a6.11 6.11 0 0 0-.5-1.2zm11.5-1.2c.6.8 1.2 1.7 1.7 2.5-.6 1-1.2 2-1.7 3-.5-1.1-1.1-2.3-1.6-3.4.5-.7 1.1-1.4 1.6-2.1zM313 38.5c-.3-.6-.6-1.2-.8-1.7.5-.4 1.1-.8 1.7-1.3.1.2.2.3.3.5a11.5 11.5 0 0 0-1.2 2.5zm4.3 2c.1.2.3.4.4.6-.9.6-1.8 1.2-2.6 1.8-.1 0-.1-.1-.1-.2a23.9 23.9 0 0 1 2.3-2.2zm1 1.5c.4.6.9 1.2 1.3 1.9-1 .8-2 1.6-3 2.3a21 21 0 0 0-1.3-2.6c.95-.5 1.95-1 2.95-1.6zm-1.1 12.3a1.38 1.38 0 0 1-.4.3c-.1-.5-.3-1.1-.4-1.6a9.14 9.14 0 0 0 .75 1.3zm.2.3c.4.6.8 1.3 1.2 1.9a4.74 4.74 0 0 0-1 1 25 25 0 0 0-.7-2.6c.15-.1.25-.2.45-.3zm2.6 3.9c.1.1.2.3.3.4l-1.8 2.1c-.2-.6-.3-1.2-.5-1.8a11.76 11.76 0 0 1 2-.7zm-.6 6.2c1.1-.9 2.2-1.7 3.3-2.6a5.73 5.73 0 0 0 1.1 1.1c-1.3 1.3-2.6 2.7-3.8 4.1-1.1 1.2-2.1 2.4-3.1 3.6l-1.2-3.3c1.15-1 2.35-2 3.65-2.9zm1.2-10.1c-.2-.4-.4-.9-.6-1.4a49.41 49.41 0 0 0 4.2-2.7c.1.2.2.3.3.5zm-.9-2c-.3-.7-.6-1.3-.9-1.9a24.16 24.16 0 0 0 3.6-2.7c.4.5.7 1.1 1.1 1.6-1.3 1-2.5 2-3.8 3zm1.3-9.8c-.3-.6-.6-1.1-.9-1.7 2.5-1.4 5.1-2.9 7.5-4.4-2.15 2.1-4.35 4.1-6.6 6.1zm-1.5-2.9a4.67 4.67 0 0 1-.5-1 64.77 64.77 0 0 1 6.7-5c.4.5.8 1.1 1.2 1.7a78.9 78.9 0 0 0-7.4 4.3zm-1.2-2.6c-.4-.9-.9-1.8-1.3-2.6a45.27 45.27 0 0 1 5.7-5.1c.5.7.9 1.3 1.4 2a39.07 39.07 0 0 0-5.8 5.7zm.3-5.9c1.1-1 2.2-2 3.3-3.1.1.2.2.3.3.5-.9.6-1.7 1.3-2.6 1.9a3.59 3.59 0 0 1-1 .7zm3.1-7.8c-1-1.1-1.9-2.2-2.8-3.4 4.7-3 9.5-6 14-9.4 4.85-3.8-8.9 11.3-11.25 12.8zm-5.7-8.1a16.26 16.26 0 0 1-1.1-2.3c3.1-2.1 6.2-4.3 9.2-6.4a6.89 6.89 0 0 0 1.3 1.1c-3.15 2.6-6.25 5.2-9.4 7.6zm1 5.9c.8 1.2 1.7 2.4 2.5 3.6-1.8 1.3-3.6 2.6-5.3 4-.7-1.4-1.4-2.8-2.1-4.3 1.55-1.1 3.15-2.2 4.9-3.3zm-7-1.3c-.4-.9-.9-1.8-1.3-2.7 1.3-.9 2.5-1.7 3.8-2.5.5.7 1 1.5 1.5 2.2-1.35 1-2.75 2-4 3zm1.3 11.4c-.5.5-.8.9-1.1 1.2-.8-1.6-1.5-3.2-2.3-4.9a1 1 0 0 0 .5-.4c.95 1.4 1.85 2.8 2.85 4.1zm2.2 21.4c-.1.1-.3.2-.4.3a1.42 1.42 0 0 0 .6-.2c.5.8 1.1 1.7 1.6 2.6-.1.1-.2.1-.3.2a.76.76 0 0 1 .4-.2l1.5 2.7c-.8.8-1.6 1.5-2.4 2.3l3-1.2c.3.7.6 1.3.9 2-1.1 1.3-2.1 2.6-3.2 3.8q-4.8-12.9-10.5-25.2c2.85 4.3 5.95 8.5 8.75 12.9zm.8 26.5c-.8-2.7-1.7-5.5-2.6-8.3l.9-.9c.6-.6 1.3-1.1 1.9-1.7l1.8 3c-.2.3-.5.5-.7.8.3-.2.5-.4.8-.6.6 1 1.2 2 1.8 2.9zm3.9-4.8c-.4-1.1-.8-2.3-1.2-3.4 1.1-.9 2.2-1.8 3.4-2.6 1.7-1.3 3.4-2.5 5.1-3.8l.1.1v-.1c3.3-2.3 6.6-4.6 10-6.7-6.95 4.3-12.35 10.2-17.45 16.5zm18.1-22.9a86.54 86.54 0 0 0-11.9 10.7c-.2-.5-.4-.9-.6-1.4a35.84 35.84 0 0 0 2.9-2.6c2.1-2.1 4-4.3 6.2-6.4 3.6-3.2 7.9-5.5 12.1-7.9-2.25 3.3-5.75 5.3-8.75 7.6zm-11.5-1.6c2-1.4 4-2.9 5.9-4.5-2 1.7-3.8 3.3-5.7 5a.76.76 0 0 1-.2-.5zm14 20l2.5-2.5a62.06 62.06 0 0 1 7.3-7.2c1.5-1.2 3.2-2.2 4.8-3.5-4.4 4.9-9.6 8.9-14.6 13.2zM350 24.7c-.1 2.3-2.1 4.1-3.9 5.7-6.2 5.3-12.6 10.7-18.8 15.9-1 .9-2.1 1.8-3.1 2.7l-.9-1.8c3.1-2.6 6.3-5 9.4-7.5 5.85-4.7 11.95-9.5 17.3-15zm-21.6 7.4c6.3-4.1 13-7.9 18.9-12.5l-1.5 1.5c-2.5 2.6-4.8 5.7-7.6 8a47.68 47.68 0 0 1-8.7 5.2 15.06 15.06 0 0 0-1.1-2.2zm1.4-4.9c-1 .7-2.1 1.4-3.1 2.2a22 22 0 0 0-1.4-1.8c.4-.3.9-.6 1.3-.9 6.9-4.4 15-7 21.1-12.6-5.25 5.2-11.7 9-17.95 13.1zm-5-.2c-.2-.2-.4-.5-.6-.7.8-.7 1.6-1.4 2.4-2 5-3.9 10.9-6.5 16-10.2-5.55 4.8-11.75 8.7-17.85 12.9zm16.6-32.8q-7.65 6.9-15.6 13.5c-.3-.4-.7-.9-1-1.3 5.55-4 11.2-8.1 16.55-12.2zM327.45-.9c-1.7 1.5-3.3 2.9-5 4.3-.2-.3-.4-.5-.6-.8 1.9-1.2 3.7-2.3 5.6-3.5zm-7.1 4.6a6.47 6.47 0 0 1 .9.8l-7.4 6.5c-.3-.9-.6-1.8-.9-2.6 2.5-1.6 4.9-3.1 7.4-4.7zm-2.6-2.5c-1.9 1.3-3.8 2.8-5.7 4.2-.2-.5-.3-1-.5-1.5 1.7-1.2 3.5-2.4 5.2-3.6a9 9 0 0 0 1 .9zm-4.5-4.3a.42.42 0 0 1 .4.3l-3.2 3.2a5.64 5.64 0 0 0-.4-1.2c1.1-.8 2.1-1.6 3.2-2.3zm-3.8 13.6c.6.9 1.2 1.8 1.9 2.7-1.1.9-2.2 1.9-3.2 2.8-.6-1.2-1.2-2.4-1.7-3.7q1.35-.75 3-1.8zm-1.4-2.1c-.9.6-1.7 1.3-2.6 1.9-.3-.5-.6-1.2-.9-1.8.8-.5 1.6-1 2.4-1.6.4.5.7 1 1.1 1.5zm-2.3-3.1c-.6.6-1.2 1.3-1.8 1.9-.5-1-.9-2-1.4-3.1.6-.3 1.1-.7 1.7-1 .5.8 1 1.5 1.5 2.2zm-2.6-3.7l-1.1 1.4c-1.3-2.8-2.5-5.6-3.8-8.4 1.75 2.3 3.3 4.7 4.9 7zm-12.8-9.8c-11.4 7.5-23 14.8-34.8 22-1-2.2-2-4.4-3.1-6.5 12.6-5.2 25.2-10.4 37.9-15.5zm-40.2 16.4a31.17 31.17 0 0 0 5.2 5.7c-1.5.9-3.1 1.9-4.6 2.8-1-2.5-2-5-3.1-7.5.8-.3 1.7-.7 2.5-1zm1.1 11.1c.4.8.8 1.6 1.3 2.5l-5.4 3.3c-.4-1.2-.8-2.3-1.3-3.5 1.8-.8 3.6-1.5 5.4-2.3zm-7.4 3.2c.7 1.1 1.4 2.3 2.1 3.4-.8.5-1.7 1-2.5 1.6-.7-1.4-1.4-2.7-2-4 .8-.3 1.6-.7 2.4-1zm-1.3 8.9c.1.1.1.2.2.3-.9.8-1.7 1.6-2.6 2.4a6.94 6.94 0 0 1-.5-1.3c1-.4 1.9-.9 2.9-1.4zm-1.7-2.4a23.93 23.93 0 0 1-2.1 1.3c-.6-1.6-1.2-3.3-1.8-4.9.5-.2.9-.4 1.4-.6.8 1.4 1.6 2.9 2.5 4.2zm-4.8-8.2c.6 1.1 1.2 2.3 1.8 3.4-.4.2-.8.5-1.2.7-2.1-5.6-4.5-11-7-16.4 2.2 4.1 4.35 8.2 6.4 12.3zm.5 10.9c-.8.5-1.6 1-2.5 1.5a152.94 152.94 0 0 0-10.8-24.1c4.3 7.5 8.75 15.1 13.3 22.6zm-4.9 3c-.7.4-1.3.8-2 1.2-3.9-9.8-8.1-19.6-12.6-29.2 5 9.3 9.95 18.6 14.6 28z"/>
<path class="vignette work-st7" d="M0 0v300h960V0H0zm480 293.48c-181.19 0-328.08-64.28-328.08-143.58S298.77 6.32 480 6.32 808 70.6 808 149.9 661.16 293.48 480 293.48z"/>
</svg>
