<svg class="svg-work-life-balance" xmlns="http://www.w3.org/2000/svg">
  <style>.workLife-st0{fill:#f90}.workLife-st1{fill:#ffb53c}.workLife-st2{fill:#f3f7ec}.workLife-st3{fill:#ffc854}.workLife-st4{fill:#f5db75}.workLife-st5{fill:#f1eab1}.workLife-st6{fill:#623b19}
  </style>
<path class="workLife-st0" d="M-15-59.8h1035.9v185.9H-15V-59.8z"/>
<circle class="workLife-st1" cx="386.7" cy="102.6" r="41.4"/>
<ellipse class="workLife-st2" cx="386.5" cy="102.7" rx="7.7" ry="7.6"/>
<path class="workLife-st0" d="M676.3 97.2c1.8 4.7 6.1 3.6 8-.8s-2.2-2.8-2.3-4.6-.1-4-1.5-5.1c-1.2-1-2.5-2.3-4.3-.7-2 1.7-1.7 6.5.1 11.2z"/>
<path class="workLife-st3" d="M628.5 103.7c-6.8-.4-8.6-7.6-.3-9.5s17.2 3.2 20.7-3.1-11-12.8-12.1-16.4c-.8-3.2 1-7.6 7.7-7.3s22.3 4 23.5 11.6-4.9 10.4-3 13.4 18-1.4 26.1 4.6c8.1 4.4 33.6 1.2 29.7-8.7-1.7-3.6-8.7-3.3-8.7-7.3-.1-3.9 7.5-.7 8.8-6.5s6.4-2.8 7.5-3.5c1.8-1.1-6-10.3 3.4-13.8 3.2-1.1 12.3-2.4 17.8 7.2 1.8 3.7 9.6-1.7 19.2.6s4.8 13.5 9.5 16.5c1.7 3.2.8 7.2 2.8 10.1 1.9 2.8 6.2 3.5 8.8 1.4s3-6.5.8-9c-1.9-2.1-5.5-4.3-4-6.6.8-1.4 2.8-1.4 4-2.3 1.7-1.4-2.4-9.9 3.2-19s11.2-17.1 21.2-10.7-3.4 18.4 2.5 20.8c3.7 2.5 6.1 6.9 5.8 11.3 3.6-.7 13.1-.9 22.1 14.7 1.5.4 27.8.4 29.4 5.1s-4 3.7-6.9 3.6c-24.3-1.2-232.8 3.4-239.5 2.8z"/>
<path class="workLife-st4" d="M785.1 25.7c.3 2.5 5.5 1.4 10.2 1.4s7.6 7.3 20 5.8 17.5 3.3 14.2 6.5-8.4 3.3-8 6.1 5.1.8 8 3.3 12.2-10.3 17.3-6.6 12.8-5.9 15.2-1.2c2.3 4.7-5.3 2.1-4.5 6.1.8 3.9 16 .2 17.6-6.9s21.7-6.2 25.5-7.9c3.9-1.7 2.5-8.1 3.7-11.7.8-2.3 7.3-.2 6.9-3.8-.5-3.6-7.5-.9-10-1.6s-5.1-4.4-4-7.6c.8-2.2 2.2-1.1 4.6-4.9s-10.1-5.3-11.7-7 2.5-9.2-.6-10.8-11.3-3-12.6-1.2c-1.5 2.3 3.3 4.1 0 8.8-3.2 4.6-17.4 2.7-19.9 6.5s.4 7.2-2.6 8.7c-3 1.4-2.2 2.9-1.5 3.3 1.4 1.1 5.4 4.9-.3 8.5s-7.7 7.8-10.9 3.4 2.9-7.8 4.9-9.6c1-.9 1.5-2.1.4-4-1.1-1.8-5.5 2.8-7.4.2s2.5-9.9 4.7-14.2-5.7-1.2-6.8-1.8-.3-3.9 2.9-6.5-3.2-9.5-6.2-8.4c-3 1.1-8.3-2.9-10.5-1-2.2 2.1-3.5 5.8-2.9 9.1.4 2.9 2.1 5.7 1.7 8.6-.4 3-2.5 4.8-4.1 6.9s-2.9 5.8-1.2 7.9c-1.8-1-3.2-2.6-5.8-.8s1.1 9.1-5.7 10.5c-6.9 1.4-3.8-1.6-7.6-1.7s-2.3 2.8-6.7 2.8-6.7 2.3-6.3 4.8zM559.9 49.8c-2.6-2.2-1.4-5.2.4-5.8 1.8-.6 6.1 3.5 9.4 4.6 2.3.8 5.8-.7 7.5 1.1 3.2 3.9 14.8 2.4 19.8 5.8s3.4 9.8-1.6 9.1c-4-.6-2.3 3.5-7.9 2.8s-8.8-4.6-17.2.2c-3.7 1.9-12.7-.8-14.5.4-1.2.8-2.8 2.2-3.9 1.1-1-1-.1-2.5-.6-3.7-1-2.9-6.2.7-8.1-2.5-3.3-8.8 19.2-11 16.7-13.1z"/>
<path class="workLife-st3" d="M545.1 72.4c-3 1.8-3 1.8-9.2-.7s-8 5.4-5.4 7.6c2.5 2.2 14.7.4 16.7.6s7.8 2.2 10.8.5-9.9-9.8-12.9-8zM503.2 102.8c-2.9-.3-7.2 3.5-3.7 3.5s80.8-.6 85.7-.7.2-9.5-6.8-9-3.9 2.6-7.4 3.3-7.3-4.6-9.9-2.1c.8-4.4 1.2-7.1-6.8-10.2s-13.7 3.5-14.8 5.2-2.8 3.1-7 .8c-2.3-.6-3 3.3-5.2 4.1-2.6 1-4.4-2.8-6.8-4.1-2.2-1.2-5.2-.7-7.3-2.3-1.4-1.2-1.8-3.3-2.6-4.8-1-1.7-4-2.9-5.2.1s-4.3 5.8-3.9 9c.3 2.4 2.9 7.4 1.7 7.2zM458.6 99.5c-1-1.2 1.4-4.9 4.4-5.8s1.5-4.9 5.5-4.9c4.1 0 4.7 3.5 5.4 4.4 3 4.4 16.2 2.4 17.3 4.5 1 2.1-3.7-.3-8.8 1.9s-10.1 1.3-15 1.5-7.8-.3-8.8-1.6z"/>
<path class="workLife-st4" d="M459.4 51.9c4.4 2 8.1-1.4 11.8-1.1s3.5 3.3 5.8 3.5c2.2 0 8.6-4.9 13.3-3.5s3.5 6.7 9.7 5.8c3.6-.5 8.3-.4 6.5 3.1s-25.1 5.8-36 5.2-14.6-6.2-21.5-5.5-17.6 9.8-18.5 6.3c-.9-3.4 4.3-3.3 6.5-4.8s-.3-2.9.3-4.3 2.1-.8 3.3-2.2c1.4-1.4.2-3.9 3.1-6s11.3 1.5 15.7 3.5z"/>
<path class="workLife-st3" d="M423.7 99c-1.1 2.6-7.2 1.6-7.7 5.2s.9 2.9 2.3 3.2c2.8.7 20.3.4 30.4.6 2.5 0 7.3 1.5 7.3-2.1s-7.8-2.7-9.2-4 2.9-.7 3.3-2.1c2.7-5.6-7-5.1-4-10.5-.4-2.2-4.9-2.6-6.5-4.5s-.1-7.7-2.3-8.9c-3-1.8-8.7 2.3-12.5-3.4-1.8-1-3-.6-3.6-1.4-.4-.8-3.8-8.1-7.1-5.4-3.3 2.7 3.1 4.9 4.2 7.1.6 1.2.1 2.8 1 3.7 8.5 1.9-5.1 3.3-5 6.3s4.9 3.1 9 1.8 9.6 9.5 7.2 10.9-5.8.8-6.8 3.5zM352.4 60.9c4.4-.8 3.9 3.7 6.2 5.8s3.7-.7 4.7.7c.7.8.1 2.1.7 3 .7 1.1 2.2 1 3.5 1.1 3.3.3 8.8 6.2 5 7.2-3.9 1-7.9-3.4-10.3-2s-1.5 4.9-3 5-2.2-1.8-4.4-1c-2.2 1-2.9 5.1-6.7 3.4-3.9-1.7 0-4.6-1.9-5.6s-13.2-1.7-10.5-4.8 3.9 1 5.5 0c1.5-1-4-3.7-2.3-5.7 1-1.2 6.7-.1 9.7-1.7 2.4-1.1 1.9-5.1 3.8-5.4zM318.1 81.6c-1.2 0-7.1.4-14.7-1.1s1.4-9.4-6.2-10.5-12-11.1-12.4-14c-.3-2.9 6.1-13.6-1.3-17.7-5.8-3.9-10.5.4-11.5.9-2.4 1.2-4.9-1.2-7.7 1.4-2.8 2.6 6.1 11.2 4.1 13.5s-6.4-4.3-8.7-2.1c-2.3 2.2.8 2.5 1.3 3.9-2.9 1.1-3.4 6.6-.7 8.4 1.3 1 7.4 4.3 5.9 5.8s-7.7-3.8-8.7.2c-1 4.1 9.5 10.1 6.3 14.4-3.2 4.3-2.4-2.5-8.2-1.9s-9.9-7.8-7.4-9.6 5.9 2.5 7.2-.4c1.3-2.9-2.7-5.8-5.2-5.5.3-3-1.8-9.7-10.6-10.9s-11.3-.4-14.7-3.3 2.2-12.7-5.9-9.9c-2.1.7-9.1.3-8.6 4.5 0 2.9 6.8 6.9 0 8.6s-13.3-2.7-16 2.5 9.8 8.8 8.1 13-15 1.2-15.5 5.5c-.5 4.4 6.8 3.7 9.7 4.2-5 8.1 3.2 16.3 10.4 14.3 0 .3-2.5 2.1 1.4 3.2s17.5-.8 21.8 5.6c3.2 3.3 13.1 8.2 15.5 5s-4.5-5.8-4.7-7.7c5.6.4 11.1.8 16.7 1.2 1.6.1-1.1 6.9 4.2 6.4 5.3-.5 14.7 2.1 14.8.3s-2.4-1.7-3.7-2.5c4-1.5 10.9.8 12.5-.8 1.6-1.7-5.8-4.1-8.8-6.1 4.6.6 10.1-1 14 1.8s6.5-2 5.9-4.2-3.1-2.3-5.1-2.5c-3.5-.3-9.3-1.3-10.1-3.3-.8-2 23.7-7.4 32.9-4 3.7 1.4 8.2 5.2 11.1 2.8 3.1-2.5-3.2-9.5-7.4-9.4zM244.2 93c-2.5-1.2 1.3-5.4 3.7-3.5s11 2.3 14.8 2.2c-.9.4-8.5 4.7-18.5 1.3z"/>
<path class="workLife-st4" d="M73.2-27.2c1.8 7.4-1.3 18.7 6.5 18.1s11.2 3.8 13.7 4.5c2.5.8-2.1 4 .7 6.5 1.4 1.2 18.5 6.5 17.5 11.1s-6.6 1.5-8.1 4.4c-1 1.8-4.4.6-5 4.3-.7 3.7 1.9 1.2 3.2 9.6 1.3 8.4 34 3.9 39.8 10.4 5.8 6.5 9.3-6.2 16.6-4.1 7.4 2.1-5.4 6.6-1.1 10.6s15.4-3.3 20-2.7 8.7 3.9 12.6 3 .8-2.6 2.9-3.3c2.8-1 10.5 3.9 12.3-2.5 1.1-3.7-.3-6.3-4-4s-11.5-11.8-6.6-14.2 8.2 6.7 12.1 5.2c3.9-1.5.1-9-2.1-11.3-4.7-4.7-10.9-3.5-15.3-5.9s-9.7-16.2-14.5-16.3-9.4 2.1-13 1.8-5.9-9.2-2.2-9.5c3.7-.3 7.5 6.2 9.9 3.5 2.6-2.8-4.1-6.4-7.6-8-5.1-2.5-13.1-10.4-15.3-7.6-2.2 2.8-.6 4.4-.3 6.9s-3.7-3.9-5.4.7c-1.8 4.6 7.6 9.6.1 12s-.8-9-5.3-13.6-11.2 2.2-14.9.6c-3.7-1.6-.6-11-9.2-11.8-8.6-.8-10.8-3.5-14.3-4-3.5-.4-9.3 6.2-12.1 3.1-2.8-3.1-13.4-4.9-11.6 2.5z"/>
<g>
  <path class="workLife-st1" d="M-15 117.1h1035.9V249H-15V117.1z"/>
<path class="workLife-st3" d="M461.9 117c16.4-.1-17.9 12.3-8.4 15.7s32 12.5 8.3 12.5c-12.3 0-33.8.5-35.5 3.2s13.4 1.2 11.2 9.5c-2.2 8.3 9.8 4.2 10.2 13.2s-14.5 9.6-6.4 13.2c3.7 1.7 10.9 2.5 17.8 3.4 26.1 3.2 45.8 9.3 32.3 12.3-5.1 1.2-9.8 2.7-8 4.4 1.2 1 4.8 1.9 8.6 2.4 20 3.2-10.6 22.8-99.7 19.8-20.2-.7-42.4-16.9-59.8-18.1-29.7-2.4-39.6-5.4-40.9-14.9-1.2-9.3 53.4-9.6 49.6-12-3.9-2.2-35.1 1.7-35.2-6.1s28.9-7.3 31.2-12.8c2.3-5.6-17.8-6.1-10.2-10.6 7.7-4.6 7.7-9.3.8-14.4-3.3-2.5 8.8-7.9 7.7-10.3-1.1-2.5-15.6-1.1-16.8-5.2s6.7-5.2 14.9-5.1 128.3-.1 128.3-.1z"/>
<path class="workLife-st4" d="M438.6 117.1c10.7 9.1-33.9 8.4-30 14.2 3.9 5.7 26.9 3.2 22.5 10s-29.4-5.6-26.5.7c3.9 8.1 20.6 6.9 17.8 11.1-2.8 4.2-2.6 5.1-17.7 5.1 10.2 1.9 29.8 2.9 24.3 11.1s-11 .2-18.5 2c-7.6 1.9-14.2 6.2-10.1 9.8 3.6 7.4 38.2-4.9 37.7 6.9s-20.3 6.4-16.7 13.2 27.1 5.8 38.9 6.6 23.2 3.9 20.1 6.6-57.2 10-90.5 6.6c-14.9-1.5-29.7-13.5-44.2-15.7-14.9-2.4-31.3-3.9-26.1-13.2 5.2-9.3 39.5-4.2 38.8-10.3s-22.6-2.4-25.3-9.5c-2.6-6.9 21.7-6.1 22.5-11.1.8-5.1-12.3 0-17.3-4.6s5.1-1.4 3.7-7.8c-1.4-6.4 27.1-1.7 29.3-4.9s-35.6-4.1-35.1-9.5c.6-5.4 23.7-3.5 24.3-6.8.6-3.2-25.1-6.8-23.9-10.5 6.6 0 87.6.5 102 0z"/>
<path class="workLife-st5" d="M369.9 117.2c2.8 1.7 10.2 6.6 10.2 9.2 0 1.8-7.7 1.1-7.9 6-.2 4.9 7.2 5.8 6.4 11-.8 5.2-12.3 4.1-12.5 9.2s9.4 5.5 11.2 12.3-9.5 5.4-8 11.1c1.5 5.7 11.7 2.2 12.3 6.1s-12.7 7.8-15.2 13.7 5 10.8 8.6 13.2c11.2 7.3 25.9 11 32.8 8.2s-13.8-8.7-14.8-12.3 6.2-4.6 6.9-9.8c.8-5.2-6.4-3.4-9.8-6.9s3-15.6 5.6-18.6c2.8-3-4.4-5.9-6.8-7.8 3.6 0 9.6-1 10.8-5.1s-9.4-5.1-13.8-11.1c4.3.3 9.5 2.9 12.8-.7 3.3-3.4-12.7-5.9-9-10s9.1 2.2 12.3-.8c1.8-1.7-.6-4.7-.8-7.6-.1-2 2.1-3.7 1.4-4.9-.7-1.4-3.2-3.4-4.4-4.3-.4-.3-28.3-.1-28.3-.1z"/>
</g>
<g>
  <path class="workLife-st6" d="M992.1 363.2H-23.3V243.8s121.5-1.9 194.6-1.4c73.1.6 197.9 2.8 238.1 1.8s175-4.3 297.1-5.7 285.6 5.4 285.6 5.4v119.3z"/>
</g>
<g>
  <path class="workLife-st6" d="M492.3 180.1c-1-.2-17.9-5.3-17.9-5.3-.9-4.7-5.2-26-5.5-27.1-.3-1.3-1-1-1.7-.9-.7 0-31.4 3.3-32.9 3.5s-.6 2.6-.9 1.6c-.2-.9 7.4 32.7 7.4 32.7l32.8 8 18.9-10.3c.1.1.8-1.9-.2-2.2z"/>
<path class="workLife-st4" d="M471.5 173.8l-27.8 7.6-6.1-28.1 29.2-3.5 4.7 24z"/>
<path class="workLife-st6" d="M685.1 103.5L603.2 158c-1.4-7.6-5.9-14.7-7.3-18.2-1.6-4-9.8-8.1-15.2-7.2-2.3.4-4.3 1.3-7.2 4.3-3.2 1-5.9 2.4-8.2 4.1-1.3 1-2.3 3-2.3 3s-1.5 3.1-5.4 4.5-2.4 4.9-3.1 6.3c-1.2 2.6-2.2 5.3-2.9 6.9-1.5 3.3.6 6.2.6 6.2s-.1 0-.1.2c-6.6.9-15.8 1.6-20.7.7-8.5-1.7-13.2 4.5-18 10.8-1.9 2.5-3.9 4.4-6 5.8l-13.7-1.1s-2.8-1.9-4.5-3.8c-1.6-1.8-4.8-3.4-6.3-4.1-.9-.3-6.5.4-9.2.1-2.9-.3-21.2 10-21.3 10.1-12.2-11.5-28.5-26.9-31.8-29.9-5.4-4.8-7.7-8-22.6.3-11.1 6.2-28.3 17.9-36.4 23.5-5-1.1-9.4-2-12.6-2.8-6-1.4-15.8-4.8-15.8-4.8s-12.2-6.5-16.4-12.6c-.8-1.3-1.6-2.6-2.8-3.5-.8-.6-1.8-3-2.5-3.5-1.5-1.1-2.5-6.4-4.5-5.7-2 .6-2.6 2.2-2.9 2.9s-.1 1.5-.1 2.2c.6 3.5-.2 6.3 1.2 9.7-27.2-12.4-66.8-50.3-66.8-50.3s38.3 46.9 73.4 69.6c13.7 8.8 71.9 41.7 123.1 52.2 30.8 6.4 61.7-4.1 71.6-7.9 6.9-2.6 30.1-11.5 45.4-21.7 4-2.7 16.5-11.8 32.8-23.9 1.9-1.4 3.9-2.9 5.9-4.4 28.8-21.4 66.9-49.9 91.7-68.5 15.2-11.4 2.8-4 2.8-4zm-281.8 76.8c1.2-.7 3.9 1.5 7.6 5.9.4.4.8 1 1.4 1.7-2.9.1-5.1.3-6.9.6-.7.1-5.4-.6-11.8-1.8 5.8-3.7 8.3-5.5 9.7-6.4z"/>
</g>
<g>
  <path class="workLife-st6" d="M252.3-6.5s-15.5 62.1-21.1 100.4c-5.7 38.2-22.1 137.1-24.8 168.4s-8.3 73.6-8.3 73.6h54.3s4.1-139.8 6.5-163.9 7.3-76.8 11-97.6 14.6-80.9 14.6-80.9h-32.2zM430.8 102.8c0 .1-.1.1-.1.3-.1 0 .1-.1.1-.3z"/>
<path class="workLife-st6" d="M459.1 9.4c-2.8-4.7-9.5-8.7-17.4-14.2S423.9-15 422.8-16.5c10.6 5.9 21.9 11.2 33.5 15.6-4.8-7.9-13-13.7-22.4-17.5 2.1.6 6.8.3 6.8.3-1.4-.7-2.8-1.7-3.9-2.9-1.1-1.1-2.2-2.6-3.7-3.2 1.7.4 3.3 1 5 1.7-2.9-3.5-6.6-6.2-10.9-7.7 4.3 1.4 8.3 3 12.3 5.1-1.7-3.3-5.1-5.4-8.4-7.3-5.4-3.2-10.8-6.2-16.3-9.4-2.5-1.4-8.2-1.5-8.4-1.9-3.3 5.1-8.1 9-12 13.7-2.8 3.5-5.1 7.2-7.3 11-2.8 4.7-5.5 9.2-8.3 13.9l-3 5.1c-3.7-3.4-7.5-6.7-11.3-9.8-3.7-3-12.7-10.2-13.6-9.8 1.2 1.7-22.7 10.7-30.1 15.3-2.9 1.8-5.9 3.7-8.6 5.8-3.4-4.4-9.5-13.8-9.5-13.8s-11.3 2.2-22.6 4.8c-10 2.4-19.5 11-19.5 11s5.9-2.6 10.1-5.1c4.3-2.5 13.5-4.1 18.6-5.8-10.9 4.1-17.8 15.2-28.4 19.6-3 1.3-6.5 2.1-9.8 3.1-6.7-13.6-14.1-26.7-22.3-39.4l1.4-.3c-1.8-1.9-5.2-.3-6.4 2.2-1.1 2.3-1 5.2-1.8 7.7-1.5 4.1-25.7 24.9-31.2 34.3 5.9-5.1 11.7-10.1 17.7-15.2-4.8 4.6-9 9.8-12.3 15.6 3.7-3.5 7.3-7 11-10.5-3.5 5.9-7.6 11.5-12.6 16.3 3.5-2.9 6.9-5.9 10.4-8.8.6 4.6-2.1 9-5.1 12.4-3 3.5-8.3 17.9-7.5 17.4 3.5-2.3 8.3-12.8 11.7-15.2-.8 2.3-1.9 1.9-3.2 4.1-2.2 4.1-12.7 21.8-12.7 25.1.9-.6 5.6-9.8 7.3-13.1-1.5 3-5.4 11.6-6.5 20.1-.3 2.2 6.4-16.8 4.3-5.8s-3 17.3-2.3 19.3c1.2 3.9 3.6 7.3 5.8 10.6 2.9 4.4 5.8 8.8 8.7 13.3-4.8-7.7-8.6-16.2-11.5-24.8 4.6 2.5 8.5 5.9 11.7 9.9 1.8 3 3.6 6 5.3 8.9v-.3l.9 2.1c-.3-1-.6-2-1-3-1-6.2-3-12.3-5.5-18.1 3 5 5.9 9.9 8.9 14.8-3.5-11.6-8.4-22.8-13.4-33.8 5.9 10.5 12 20.8 17.9 31.3-3.5-13-9.5-25.4-17.5-36.3 7.9 9.2 14.4 19.6 19.3 30.6-1.7-7.5-5.7-25.2-11.1-34 6.2 9.5 11.9 19.2 17.3 29.1-5.9-14.6-12.4-29-19.5-43.2 2.3 4 5 3.7 7.7 7.6 4.3 5.9 8.9 14.9 13.7 21.1-.9.9-1.9 1.7-2.8 2.6 1.1-.7 2.2-1.3 3.4-2 .4.5.8 1 1.2 1.4-.2-.6-.5-1.1-.7-1.7 1.1-.7 2.2-1.3 3.4-2 .4.6.8 1.2 1.2 1.7-.2-.7-.5-1.4-.7-2 5.6-3.3 11.3-6.5 16.8-9.8-3.2 3.7-6.6 7.2-10.4 10.4 10.1-7.3 20.7-13.9 31.9-19.5-13.7 12.4-26.9 25.4-39.3 38.9 8.1-5.8 15.9-12 23.3-18.5-8.4 9.6-14.4 24.4-21.2 31.5 7.9-8 16.4-15.3 25.5-21.8-3.2 3.6-3.7 7.7-5.8 12-1.9 4.5-5.7 8.9-6.5 13.4 9.2-9.9 16.4-21.1 22.3-33.1-1.5 4.4-3.1 8.7-5.1 13-1.9 4.1-4.7 13.5-6.1 16.6-1.4 2.9-5.5 10.6-6.2 18.5 7-12.6 12.7-26 17.1-39.6-1.1 7.7-.6 15.9-2.6 23.5-1.8 6.6-3.5 13-5.7 19.5-1.2 3.7-4.3 7.6-3.7 11.5 2.1-3.5 3.7-7.2 5.2-10.9 2.5-6.5 4-13.3 5.7-19.9 2.6-10.6 1 .7.8 11.3 0 3.7-1.8 7.3-.4 9.9 1.8-2.6 2.1-5.9 2.5-9.1 1.7-16.4 4.4-32.6 8.1-48.6-2.5 15.7-3.2 31.9-.3 47.8 3.6-8.8 4.7-18.6 3.2-28 4.1 10.4 12.3 21.8 14.4 31.6-1.7-12.6-3.5-25-5.5-37.4 2.8 9.5 5.9 18.9 9.5 28.2-.4-2.7-.9-5.4-1.4-8.1 2.2-1.9 4.1-4.1 5.4-6.6.5-.9 2.8-5.7 3.6-6.9.1-.1.2-.2.3-.4 2.2 4.3 4.3 8.6 6.5 12.8-.5-2.3-1.1-4.5-1.7-6.8 7.7-6.5 15.5-12.8 23.3-19.3-5.1 7.6-8.4 17.2-16.2 25.1 3-2.5 11-7.6 11-7.6s-7.1 6.2-8.9 9.8c7.5-4.6 13.4-11.3 19.1-17.9-4.6 6.5-9.1 13-13.7 19.5 4.4-4 9-7.9 13.4-11.9-2.1 6.8-7.5 13.1-10.7 21.2 4.3-2.3 7.3-6.4 10.1-10.2 3-4.1 6.1-8.3 9.1-12.3-1.8 10.2-11.3 17.4-15.5 26.9 4.8-6.2 9.7-12.4 14.5-18.6-1.5 8.4-7.5 21.1-10.9 29.4 3.6-4.3 7-8.7 10.4-13.3-1.1 5.5-4 10.6-8.1 14.5 5.4-3.2 8.6-9.1 11.3-14.8-.3 5.1-3 16.4-5.3 24.4 4-6.5 7.6-13.1 10.5-20.2-.1 4.8-.6 9.9-2.8 14.2-2.2 4.1-6.2 8.1-5.5 12.8 1.9-3.3 3.9-6.8 5.8-10.1 1.8-3 3.6-6.2 4.3-9.7.8-4.1.1-8.3-.3-12.4-.6-6.2-.4-12.4.6-18.6.3-1.4.4-2.9-.1-4.1-.3-.6-.7-1-1-1.5-.3-.7-.3-1.4-.3-2.2 0-2.5 0-5.1-.1-7.6.8 6.1 7.4 13.9 9.4 20-.3-9.7-3.6-18.9-6.9-27.9 3.5 7.7 10.8 14 14 19.8-1.8-7.7-4-15.5-7.9-22.2 4 5.8 8 11.6 11.9 17.4-1.4-4.4-4.2-15.5-7.8-19.5-1.8-3-4-5.8-6.5-8.3-.1-.1-.3-.4-.4-.6-.1-.1-.3-.4-.4-.6 3.2 1.9 5.8 4.6 8.8 7.3 2.5 2.2 11.7 7.3 14.1 9.7-1.9-5.8-13.9-12-18.2-15.7 5.4 1.4 13.8 3.5 20 10.8.3-4.7-4-8.3-7.5-11.5-4.1-3.7-7.9-7.9-10.9-12.6 3.6 2.1 5.8 5.7 8.3 9 3.5 4.6 7.7 8.4 12.4 11.6-1.5-3.1-3.9-5.7-6.4-8.2 9.3-4.8 9.6-18.9 18-25.1-3.9 10.8-7.7 21.4-11.7 32.2 5.5-8.3 10.8-16.8 15.5-25.7-1.1 10.4-4 20.4-8.6 29.7 5.8-10.2 11.5-20.6 17.3-30.8-3.7 13.5-15.7 39.3-13.7 39.8 1.5.3 5.6-11.5 10.3-22.1 1.9-4.4 10.4-14.7 11.8-16.5-8.1 13.1-16.9 25.7-20.1 40.6C408 67.7 413.8 58.7 420 50c3 12.3-6.8 25.9-9.9 32.8 3.6-4.6 7-9.1 10.6-13.7-1.5 6.6-4.4 12.8-8.3 18.4 2.6-2.8 5-5.8 6.8-9.1-.6 5.4-2.1 10.6-4.4 15.6 3.5-4.1 6.7-8.6 9.2-13.4 2.3 9.7-4.2 18.6-5.7 22.4.8 1 12.8-18.4 12.8-18.4l-2.2 6.1s-5.4 12.6-5.2 15.7c.7-.6 6.5-11.7 6.4-9.9-.1 1.7-1.4 5.2-1.9 6.2 2.6-3.5 4-7.7 5.4-12-.4 6.2-1 12.4-1.5 18.6 4.6-6.1 4.3-14.2 3.9-21.8-.3-4.1-.6-8.1-.7-12.3.7 2.1 1.5 4.3 2.2 6.9.6 2.1 1.1 4.8 1.5 4.3.8-1.5.7-6.8.3-10.2-.6-3.9-2.7-15.7-1.5-14.4 1 1 4.6 8.3 6.1 10.4 1.1 1.4.6-1.8.6-2.3 0-2.1-8.3-21-8.6-22.1.1.4 6.6 14.5 10.1 20.5-2.1-12.8-15.3-36.3-15.2-36.9.5.4 9.3 9.6 12.5 14.1 3.9 5.5 7.6 11 11.5 16.6-6.2-18.5-15.2-36.4-26.6-53 4.3 6.4 8.4 10.1 13.3 16.2 4.3 5.4 9 13.4 14.5 17.8-6.6-13.1-15-25.4-25.1-36.7 2.8 2.5 4.8 2.6 9.4 6.1 3 2.3 9.2 11.2 13.1 12.4-5.8-11.6-14.8-21.9-26-30.1 9.9 6.8 19.9 13.4 29.8 20.2-.1-1-4.8-4.7-4.1-5.5.4-1 6.6.8 6-.1zM327.2 57.1c-1 .9-2.1 1.8-3.1 2.7l-.9-1.8c3.1-2.6 6.3-5 9.4-7.5 5.9-4.7 12-9.5 17.3-15-.1 2.3-2.1 4.1-3.9 5.7-6.2 5.3-12.6 10.7-18.8 15.9zm3.4-.7c-2 1.7-3.8 3.3-5.7 5-.1-.2-.2-.3-.2-.5 2-1.4 4-2.9 5.9-4.5zm-.9-18.4c-1 .7-2.1 1.4-3.1 2.2-.4-.6-.9-1.2-1.4-1.8.4-.3.9-.6 1.3-.9 6.9-4.4 15-7 21.1-12.6-5.2 5.2-11.7 9-17.9 13.1zm17.5-7.6c-.4.4-1 .9-1.5 1.5-2.5 2.6-4.8 5.7-7.6 8-2.6 2.1-5.6 3.6-8.7 5.2-.3-.8-.7-1.5-1.1-2.2 6.3-4.1 13-7.9 18.9-12.5zm-32.4 17.4c.6.8 1.2 1.7 1.7 2.5-.6 1-1.2 1.9-1.7 3-.5-1.1-1.1-2.3-1.6-3.4.5-.7 1.1-1.4 1.6-2.1zm-1.9 1.5c-.3-.6-.6-1.2-.8-1.7.5-.4 1.1-.8 1.7-1.3.1.2.2.3.3.5-.5.8-.9 1.6-1.2 2.5zm4.3 2c.1.2.3.4.4.6-.9.6-1.8 1.2-2.6 1.8-.1-.1-.1-.1-.1-.2.7-.8 1.5-1.5 2.3-2.2zm1 1.5c.4.6.9 1.2 1.3 1.9-1 .8-1.9 1.6-3 2.3-.4-.9-.8-1.8-1.3-2.6 1.1-.5 2.1-1 3-1.6zm-1.1 12.3c-.1.1-.2.2-.4.3-.1-.5-.3-1.1-.4-1.6.3.5.5.9.8 1.3zm.2.3c.4.6.8 1.3 1.2 1.9-.3.3-.7.6-1 1-.2-.9-.4-1.7-.7-2.6.2-.1.4-.2.5-.3zm2.6 3.9c.1.1.2.3.3.4l-1.8 2.1c-.2-.6-.3-1.2-.5-1.8.6-.3 1.3-.5 2-.7zm-.3-5.9c-.3-.7-.6-1.3-.9-1.9 1.3-.8 2.5-1.8 3.6-2.7.4.5.7 1.1 1.1 1.6-1.3 1-2.5 2-3.8 3zm1.3-9.8c-.3-.6-.6-1.1-.9-1.7 2.5-1.4 5.1-2.9 7.5-4.4-2.1 2.1-4.3 4.1-6.6 6.1zm3.8-15.8c-.2-.2-.4-.5-.6-.7.8-.7 1.6-1.4 2.4-2 5-3.9 10.9-6.5 16-10.2-5.5 4.8-11.7 8.7-17.8 12.9zm.9 6.9c.4.5.8 1.1 1.2 1.7-2.5 1.3-5 2.7-7.4 4.3-.2-.3-.3-.6-.5-1 2.1-1.8 4.4-3.5 6.7-5zm-7.4 3.4c-.4-.9-.9-1.8-1.3-2.6 1.8-1.9 3.7-3.6 5.7-5.1.5.7.9 1.3 1.4 2-2.1 1.7-4.1 3.6-5.8 5.7zm1.3-6.6c-.3.3-.7.6-1 .7 1.1-1 2.2-2 3.3-3.1.1.2.2.4.3.5-.9.6-1.7 1.3-2.6 1.9zm-5.4-1.7c-.7-1.4-1.4-2.8-2.1-4.3 1.6-1.1 3.2-2.2 4.9-3.3.8 1.2 1.7 2.4 2.5 3.6-1.8 1.3-3.6 2.6-5.3 4zm-5.8-1.6c1 1.4 1.9 2.8 2.9 4.1-.5.5-.8.9-1.1 1.2-.8-1.6-1.5-3.2-2.3-4.9.2-.1.3-.2.5-.4zm17.4-19.7c-.3-.4-.7-.9-1-1.3 5.6-4 11.2-8.1 16.6-12.2-5.1 4.6-10.3 9.1-15.6 13.5zm-3.3-4.3c-.2-.3-.4-.5-.6-.8 1.9-1.2 3.7-2.3 5.6-3.5-1.7 1.5-3.3 2.9-5 4.3zm1.6 3.4c.4.4.9.8 1.3 1.1-3.1 2.6-6.2 5.2-9.4 7.6-.4-.7-.8-1.5-1.1-2.3 3.1-2.1 6.2-4.3 9.2-6.4zm-10.2 4.2c-.3-.9-.6-1.8-.9-2.6 2.5-1.6 4.9-3.1 7.4-4.7.3.2.6.5.9.8-2.5 2.2-4.9 4.3-7.4 6.5zm.1 6.1c-1.3 1-2.7 2-4 3-.4-.9-.9-1.8-1.3-2.7 1.3-.9 2.5-1.7 3.8-2.5.5.7 1 1.5 1.5 2.2zm-5.8-1.1c-.6-1.2-1.2-2.4-1.7-3.7.9-.5 1.9-1.1 3-1.8.6.9 1.2 1.8 1.9 2.7-1.1.9-2.2 1.9-3.2 2.8zm-2.7-5.7c-.3-.5-.6-1.2-.9-1.8.8-.5 1.6-1 2.4-1.6.4.5.7 1 1.1 1.5-.9.6-1.7 1.3-2.6 1.9zm-.8 29.7c2.9 4.3 6 8.5 8.8 12.9-.1.1-.3.2-.4.3.2 0 .4-.1.6-.2.5.8 1.1 1.7 1.6 2.6-.1.1-.2.1-.3.2.1-.1.2-.1.4-.2l1.5 2.7c-.8.8-1.6 1.5-2.4 2.3l3-1.2c.3.7.6 1.3.9 2-1.1 1.3-2.1 2.6-3.2 3.8-3.2-8.6-6.7-17-10.5-25.2-.1 0 0 0 0 0zm14.7 24.7c1.1-.9 2.2-1.7 3.3-2.6.3.4.7.8 1.1 1.1-1.3 1.2-2.5 2.6-3.8 4.1-1.1 1.2-2.1 2.4-3.1 3.6l-1.2-3.3c1.2-1 2.4-2 3.7-2.9zm1.2-10.1c-.2-.4-.4-.9-.6-1.4 1.4-.8 2.8-1.7 4.2-2.7.1.2.2.3.3.5l-3.9 3.6zm1.1-31c-1-1.1-1.9-2.2-2.8-3.4 4.7-3 9.5-6 14-9.4 4.9-3.8-8.9 11.3-11.2 12.8zm21.5-43c-3.6 4-7.9 7.3-12.1 10.5-3.8 2.9-7.6 5.7-11.4 8.6-.2-.3-.5-.6-.7-1 8.2-5.8 16.3-11.8 24.2-18.1zM317.7 12c-1.9 1.3-3.8 2.8-5.7 4.2-.2-.5-.3-1-.5-1.5 1.7-1.2 3.5-2.4 5.2-3.6.3.3.6.6 1 .9zm-4.5-4.3c.2 0 .3.1.4.3l-3.2 3.2c-.1-.4-.2-.8-.4-1.2 1.1-.8 2.1-1.6 3.2-2.3zm-3.5-3.8l-1.3 1.3c-1.1-2.6-2.4-5.2-4.1-7.4 1.7 2.1 3.5 4.1 5.4 6.1zm-4 12.2c-.6.6-1.2 1.3-1.8 1.9-.5-1-.9-2-1.4-3.1.6-.3 1.1-.7 1.7-1 .5.8 1 1.5 1.5 2.2zm-1.7 34c-.1 0-.1.1-.2.1-.1-.4-.3-.8-.5-1.2.2.4.5.7.7 1.1zm-2-36.3c-1.3-2.8-2.5-5.6-3.8-8.4 1.7 2.3 3.3 4.7 4.9 7-.4.5-.7.9-1.1 1.4zm-46.7 10.9c-1.5.9-3.1 1.9-4.6 2.8-1-2.5-2-5-3.1-7.5.8-.3 1.7-.7 2.5-1 1.5 2.1 3.2 4 5.2 5.7zm-24.4 28.7l-1 1c.3-.3.7-.6 1-1 .8 1.2 1.5 2.3 2.3 3.4-.7.6-1.5 1.1-2.2 1.7-1.7-4.6-3.6-9.2-5.8-13.6 1.8 2.9 3.7 5.7 5.7 8.5zm-1.3-6.6l2.4-.6c.7 1.5 1.5 2.9 2.2 4.4-.8.6-1.6 1.3-2.3 2-.8-2-1.6-3.9-2.3-5.8zm2.3 5.9c.8-.7 1.5-1.4 2.3-2 .6 1.3 1.3 2.6 1.9 3.9-.9.6-1.8 1.3-2.7 2.1-.5-1.3-1-2.7-1.5-4zm10.6-10.5c.1.1.1.2.2.3-.9.8-1.7 1.6-2.6 2.4-.2-.4-.4-.9-.5-1.3 1-.4 1.9-.9 2.9-1.4zm-3.8-1.1c-.6-1.6-1.2-3.3-1.8-4.9.5-.2.9-.4 1.4-.6.8 1.4 1.6 2.9 2.5 4.2-.7.5-1.4.9-2.1 1.3zm2.7-6.8c.8-.3 1.6-.7 2.4-1 .7 1.1 1.4 2.3 2.1 3.4-.8.5-1.7 1-2.5 1.6-.7-1.4-1.4-2.7-2-4zm4.4-1.9c1.8-.8 3.6-1.5 5.4-2.3.4.8.8 1.6 1.3 2.5l-5.4 3.3c-.4-1.2-.8-2.3-1.3-3.5zM243 32l-2.1 1.2c-3.2-6.5-6.4-13-9.5-19.5-2.3-4.8-4.8-9.9-4.6-15.5 4.1 4.6 5.9 10.6 8 16.3 1.1 3.2 2.4 6.2 3.8 9.2 1.3 2.8 2.8 5.6 4.4 8.3zm-7-.4c.6 1.1 1.2 2.3 1.8 3.4-.4.2-.8.5-1.2.7-2.1-5.6-4.5-11-7-16.4 2.2 4.1 4.3 8.2 6.4 12.3zm1.7 12.8c.4.6.7 1.2 1.1 1.8-1.1 1-2.1 2-3.2 2.9-.4-1.2-.7-2.4-1.1-3.6 1.1-.3 2.1-.7 3.2-1.1zm-2.1 4.9c1.2-.9 2.4-1.7 3.6-2.4.8 1.2 1.5 2.4 2.3 3.7-1.6 1.2-3.2 2.3-4.7 3.5-.4-1.7-.8-3.3-1.2-4.8zm4.8-3.3c1.2-.7 2.4-1.3 3.6-1.9.8.9 1.7 1.8 2.7 2.5-1.6 1.3-3.3 2.5-4.9 3.6-.4-1.4-.9-2.8-1.4-4.2zm5.4-2.7c1.2-.5 2.3-1.1 3.5-1.6l.1.1v-.1c4.3-1.9 8.7-3.6 13-5.5-5.1 3.2-10.1 6.6-15.1 10.1l-1.5-3zm6.9-10.8c-.3-.8-.7-1.7-1-2.5 5.3-2.2 10.7-4.5 16-6.7-5 3-10 6.1-15 9.2zm-4.5-16.3c-.7.2-1.3.5-2 .8-5.4-12.5-11.4-24.7-18-36.6 10.8 8.5 13.1 24 20 35.8zm-11.7 26.3c-.8.5-1.6 1-2.5 1.5-2.7-8.3-6.6-16.3-10.8-24.1 4.3 7.5 8.7 15.1 13.3 22.6zm-4.9 3c-.7.4-1.3.8-2 1.2-3.9-9.8-8.1-19.6-12.6-29.2 5 9.3 9.9 18.6 14.6 28zm-2.3 21.4c-3.4-8.3-7.1-16.5-11-24.5 4.2 7.6 8.8 15 13.8 22.1-1 .8-1.9 1.6-2.8 2.4zm3.6-3.3c-.6-1.7-1.2-3.3-1.8-5 1.9-.9 3.7-1.9 5.6-2.8l.6 1.2c-.1-.4-.2-.9-.2-1.3 10.9-5.4 21.7-10.9 32.6-16.2-13.3 6.3-25.7 14.5-36.8 24.1zm22.6-39c-1-2.2-2-4.4-3.1-6.5 12.6-5.2 25.2-10.4 37.9-15.5-11.4 7.5-23 14.8-34.8 22zm44.6 73.2c-2.7-15.2-6.2-30.4-10.3-45.4 6.4 10.8 17 26.7 18.9 30.4-.2.2-6.3 11.6-8.6 15zm-1.4-44.9c4.9 8.3 9.9 16.6 14.8 24.9-.3.3-.6.7-.9 1-.5.6-1 1.2-1.5 1.7-3.3-9.6-7.4-18.8-12.4-27.6zm15.5 37.3c-.8-2.7-1.7-5.5-2.6-8.3l.9-.9c.6-.6 1.3-1.1 1.9-1.7l1.8 3c-.2.3-.5.5-.7.8.3-.2.5-.4.8-.6.6 1 1.2 2 1.8 2.9l-3.9 4.8zm3.9-4.8c-.4-1.1-.8-2.3-1.2-3.4 1.1-.9 2.2-1.8 3.4-2.6 1.7-1.3 3.4-2.5 5.1-3.8l.1.1v-.1c3.3-2.3 6.6-4.6 10-6.7-6.9 4.3-12.3 10.2-17.4 16.5zm18.1-22.9c-4.3 3.1-8.2 6.8-11.9 10.7-.2-.5-.4-.9-.6-1.4 1-.8 2-1.7 2.9-2.6 2.1-2.1 4-4.3 6.2-6.4 3.6-3.2 7.9-5.5 12.1-7.9-2.2 3.3-5.7 5.3-8.7 7.6zm2.5 18.4l2.5-2.5c2.3-2.5 4.6-5.1 7.3-7.2 1.5-1.2 3.2-2.2 4.8-3.5-4.4 4.9-9.6 8.9-14.6 13.2zm51.6-61.2c-1.2-1.2-2.6-2.3-4-3.3.2-.3.4-.7.7-1 1.3 1.1 2.5 2.3 3.7 3.5-.2.2-.3.5-.4.8zm2.6 5.1l-1.5 3c-.9-1.4-2-2.7-3.2-3.9l.1-.1c.7-.7 1.3-1.4 2-2.2.9 1.1 1.8 2.1 2.6 3.2zm-10.6-13.1c.6.4 1.8 2.3 1.8 2.3l.1 1.1s-2.1-2-2.7-2.5c.3-.3.6-.6.8-.9zm-.2-5.4c.9-1.4 1.8-2.7 2.7-4.1-.6 1.7-1.3 3.3-1.9 4.9-.3-.3-.6-.5-.8-.8zm6 7.3c6-8.6 11.7-17.4 17.1-26.3-.4 1-.9 1.9-1.5 2.9s-1.2 1.9-1.9 2.9c-1.2 1.9-1.8 4.3-2.5 6.5-1.9 5.9-4.7 11.5-7.5 17-.2.4-.4.9-.7 1.3-1-1.4-2-2.9-3-4.3zM400-20.9c1.8-2.8 3.9-5.4 5.5-8.3-6.1 13.5-12.8 26.5-20 39.4-.3-.4-.6-.8-1-1.2 6.6-8.7 9.4-20.5 15.5-29.9zm-12.2 9.6c-2.8 5-5.6 9.9-8.3 14.8l-2-2c3.7-4.2 7.5-8.2 10.3-12.8zm-6.5 22.2c-.1.3-.3.6-.4 1l-1.4-1.4c.1-.2.3-.4.4-.6.2.1.5.4.8.6.2.1.4.3.6.4zm-3.2 1.6c.6.4 1.2.9 1.8 1.3l-.3.6c.2-.1.3-.3.5-.5 3.3 2.3 6.7 4.5 9.5 7.2l-1.5 2.7c-.3-.2-.5-.4-.7-.6-3-2.8-6.5-5.1-9.2-8.1-.4-.4-.7-.8-1-1.2.3-.5.6-.9.9-1.4zM377 8c-.2-.2-.4-.4-.6-.7.2.2.4.4.6.7zm8.3 14.9c.7.6 1.5 1.2 2.2 1.8 1.4 1.1 2.6 2.4 3.5 3.7-.9 1.8-1.8 3.6-2.6 5.4-1.1-1.8-2.2-3.5-3.3-5.2.9-1.2 1.7-2.5 2.4-3.9-.9 1.1-1.9 2.2-2.8 3.2-2.8-4.2-5.7-8.2-8.8-12 2.9 2.6 6.4 4.7 9.4 7zm-7.7 13.4c2.3 1.9 4.6 3.7 6.9 5.4-.2.5-.5 1-.7 1.5-1.3-1.1-2.7-2.1-4-3-5.9-4.6-10.9-10.2-15.7-16 4.2 4.2 8.7 8.2 13.2 11.9-.3.3-.6.7-.9 1 .4-.2.8-.5 1.2-.8zm6.8.7l-2.7-4.2 2.1-2.4c1.4 1.5 2.8 3 4.1 4.5l-2.1 4.2c-.5-.7-1-1.4-1.4-2.1zm-1.3-7.3c-.7.7-1.3 1.5-2 2.2-4.5-6.8-9.7-13-16.2-17.8 6.5 4.6 12.7 9.8 18.2 15.6zm-7.8-18.5c-.6-.7-1.1-1.4-1.5-2.1l1.8 1.5-.3.6zm-.7-6.2c.1.2.2.4.4.7-.2-.2-.4-.4-.5-.6 0 0 0-.1.1-.1zm-6.4-7.8c1 .8 2.1 1.7 2.9 2.6 1.1 1.3 1.9 2.7 2.8 4.1 0 .1-.1.2-.1.3-3.3-3.8-6.5-7.5-10.2-10.7 1.5 1.2 3 2.5 4.6 3.7zm15.4 57.3c-1.1-1.2-9.9-11.2-12.5-15.6-.8-1.4-1.5-2.8-2.8-3.7-.8-.7-1.8-1.2-2.8-1.8-2.5-1.8-3.9-4.8-5.1-7.7 7.5 6.6 14.8 13.1 22.3 19.6l-.6 1.2c.2-.4.5-.7.7-1.1 1.3 1.1 2.6 2.3 3.9 3.4-1 2-2 3.9-3.1 5.7zm3.9-7c-.8-1.5-2-2.8-3.4-4 .3-.5.6-.9.9-1.4 1.3 1 2.6 1.9 3.9 2.8-.5.9-.9 1.7-1.4 2.6zm1.9-3.6c-.4-.7-1-1.4-1.6-1.9.6.3 1 .4 1.5.7-1.2-.7-2.1-1.6-2.9-2.7.8-1.3 1.7-2.6 2.5-3.9.9 1.1 1.9 2.3 2.8 3.4-.7 1.5-1.5 2.9-2.3 4.4zm2.3-4.5c-.8-1.4-1.6-2.7-2.4-4 1-1.6 2.1-3.2 3.1-4.8.5.9.8 1.9 1.1 2.9-.1-1.1-.4-2.2-.8-3.2l10.5-16.2c-3.5 8.6-7.3 17-11.5 25.3zm1.2-14.9c-.3-1.4-1-2.6-1.9-3.7.2-.2.4-.5.6-.7l2.1 2.1c-.6-.9-1.1-1.8-1.7-2.6.7-.9 1.5-1.8 2.1-2.7 1.7-2.2 3-4.4 4.4-6.8 3.9-6.6 7.5-13.5 10.8-20.5.7-1.4-8.9 19.5-16.4 34.9z"/>
<path class="workLife-st6" d="M319.3 75.5c.1.2.1.5.2.7 0-.3-.1-.5-.2-.7zm.6 2.6c-.1-.7-.3-1.4-.5-2 .2.6.3 1.3.5 2z"/>
<g>
  <path class="workLife-st6" d="M648.7-12s8.6 44 10.1 64.5c1.5 20.4 10.4 119.7 12 150.1 1 16.7 7.6 56.7-1.7 88.1C661.6 316.5 638 336 638 336h118.7s-22.4-135-30.8-179.5-22-117-22-117l-7.3-60.7-47.9 9.2z"/>
<path class="workLife-st6" d="M740.9 35.5c3.3 4.2 7.6 18.6 7.6 18.6s-3.3-20.3-10.3-31.4-19.9-27.8-19.9-27.8-5.4-7.7-9.6-11c-1-1.4-1.9-2.8-2.8-4.3-1.7-2.7-3.7-5.5-6.8-6.3l1.2.9c-1.1-.7-2.5-1.1-3.9-1 2.2 5.7 4.6 11.2 6.8 16.9.4 1 .7 2 .8 3.1.1 1.2-.2 2.3-.7 3.4-3.7 11-6.9 22-9.3 33.4-2.9 13.1-4.6 26.7-.6 39.3-.4-21.5 2.7-43.7 13-62.6-2 6.8-4.1 13.6-5.5 20.6-2 9.4-2.9 19.1-3.7 28.6-.4 5.6-1 11.2.5 16.7-1.7-9.7.4-19.9 2.6-29.5 3.1-13.8 6.8-27.5 12.6-40.4-1.9 8.4-2.9 16.9-3.1 25.5 1.5-6.6 3.8-13.2 6.5-19.5-.6 13.7-6.7 26.5-13 38.8 7.9-10.8 13.7-23.1 16.9-36.2-2.1 10.7-5 21.4-8.6 31.7-1.4 3.9-2.7 7.8-2.5 11.6 4.7-8.7 8.1-18.1 10.3-27.7.9-3.9 1.7-8.2 3.8-11.6.4 1.8-7.3 32.9-10.4 41.3 2.3-4.6 12.3-21.9 13.9-26.7.5 1.5-1.7 12.7-3.6 16.8-3.6 7.5-7.9 14.8-10.2 22.7 7.5-9.2 12.8-19.9 16.1-31.2.2.7.4 1.3.6 2-2.6 11.5-7.9 22.7-13.1 33.4 6.2-9 11.2-18.9 14.9-29.1.2.7.5 5.6.1 7.2-.9 3.3-2.2 6.5-2.5 10-.3 2.8.2 5.5.3 8.4.2 5.4-.7 10.8-2.9 15.6 4.3-6.8 3.7-15.4 5.4-23.3.8-3.7 2.2-7.1 3.3-10.7 2.6 6.1 3.2 12.6 2.8 17.9 0 2.5-.7 3.9.1 3.7.2-.1 4.4-10.9 2.4-18.2-.8-2.9-2-7-3.2-10.9.2-.8.3-1.7.3-2.5v-1.3c1.6 2.9 3.2 6.5 4.3 9.8 2.7 7.8 3.2 13.2 3.2 13.2s2.6-12-1.8-20.1-5.6-11.9-2.3-7.8zm-55.5-21.4c-.1-4.4-.3-8.8-1-13.3-1.1-5.9-6.6-17.7-6.1-18.6-1.5-2.3-4.8-2.6-7.6-2.6h-2.6c-1.3-3.1-2.5-6.1-2.1-7.1 2.6-6.6 12.1-4.6 13.1-11.7-21.9 7.7-41.4 21.1-60.7 34.2-9.9 6.8-37.6 19.1-59.4 43.8S526.3 84.1 526.7 98v1.2c1.8-5.9 3.5-12 5.2-17.9-2.3 14.2-4.6 28.4-6.9 42.7 7.2-13.1 5.1-29.1 9.5-43.3-2.1 12.8-1.8 26.1.7 38.8 3-5 1.1-11.3.4-17.1-1.1-8.1.3-16.6 3.9-23.7-1.4 5.8-2.8 11.7-1 17.7 1.9 6.9 5.7 19.2 5.7 20.7-.1-1.2-1.5-19.9-2.2-28.9 2.9 7.8 4.4 16.1 4.4 24.6-.1.8-.1 1.5 0 2.2v-1.9c.3-3.3 1.8-6.5 1.5-9.8-.8-10.9-3.9-21.8-3.3-32.7.6 8.8 5 12.4 6.5 23.3-.6-12.8-.3-25.8 1-38.7 1.2 9.2 2.5 18.5 3.7 27.7.4 3.2 1.1 6.6 3.6 8.6-3.5-13.9-4.6-28.6-3.2-42.9 1.8 13.3 5 26.4 9.8 38.8-2.9-13.8-3.3-28.2-1.4-42.1 1.2 14.4 2.9 45.1 3.7 43.2.8-2.1-1.8-33 1.4-42.8.4-1.4 2.2-6.8 4.3-3.1s5.5 12.3 6.1 12-.1-8.8.4-9.1c.4-.1 5.8 17.1 5.5 13.5s-3.3-24.2-2.9-24.3c.6-.3 8.6 11.1 13.2 17.9-2.6 2.2-4.9 4.7-7.1 7.3 2.9-1.7 5.8-3.3 8.6-5.1.3.4.5.8.7 1.1-3.7 2.7-10.6 9.5-9 8.8 2.3-1 9.1-5.7 10.4-5.9 1.7-.4-2.2 2.6-3.2 3.3-3.2 2.3-10.3 12.8-9.3 12.3 1.5-1 2.5-3.9 4.7-6.2 2.6-2.6 6.5-4.8 8.1-5.9-2.6 2.9-6.4 5.2-8.8 8.4-2.1 2.8-4.7 7.3-4.8 9 0 .8 1.8-1.4 3.3-2.9 1.9-1.9 3.7-3.5 5.4-5-2.2 3.5-4.4 6.9-6.6 10.4-4.1 6.4-7.3 20.8-7.3 20.8s5.1-11.5 7.9-17.1c-.8 4.3-1.8 8.7-1.1 13.1 0-1.1.7-4.8 1.4-6.4.7-1.7.1 11 .6 11.7 1.7-2.8 3.2-16.4 3.2-16.4l1.1-6.5s.8 22.8 2.1 22.4c.6-4.1.1-12.8.1-12.8l5.2-23.4s-1.2 16.7.7 28.4c-.3-4.4.4-8.8 2.1-13-.3 5.4.4 10.9 1.8 16.2.4-5.4 5-17.9 6.9-24.4.8 5.7 1.7 11.3 2.6 17.1.7-7.5 1.5-14.8 2.2-22.2.7 6.2 1.4 12.6 2.1 18.8.6-10.1 1.7-20 3.3-30 1 9.9 1.7 19.8 1.9 29.7-.7 2-1.1 4-1.2 6.2 1.4-4.1 3.3-8.1 5.5-11.9-.4 1.4-.8 2.8-1.2 4.1 1.7-3.6 3.9-6.9 6.5-9.7 0 .1.5-.5.7-.7v4.1c-1 1.2-1.9 2.5-2.9 3.8-2.6 3.6-11.6 27.2-13.1 30.8s10.8 27.1 12 29.3c3.9 7 8.7 13.5 13.5 20-3.9-9.7-15.6-32.6-15.6-32.6s14.7 15.6 19.7 21.1c0-1.5-.8-2.9-1.8-4.1-2.9-4.3-5.8-8.4-8.7-12.7 3.9 5 8.1 9.5 13.1 13.5-4.6-6.2-9.1-12.6-13.7-18.8-1.7-2.2-3.5-4.8-3.2-7.6 2.1 2.5 3.3 5.5 4.8 8.4 3.2 5.9 7.2 11.5 12 16.2-5.4-9.7-10.2-19.5-14.5-29.5 4.4 7.9 8.8 15.7 13.4 23.7-.1-2.8-4.7-16.8-9.6-24.6 5 6.1 9.8 12.3 14.2 18.8-.8-2.2-5.2-17.4-8.5-22.2 3 1.7 5.7 4.3 7.2 7.3 0-6.9-8.4-10.8-10.9-17.4-1.7-4.4-.7-10.2-4.3-13.4 7.9 6.8 13.9 15.6 17.4 25.4 0-1.7 0-3.2-.1-4.8 1.2 1.2-4.8-14.1-6.2-16.5 5.1 5.7 10.4 11.3 15.5 17-2.6-4.3-10.8-20.4-10.8-20.4l7 8.1s0-3.6-4-8.1c-4-4.6-3.5-4.4-5.4-6.1s10.5 5.1 13 8.6c.1-3.5-.7-7-2.5-9.9 1-.1 3.9 2.8 4.6 4.1-.7-1.4-2.5-6-2.8-7 .7-.1 1.4-.1 2.1.1v-.1c.9 1.8 1.9 3.5 2.8 5.3-1.6-8.2-7.2-15.1-11-22.5.1-2.2.2-4.4.4-6.5 2.9 2.8 14.2 18.6 16.4 23.7-2.9-7.3-5.9-14.6-9-21.9-.1-.2 4.9 7.9 7 13.2-.9-10.2-9.4-29.3-9.5-29.5 3.4 4.5 6.5 9.1 9.2 13.9-3.8-7.3-8-15.4-9.4-19.2 0-.5 2.9 3.1 5.2 7.3.1.6 11.4 21.7 11.4 21.7s-10.3-29.9-10-29.4c.5 2.2 8.2 22 9.6 24.1.7 1.2-1.6-6.4-4-14.6.1-1.9.2-3.9.4-5.8.6 1.4 1.1 2.8 1.6 4.1.2 2.5.3 5.1.5 7.7.8-.5 1.3-1.1 1.7-1.9.7 1.7 1.1 2.9 1.3 3.3-.3-1.4-.6-2.9-.9-4.3.4-1.3.5-2.9.5-4.2 0-8.1 0-16.3.1-24.6.4 8.1 3.2 16.2 4.3 24.4.7-4.4.6-9.4.4-14.2 0-5.8-.1-11.2-.3-16.7zm-10.2-8.2c.4 6-.4 12-1 18-.4-1.2-.8-2.4-1.2-3.5.1-3.3.3-6.6.5-9.9.3.6.4.9.4.8.1-.7 0-1.7-.3-2.9.3-4.1.5-8.3.9-12.4 0 3.3.6 6.6.7 9.9zM635.7 48c0 5.4 0 10.8-.1 16.2-.5.9-.9 1.7-1.3 2.6-.2-5.5-.2-12.5 1.4-18.8zm-30.8 1.7c.3-.2.5-.4.8-.7.1.3.3.5.4.8-.2.3-.5.5-.7.8-.2-.3-.3-.6-.5-.9zm-1.3-2.8c-.3-.5-.5-1.1-.7-1.6l.8-.6c.3.5.5 1.1.8 1.6-.4.2-.6.4-.9.6zm3.5 1.8c-.1-.2-.2-.4-.2-.6 1.1-.9 1.7-1.4 2.2-1.7 0 .1.1.2.1.2-.5.4-1.2 1.1-2.1 2.1zm-1.2-3.3c-.2-.6-.5-1.2-.7-1.8l1.7-1.3c.3.6.6 1.1 1 1.8-.7.4-1.4.8-2 1.3zm4.7-5.2c.3-.1.8-.2 1.2-.4.2.5.5 1 .7 1.5-.5.3-.9.5-1.4.8-.2-.7-.4-1.3-.5-1.9zm18.2-17.8c-.7 1-1.4 2-2.2 3.1-.4-1.3-.8-2.5-1.1-3.7.8-.4 1.6-.9 2.6-1.4.2.7.5 1.4.7 2zm7.6-15.6c-3 1.1-5.6 2.7-7.8 4.4-.2-.5-.4-1-.7-1.5 1.9-1.2 4.6-2.4 8.2-3.3.1.1.2.3.3.4zm-9.7 10.5c-.7.5-1.5 1-2.2 1.5 0-.1-.1-.3-.1-.4.7-.4 1.5-.8 2.3-1.1 0-.1 0 0 0 0zm-10.3 13.3c.2.4.4.9.6 1.3-.1.1-.3.2-.5.3-.2-.9-.3-1.4-.1-1.6zm2.4 5.6c.1 0 .1-.1.2-.1.2.4.4.8.6 1.3-.3.2-.6.3-.9.5-.2-.4-.3-.8-.5-1.2.2-.2.4-.4.6-.5zm-5.1-2.1c-.2.1-.3.2-.5.4-.4-1-.7-1.8-1-2.6.1-.1.2-.1.3-.2.4.7.8 1.5 1.2 2.4zm2 3.9c.2.4.4.7.5 1.1-.4.2-.7.4-1.1.6-.2-.4-.3-.8-.4-1.2.4-.1.7-.3 1-.5zm53.9-24.7c0-3.6.1-7.2.7-10.7.2.5.4.9.6 1.4-.1 3.3 0 6.6-.2 9.9-.3-.4-1-.8-1.1-.6zm1.6-15.4c-.1.7-.2 1.4-.2 2.2-.1-.2-.1-.3-.2-.5.2-.6.3-1.1.4-1.7zm-10.3-22.5c1.5-1.1 2.9 1.3 4.3 4.5-.9 0-1.7 0-2.6.1-1.2-2.7-1.9-4.4-1.7-4.6zM630.5-1.1c.7.2 3.4 3.6 3.9 4.3-2.8 1.9-5.1 3.9-6.7 5.6-.9-2-1.7-4-2.6-6 1.4-2.8 3.2-4.5 5.4-3.9zm-8.1 10.6c1.1 1.5 2.1 3.1 2.9 4.8-.6.6-1.1 1.2-1.5 1.7-1-3.6-1.6-6.1-1.4-6.5zm-13.2 25.6c.3.5.7 1.1 1 1.8-.2.2-.4.3-.6.5-.4-1.8-.6-2.7-.4-2.3zm-5.9 1.5c.1 0 1.1 1.5 2.6 4-.5.4-.9.8-1.4 1.3-1-2.9-1.7-5.2-1.2-5.3zm-4.1-.3c1 1.4 2.4 4.1 3.8 7-.2.2-.5.4-.7.6-2.3-4.9-3.9-8.6-3.1-7.6zm-10.4-.6c-.7-2.8 10.2 10.5 10.6 11.1-1.3 1.3-2.4 2.4-3 3.1-.4-1.1-7-12.1-7.6-14.2zm7.6 14.3l3.4-2.5c.3.5.6.9 1 1.4-1.3 1-2.5 2-3.8 3-.1-.6-.3-1.2-.6-1.9zm2.1 5.8c-.2-.4-.3-.8-.5-1.2 1.6-1 3.1-2.1 4.6-3.2.2.3.4.6.7.9-1.3 1-3 2.3-4.8 3.5zm30.9 24.5c-.9 1.3-1.8 2.7-2.5 4.1 1.9-9 1.9-18.4 1.5-27.8.1.3.3.6.4 1-.1-.7-.3-1.5-.5-2.3-.1-3.5-.3-7-.5-10.4.3 2.2 2.9 5.8 2.9 7.3.2 6.8 1.2 13.1 2.2 17.7-1.4 3.2-2.6 6.8-3.5 10.4zm3.6-5.1c-1.1 1.4-2.2 2.8-3.2 4.1 1-2.7 2.2-5.4 3.6-8 .2.9.4 1.8.7 2.5-.4.5-.8 1-1.1 1.4zm1.8-2.3c-.1-1-.2-2.2-.3-3.6.4-.7.8-1.3 1.2-2v4.5c-.3.4-.6.8-.9 1.1zm2.1 5.6l-.9 1.2c.2-1.5.4-3.1.6-4.6.9-.8 1.8-1.7 2.8-2.4-.8 2-1.6 4-2.5 5.8zm3-8c-.9.7-1.9 1.5-3 2.2 0-.1 0-.2.1-.4.5-.6 1.1-1.2 1.7-1.7l1.7-1.7c-.2.7-.4 1.1-.5 1.6zm-2.3-1.3c.6-2.6 1.3-5.2 2.1-7.7 1-1.2 1.9-2.4 3-3.6v1.9c-1.1 3.3-2.9 6.4-5.1 9.4zm18-7.4c-.7-1.1-1.6-2.2-2.4-3.3.1-1.1.1-2.1.2-3.2l3.6 6.6c0 .7.1 1.4.1 2.2-.4-.8-.9-1.5-1.5-2.3zm1.4-2c-.8-2.1-1.5-4.3-1.8-6.5.5.4 1 .9 1.4 1.3.2 1.7.3 3.5.4 5.2zm7.3-6c-.1-.2-.2-.4-.2-.5.1.1.1.2.2.3v.2zm3.5-21.6c-.6-1.7-1.2-3.1-1.6-4.2.4.5.9 1.4 1.5 2.6.1.6.1 1.1.1 1.6zm6.4 8.1c-.5-1.8-1-3.6-1.5-5.1v-3.7c.3.7.6 1.4 1 2.3 0 2.1.1 4.3.5 6.5z"/>
</g>
</g>
</svg>
